%FSLAX42Y42*%
%MOMM*%
G71*
G01*
G75*
G04 Layer_Color=255*
%ADD10R,1.22X1.22*%
%ADD11R,1.22X1.22*%
%ADD12R,3.20X4.00*%
%ADD13R,1.27X1.27*%
%ADD14R,1.40X1.40*%
%ADD15O,0.25X1.75*%
%ADD16O,1.75X0.25*%
%ADD17O,1.20X0.35*%
%ADD18R,1.20X0.35*%
%ADD19O,0.35X1.20*%
%ADD20R,0.35X1.20*%
%ADD21R,0.60X1.20*%
%ADD22O,1.30X0.65*%
%ADD23R,1.30X0.65*%
%ADD24O,0.35X1.85*%
%ADD25R,1.27X1.27*%
%ADD26R,1.52X1.52*%
%ADD27C,0.25*%
%ADD28C,0.60*%
%ADD29C,2.00*%
%ADD30C,1.20*%
%ADD31C,0.50*%
%ADD32C,0.40*%
%ADD33C,1.30*%
%ADD34C,0.25*%
%ADD35C,0.35*%
%ADD36C,0.30*%
%ADD37C,0.80*%
%ADD38C,5.00*%
%ADD39C,5.00*%
%ADD40C,1.57*%
%ADD41P,1.70X8X292.5*%
%ADD42R,1.50X1.50*%
%ADD43C,1.50*%
%ADD44C,2.00*%
%ADD45R,2.00X2.00*%
%ADD46R,2.00X2.00*%
%ADD47C,1.52*%
%ADD48C,1.27*%
%ADD49C,1.10*%
%ADD50C,1.70*%
%ADD51R,1.20X0.60*%
%ADD52R,1.75X0.25*%
%ADD53R,0.25X1.75*%
%ADD54O,2.03X0.61*%
%ADD55R,0.69X0.99*%
%ADD56R,1.02X2.03*%
%ADD57R,5.59X8.64*%
%ADD58R,2.03X3.05*%
%ADD59R,3.05X2.03*%
%ADD60R,0.76X1.30*%
%ADD61C,1.00*%
D10*
X5956Y6566D02*
D03*
X6185D02*
D03*
X9693Y9808D02*
D03*
X9465D02*
D03*
X3962Y8255D02*
D03*
X3734D02*
D03*
X4483Y10274D02*
D03*
X4254D02*
D03*
X6820Y6756D02*
D03*
X6591D02*
D03*
X6820Y6553D02*
D03*
X6591D02*
D03*
X6566Y8534D02*
D03*
X6337D02*
D03*
X6566Y8738D02*
D03*
X6337D02*
D03*
X7912Y6553D02*
D03*
X7683D02*
D03*
X9563Y8585D02*
D03*
X9335D02*
D03*
X9563Y8788D02*
D03*
X9335D02*
D03*
X3962Y7849D02*
D03*
X3734D02*
D03*
X4166Y8141D02*
D03*
X4394D02*
D03*
X3734Y8052D02*
D03*
X3962D02*
D03*
X4394Y7899D02*
D03*
X4166D02*
D03*
X6185Y6769D02*
D03*
X5956D02*
D03*
X6960Y8700D02*
D03*
X7188D02*
D03*
X5309Y6909D02*
D03*
X5537D02*
D03*
Y8179D02*
D03*
X5766D02*
D03*
X5309Y6706D02*
D03*
X5537D02*
D03*
X5639Y8903D02*
D03*
X5867D02*
D03*
X5639Y9106D02*
D03*
X5867D02*
D03*
X5309Y7112D02*
D03*
X5537D02*
D03*
D11*
X9897Y9655D02*
D03*
Y9427D02*
D03*
X9262Y9439D02*
D03*
Y9668D02*
D03*
X7391Y9131D02*
D03*
Y8903D02*
D03*
X6972Y9550D02*
D03*
Y9322D02*
D03*
X7175Y8903D02*
D03*
Y9131D02*
D03*
X6972Y8903D02*
D03*
Y9131D02*
D03*
X7595Y9728D02*
D03*
Y9957D02*
D03*
Y9322D02*
D03*
Y9550D02*
D03*
X5753Y7976D02*
D03*
Y7747D02*
D03*
X5550Y7976D02*
D03*
Y7747D02*
D03*
X5347Y7976D02*
D03*
Y7747D02*
D03*
X7633Y7544D02*
D03*
Y7772D02*
D03*
X7836Y7544D02*
D03*
Y7772D02*
D03*
X8039Y7544D02*
D03*
Y7772D02*
D03*
X6388Y6540D02*
D03*
Y6769D02*
D03*
X6134Y8522D02*
D03*
Y8750D02*
D03*
X5855Y9538D02*
D03*
Y9309D02*
D03*
X5651D02*
D03*
Y9538D02*
D03*
X7175Y9550D02*
D03*
Y9322D02*
D03*
X5524Y7315D02*
D03*
Y7544D02*
D03*
X5728Y7315D02*
D03*
Y7544D02*
D03*
X7833Y7115D02*
D03*
Y7343D02*
D03*
X7633Y7112D02*
D03*
Y7341D02*
D03*
X7087Y6553D02*
D03*
Y6782D02*
D03*
X7391Y8712D02*
D03*
Y8484D02*
D03*
X5855Y8458D02*
D03*
Y8687D02*
D03*
X8344Y7582D02*
D03*
Y7353D02*
D03*
X5451Y11338D02*
D03*
Y11110D02*
D03*
X7290Y6553D02*
D03*
Y6782D02*
D03*
X7696Y5931D02*
D03*
Y6160D02*
D03*
X7493Y5931D02*
D03*
Y6160D02*
D03*
X7899Y5931D02*
D03*
Y6160D02*
D03*
X7290Y5829D02*
D03*
Y6058D02*
D03*
X7595Y8712D02*
D03*
Y8484D02*
D03*
X6769Y8496D02*
D03*
Y8725D02*
D03*
X6490Y6198D02*
D03*
Y5969D02*
D03*
X6287Y6198D02*
D03*
Y5969D02*
D03*
X9766Y8306D02*
D03*
Y8534D02*
D03*
Y8128D02*
D03*
Y7899D02*
D03*
X8344Y7785D02*
D03*
Y8014D02*
D03*
X9766Y7493D02*
D03*
Y7722D02*
D03*
X8344Y8420D02*
D03*
Y8192D02*
D03*
X8039Y6909D02*
D03*
Y7137D02*
D03*
X8446Y6706D02*
D03*
Y6934D02*
D03*
X9360Y10287D02*
D03*
Y10058D02*
D03*
X9563Y10287D02*
D03*
Y10058D02*
D03*
X5321Y7544D02*
D03*
Y7315D02*
D03*
X7391Y9550D02*
D03*
Y9322D02*
D03*
X5156Y9423D02*
D03*
Y9195D02*
D03*
X9157Y10287D02*
D03*
Y10058D02*
D03*
D13*
X6058Y9106D02*
D03*
Y9360D02*
D03*
X6769Y9347D02*
D03*
Y9106D02*
D03*
D38*
X3721Y12586D02*
D03*
X9868D02*
D03*
Y3874D02*
D03*
X3721D02*
D03*
D39*
X8867Y7034D02*
D03*
X8867Y4534D02*
D03*
X4735Y9296D02*
D03*
X4735Y6797D02*
D03*
D40*
X9009Y6198D02*
D03*
X8725Y5228D02*
D03*
X9009Y5366D02*
D03*
Y5643D02*
D03*
X8725Y5505D02*
D03*
Y5783D02*
D03*
Y6060D02*
D03*
X9009Y5920D02*
D03*
X4593Y7910D02*
D03*
X4877Y7770D02*
D03*
Y8048D02*
D03*
Y8325D02*
D03*
X4593Y8187D02*
D03*
Y8465D02*
D03*
X4877Y8602D02*
D03*
X4593Y7633D02*
D03*
D41*
X8725Y6337D02*
D03*
X4877Y7493D02*
D03*
D42*
X4216Y12141D02*
D03*
D43*
X4470D02*
D03*
X4724D02*
D03*
D44*
X8382Y9169D02*
D03*
X8636D02*
D03*
X8890D02*
D03*
X9144D02*
D03*
X9398D02*
D03*
X9652D02*
D03*
X3708Y5499D02*
D03*
Y5245D02*
D03*
X3696Y9804D02*
D03*
D45*
X9906Y9169D02*
D03*
D46*
X3708Y4991D02*
D03*
X3696Y10058D02*
D03*
D47*
X5070Y11122D02*
D03*
X4943Y10995D02*
D03*
X5070Y10868D02*
D03*
D51*
X9712Y9623D02*
D03*
Y9528D02*
D03*
Y9433D02*
D03*
X9446D02*
D03*
Y9623D02*
D03*
X7576Y9112D02*
D03*
Y8922D02*
D03*
X7842D02*
D03*
Y9017D02*
D03*
Y9112D02*
D03*
D52*
X7301Y7258D02*
D03*
Y7308D02*
D03*
Y7358D02*
D03*
Y7408D02*
D03*
Y7458D02*
D03*
Y7508D02*
D03*
Y7558D02*
D03*
Y7608D02*
D03*
Y7658D02*
D03*
Y7708D02*
D03*
Y7758D02*
D03*
Y7808D02*
D03*
Y7858D02*
D03*
Y7908D02*
D03*
Y7958D02*
D03*
Y8008D02*
D03*
X6059D02*
D03*
Y7958D02*
D03*
Y7908D02*
D03*
Y7858D02*
D03*
Y7808D02*
D03*
Y7758D02*
D03*
Y7708D02*
D03*
Y7658D02*
D03*
Y7608D02*
D03*
Y7558D02*
D03*
Y7508D02*
D03*
Y7458D02*
D03*
Y7408D02*
D03*
Y7358D02*
D03*
Y7308D02*
D03*
Y7258D02*
D03*
D53*
X7055Y8254D02*
D03*
X7005D02*
D03*
X6955D02*
D03*
X6905D02*
D03*
X6855D02*
D03*
X6805D02*
D03*
X6755D02*
D03*
X6705D02*
D03*
X6655D02*
D03*
X6605D02*
D03*
X6555D02*
D03*
X6505D02*
D03*
X6455D02*
D03*
X6405D02*
D03*
X6355D02*
D03*
X6305D02*
D03*
Y7012D02*
D03*
X6355D02*
D03*
X6405D02*
D03*
X6455D02*
D03*
X6505D02*
D03*
X6555D02*
D03*
X6605D02*
D03*
X6655D02*
D03*
X6705D02*
D03*
X6755D02*
D03*
X6805D02*
D03*
X6855D02*
D03*
X6905D02*
D03*
X6955D02*
D03*
X7005D02*
D03*
X7055D02*
D03*
D54*
X9538Y8268D02*
D03*
Y8141D02*
D03*
Y7760D02*
D03*
X8572Y7506D02*
D03*
Y8268D02*
D03*
X9538Y7506D02*
D03*
Y8014D02*
D03*
Y7887D02*
D03*
X8572Y7633D02*
D03*
Y8395D02*
D03*
X9538Y7633D02*
D03*
Y8395D02*
D03*
X8572Y7887D02*
D03*
Y8014D02*
D03*
Y7760D02*
D03*
Y8141D02*
D03*
D55*
X5651Y8687D02*
D03*
Y8433D02*
D03*
X5556D02*
D03*
X5461D02*
D03*
Y8687D02*
D03*
D56*
X4204Y7569D02*
D03*
X3747D02*
D03*
D57*
X3975Y6960D02*
D03*
D58*
X3988Y9817D02*
D03*
X4648D02*
D03*
D59*
X3975Y9360D02*
D03*
Y8700D02*
D03*
D60*
X6287Y8979D02*
D03*
X6414D02*
D03*
X6540D02*
D03*
X6287Y9487D02*
D03*
X6414D02*
D03*
X6540D02*
D03*
M02*
