%FSLAX42Y42*%
%MOMM*%
G71*
G01*
G75*
%ADD10R,1.22X1.22*%
%ADD11R,1.22X1.22*%
%ADD12R,3.20X4.00*%
%ADD13R,1.27X1.27*%
%ADD14R,1.40X1.40*%
%ADD15O,0.25X1.75*%
%ADD16O,1.75X0.25*%
%ADD17O,1.20X0.35*%
%ADD18R,1.20X0.35*%
%ADD19O,0.35X1.20*%
%ADD20R,0.35X1.20*%
%ADD21R,0.60X1.20*%
%ADD22O,1.30X0.65*%
%ADD23R,1.30X0.65*%
%ADD24O,0.35X1.85*%
%ADD25R,1.27X1.27*%
%ADD26R,1.52X1.52*%
%ADD27C,0.25*%
%ADD28C,0.60*%
%ADD29C,2.00*%
%ADD30C,1.20*%
%ADD31C,0.50*%
%ADD32C,0.40*%
%ADD33C,1.30*%
%ADD34C,0.25*%
%ADD35C,0.35*%
%ADD36C,0.30*%
%ADD37C,0.80*%
%ADD38C,5.00*%
%ADD39C,5.00*%
%ADD40C,1.57*%
%ADD41P,1.70X8X292.5*%
%ADD42R,1.50X1.50*%
%ADD43C,1.50*%
%ADD44C,2.00*%
%ADD45R,2.00X2.00*%
%ADD46R,2.00X2.00*%
%ADD47C,1.52*%
%ADD48C,1.27*%
%ADD49C,1.10*%
%ADD50C,1.70*%
%ADD51R,1.20X0.60*%
%ADD52R,1.75X0.25*%
%ADD53R,0.25X1.75*%
%ADD54O,2.03X0.61*%
%ADD55R,0.69X0.99*%
%ADD56R,1.02X2.03*%
%ADD57R,5.59X8.64*%
%ADD58R,2.03X3.05*%
%ADD59R,3.05X2.03*%
%ADD60R,0.76X1.30*%
%ADD61C,1.00*%
D10*
X9766Y10922D02*
D03*
X9995D02*
D03*
X6363Y11316D02*
D03*
X6591D02*
D03*
X6363Y10655D02*
D03*
X6591D02*
D03*
X9899Y10075D02*
D03*
X9670D02*
D03*
X9896Y10277D02*
D03*
X9668D02*
D03*
X6363Y11087D02*
D03*
X6591D02*
D03*
X7686Y10665D02*
D03*
X7915D02*
D03*
X9982Y11328D02*
D03*
X9754D02*
D03*
X9982Y11125D02*
D03*
X9754D02*
D03*
X6363Y10884D02*
D03*
X6591D02*
D03*
X6912Y11986D02*
D03*
X7140D02*
D03*
X3962Y5182D02*
D03*
X4191D02*
D03*
X3962Y5588D02*
D03*
X4191D02*
D03*
X6350D02*
D03*
X6579D02*
D03*
X6160Y5169D02*
D03*
X5931D02*
D03*
X5486Y4724D02*
D03*
X5715D02*
D03*
X3645Y4737D02*
D03*
X3874D02*
D03*
X5385Y5194D02*
D03*
X5156D02*
D03*
X7074Y5626D02*
D03*
X7303D02*
D03*
X7775Y11072D02*
D03*
X7547D02*
D03*
X8118Y10551D02*
D03*
X8347D02*
D03*
X9718Y10703D02*
D03*
X9947D02*
D03*
X7775Y11326D02*
D03*
X7547D02*
D03*
X7686Y10868D02*
D03*
X7915D02*
D03*
X5959Y12176D02*
D03*
X5731D02*
D03*
X6391D02*
D03*
X6162D02*
D03*
X9718Y11542D02*
D03*
X9947D02*
D03*
X9642Y11745D02*
D03*
X9871D02*
D03*
X6912Y12189D02*
D03*
X7140D02*
D03*
X6912Y11757D02*
D03*
X7140D02*
D03*
X7585D02*
D03*
X7356D02*
D03*
X3962Y5385D02*
D03*
X4191D02*
D03*
X5931Y5372D02*
D03*
X6160D02*
D03*
X5931Y5575D02*
D03*
X6160D02*
D03*
X5486Y4940D02*
D03*
X5715D02*
D03*
X7493Y5144D02*
D03*
X7722D02*
D03*
X6883Y6033D02*
D03*
X6655D02*
D03*
X6883Y5829D02*
D03*
X6655D02*
D03*
X9642Y12176D02*
D03*
X9871D02*
D03*
Y11948D02*
D03*
X9642D02*
D03*
X8067Y10030D02*
D03*
X7839D02*
D03*
X9947Y10500D02*
D03*
X9718D02*
D03*
X8242Y6058D02*
D03*
X8014D02*
D03*
X4140Y6261D02*
D03*
X3912D02*
D03*
D11*
X3747Y12217D02*
D03*
Y11989D02*
D03*
X5451Y10678D02*
D03*
Y10907D02*
D03*
X8026Y5423D02*
D03*
Y5194D02*
D03*
X5654Y10018D02*
D03*
Y10246D02*
D03*
X5451Y10018D02*
D03*
Y10246D02*
D03*
X5858D02*
D03*
Y10018D02*
D03*
X6746Y10246D02*
D03*
Y10018D02*
D03*
X6950D02*
D03*
Y10246D02*
D03*
X7978Y11097D02*
D03*
Y11326D02*
D03*
X5959Y11084D02*
D03*
Y11313D02*
D03*
X8871Y10053D02*
D03*
Y10282D02*
D03*
X9071Y10056D02*
D03*
Y10284D02*
D03*
X7191Y10653D02*
D03*
Y10881D02*
D03*
X6785Y11084D02*
D03*
Y11313D02*
D03*
X9274Y10056D02*
D03*
Y10284D02*
D03*
X9477Y10056D02*
D03*
Y10284D02*
D03*
X7191Y11313D02*
D03*
Y11084D02*
D03*
X4585Y11671D02*
D03*
Y11900D02*
D03*
X4791Y11897D02*
D03*
Y11668D02*
D03*
X5731Y11973D02*
D03*
Y11745D02*
D03*
X7343Y12189D02*
D03*
Y11961D02*
D03*
X5959Y10881D02*
D03*
Y10653D02*
D03*
X5956Y4293D02*
D03*
Y4521D02*
D03*
X4597Y4293D02*
D03*
Y4521D02*
D03*
X6785Y10881D02*
D03*
Y10653D02*
D03*
X6363Y5385D02*
D03*
Y5156D02*
D03*
X4267Y4724D02*
D03*
Y4953D02*
D03*
X4470D02*
D03*
Y4724D02*
D03*
X3912Y5829D02*
D03*
Y6058D02*
D03*
X5283Y4953D02*
D03*
Y4724D02*
D03*
X4750Y5829D02*
D03*
Y6058D02*
D03*
X7074Y5436D02*
D03*
Y5207D02*
D03*
X6756Y4724D02*
D03*
Y4953D02*
D03*
X8664Y10284D02*
D03*
Y10056D02*
D03*
X8462Y10282D02*
D03*
Y10053D02*
D03*
X8264Y10282D02*
D03*
Y10053D02*
D03*
X6160Y11316D02*
D03*
Y11087D02*
D03*
X6988Y11084D02*
D03*
Y11313D02*
D03*
X7915Y10233D02*
D03*
Y10462D02*
D03*
X7712Y10233D02*
D03*
Y10462D02*
D03*
X7508D02*
D03*
Y10233D02*
D03*
X8062Y11760D02*
D03*
Y11531D02*
D03*
X7864Y11757D02*
D03*
Y11529D02*
D03*
X6378Y11745D02*
D03*
Y11973D02*
D03*
X6175Y11745D02*
D03*
Y11973D02*
D03*
X5959Y11745D02*
D03*
Y11973D02*
D03*
X5210Y12100D02*
D03*
Y11872D02*
D03*
X5007D02*
D03*
Y12100D02*
D03*
X5451Y11338D02*
D03*
Y11110D02*
D03*
X8169Y12189D02*
D03*
Y11961D02*
D03*
X6162Y10653D02*
D03*
Y10881D02*
D03*
X8575Y12189D02*
D03*
Y11961D02*
D03*
X8372Y12189D02*
D03*
Y11961D02*
D03*
X7966Y12189D02*
D03*
Y11961D02*
D03*
X7762Y12189D02*
D03*
Y11961D02*
D03*
X7559Y12189D02*
D03*
Y11961D02*
D03*
X6160Y4521D02*
D03*
Y4293D02*
D03*
X4801Y4521D02*
D03*
Y4293D02*
D03*
X5753D02*
D03*
Y4521D02*
D03*
X5017Y4293D02*
D03*
Y4521D02*
D03*
X4394Y4293D02*
D03*
Y4521D02*
D03*
X3658Y4293D02*
D03*
Y4521D02*
D03*
X6988Y10881D02*
D03*
Y10653D02*
D03*
X9220Y11961D02*
D03*
Y12189D02*
D03*
X9423Y11961D02*
D03*
Y12189D02*
D03*
X8779D02*
D03*
Y11961D02*
D03*
X9020Y12189D02*
D03*
Y11961D02*
D03*
X5220Y4521D02*
D03*
Y4293D02*
D03*
X3861Y4521D02*
D03*
Y4293D02*
D03*
X6566Y5385D02*
D03*
Y5156D02*
D03*
X4064Y4953D02*
D03*
Y4724D02*
D03*
X4521Y5829D02*
D03*
Y6058D02*
D03*
X4318Y5829D02*
D03*
Y6058D02*
D03*
X4115D02*
D03*
Y5829D02*
D03*
X5791Y6058D02*
D03*
Y5829D02*
D03*
X5575Y6058D02*
D03*
Y5829D02*
D03*
X5169Y5397D02*
D03*
Y5626D02*
D03*
Y6058D02*
D03*
Y5829D02*
D03*
X4877Y4724D02*
D03*
Y4953D02*
D03*
X4674Y4724D02*
D03*
Y4953D02*
D03*
X4953Y6058D02*
D03*
Y5829D02*
D03*
X5080Y4953D02*
D03*
Y4724D02*
D03*
X5372Y5397D02*
D03*
Y5626D02*
D03*
X6147Y4953D02*
D03*
Y4724D02*
D03*
X5931Y4722D02*
D03*
Y4950D02*
D03*
X7290Y5385D02*
D03*
Y5156D02*
D03*
Y5829D02*
D03*
Y6058D02*
D03*
X7087Y5829D02*
D03*
Y6058D02*
D03*
X6350Y4724D02*
D03*
Y4953D02*
D03*
X6553Y4724D02*
D03*
Y4953D02*
D03*
X7163Y4724D02*
D03*
Y4953D02*
D03*
X6960Y4724D02*
D03*
Y4953D02*
D03*
X8026D02*
D03*
Y4724D02*
D03*
X8230D02*
D03*
Y4953D02*
D03*
X8026Y5855D02*
D03*
Y5626D02*
D03*
X8230Y5855D02*
D03*
Y5626D02*
D03*
Y5423D02*
D03*
Y5194D02*
D03*
X5372Y5829D02*
D03*
Y6058D02*
D03*
D12*
X4648Y9931D02*
D03*
X4089D02*
D03*
D13*
X8141Y7290D02*
D03*
X8357D02*
D03*
X8141Y7049D02*
D03*
X8357D02*
D03*
X5258Y6820D02*
D03*
X5474D02*
D03*
X5258Y6582D02*
D03*
X5473D02*
D03*
D14*
X7950Y8560D02*
D03*
X7137D02*
D03*
X7950Y8979D02*
D03*
X7137D02*
D03*
D15*
X8454Y11680D02*
D03*
X8504D02*
D03*
X8554D02*
D03*
X8604D02*
D03*
X8654D02*
D03*
X8704D02*
D03*
X8754D02*
D03*
X8804D02*
D03*
X8854D02*
D03*
X8904D02*
D03*
X8954D02*
D03*
X9004D02*
D03*
X9054D02*
D03*
X9104D02*
D03*
X9154D02*
D03*
X9204D02*
D03*
Y10565D02*
D03*
X9154D02*
D03*
X9104D02*
D03*
X9054D02*
D03*
X9004D02*
D03*
X8954D02*
D03*
X8904D02*
D03*
X8854D02*
D03*
X8804D02*
D03*
X8754D02*
D03*
X8704D02*
D03*
X8654D02*
D03*
X8604D02*
D03*
X8554D02*
D03*
X8504D02*
D03*
X8454D02*
D03*
D16*
X9387Y11497D02*
D03*
Y11447D02*
D03*
Y11397D02*
D03*
Y11347D02*
D03*
Y11297D02*
D03*
Y11247D02*
D03*
Y11197D02*
D03*
Y11147D02*
D03*
Y11097D02*
D03*
Y11047D02*
D03*
Y10997D02*
D03*
Y10947D02*
D03*
Y10897D02*
D03*
Y10847D02*
D03*
Y10797D02*
D03*
Y10747D02*
D03*
X8272D02*
D03*
Y10797D02*
D03*
Y10847D02*
D03*
Y10897D02*
D03*
Y10947D02*
D03*
Y10997D02*
D03*
Y11047D02*
D03*
Y11097D02*
D03*
Y11147D02*
D03*
Y11197D02*
D03*
Y11247D02*
D03*
Y11297D02*
D03*
Y11347D02*
D03*
Y11397D02*
D03*
Y11447D02*
D03*
Y11497D02*
D03*
D17*
X6543Y10289D02*
D03*
Y10224D02*
D03*
Y10159D02*
D03*
X6061Y10284D02*
D03*
Y10157D02*
D03*
Y10094D02*
D03*
Y10221D02*
D03*
X6452Y6037D02*
D03*
Y5972D02*
D03*
Y5907D02*
D03*
X5969Y6033D02*
D03*
Y5906D02*
D03*
Y5842D02*
D03*
Y5969D02*
D03*
X7836Y4932D02*
D03*
Y4867D02*
D03*
Y4802D02*
D03*
X7353Y4928D02*
D03*
Y4801D02*
D03*
Y4737D02*
D03*
Y4864D02*
D03*
D18*
X6543Y10094D02*
D03*
X6452Y5842D02*
D03*
X7836Y4737D02*
D03*
D19*
X6551Y12215D02*
D03*
X6617D02*
D03*
X6681D02*
D03*
X6556Y11732D02*
D03*
X6683D02*
D03*
X6746D02*
D03*
X6619D02*
D03*
X5799Y10741D02*
D03*
X5733D02*
D03*
X5669D02*
D03*
X5794Y11224D02*
D03*
X5667D02*
D03*
X5603D02*
D03*
X5731D02*
D03*
X5557Y11745D02*
D03*
X5492D02*
D03*
X5427D02*
D03*
X5553Y12227D02*
D03*
X5426D02*
D03*
X5362D02*
D03*
X5489D02*
D03*
X5770Y5144D02*
D03*
X5705D02*
D03*
X5640D02*
D03*
X5766Y5626D02*
D03*
X5639D02*
D03*
X5575D02*
D03*
X5702D02*
D03*
X6845D02*
D03*
X6718D02*
D03*
X6782D02*
D03*
X6909D02*
D03*
X6783Y5144D02*
D03*
X6848D02*
D03*
X6913D02*
D03*
D20*
X6746Y12215D02*
D03*
X5603Y10741D02*
D03*
X5362Y11745D02*
D03*
X5575Y5144D02*
D03*
X6718D02*
D03*
D21*
X5581Y4540D02*
D03*
X5486D02*
D03*
X5391D02*
D03*
Y4274D02*
D03*
X5581D02*
D03*
X4222Y4540D02*
D03*
X4128D02*
D03*
X4033D02*
D03*
Y4274D02*
D03*
X4222D02*
D03*
D22*
X4953Y5448D02*
D03*
X4384Y5194D02*
D03*
Y5575D02*
D03*
X4953D02*
D03*
X4384Y5448D02*
D03*
X4953Y5321D02*
D03*
X4384D02*
D03*
D23*
X4953Y5194D02*
D03*
D24*
X7436Y5384D02*
D03*
X7499D02*
D03*
X7563D02*
D03*
X7626D02*
D03*
X7690D02*
D03*
X7753D02*
D03*
X7817D02*
D03*
X7880D02*
D03*
X7436Y5944D02*
D03*
X7499D02*
D03*
X7563D02*
D03*
X7626D02*
D03*
X7690D02*
D03*
X7753D02*
D03*
X7817D02*
D03*
X7880D02*
D03*
D25*
X5004Y9817D02*
D03*
Y10033D02*
D03*
D26*
X3683Y5867D02*
D03*
Y6210D02*
D03*
D38*
X3721Y12586D02*
D03*
X9868D02*
D03*
Y3874D02*
D03*
X3721D02*
D03*
D39*
X8867Y7034D02*
D03*
X8867Y4534D02*
D03*
X4735Y9296D02*
D03*
X4735Y6797D02*
D03*
D40*
X9009Y6198D02*
D03*
X8725Y5228D02*
D03*
X9009Y5366D02*
D03*
Y5643D02*
D03*
X8725Y5505D02*
D03*
Y5783D02*
D03*
Y6060D02*
D03*
X9009Y5920D02*
D03*
X4593Y7910D02*
D03*
X4877Y7770D02*
D03*
Y8048D02*
D03*
Y8325D02*
D03*
X4593Y8187D02*
D03*
Y8465D02*
D03*
X4877Y8602D02*
D03*
X4593Y7633D02*
D03*
D41*
X8725Y6337D02*
D03*
X4877Y7493D02*
D03*
D42*
X4216Y12141D02*
D03*
D43*
X4470D02*
D03*
X4724D02*
D03*
D44*
X8382Y9169D02*
D03*
X8636D02*
D03*
X8890D02*
D03*
X9144D02*
D03*
X9398D02*
D03*
X9652D02*
D03*
X3708Y5499D02*
D03*
Y5245D02*
D03*
X3696Y9804D02*
D03*
D45*
X9906Y9169D02*
D03*
D46*
X3708Y4991D02*
D03*
X3696Y10058D02*
D03*
D47*
X5070Y11122D02*
D03*
X4943Y10995D02*
D03*
X5070Y10868D02*
D03*
M02*
