%FSLAX42Y42*%
%MOMM*%
G71*
G01*
G75*
G04 Layer_Physical_Order=2*
G04 Layer_Color=36540*
%ADD10R,1.22X1.22*%
%ADD11R,1.22X1.22*%
%ADD12R,3.20X4.00*%
%ADD13R,1.27X1.27*%
%ADD14R,1.40X1.40*%
%ADD15O,0.25X1.75*%
%ADD16O,1.75X0.25*%
%ADD17O,1.20X0.35*%
%ADD18R,1.20X0.35*%
%ADD19O,0.35X1.20*%
%ADD20R,0.35X1.20*%
%ADD21R,0.60X1.20*%
%ADD22O,1.30X0.65*%
%ADD23R,1.30X0.65*%
%ADD24O,0.35X1.85*%
%ADD25R,1.27X1.27*%
%ADD26R,1.52X1.52*%
%ADD27C,0.25*%
%ADD28C,0.60*%
%ADD29C,2.00*%
%ADD30C,1.20*%
%ADD31C,0.50*%
%ADD32C,0.40*%
%ADD33C,1.30*%
%ADD34C,0.25*%
%ADD35C,0.35*%
%ADD36C,0.30*%
%ADD37C,0.80*%
%ADD38C,5.00*%
%ADD39C,5.00*%
%ADD40C,1.57*%
%ADD41P,1.70X8X292.5*%
%ADD42R,1.50X1.50*%
%ADD43C,1.50*%
%ADD44C,2.00*%
%ADD45R,2.00X2.00*%
%ADD46R,2.00X2.00*%
%ADD47C,1.52*%
%ADD48C,1.27*%
%ADD49C,1.10*%
%ADD50C,1.70*%
G36*
X9801Y12852D02*
X9783Y12848D01*
X9743Y12831D01*
X9706Y12809D01*
X9673Y12781D01*
X9645Y12748D01*
X9622Y12711D01*
X9606Y12671D01*
X9595Y12629D01*
X9592Y12586D01*
X9595Y12543D01*
X9606Y12500D01*
X9622Y12460D01*
X9645Y12424D01*
X9673Y12391D01*
X9706Y12363D01*
X9743Y12340D01*
X9783Y12323D01*
X9825Y12313D01*
X9868Y12310D01*
X9911Y12313D01*
X9953Y12323D01*
X9993Y12340D01*
X10030Y12363D01*
X10063Y12391D01*
X10091Y12424D01*
X10114Y12460D01*
X10130Y12500D01*
X10135Y12519D01*
X10147Y12517D01*
Y3942D01*
X10135Y3940D01*
X10130Y3959D01*
X10114Y3999D01*
X10091Y4036D01*
X10063Y4069D01*
X10030Y4097D01*
X9993Y4119D01*
X9953Y4136D01*
X9911Y4146D01*
X9868Y4149D01*
X9825Y4146D01*
X9783Y4136D01*
X9743Y4119D01*
X9706Y4097D01*
X9673Y4069D01*
X9645Y4036D01*
X9622Y3999D01*
X9606Y3959D01*
X9595Y3917D01*
X9592Y3874D01*
X9595Y3830D01*
X9606Y3788D01*
X9622Y3748D01*
X9645Y3711D01*
X9673Y3678D01*
X9706Y3650D01*
X9743Y3628D01*
X9783Y3611D01*
X9801Y3607D01*
X9800Y3594D01*
X3789D01*
X3788Y3607D01*
X3806Y3611D01*
X3846Y3628D01*
X3883Y3650D01*
X3916Y3678D01*
X3944Y3711D01*
X3967Y3748D01*
X3983Y3788D01*
X3994Y3830D01*
X3997Y3874D01*
X3994Y3917D01*
X3983Y3959D01*
X3967Y3999D01*
X3944Y4036D01*
X3916Y4069D01*
X3883Y4097D01*
X3846Y4119D01*
X3806Y4136D01*
X3764Y4146D01*
X3721Y4149D01*
X3678Y4146D01*
X3636Y4136D01*
X3596Y4119D01*
X3559Y4097D01*
X3526Y4069D01*
X3498Y4036D01*
X3475Y3999D01*
X3459Y3959D01*
X3454Y3940D01*
X3442Y3942D01*
Y12517D01*
X3454Y12519D01*
X3459Y12500D01*
X3475Y12460D01*
X3498Y12424D01*
X3526Y12391D01*
X3559Y12363D01*
X3596Y12340D01*
X3636Y12323D01*
X3678Y12313D01*
X3721Y12310D01*
X3764Y12313D01*
X3806Y12323D01*
X3846Y12340D01*
X3883Y12363D01*
X3916Y12391D01*
X3944Y12424D01*
X3967Y12460D01*
X3983Y12500D01*
X3994Y12543D01*
X3997Y12586D01*
X3994Y12629D01*
X3983Y12671D01*
X3967Y12711D01*
X3944Y12748D01*
X3916Y12781D01*
X3883Y12809D01*
X3846Y12831D01*
X3806Y12848D01*
X3788Y12852D01*
X3789Y12865D01*
X9800D01*
X9801Y12852D01*
D02*
G37*
%LPC*%
G36*
X5740Y6795D02*
X5717Y6792D01*
X5696Y6783D01*
X5677Y6769D01*
X5663Y6750D01*
X5654Y6729D01*
X5651Y6706D01*
X5654Y6682D01*
X5663Y6661D01*
X5677Y6642D01*
X5694Y6629D01*
Y6617D01*
X5677Y6604D01*
X5663Y6585D01*
X5654Y6564D01*
X5651Y6540D01*
X5654Y6517D01*
X5663Y6496D01*
X5677Y6477D01*
X5696Y6463D01*
X5717Y6454D01*
X5740Y6451D01*
X5764Y6454D01*
X5785Y6463D01*
X5804Y6477D01*
X5818Y6496D01*
X5827Y6517D01*
X5830Y6540D01*
X5827Y6564D01*
X5818Y6585D01*
X5804Y6604D01*
X5786Y6617D01*
Y6629D01*
X5804Y6642D01*
X5818Y6661D01*
X5827Y6682D01*
X5830Y6706D01*
X5827Y6729D01*
X5818Y6750D01*
X5804Y6769D01*
X5785Y6783D01*
X5764Y6792D01*
X5740Y6795D01*
D02*
G37*
G36*
X4394Y6566D02*
X4371Y6563D01*
X4350Y6554D01*
X4331Y6540D01*
X4317Y6522D01*
X4308Y6500D01*
X4305Y6477D01*
X4308Y6454D01*
X4317Y6432D01*
X4331Y6414D01*
X4350Y6400D01*
X4371Y6391D01*
X4394Y6388D01*
X4417Y6391D01*
X4439Y6400D01*
X4457Y6414D01*
X4472Y6432D01*
X4480Y6454D01*
X4483Y6477D01*
X4480Y6500D01*
X4472Y6522D01*
X4457Y6540D01*
X4439Y6554D01*
X4417Y6563D01*
X4394Y6566D01*
D02*
G37*
G36*
X6591Y6642D02*
X6568Y6639D01*
X6547Y6631D01*
X6528Y6616D01*
X6514Y6598D01*
X6505Y6576D01*
X6502Y6553D01*
X6505Y6530D01*
X6514Y6509D01*
X6528Y6490D01*
X6547Y6476D01*
X6568Y6467D01*
X6591Y6464D01*
X6614Y6467D01*
X6636Y6476D01*
X6654Y6490D01*
X6669Y6509D01*
X6678Y6530D01*
X6681Y6553D01*
X6678Y6576D01*
X6669Y6598D01*
X6654Y6616D01*
X6636Y6631D01*
X6614Y6639D01*
X6591Y6642D01*
D02*
G37*
G36*
X5055Y6681D02*
X5031Y6678D01*
X5010Y6669D01*
X4991Y6654D01*
X4977Y6636D01*
X4968Y6614D01*
X4965Y6591D01*
X4968Y6568D01*
X4977Y6547D01*
X4991Y6528D01*
X5010Y6514D01*
X5031Y6505D01*
X5055Y6502D01*
X5078Y6505D01*
X5099Y6514D01*
X5118Y6528D01*
X5132Y6547D01*
X5141Y6568D01*
X5144Y6591D01*
X5141Y6614D01*
X5132Y6636D01*
X5118Y6654D01*
X5099Y6669D01*
X5078Y6678D01*
X5055Y6681D01*
D02*
G37*
G36*
X7315Y6642D02*
X7292Y6639D01*
X7271Y6631D01*
X7252Y6616D01*
X7238Y6598D01*
X7229Y6576D01*
X7226Y6553D01*
X7229Y6530D01*
X7238Y6509D01*
X7252Y6490D01*
X7271Y6476D01*
X7292Y6467D01*
X7315Y6464D01*
X7338Y6467D01*
X7360Y6476D01*
X7378Y6490D01*
X7393Y6509D01*
X7401Y6530D01*
X7404Y6553D01*
X7401Y6576D01*
X7393Y6598D01*
X7378Y6616D01*
X7360Y6631D01*
X7338Y6639D01*
X7315Y6642D01*
D02*
G37*
G36*
X8777Y6441D02*
X8673D01*
X8621Y6389D01*
Y6285D01*
X8673Y6234D01*
X8777D01*
X8829Y6285D01*
Y6389D01*
X8777Y6441D01*
D02*
G37*
G36*
X6490Y6287D02*
X6467Y6284D01*
X6445Y6275D01*
X6427Y6261D01*
X6412Y6242D01*
X6403Y6221D01*
X6400Y6198D01*
X6403Y6174D01*
X6412Y6153D01*
X6427Y6134D01*
X6445Y6120D01*
X6467Y6111D01*
X6490Y6108D01*
X6513Y6111D01*
X6534Y6120D01*
X6553Y6134D01*
X6567Y6153D01*
X6576Y6174D01*
X6579Y6198D01*
X6576Y6221D01*
X6567Y6242D01*
X6553Y6261D01*
X6534Y6275D01*
X6513Y6284D01*
X6490Y6287D01*
D02*
G37*
G36*
X9009Y6302D02*
X8981Y6299D01*
X8956Y6288D01*
X8935Y6272D01*
X8918Y6250D01*
X8907Y6225D01*
X8904Y6198D01*
X8907Y6171D01*
X8918Y6145D01*
X8935Y6124D01*
X8956Y6107D01*
X8981Y6097D01*
X9009Y6093D01*
X9036Y6097D01*
X9061Y6107D01*
X9083Y6124D01*
X9099Y6145D01*
X9110Y6171D01*
X9113Y6198D01*
X9110Y6225D01*
X9099Y6250D01*
X9083Y6272D01*
X9061Y6288D01*
X9036Y6299D01*
X9009Y6302D01*
D02*
G37*
G36*
X3683Y6300D02*
X3660Y6297D01*
X3638Y6288D01*
X3620Y6273D01*
X3606Y6255D01*
X3597Y6233D01*
X3594Y6210D01*
X3597Y6187D01*
X3606Y6166D01*
X3620Y6147D01*
X3638Y6133D01*
X3660Y6124D01*
X3683Y6121D01*
X3706Y6124D01*
X3728Y6133D01*
X3746Y6147D01*
X3760Y6166D01*
X3769Y6187D01*
X3772Y6210D01*
X3769Y6233D01*
X3760Y6255D01*
X3746Y6273D01*
X3728Y6288D01*
X3706Y6297D01*
X3683Y6300D01*
D02*
G37*
G36*
X3912Y6350D02*
X3888Y6347D01*
X3867Y6338D01*
X3848Y6324D01*
X3834Y6306D01*
X3825Y6284D01*
X3822Y6261D01*
X3825Y6238D01*
X3834Y6216D01*
X3848Y6198D01*
X3867Y6184D01*
X3888Y6175D01*
X3912Y6172D01*
X3935Y6175D01*
X3956Y6184D01*
X3975Y6198D01*
X3989Y6216D01*
X3998Y6238D01*
X4001Y6261D01*
X3998Y6284D01*
X3989Y6306D01*
X3975Y6324D01*
X3956Y6338D01*
X3935Y6347D01*
X3912Y6350D01*
D02*
G37*
G36*
X6109Y6300D02*
X6086Y6297D01*
X6064Y6288D01*
X6046Y6273D01*
X6031Y6255D01*
X6022Y6233D01*
X6019Y6210D01*
X6022Y6187D01*
X6031Y6166D01*
X6046Y6147D01*
X6064Y6133D01*
X6086Y6124D01*
X6109Y6121D01*
X6132Y6124D01*
X6153Y6133D01*
X6172Y6147D01*
X6186Y6166D01*
X6195Y6187D01*
X6198Y6210D01*
X6195Y6233D01*
X6186Y6255D01*
X6172Y6273D01*
X6153Y6288D01*
X6132Y6297D01*
X6109Y6300D01*
D02*
G37*
G36*
X4735Y7072D02*
X4692Y7069D01*
X4650Y7059D01*
X4610Y7042D01*
X4573Y7020D01*
X4540Y6992D01*
X4512Y6959D01*
X4489Y6922D01*
X4473Y6882D01*
X4463Y6840D01*
X4459Y6797D01*
X4463Y6754D01*
X4473Y6711D01*
X4489Y6671D01*
X4512Y6635D01*
X4540Y6602D01*
X4573Y6574D01*
X4610Y6551D01*
X4650Y6534D01*
X4692Y6524D01*
X4735Y6521D01*
X4778Y6524D01*
X4820Y6534D01*
X4860Y6551D01*
X4897Y6574D01*
X4930Y6602D01*
X4958Y6635D01*
X4981Y6671D01*
X4997Y6711D01*
X5007Y6754D01*
X5011Y6797D01*
X5007Y6840D01*
X4997Y6882D01*
X4981Y6922D01*
X4958Y6959D01*
X4930Y6992D01*
X4897Y7020D01*
X4860Y7042D01*
X4820Y7059D01*
X4778Y7069D01*
X4735Y7072D01*
D02*
G37*
G36*
X8204Y7265D02*
X8181Y7262D01*
X8160Y7253D01*
X8141Y7239D01*
X8127Y7220D01*
X8118Y7199D01*
X8115Y7175D01*
X8118Y7152D01*
X8127Y7131D01*
X8141Y7112D01*
X8160Y7098D01*
X8181Y7089D01*
X8204Y7086D01*
X8227Y7089D01*
X8249Y7098D01*
X8267Y7112D01*
X8282Y7131D01*
X8290Y7152D01*
X8293Y7175D01*
X8290Y7199D01*
X8282Y7220D01*
X8267Y7239D01*
X8249Y7253D01*
X8227Y7262D01*
X8204Y7265D01*
D02*
G37*
G36*
X5994Y7201D02*
X5971Y7198D01*
X5950Y7189D01*
X5931Y7175D01*
X5917Y7157D01*
X5908Y7135D01*
X5905Y7112D01*
X5908Y7089D01*
X5917Y7067D01*
X5931Y7049D01*
X5950Y7035D01*
X5971Y7026D01*
X5994Y7023D01*
X6018Y7026D01*
X6039Y7035D01*
X6058Y7049D01*
X6072Y7067D01*
X6081Y7089D01*
X6084Y7112D01*
X6081Y7135D01*
X6072Y7157D01*
X6058Y7175D01*
X6039Y7189D01*
X6018Y7198D01*
X5994Y7201D01*
D02*
G37*
G36*
X6756Y7277D02*
X6733Y7274D01*
X6712Y7266D01*
X6693Y7251D01*
X6679Y7233D01*
X6670Y7211D01*
X6667Y7188D01*
X6670Y7165D01*
X6679Y7144D01*
X6693Y7125D01*
X6712Y7111D01*
X6733Y7102D01*
X6756Y7099D01*
X6780Y7102D01*
X6801Y7111D01*
X6820Y7125D01*
X6834Y7144D01*
X6843Y7165D01*
X6846Y7188D01*
X6843Y7211D01*
X6834Y7233D01*
X6820Y7251D01*
X6801Y7266D01*
X6780Y7274D01*
X6756Y7277D01*
D02*
G37*
G36*
X4394Y7341D02*
X4371Y7338D01*
X4350Y7329D01*
X4331Y7315D01*
X4317Y7296D01*
X4308Y7275D01*
X4305Y7252D01*
X4308Y7229D01*
X4317Y7207D01*
X4331Y7189D01*
X4350Y7174D01*
X4371Y7165D01*
X4394Y7162D01*
X4417Y7165D01*
X4439Y7174D01*
X4457Y7189D01*
X4472Y7207D01*
X4480Y7229D01*
X4483Y7252D01*
X4480Y7275D01*
X4472Y7296D01*
X4457Y7315D01*
X4439Y7329D01*
X4417Y7338D01*
X4394Y7341D01*
D02*
G37*
G36*
X7988Y7277D02*
X7965Y7274D01*
X7944Y7266D01*
X7925Y7251D01*
X7911Y7233D01*
X7902Y7211D01*
X7899Y7188D01*
X7902Y7165D01*
X7911Y7144D01*
X7925Y7125D01*
X7944Y7111D01*
X7965Y7102D01*
X7988Y7099D01*
X8011Y7102D01*
X8033Y7111D01*
X8051Y7125D01*
X8066Y7144D01*
X8075Y7165D01*
X8078Y7188D01*
X8075Y7211D01*
X8066Y7233D01*
X8051Y7251D01*
X8033Y7266D01*
X8011Y7274D01*
X7988Y7277D01*
D02*
G37*
G36*
X5817Y7100D02*
X5793Y7097D01*
X5772Y7088D01*
X5753Y7074D01*
X5739Y7055D01*
X5730Y7034D01*
X5727Y7010D01*
X5730Y6987D01*
X5739Y6966D01*
X5753Y6947D01*
X5772Y6933D01*
X5793Y6924D01*
X5817Y6921D01*
X5840Y6924D01*
X5861Y6933D01*
X5880Y6947D01*
X5894Y6966D01*
X5903Y6987D01*
X5906Y7010D01*
X5903Y7034D01*
X5894Y7055D01*
X5880Y7074D01*
X5861Y7088D01*
X5840Y7097D01*
X5817Y7100D01*
D02*
G37*
G36*
X8867Y7309D02*
X8824Y7306D01*
X8782Y7296D01*
X8742Y7279D01*
X8705Y7257D01*
X8672Y7229D01*
X8644Y7196D01*
X8621Y7159D01*
X8605Y7119D01*
X8594Y7077D01*
X8591Y7034D01*
X8594Y6991D01*
X8605Y6949D01*
X8621Y6909D01*
X8644Y6872D01*
X8672Y6839D01*
X8705Y6811D01*
X8742Y6788D01*
X8782Y6772D01*
X8824Y6761D01*
X8867Y6758D01*
X8910Y6761D01*
X8952Y6772D01*
X8992Y6788D01*
X9029Y6811D01*
X9062Y6839D01*
X9090Y6872D01*
X9112Y6909D01*
X9129Y6949D01*
X9139Y6991D01*
X9142Y7034D01*
X9139Y7077D01*
X9129Y7119D01*
X9112Y7159D01*
X9090Y7196D01*
X9062Y7229D01*
X9029Y7257D01*
X8992Y7279D01*
X8952Y7296D01*
X8910Y7306D01*
X8867Y7309D01*
D02*
G37*
G36*
X8217Y6985D02*
X8194Y6982D01*
X8172Y6973D01*
X8154Y6959D01*
X8140Y6941D01*
X8131Y6919D01*
X8128Y6896D01*
X8131Y6873D01*
X8140Y6851D01*
X8154Y6833D01*
X8172Y6819D01*
X8185Y6814D01*
Y6801D01*
X8172Y6796D01*
X8154Y6781D01*
X8140Y6763D01*
X8131Y6741D01*
X8128Y6718D01*
X8131Y6695D01*
X8140Y6674D01*
X8154Y6655D01*
X8172Y6641D01*
X8194Y6632D01*
X8217Y6629D01*
X8240Y6632D01*
X8262Y6641D01*
X8280Y6655D01*
X8294Y6674D01*
X8303Y6695D01*
X8306Y6718D01*
X8303Y6741D01*
X8294Y6763D01*
X8280Y6781D01*
X8262Y6796D01*
X8249Y6801D01*
Y6814D01*
X8262Y6819D01*
X8280Y6833D01*
X8294Y6851D01*
X8303Y6873D01*
X8306Y6896D01*
X8303Y6919D01*
X8294Y6941D01*
X8280Y6959D01*
X8262Y6973D01*
X8240Y6982D01*
X8217Y6985D01*
D02*
G37*
G36*
X7887Y6846D02*
X7864Y6843D01*
X7842Y6834D01*
X7824Y6820D01*
X7809Y6801D01*
X7800Y6780D01*
X7799Y6769D01*
X7787Y6766D01*
X7785Y6769D01*
X7766Y6783D01*
X7745Y6792D01*
X7722Y6795D01*
X7698Y6792D01*
X7677Y6783D01*
X7658Y6769D01*
X7644Y6750D01*
X7635Y6729D01*
X7632Y6706D01*
X7635Y6682D01*
X7644Y6661D01*
X7658Y6642D01*
X7677Y6628D01*
X7698Y6619D01*
X7722Y6616D01*
X7745Y6619D01*
X7766Y6628D01*
X7785Y6642D01*
X7799Y6661D01*
X7808Y6682D01*
X7809Y6693D01*
X7821Y6696D01*
X7824Y6693D01*
X7842Y6679D01*
X7864Y6670D01*
X7887Y6667D01*
X7910Y6670D01*
X7931Y6679D01*
X7950Y6693D01*
X7964Y6712D01*
X7973Y6733D01*
X7976Y6756D01*
X7973Y6780D01*
X7964Y6801D01*
X7950Y6820D01*
X7931Y6834D01*
X7910Y6843D01*
X7887Y6846D01*
D02*
G37*
G36*
X4394Y7087D02*
X4371Y7084D01*
X4350Y7075D01*
X4331Y7061D01*
X4317Y7042D01*
X4308Y7021D01*
X4305Y6998D01*
X4308Y6975D01*
X4317Y6953D01*
X4331Y6935D01*
X4350Y6920D01*
X4371Y6911D01*
X4394Y6908D01*
X4417Y6911D01*
X4439Y6920D01*
X4457Y6935D01*
X4472Y6953D01*
X4480Y6975D01*
X4483Y6998D01*
X4480Y7021D01*
X4472Y7042D01*
X4457Y7061D01*
X4439Y7075D01*
X4417Y7084D01*
X4394Y7087D01*
D02*
G37*
G36*
X8446Y7074D02*
X8422Y7071D01*
X8401Y7062D01*
X8382Y7048D01*
X8368Y7030D01*
X8359Y7008D01*
X8356Y6985D01*
X8359Y6962D01*
X8368Y6940D01*
X8382Y6922D01*
X8401Y6908D01*
X8422Y6899D01*
X8446Y6896D01*
X8469Y6899D01*
X8490Y6908D01*
X8509Y6922D01*
X8523Y6940D01*
X8532Y6962D01*
X8535Y6985D01*
X8532Y7008D01*
X8523Y7030D01*
X8509Y7048D01*
X8490Y7062D01*
X8469Y7071D01*
X8446Y7074D01*
D02*
G37*
G36*
X8039Y6147D02*
X8016Y6144D01*
X7994Y6135D01*
X7976Y6121D01*
X7962Y6103D01*
X7953Y6081D01*
X7950Y6058D01*
X7953Y6035D01*
X7962Y6013D01*
X7976Y5995D01*
X7994Y5981D01*
X8016Y5972D01*
X8039Y5969D01*
X8062Y5972D01*
X8084Y5981D01*
X8102Y5995D01*
X8116Y6013D01*
X8125Y6035D01*
X8128Y6058D01*
X8125Y6081D01*
X8116Y6103D01*
X8102Y6121D01*
X8084Y6135D01*
X8062Y6144D01*
X8039Y6147D01*
D02*
G37*
G36*
X3975Y5271D02*
X3952Y5268D01*
X3930Y5259D01*
X3912Y5245D01*
X3898Y5226D01*
X3889Y5205D01*
X3886Y5182D01*
X3889Y5158D01*
X3898Y5137D01*
X3912Y5118D01*
X3930Y5104D01*
X3952Y5095D01*
X3975Y5092D01*
X3998Y5095D01*
X4020Y5104D01*
X4038Y5118D01*
X4052Y5137D01*
X4061Y5158D01*
X4064Y5182D01*
X4061Y5205D01*
X4052Y5226D01*
X4038Y5245D01*
X4020Y5259D01*
X3998Y5268D01*
X3975Y5271D01*
D02*
G37*
G36*
X7722Y5233D02*
X7698Y5230D01*
X7677Y5221D01*
X7658Y5207D01*
X7644Y5188D01*
X7635Y5167D01*
X7632Y5144D01*
X7635Y5120D01*
X7644Y5099D01*
X7658Y5080D01*
X7677Y5066D01*
X7698Y5057D01*
X7722Y5054D01*
X7745Y5057D01*
X7766Y5066D01*
X7785Y5080D01*
X7799Y5099D01*
X7808Y5120D01*
X7811Y5144D01*
X7808Y5167D01*
X7799Y5188D01*
X7785Y5207D01*
X7766Y5221D01*
X7745Y5230D01*
X7722Y5233D01*
D02*
G37*
G36*
X3708Y5625D02*
X3676Y5621D01*
X3645Y5608D01*
X3619Y5588D01*
X3599Y5562D01*
X3587Y5532D01*
X3582Y5499D01*
X3587Y5466D01*
X3599Y5436D01*
X3619Y5410D01*
X3645Y5390D01*
X3673Y5378D01*
Y5377D01*
X3673D01*
Y5367D01*
Y5367D01*
D01*
D01*
X3673D01*
D01*
Y5366D01*
X3645Y5354D01*
X3619Y5334D01*
X3599Y5308D01*
X3587Y5278D01*
X3582Y5245D01*
X3587Y5212D01*
X3599Y5182D01*
X3619Y5156D01*
X3645Y5136D01*
X3676Y5123D01*
X3708Y5119D01*
X3741Y5123D01*
X3771Y5136D01*
X3798Y5156D01*
X3818Y5182D01*
X3830Y5212D01*
X3834Y5245D01*
X3830Y5278D01*
X3818Y5308D01*
X3798Y5334D01*
X3771Y5354D01*
X3744Y5366D01*
Y5367D01*
X3744D01*
Y5377D01*
Y5377D01*
D01*
D01*
X3744D01*
D01*
Y5378D01*
X3771Y5390D01*
X3798Y5410D01*
X3818Y5436D01*
X3830Y5466D01*
X3834Y5499D01*
X3830Y5532D01*
X3818Y5562D01*
X3798Y5588D01*
X3771Y5608D01*
X3741Y5621D01*
X3708Y5625D01*
D02*
G37*
G36*
X8725Y5610D02*
X8698Y5607D01*
X8673Y5596D01*
X8651Y5579D01*
X8634Y5558D01*
X8624Y5533D01*
X8620Y5505D01*
X8624Y5478D01*
X8634Y5453D01*
X8651Y5431D01*
X8673Y5415D01*
X8698Y5404D01*
X8725Y5401D01*
X8752Y5404D01*
X8777Y5415D01*
X8799Y5431D01*
X8816Y5453D01*
X8826Y5478D01*
X8830Y5505D01*
X8826Y5533D01*
X8816Y5558D01*
X8799Y5579D01*
X8777Y5596D01*
X8752Y5607D01*
X8725Y5610D01*
D02*
G37*
G36*
X9009Y5470D02*
X8981Y5467D01*
X8956Y5456D01*
X8935Y5440D01*
X8918Y5418D01*
X8907Y5393D01*
X8904Y5366D01*
X8907Y5339D01*
X8918Y5313D01*
X8935Y5292D01*
X8956Y5275D01*
X8981Y5265D01*
X9009Y5261D01*
X9036Y5265D01*
X9061Y5275D01*
X9083Y5292D01*
X9099Y5313D01*
X9110Y5339D01*
X9113Y5366D01*
X9110Y5393D01*
X9099Y5418D01*
X9083Y5440D01*
X9061Y5456D01*
X9036Y5467D01*
X9009Y5470D01*
D02*
G37*
G36*
X6147Y5042D02*
X6124Y5039D01*
X6102Y5030D01*
X6084Y5016D01*
X6069Y4998D01*
X6061Y4976D01*
X6058Y4953D01*
X6061Y4930D01*
X6069Y4908D01*
X6084Y4890D01*
X6102Y4876D01*
X6124Y4867D01*
X6147Y4864D01*
X6170Y4867D01*
X6191Y4876D01*
X6210Y4890D01*
X6224Y4908D01*
X6233Y4930D01*
X6236Y4953D01*
X6233Y4976D01*
X6224Y4998D01*
X6210Y5016D01*
X6191Y5030D01*
X6170Y5039D01*
X6147Y5042D01*
D02*
G37*
G36*
X3658Y4610D02*
X3634Y4607D01*
X3613Y4599D01*
X3594Y4584D01*
X3580Y4566D01*
X3571Y4544D01*
X3568Y4521D01*
X3571Y4498D01*
X3580Y4477D01*
X3594Y4458D01*
X3613Y4444D01*
X3634Y4435D01*
X3658Y4432D01*
X3681Y4435D01*
X3702Y4444D01*
X3721Y4458D01*
X3735Y4477D01*
X3744Y4498D01*
X3747Y4521D01*
X3744Y4544D01*
X3735Y4566D01*
X3721Y4584D01*
X3702Y4599D01*
X3681Y4607D01*
X3658Y4610D01*
D02*
G37*
G36*
X8867Y4810D02*
X8824Y4806D01*
X8782Y4796D01*
X8742Y4779D01*
X8705Y4757D01*
X8672Y4729D01*
X8644Y4696D01*
X8621Y4659D01*
X8605Y4619D01*
X8594Y4577D01*
X8591Y4534D01*
X8594Y4491D01*
X8605Y4449D01*
X8621Y4409D01*
X8644Y4372D01*
X8672Y4339D01*
X8705Y4311D01*
X8742Y4288D01*
X8782Y4272D01*
X8824Y4262D01*
X8867Y4258D01*
X8910Y4262D01*
X8952Y4272D01*
X8992Y4288D01*
X9029Y4311D01*
X9062Y4339D01*
X9090Y4372D01*
X9112Y4409D01*
X9129Y4449D01*
X9139Y4491D01*
X9142Y4534D01*
X9139Y4577D01*
X9129Y4619D01*
X9112Y4659D01*
X9090Y4696D01*
X9062Y4729D01*
X9029Y4757D01*
X8992Y4779D01*
X8952Y4796D01*
X8910Y4806D01*
X8867Y4810D01*
D02*
G37*
G36*
X5017Y4610D02*
X4993Y4607D01*
X4972Y4599D01*
X4953Y4584D01*
X4939Y4566D01*
X4930Y4544D01*
X4927Y4521D01*
X4930Y4498D01*
X4939Y4477D01*
X4953Y4458D01*
X4972Y4444D01*
X4993Y4435D01*
X5017Y4432D01*
X5040Y4435D01*
X5061Y4444D01*
X5080Y4458D01*
X5094Y4477D01*
X5103Y4498D01*
X5106Y4521D01*
X5103Y4544D01*
X5094Y4566D01*
X5080Y4584D01*
X5061Y4599D01*
X5040Y4607D01*
X5017Y4610D01*
D02*
G37*
G36*
X8230Y4814D02*
X8206Y4811D01*
X8185Y4802D01*
X8166Y4788D01*
X8152Y4769D01*
X8143Y4748D01*
X8140Y4724D01*
X8143Y4701D01*
X8152Y4680D01*
X8166Y4661D01*
X8185Y4647D01*
X8206Y4638D01*
X8230Y4635D01*
X8253Y4638D01*
X8274Y4647D01*
X8293Y4661D01*
X8307Y4680D01*
X8316Y4701D01*
X8319Y4724D01*
X8316Y4748D01*
X8307Y4769D01*
X8293Y4788D01*
X8274Y4802D01*
X8253Y4811D01*
X8230Y4814D01*
D02*
G37*
G36*
X6160Y4610D02*
X6136Y4607D01*
X6115Y4599D01*
X6096Y4584D01*
X6082Y4566D01*
X6073Y4544D01*
X6070Y4521D01*
X6073Y4498D01*
X6082Y4477D01*
X6096Y4458D01*
X6115Y4444D01*
X6136Y4435D01*
X6160Y4432D01*
X6183Y4435D01*
X6204Y4444D01*
X6223Y4458D01*
X6237Y4477D01*
X6246Y4498D01*
X6249Y4521D01*
X6246Y4544D01*
X6237Y4566D01*
X6223Y4584D01*
X6204Y4599D01*
X6183Y4607D01*
X6160Y4610D01*
D02*
G37*
G36*
X7303Y5715D02*
X7279Y5712D01*
X7258Y5703D01*
X7239Y5689D01*
X7225Y5671D01*
X7216Y5649D01*
X7213Y5626D01*
X7216Y5603D01*
X7225Y5581D01*
X7239Y5563D01*
X7258Y5549D01*
X7279Y5540D01*
X7303Y5537D01*
X7326Y5540D01*
X7347Y5549D01*
X7366Y5563D01*
X7380Y5581D01*
X7389Y5603D01*
X7392Y5626D01*
X7389Y5649D01*
X7380Y5671D01*
X7366Y5689D01*
X7347Y5703D01*
X7326Y5712D01*
X7303Y5715D01*
D02*
G37*
G36*
X6655Y6122D02*
X6632Y6119D01*
X6610Y6110D01*
X6592Y6096D01*
X6577Y6077D01*
X6569Y6056D01*
X6566Y6033D01*
X6569Y6009D01*
X6577Y5988D01*
X6592Y5969D01*
X6610Y5955D01*
X6632Y5946D01*
X6655Y5943D01*
X6678Y5946D01*
X6699Y5955D01*
X6718Y5969D01*
X6732Y5988D01*
X6741Y6009D01*
X6744Y6033D01*
X6741Y6056D01*
X6732Y6077D01*
X6718Y6096D01*
X6699Y6110D01*
X6678Y6119D01*
X6655Y6122D01*
D02*
G37*
G36*
X6134Y6096D02*
X6111Y6093D01*
X6089Y6084D01*
X6071Y6070D01*
X6057Y6052D01*
X6048Y6030D01*
X6045Y6007D01*
X6048Y5984D01*
X6057Y5962D01*
X6071Y5944D01*
X6089Y5930D01*
X6111Y5921D01*
X6134Y5918D01*
X6157Y5921D01*
X6179Y5930D01*
X6197Y5944D01*
X6211Y5962D01*
X6220Y5984D01*
X6223Y6007D01*
X6220Y6030D01*
X6211Y6052D01*
X6197Y6070D01*
X6179Y6084D01*
X6157Y6093D01*
X6134Y6096D01*
D02*
G37*
G36*
X8725Y6165D02*
X8698Y6161D01*
X8673Y6151D01*
X8651Y6134D01*
X8634Y6112D01*
X8624Y6087D01*
X8620Y6060D01*
X8624Y6033D01*
X8634Y6008D01*
X8651Y5986D01*
X8673Y5969D01*
X8698Y5959D01*
X8725Y5955D01*
X8752Y5959D01*
X8777Y5969D01*
X8799Y5986D01*
X8816Y6008D01*
X8826Y6033D01*
X8830Y6060D01*
X8826Y6087D01*
X8816Y6112D01*
X8799Y6134D01*
X8777Y6151D01*
X8752Y6161D01*
X8725Y6165D01*
D02*
G37*
G36*
X7087Y6147D02*
X7063Y6144D01*
X7042Y6135D01*
X7023Y6121D01*
X7009Y6103D01*
X7000Y6081D01*
X6997Y6058D01*
X7000Y6035D01*
X7009Y6013D01*
X7023Y5995D01*
X7042Y5981D01*
X7063Y5972D01*
X7087Y5969D01*
X7110Y5972D01*
X7131Y5981D01*
X7150Y5995D01*
X7164Y6013D01*
X7173Y6035D01*
X7176Y6058D01*
X7173Y6081D01*
X7164Y6103D01*
X7150Y6121D01*
X7131Y6135D01*
X7110Y6144D01*
X7087Y6147D01*
D02*
G37*
G36*
X5372D02*
X5349Y6144D01*
X5327Y6135D01*
X5309Y6121D01*
X5295Y6103D01*
X5286Y6081D01*
X5283Y6058D01*
X5286Y6035D01*
X5295Y6013D01*
X5309Y5995D01*
X5327Y5981D01*
X5349Y5972D01*
X5372Y5969D01*
X5395Y5972D01*
X5417Y5981D01*
X5435Y5995D01*
X5449Y6013D01*
X5458Y6035D01*
X5461Y6058D01*
X5458Y6081D01*
X5449Y6103D01*
X5435Y6121D01*
X5417Y6135D01*
X5395Y6144D01*
X5372Y6147D01*
D02*
G37*
G36*
X6452Y5880D02*
X6428Y5877D01*
X6407Y5869D01*
X6388Y5854D01*
X6375Y5837D01*
X6363D01*
X6350Y5854D01*
X6331Y5869D01*
X6310Y5877D01*
X6287Y5880D01*
X6263Y5877D01*
X6242Y5869D01*
X6223Y5854D01*
X6209Y5836D01*
X6200Y5814D01*
X6197Y5791D01*
X6200Y5768D01*
X6209Y5747D01*
X6223Y5728D01*
X6242Y5714D01*
X6263Y5705D01*
X6287Y5702D01*
X6310Y5705D01*
X6331Y5714D01*
X6350Y5728D01*
X6363Y5745D01*
X6375D01*
X6388Y5728D01*
X6407Y5714D01*
X6428Y5705D01*
X6452Y5702D01*
X6475Y5705D01*
X6496Y5714D01*
X6515Y5728D01*
X6529Y5747D01*
X6538Y5768D01*
X6541Y5791D01*
X6538Y5814D01*
X6529Y5836D01*
X6515Y5854D01*
X6496Y5869D01*
X6475Y5877D01*
X6452Y5880D01*
D02*
G37*
G36*
X7887Y5830D02*
X7864Y5827D01*
X7842Y5818D01*
X7824Y5804D01*
X7809Y5785D01*
X7800Y5764D01*
X7797Y5740D01*
X7800Y5717D01*
X7809Y5696D01*
X7812Y5692D01*
X7811Y5680D01*
X7810Y5677D01*
X7787Y5674D01*
X7785Y5673D01*
X7770Y5679D01*
X7773Y5702D01*
X7770Y5725D01*
X7761Y5747D01*
X7747Y5765D01*
X7728Y5780D01*
X7707Y5789D01*
X7683Y5792D01*
X7660Y5789D01*
X7639Y5780D01*
X7620Y5765D01*
X7606Y5747D01*
X7601Y5733D01*
X7588Y5732D01*
X7582Y5740D01*
X7563Y5754D01*
X7542Y5763D01*
X7518Y5766D01*
X7495Y5763D01*
X7474Y5754D01*
X7455Y5740D01*
X7441Y5722D01*
X7432Y5700D01*
X7429Y5677D01*
X7432Y5654D01*
X7441Y5632D01*
X7455Y5614D01*
X7474Y5600D01*
X7495Y5591D01*
X7518Y5588D01*
X7542Y5591D01*
X7563Y5600D01*
X7582Y5614D01*
X7596Y5632D01*
X7601Y5646D01*
X7614Y5648D01*
X7620Y5639D01*
X7639Y5625D01*
X7660Y5616D01*
X7683Y5613D01*
X7707Y5616D01*
X7709Y5617D01*
X7724Y5611D01*
X7721Y5588D01*
X7724Y5565D01*
X7733Y5543D01*
X7747Y5525D01*
X7766Y5511D01*
X7787Y5502D01*
X7811Y5499D01*
X7834Y5502D01*
X7855Y5511D01*
X7874Y5525D01*
X7888Y5543D01*
X7897Y5565D01*
X7900Y5588D01*
X7897Y5611D01*
X7888Y5633D01*
X7885Y5637D01*
X7886Y5649D01*
X7887Y5651D01*
X7910Y5654D01*
X7931Y5663D01*
X7950Y5677D01*
X7964Y5696D01*
X7973Y5717D01*
X7976Y5740D01*
X7973Y5764D01*
X7964Y5785D01*
X7950Y5804D01*
X7931Y5818D01*
X7910Y5827D01*
X7887Y5830D01*
D02*
G37*
G36*
X9009Y5748D02*
X8981Y5744D01*
X8956Y5734D01*
X8935Y5717D01*
X8918Y5695D01*
X8907Y5670D01*
X8904Y5643D01*
X8907Y5616D01*
X8918Y5591D01*
X8935Y5569D01*
X8956Y5552D01*
X8981Y5542D01*
X9009Y5538D01*
X9036Y5542D01*
X9061Y5552D01*
X9083Y5569D01*
X9099Y5591D01*
X9110Y5616D01*
X9113Y5643D01*
X9110Y5670D01*
X9099Y5695D01*
X9083Y5717D01*
X9061Y5734D01*
X9036Y5744D01*
X9009Y5748D01*
D02*
G37*
G36*
X8725Y5887D02*
X8698Y5884D01*
X8673Y5873D01*
X8651Y5857D01*
X8634Y5835D01*
X8624Y5810D01*
X8620Y5783D01*
X8624Y5756D01*
X8634Y5730D01*
X8651Y5709D01*
X8673Y5692D01*
X8698Y5682D01*
X8725Y5678D01*
X8752Y5682D01*
X8777Y5692D01*
X8799Y5709D01*
X8816Y5730D01*
X8826Y5756D01*
X8830Y5783D01*
X8826Y5810D01*
X8816Y5835D01*
X8799Y5857D01*
X8777Y5873D01*
X8752Y5884D01*
X8725Y5887D01*
D02*
G37*
G36*
X9009Y6025D02*
X8981Y6021D01*
X8956Y6011D01*
X8935Y5994D01*
X8918Y5973D01*
X8907Y5947D01*
X8904Y5920D01*
X8907Y5893D01*
X8918Y5868D01*
X8935Y5846D01*
X8956Y5830D01*
X8981Y5819D01*
X9009Y5816D01*
X9036Y5819D01*
X9061Y5830D01*
X9083Y5846D01*
X9099Y5868D01*
X9110Y5893D01*
X9113Y5920D01*
X9110Y5947D01*
X9099Y5973D01*
X9083Y5994D01*
X9061Y6011D01*
X9036Y6021D01*
X9009Y6025D01*
D02*
G37*
G36*
X4115Y5919D02*
X4092Y5916D01*
X4070Y5907D01*
X4052Y5892D01*
X4037Y5874D01*
X4029Y5852D01*
X4026Y5829D01*
X4029Y5806D01*
X4037Y5785D01*
X4052Y5766D01*
X4070Y5752D01*
X4092Y5743D01*
X4115Y5740D01*
X4138Y5743D01*
X4159Y5752D01*
X4178Y5766D01*
X4192Y5785D01*
X4201Y5806D01*
X4204Y5829D01*
X4201Y5852D01*
X4192Y5874D01*
X4178Y5892D01*
X4159Y5907D01*
X4138Y5916D01*
X4115Y5919D01*
D02*
G37*
G36*
X6414Y7468D02*
X6390Y7465D01*
X6369Y7456D01*
X6350Y7442D01*
X6336Y7423D01*
X6327Y7402D01*
X6324Y7379D01*
X6327Y7356D01*
X6336Y7334D01*
X6350Y7316D01*
X6369Y7301D01*
X6390Y7292D01*
X6414Y7289D01*
X6437Y7292D01*
X6458Y7301D01*
X6477Y7316D01*
X6491Y7334D01*
X6500Y7356D01*
X6503Y7379D01*
X6500Y7402D01*
X6491Y7423D01*
X6477Y7442D01*
X6458Y7456D01*
X6437Y7465D01*
X6414Y7468D01*
D02*
G37*
G36*
X4648Y10338D02*
X4625Y10335D01*
X4604Y10326D01*
X4585Y10312D01*
X4571Y10294D01*
X4562Y10272D01*
X4559Y10249D01*
X4562Y10226D01*
X4571Y10204D01*
X4585Y10186D01*
X4602Y10173D01*
Y10160D01*
X4585Y10147D01*
X4571Y10128D01*
X4562Y10107D01*
X4559Y10084D01*
X4562Y10061D01*
X4571Y10039D01*
X4585Y10021D01*
X4602Y10008D01*
Y9995D01*
X4585Y9982D01*
X4571Y9963D01*
X4562Y9942D01*
X4559Y9919D01*
X4562Y9896D01*
X4571Y9874D01*
X4585Y9856D01*
X4604Y9841D01*
X4625Y9832D01*
X4648Y9829D01*
X4671Y9832D01*
X4693Y9841D01*
X4711Y9856D01*
X4726Y9874D01*
X4734Y9896D01*
X4737Y9919D01*
X4734Y9942D01*
X4726Y9963D01*
X4711Y9982D01*
X4694Y9995D01*
Y10008D01*
X4711Y10021D01*
X4726Y10039D01*
X4734Y10061D01*
X4737Y10084D01*
X4734Y10107D01*
X4726Y10128D01*
X4711Y10147D01*
X4694Y10160D01*
Y10173D01*
X4711Y10186D01*
X4726Y10204D01*
X4734Y10226D01*
X4737Y10249D01*
X4734Y10272D01*
X4726Y10294D01*
X4711Y10312D01*
X4693Y10326D01*
X4671Y10335D01*
X4648Y10338D01*
D02*
G37*
G36*
X5004Y9906D02*
X4981Y9903D01*
X4959Y9894D01*
X4941Y9880D01*
X4926Y9862D01*
X4918Y9840D01*
X4915Y9817D01*
X4918Y9794D01*
X4926Y9772D01*
X4941Y9754D01*
X4959Y9740D01*
X4981Y9731D01*
X5004Y9728D01*
X5027Y9731D01*
X5048Y9740D01*
X5067Y9754D01*
X5081Y9772D01*
X5090Y9794D01*
X5093Y9817D01*
X5090Y9840D01*
X5081Y9862D01*
X5067Y9880D01*
X5048Y9894D01*
X5027Y9903D01*
X5004Y9906D01*
D02*
G37*
G36*
X7595Y10046D02*
X7571Y10043D01*
X7550Y10034D01*
X7531Y10020D01*
X7517Y10001D01*
X7508Y9980D01*
X7505Y9957D01*
X7508Y9934D01*
X7517Y9912D01*
X7531Y9894D01*
X7550Y9879D01*
X7571Y9871D01*
X7595Y9868D01*
X7618Y9871D01*
X7639Y9879D01*
X7658Y9894D01*
X7672Y9912D01*
X7681Y9934D01*
X7684Y9957D01*
X7681Y9980D01*
X7672Y10001D01*
X7658Y10020D01*
X7639Y10034D01*
X7618Y10043D01*
X7595Y10046D01*
D02*
G37*
G36*
X7839Y10119D02*
X7816Y10116D01*
X7794Y10108D01*
X7776Y10093D01*
X7761Y10075D01*
X7752Y10053D01*
X7749Y10030D01*
X7752Y10007D01*
X7761Y9986D01*
X7776Y9967D01*
X7794Y9953D01*
X7816Y9944D01*
X7839Y9941D01*
X7862Y9944D01*
X7883Y9953D01*
X7902Y9967D01*
X7916Y9986D01*
X7925Y10007D01*
X7928Y10030D01*
X7925Y10053D01*
X7916Y10075D01*
X7902Y10093D01*
X7883Y10108D01*
X7862Y10116D01*
X7839Y10119D01*
D02*
G37*
G36*
X6950Y10107D02*
X6927Y10104D01*
X6905Y10095D01*
X6887Y10081D01*
X6872Y10062D01*
X6863Y10041D01*
X6860Y10018D01*
X6863Y9994D01*
X6872Y9973D01*
X6887Y9954D01*
X6905Y9940D01*
X6927Y9931D01*
X6950Y9928D01*
X6973Y9931D01*
X6994Y9940D01*
X7013Y9954D01*
X7027Y9973D01*
X7036Y9994D01*
X7039Y10018D01*
X7036Y10041D01*
X7027Y10062D01*
X7013Y10081D01*
X6994Y10095D01*
X6973Y10104D01*
X6950Y10107D01*
D02*
G37*
G36*
X3821Y10183D02*
X3571D01*
Y9933D01*
X3648D01*
X3650Y9921D01*
X3633Y9914D01*
X3607Y9894D01*
X3587Y9867D01*
X3574Y9837D01*
X3570Y9804D01*
X3574Y9772D01*
X3587Y9741D01*
X3607Y9715D01*
X3633Y9695D01*
X3663Y9683D01*
X3696Y9678D01*
X3728Y9683D01*
X3759Y9695D01*
X3785Y9715D01*
X3805Y9741D01*
X3817Y9772D01*
X3822Y9804D01*
X3817Y9837D01*
X3805Y9867D01*
X3785Y9894D01*
X3759Y9914D01*
X3741Y9921D01*
X3743Y9933D01*
X3821D01*
Y10183D01*
D02*
G37*
G36*
X8382Y9295D02*
X8349Y9291D01*
X8319Y9279D01*
X8293Y9259D01*
X8273Y9232D01*
X8260Y9202D01*
X8256Y9169D01*
X8260Y9137D01*
X8273Y9106D01*
X8293Y9080D01*
X8319Y9060D01*
X8349Y9048D01*
X8382Y9043D01*
X8415Y9048D01*
X8445Y9060D01*
X8471Y9080D01*
X8491Y9106D01*
X8504Y9137D01*
X8508Y9169D01*
X8504Y9202D01*
X8491Y9232D01*
X8471Y9259D01*
X8445Y9279D01*
X8415Y9291D01*
X8382Y9295D01*
D02*
G37*
G36*
X4394Y9195D02*
X4371Y9192D01*
X4350Y9183D01*
X4331Y9169D01*
X4317Y9151D01*
X4308Y9129D01*
X4305Y9106D01*
X4308Y9083D01*
X4317Y9061D01*
X4331Y9043D01*
X4350Y9029D01*
X4371Y9020D01*
X4394Y9017D01*
X4417Y9020D01*
X4439Y9029D01*
X4457Y9043D01*
X4472Y9061D01*
X4480Y9083D01*
X4483Y9106D01*
X4480Y9129D01*
X4472Y9151D01*
X4457Y9169D01*
X4439Y9183D01*
X4417Y9192D01*
X4394Y9195D01*
D02*
G37*
G36*
X9652Y9295D02*
X9619Y9291D01*
X9589Y9279D01*
X9563Y9259D01*
X9543Y9232D01*
X9531Y9205D01*
X9530D01*
Y9205D01*
D01*
D01*
X9530D01*
X9520D01*
D01*
D01*
Y9205D01*
X9519D01*
X9507Y9232D01*
X9487Y9259D01*
X9461Y9279D01*
X9431Y9291D01*
X9398Y9295D01*
X9365Y9291D01*
X9335Y9279D01*
X9309Y9259D01*
X9289Y9232D01*
X9277Y9205D01*
X9276D01*
Y9205D01*
D01*
D01*
X9276D01*
X9266D01*
D01*
D01*
Y9205D01*
X9265D01*
X9253Y9232D01*
X9233Y9259D01*
X9207Y9279D01*
X9177Y9291D01*
X9144Y9295D01*
X9111Y9291D01*
X9081Y9279D01*
X9055Y9259D01*
X9035Y9232D01*
X9023Y9205D01*
X9022D01*
Y9205D01*
D01*
D01*
X9022D01*
X9012D01*
D01*
D01*
Y9205D01*
X9011D01*
X8999Y9232D01*
X8979Y9259D01*
X8953Y9279D01*
X8923Y9291D01*
X8890Y9295D01*
X8857Y9291D01*
X8827Y9279D01*
X8801Y9259D01*
X8781Y9232D01*
X8768Y9202D01*
X8764Y9169D01*
X8768Y9137D01*
X8781Y9106D01*
X8801Y9080D01*
X8827Y9060D01*
X8857Y9048D01*
X8890Y9043D01*
X8923Y9048D01*
X8953Y9060D01*
X8979Y9080D01*
X8999Y9106D01*
X9011Y9134D01*
X9012D01*
Y9134D01*
D01*
D01*
X9012D01*
X9022D01*
D01*
D01*
Y9134D01*
X9023D01*
X9035Y9106D01*
X9055Y9080D01*
X9081Y9060D01*
X9111Y9048D01*
X9144Y9043D01*
X9177Y9048D01*
X9207Y9060D01*
X9233Y9080D01*
X9253Y9106D01*
X9265Y9134D01*
X9266D01*
Y9134D01*
D01*
D01*
X9266D01*
X9276D01*
D01*
D01*
Y9134D01*
X9277D01*
X9289Y9106D01*
X9309Y9080D01*
X9335Y9060D01*
X9365Y9048D01*
X9398Y9043D01*
X9431Y9048D01*
X9461Y9060D01*
X9487Y9080D01*
X9507Y9106D01*
X9519Y9134D01*
X9520D01*
Y9134D01*
D01*
D01*
X9520D01*
X9530D01*
D01*
D01*
Y9134D01*
X9531D01*
X9543Y9106D01*
X9563Y9080D01*
X9589Y9060D01*
X9619Y9048D01*
X9652Y9043D01*
X9685Y9048D01*
X9715Y9060D01*
X9741Y9080D01*
X9761Y9106D01*
X9769Y9124D01*
X9781Y9122D01*
Y9044D01*
X10031D01*
Y9294D01*
X9781D01*
Y9217D01*
X9769Y9215D01*
X9761Y9232D01*
X9741Y9259D01*
X9715Y9279D01*
X9685Y9291D01*
X9652Y9295D01*
D02*
G37*
G36*
X9897Y9745D02*
X9873Y9742D01*
X9852Y9733D01*
X9833Y9718D01*
X9819Y9700D01*
X9810Y9678D01*
X9807Y9655D01*
X9810Y9632D01*
X9819Y9611D01*
X9833Y9592D01*
X9852Y9578D01*
X9873Y9569D01*
X9897Y9566D01*
X9920Y9569D01*
X9941Y9578D01*
X9960Y9592D01*
X9974Y9611D01*
X9983Y9632D01*
X9986Y9655D01*
X9983Y9678D01*
X9974Y9700D01*
X9960Y9718D01*
X9941Y9733D01*
X9920Y9742D01*
X9897Y9745D01*
D02*
G37*
G36*
X4735Y9572D02*
X4692Y9569D01*
X4650Y9559D01*
X4610Y9542D01*
X4573Y9519D01*
X4540Y9491D01*
X4512Y9458D01*
X4495Y9430D01*
X4482Y9433D01*
X4480Y9447D01*
X4472Y9468D01*
X4457Y9487D01*
X4439Y9501D01*
X4417Y9510D01*
X4394Y9513D01*
X4371Y9510D01*
X4350Y9501D01*
X4331Y9487D01*
X4317Y9468D01*
X4308Y9447D01*
X4305Y9423D01*
X4308Y9400D01*
X4317Y9379D01*
X4331Y9360D01*
X4350Y9346D01*
X4371Y9337D01*
X4394Y9334D01*
X4417Y9337D01*
X4439Y9346D01*
X4455Y9359D01*
X4466Y9352D01*
X4463Y9340D01*
X4459Y9296D01*
X4463Y9253D01*
X4473Y9211D01*
X4489Y9171D01*
X4512Y9134D01*
X4540Y9102D01*
X4573Y9073D01*
X4610Y9051D01*
X4650Y9034D01*
X4692Y9024D01*
X4735Y9021D01*
X4778Y9024D01*
X4820Y9034D01*
X4860Y9051D01*
X4897Y9073D01*
X4930Y9102D01*
X4958Y9134D01*
X4981Y9171D01*
X4997Y9211D01*
X5007Y9253D01*
X5011Y9296D01*
X5007Y9340D01*
X4997Y9382D01*
X4981Y9422D01*
X4958Y9458D01*
X4930Y9491D01*
X4897Y9519D01*
X4860Y9542D01*
X4820Y9559D01*
X4778Y9569D01*
X4735Y9572D01*
D02*
G37*
G36*
X7712Y10551D02*
X7689Y10548D01*
X7667Y10539D01*
X7649Y10525D01*
X7634Y10507D01*
X7625Y10485D01*
X7622Y10462D01*
X7625Y10439D01*
X7634Y10417D01*
X7649Y10399D01*
X7667Y10385D01*
X7689Y10376D01*
X7712Y10373D01*
X7735Y10376D01*
X7756Y10385D01*
X7775Y10399D01*
X7789Y10417D01*
X7798Y10439D01*
X7801Y10462D01*
X7798Y10485D01*
X7789Y10507D01*
X7775Y10525D01*
X7756Y10539D01*
X7735Y10548D01*
X7712Y10551D01*
D02*
G37*
G36*
X9426Y12050D02*
X9403Y12047D01*
X9382Y12038D01*
X9363Y12024D01*
X9349Y12005D01*
X9340Y11984D01*
X9337Y11961D01*
X9340Y11937D01*
X9349Y11916D01*
X9363Y11897D01*
X9382Y11883D01*
X9403Y11874D01*
X9426Y11871D01*
X9449Y11874D01*
X9471Y11883D01*
X9489Y11897D01*
X9504Y11916D01*
X9512Y11937D01*
X9515Y11961D01*
X9512Y11984D01*
X9504Y12005D01*
X9489Y12024D01*
X9471Y12038D01*
X9449Y12047D01*
X9426Y12050D01*
D02*
G37*
G36*
X5007Y11961D02*
X4983Y11958D01*
X4962Y11949D01*
X4943Y11935D01*
X4929Y11916D01*
X4920Y11895D01*
X4917Y11872D01*
X4920Y11849D01*
X4929Y11827D01*
X4943Y11809D01*
X4962Y11794D01*
X4983Y11785D01*
X5007Y11782D01*
X5030Y11785D01*
X5051Y11794D01*
X5070Y11809D01*
X5084Y11827D01*
X5093Y11849D01*
X5096Y11872D01*
X5093Y11895D01*
X5084Y11916D01*
X5070Y11935D01*
X5051Y11949D01*
X5030Y11958D01*
X5007Y11961D01*
D02*
G37*
G36*
X9871Y12151D02*
X9848Y12148D01*
X9826Y12140D01*
X9808Y12125D01*
X9793Y12107D01*
X9784Y12085D01*
X9781Y12062D01*
X9784Y12039D01*
X9793Y12018D01*
X9808Y11999D01*
X9826Y11985D01*
X9848Y11976D01*
X9871Y11973D01*
X9894Y11976D01*
X9915Y11985D01*
X9934Y11999D01*
X9948Y12018D01*
X9957Y12039D01*
X9960Y12062D01*
X9957Y12085D01*
X9948Y12107D01*
X9934Y12125D01*
X9915Y12140D01*
X9894Y12148D01*
X9871Y12151D01*
D02*
G37*
G36*
X4724Y12242D02*
X4698Y12239D01*
X4674Y12229D01*
X4653Y12213D01*
X4637Y12192D01*
X4627Y12167D01*
X4624Y12141D01*
X4627Y12115D01*
X4637Y12091D01*
X4653Y12070D01*
X4674Y12054D01*
X4698Y12044D01*
X4724Y12040D01*
X4751Y12044D01*
X4775Y12054D01*
X4796Y12070D01*
X4812Y12091D01*
X4822Y12115D01*
X4825Y12141D01*
X4822Y12167D01*
X4812Y12192D01*
X4796Y12213D01*
X4775Y12229D01*
X4751Y12239D01*
X4724Y12242D01*
D02*
G37*
G36*
X4470D02*
X4444Y12239D01*
X4420Y12229D01*
X4399Y12213D01*
X4383Y12192D01*
X4373Y12167D01*
X4370Y12141D01*
X4373Y12115D01*
X4383Y12091D01*
X4399Y12070D01*
X4420Y12054D01*
X4444Y12044D01*
X4470Y12040D01*
X4497Y12044D01*
X4521Y12054D01*
X4542Y12070D01*
X4558Y12091D01*
X4568Y12115D01*
X4571Y12141D01*
X4568Y12167D01*
X4558Y12192D01*
X4542Y12213D01*
X4521Y12229D01*
X4497Y12239D01*
X4470Y12242D01*
D02*
G37*
G36*
X8906Y11914D02*
X8885Y11912D01*
X8865Y11903D01*
X8848Y11891D01*
X8836Y11874D01*
X8828Y11854D01*
X8825Y11834D01*
X8828Y11813D01*
X8836Y11793D01*
X8848Y11777D01*
X8865Y11764D01*
X8885Y11756D01*
X8906Y11753D01*
X8926Y11756D01*
X8946Y11764D01*
X8963Y11777D01*
X8975Y11793D01*
X8983Y11813D01*
X8986Y11834D01*
X8983Y11854D01*
X8975Y11874D01*
X8963Y11891D01*
X8946Y11903D01*
X8926Y11912D01*
X8906Y11914D01*
D02*
G37*
G36*
X4943Y11097D02*
X4917Y11094D01*
X4892Y11084D01*
X4871Y11068D01*
X4855Y11046D01*
X4845Y11022D01*
X4841Y10995D01*
X4845Y10969D01*
X4855Y10944D01*
X4871Y10923D01*
X4892Y10907D01*
X4917Y10897D01*
X4943Y10893D01*
X4961Y10896D01*
X4970Y10887D01*
X4968Y10868D01*
X4972Y10842D01*
X4982Y10817D01*
X4998Y10796D01*
X5019Y10780D01*
X5044Y10770D01*
X5070Y10766D01*
X5097Y10770D01*
X5121Y10780D01*
X5142Y10796D01*
X5158Y10817D01*
X5169Y10842D01*
X5172Y10868D01*
X5169Y10895D01*
X5158Y10919D01*
X5142Y10941D01*
X5121Y10957D01*
X5097Y10967D01*
X5070Y10970D01*
X5052Y10968D01*
X5043Y10977D01*
X5045Y10995D01*
X5042Y11022D01*
X5031Y11046D01*
X5015Y11068D01*
X4994Y11084D01*
X4970Y11094D01*
X4943Y11097D01*
D02*
G37*
G36*
X9947Y10589D02*
X9924Y10586D01*
X9902Y10577D01*
X9884Y10563D01*
X9870Y10545D01*
X9861Y10523D01*
X9858Y10500D01*
X9861Y10477D01*
X9870Y10455D01*
X9884Y10437D01*
X9902Y10423D01*
X9924Y10414D01*
X9947Y10411D01*
X9970Y10414D01*
X9992Y10423D01*
X10010Y10437D01*
X10024Y10455D01*
X10033Y10477D01*
X10036Y10500D01*
X10033Y10523D01*
X10024Y10545D01*
X10010Y10563D01*
X9992Y10577D01*
X9970Y10586D01*
X9947Y10589D01*
D02*
G37*
G36*
X9566Y11559D02*
X9545Y11556D01*
X9526Y11548D01*
X9509Y11535D01*
X9496Y11518D01*
X9488Y11499D01*
X9485Y11478D01*
X9488Y11457D01*
X9496Y11438D01*
X9509Y11421D01*
X9517Y11414D01*
Y11402D01*
X9509Y11395D01*
X9496Y11379D01*
X9488Y11359D01*
X9485Y11338D01*
X9488Y11317D01*
X9496Y11298D01*
X9509Y11281D01*
X9517Y11275D01*
Y11262D01*
X9509Y11256D01*
X9496Y11239D01*
X9488Y11219D01*
X9485Y11199D01*
X9488Y11178D01*
X9496Y11158D01*
X9509Y11142D01*
X9517Y11135D01*
Y11122D01*
X9509Y11116D01*
X9496Y11099D01*
X9488Y11080D01*
X9485Y11059D01*
X9488Y11038D01*
X9496Y11019D01*
X9509Y11002D01*
X9517Y10995D01*
Y10983D01*
X9509Y10976D01*
X9496Y10960D01*
X9488Y10940D01*
X9485Y10919D01*
X9488Y10898D01*
X9496Y10879D01*
X9509Y10862D01*
X9526Y10849D01*
X9545Y10841D01*
X9566Y10839D01*
X9587Y10841D01*
X9606Y10849D01*
X9623Y10862D01*
X9636Y10879D01*
X9644Y10898D01*
X9647Y10919D01*
X9644Y10940D01*
X9636Y10960D01*
X9623Y10976D01*
X9615Y10983D01*
Y10995D01*
X9623Y11002D01*
X9636Y11019D01*
X9644Y11038D01*
X9647Y11059D01*
X9644Y11080D01*
X9636Y11099D01*
X9623Y11116D01*
X9615Y11122D01*
Y11135D01*
X9623Y11142D01*
X9636Y11158D01*
X9644Y11178D01*
X9647Y11199D01*
X9644Y11219D01*
X9636Y11239D01*
X9623Y11256D01*
X9615Y11262D01*
Y11275D01*
X9623Y11281D01*
X9636Y11298D01*
X9644Y11317D01*
X9647Y11338D01*
X9644Y11359D01*
X9636Y11379D01*
X9623Y11395D01*
X9615Y11402D01*
Y11414D01*
X9623Y11421D01*
X9636Y11438D01*
X9644Y11457D01*
X9647Y11478D01*
X9644Y11499D01*
X9636Y11518D01*
X9623Y11535D01*
X9606Y11548D01*
X9587Y11556D01*
X9566Y11559D01*
D02*
G37*
G36*
X7724Y11847D02*
X7701Y11844D01*
X7680Y11835D01*
X7661Y11821D01*
X7647Y11802D01*
X7638Y11781D01*
X7635Y11757D01*
X7638Y11734D01*
X7647Y11713D01*
X7661Y11694D01*
X7680Y11680D01*
X7701Y11671D01*
X7724Y11668D01*
X7748Y11671D01*
X7769Y11680D01*
X7788Y11694D01*
X7802Y11713D01*
X7811Y11734D01*
X7814Y11757D01*
X7811Y11781D01*
X7802Y11802D01*
X7788Y11821D01*
X7769Y11835D01*
X7748Y11844D01*
X7724Y11847D01*
D02*
G37*
G36*
X5451Y11428D02*
X5428Y11425D01*
X5406Y11416D01*
X5388Y11401D01*
X5374Y11383D01*
X5365Y11361D01*
X5362Y11338D01*
X5365Y11315D01*
X5374Y11294D01*
X5388Y11275D01*
X5406Y11261D01*
X5428Y11252D01*
X5451Y11249D01*
X5474Y11252D01*
X5496Y11261D01*
X5514Y11275D01*
X5528Y11294D01*
X5537Y11315D01*
X5540Y11338D01*
X5537Y11361D01*
X5528Y11383D01*
X5514Y11401D01*
X5496Y11416D01*
X5474Y11425D01*
X5451Y11428D01*
D02*
G37*
G36*
X5639Y8992D02*
X5616Y8989D01*
X5594Y8980D01*
X5576Y8966D01*
X5561Y8947D01*
X5553Y8926D01*
X5550Y8903D01*
X5553Y8880D01*
X5561Y8858D01*
X5576Y8840D01*
X5594Y8825D01*
X5616Y8816D01*
X5639Y8813D01*
X5662Y8816D01*
X5683Y8825D01*
X5702Y8840D01*
X5716Y8858D01*
X5725Y8880D01*
X5728Y8903D01*
X5725Y8926D01*
X5716Y8947D01*
X5702Y8966D01*
X5683Y8980D01*
X5662Y8989D01*
X5639Y8992D01*
D02*
G37*
G36*
X8039Y7862D02*
X8016Y7859D01*
X7994Y7850D01*
X7976Y7836D01*
X7962Y7817D01*
X7953Y7796D01*
X7950Y7772D01*
X7953Y7749D01*
X7962Y7728D01*
X7976Y7709D01*
X7994Y7695D01*
X8016Y7686D01*
X8039Y7683D01*
X8062Y7686D01*
X8084Y7695D01*
X8102Y7709D01*
X8116Y7728D01*
X8125Y7749D01*
X8128Y7772D01*
X8125Y7796D01*
X8116Y7817D01*
X8102Y7836D01*
X8084Y7850D01*
X8062Y7859D01*
X8039Y7862D01*
D02*
G37*
G36*
X5347Y7836D02*
X5324Y7833D01*
X5302Y7824D01*
X5284Y7810D01*
X5269Y7792D01*
X5260Y7770D01*
X5257Y7747D01*
X5260Y7724D01*
X5269Y7702D01*
X5284Y7684D01*
X5302Y7670D01*
X5324Y7661D01*
X5347Y7658D01*
X5370Y7661D01*
X5391Y7670D01*
X5410Y7684D01*
X5424Y7702D01*
X5433Y7724D01*
X5436Y7747D01*
X5433Y7770D01*
X5424Y7792D01*
X5410Y7810D01*
X5391Y7824D01*
X5370Y7833D01*
X5347Y7836D01*
D02*
G37*
G36*
X3734Y7938D02*
X3711Y7935D01*
X3689Y7926D01*
X3671Y7912D01*
X3656Y7893D01*
X3648Y7872D01*
X3645Y7849D01*
X3648Y7825D01*
X3656Y7804D01*
X3671Y7785D01*
X3689Y7771D01*
X3711Y7762D01*
X3734Y7759D01*
X3757Y7762D01*
X3778Y7771D01*
X3797Y7785D01*
X3811Y7804D01*
X3820Y7825D01*
X3823Y7849D01*
X3820Y7872D01*
X3811Y7893D01*
X3797Y7912D01*
X3778Y7926D01*
X3757Y7935D01*
X3734Y7938D01*
D02*
G37*
G36*
X8344Y8281D02*
X8321Y8278D01*
X8299Y8269D01*
X8281Y8255D01*
X8267Y8236D01*
X8258Y8215D01*
X8255Y8192D01*
X8258Y8168D01*
X8267Y8147D01*
X8281Y8128D01*
X8299Y8114D01*
X8321Y8105D01*
X8344Y8102D01*
X8367Y8105D01*
X8389Y8114D01*
X8407Y8128D01*
X8421Y8147D01*
X8430Y8168D01*
X8433Y8192D01*
X8430Y8215D01*
X8421Y8236D01*
X8407Y8255D01*
X8389Y8269D01*
X8367Y8278D01*
X8344Y8281D01*
D02*
G37*
G36*
X4394Y7989D02*
X4371Y7986D01*
X4350Y7977D01*
X4331Y7963D01*
X4317Y7944D01*
X4308Y7923D01*
X4305Y7899D01*
X4308Y7876D01*
X4317Y7855D01*
X4331Y7836D01*
X4350Y7822D01*
X4371Y7813D01*
X4394Y7810D01*
X4417Y7813D01*
X4439Y7822D01*
X4457Y7836D01*
X4472Y7855D01*
X4480Y7876D01*
X4483Y7899D01*
X4480Y7923D01*
X4472Y7944D01*
X4457Y7963D01*
X4439Y7977D01*
X4417Y7986D01*
X4394Y7989D01*
D02*
G37*
G36*
X7099Y7760D02*
X7076Y7757D01*
X7055Y7748D01*
X7036Y7734D01*
X7022Y7715D01*
X7013Y7694D01*
X7010Y7671D01*
X7013Y7648D01*
X7022Y7626D01*
X7036Y7608D01*
X7055Y7593D01*
X7076Y7585D01*
X7099Y7582D01*
X7122Y7585D01*
X7144Y7593D01*
X7162Y7608D01*
X7177Y7626D01*
X7186Y7648D01*
X7189Y7671D01*
X7186Y7694D01*
X7177Y7715D01*
X7162Y7734D01*
X7144Y7748D01*
X7122Y7757D01*
X7099Y7760D01*
D02*
G37*
G36*
X4394Y7595D02*
X4371Y7592D01*
X4350Y7583D01*
X4331Y7569D01*
X4317Y7550D01*
X4308Y7529D01*
X4305Y7506D01*
X4308Y7483D01*
X4317Y7461D01*
X4331Y7443D01*
X4350Y7428D01*
X4371Y7419D01*
X4394Y7416D01*
X4417Y7419D01*
X4439Y7428D01*
X4457Y7443D01*
X4472Y7461D01*
X4480Y7483D01*
X4483Y7506D01*
X4480Y7529D01*
X4472Y7550D01*
X4457Y7569D01*
X4439Y7583D01*
X4417Y7592D01*
X4394Y7595D01*
D02*
G37*
G36*
X4929Y7597D02*
X4825D01*
X4773Y7545D01*
Y7441D01*
X4825Y7389D01*
X4929D01*
X4981Y7441D01*
Y7545D01*
X4929Y7597D01*
D02*
G37*
G36*
X3747Y7658D02*
X3723Y7655D01*
X3702Y7647D01*
X3683Y7632D01*
X3669Y7614D01*
X3660Y7592D01*
X3657Y7569D01*
X3660Y7546D01*
X3669Y7525D01*
X3683Y7506D01*
X3702Y7492D01*
X3723Y7483D01*
X3747Y7480D01*
X3770Y7483D01*
X3791Y7492D01*
X3810Y7506D01*
X3824Y7525D01*
X3833Y7546D01*
X3836Y7569D01*
X3833Y7592D01*
X3824Y7614D01*
X3810Y7632D01*
X3791Y7647D01*
X3770Y7655D01*
X3747Y7658D01*
D02*
G37*
G36*
X6617Y7747D02*
X6594Y7744D01*
X6572Y7735D01*
X6554Y7721D01*
X6540Y7702D01*
X6531Y7681D01*
X6528Y7658D01*
X6531Y7635D01*
X6540Y7613D01*
X6554Y7595D01*
X6572Y7580D01*
X6594Y7571D01*
X6617Y7568D01*
X6640Y7571D01*
X6662Y7580D01*
X6680Y7595D01*
X6694Y7613D01*
X6703Y7635D01*
X6706Y7658D01*
X6703Y7681D01*
X6694Y7702D01*
X6680Y7721D01*
X6662Y7735D01*
X6640Y7744D01*
X6617Y7747D01*
D02*
G37*
G36*
X4593Y7737D02*
X4566Y7734D01*
X4541Y7723D01*
X4519Y7707D01*
X4503Y7685D01*
X4492Y7660D01*
X4489Y7633D01*
X4492Y7606D01*
X4503Y7580D01*
X4519Y7559D01*
X4541Y7542D01*
X4566Y7532D01*
X4593Y7528D01*
X4620Y7532D01*
X4645Y7542D01*
X4667Y7559D01*
X4684Y7580D01*
X4694Y7606D01*
X4698Y7633D01*
X4694Y7660D01*
X4684Y7685D01*
X4667Y7707D01*
X4645Y7723D01*
X4620Y7734D01*
X4593Y7737D01*
D02*
G37*
G36*
X3734Y8344D02*
X3711Y8341D01*
X3689Y8332D01*
X3671Y8318D01*
X3656Y8300D01*
X3648Y8278D01*
X3645Y8255D01*
X3648Y8232D01*
X3656Y8210D01*
X3671Y8192D01*
X3689Y8178D01*
X3711Y8169D01*
X3734Y8166D01*
X3757Y8169D01*
X3778Y8178D01*
X3797Y8192D01*
X3811Y8210D01*
X3820Y8232D01*
X3823Y8255D01*
X3820Y8278D01*
X3811Y8300D01*
X3797Y8318D01*
X3778Y8332D01*
X3757Y8341D01*
X3734Y8344D01*
D02*
G37*
G36*
X7391Y8801D02*
X7368Y8798D01*
X7347Y8790D01*
X7328Y8775D01*
X7314Y8757D01*
X7305Y8735D01*
X7302Y8712D01*
X7305Y8689D01*
X7314Y8668D01*
X7328Y8649D01*
X7347Y8635D01*
X7368Y8626D01*
X7391Y8623D01*
X7415Y8626D01*
X7436Y8635D01*
X7455Y8649D01*
X7469Y8668D01*
X7478Y8689D01*
X7481Y8712D01*
X7478Y8735D01*
X7469Y8757D01*
X7455Y8775D01*
X7436Y8790D01*
X7415Y8798D01*
X7391Y8801D01*
D02*
G37*
G36*
X5855Y8776D02*
X5832Y8773D01*
X5810Y8764D01*
X5792Y8750D01*
X5777Y8731D01*
X5768Y8710D01*
X5765Y8687D01*
X5768Y8664D01*
X5777Y8642D01*
X5792Y8624D01*
X5810Y8609D01*
X5832Y8601D01*
X5855Y8598D01*
X5878Y8601D01*
X5899Y8609D01*
X5918Y8624D01*
X5932Y8642D01*
X5941Y8664D01*
X5944Y8687D01*
X5941Y8710D01*
X5932Y8731D01*
X5918Y8750D01*
X5899Y8764D01*
X5878Y8773D01*
X5855Y8776D01*
D02*
G37*
G36*
X6134Y8840D02*
X6111Y8837D01*
X6089Y8828D01*
X6071Y8813D01*
X6057Y8795D01*
X6048Y8773D01*
X6045Y8750D01*
X6048Y8727D01*
X6057Y8706D01*
X6071Y8687D01*
X6089Y8673D01*
X6111Y8664D01*
X6134Y8661D01*
X6157Y8664D01*
X6179Y8673D01*
X6197Y8687D01*
X6211Y8706D01*
X6220Y8727D01*
X6223Y8750D01*
X6220Y8773D01*
X6211Y8795D01*
X6197Y8813D01*
X6179Y8828D01*
X6157Y8837D01*
X6134Y8840D01*
D02*
G37*
G36*
X4394Y8954D02*
X4371Y8951D01*
X4350Y8942D01*
X4331Y8928D01*
X4317Y8909D01*
X4308Y8888D01*
X4305Y8865D01*
X4308Y8841D01*
X4317Y8820D01*
X4331Y8801D01*
X4350Y8787D01*
X4371Y8778D01*
X4394Y8775D01*
X4417Y8778D01*
X4439Y8787D01*
X4457Y8801D01*
X4472Y8820D01*
X4480Y8841D01*
X4483Y8865D01*
X4480Y8888D01*
X4472Y8909D01*
X4457Y8928D01*
X4439Y8942D01*
X4417Y8951D01*
X4394Y8954D01*
D02*
G37*
G36*
X7772Y8865D02*
X7749Y8862D01*
X7728Y8853D01*
X7709Y8839D01*
X7695Y8820D01*
X7686Y8799D01*
X7683Y8776D01*
X7686Y8753D01*
X7695Y8731D01*
X7709Y8713D01*
X7728Y8698D01*
X7749Y8689D01*
X7772Y8686D01*
X7796Y8689D01*
X7817Y8698D01*
X7836Y8713D01*
X7850Y8731D01*
X7859Y8753D01*
X7862Y8776D01*
X7859Y8799D01*
X7850Y8820D01*
X7836Y8839D01*
X7817Y8853D01*
X7796Y8862D01*
X7772Y8865D01*
D02*
G37*
G36*
X4394Y8700D02*
X4371Y8697D01*
X4350Y8688D01*
X4331Y8674D01*
X4317Y8655D01*
X4308Y8634D01*
X4305Y8611D01*
X4308Y8587D01*
X4317Y8566D01*
X4331Y8547D01*
X4350Y8533D01*
X4371Y8524D01*
X4394Y8521D01*
X4417Y8524D01*
X4439Y8533D01*
X4457Y8547D01*
X4472Y8566D01*
X4480Y8587D01*
X4483Y8611D01*
X4480Y8634D01*
X4472Y8655D01*
X4457Y8674D01*
X4439Y8688D01*
X4417Y8697D01*
X4394Y8700D01*
D02*
G37*
G36*
X4877Y8429D02*
X4850Y8426D01*
X4824Y8415D01*
X4803Y8399D01*
X4786Y8377D01*
X4776Y8352D01*
X4772Y8325D01*
X4776Y8298D01*
X4786Y8273D01*
X4803Y8251D01*
X4824Y8234D01*
X4850Y8224D01*
X4877Y8220D01*
X4904Y8224D01*
X4929Y8234D01*
X4951Y8251D01*
X4967Y8273D01*
X4978Y8298D01*
X4981Y8325D01*
X4978Y8352D01*
X4967Y8377D01*
X4951Y8399D01*
X4929Y8415D01*
X4904Y8426D01*
X4877Y8429D01*
D02*
G37*
G36*
X4593Y8292D02*
X4566Y8288D01*
X4541Y8278D01*
X4519Y8261D01*
X4503Y8240D01*
X4492Y8214D01*
X4489Y8187D01*
X4490Y8172D01*
X4478Y8169D01*
X4472Y8185D01*
X4457Y8204D01*
X4439Y8218D01*
X4417Y8227D01*
X4394Y8230D01*
X4371Y8227D01*
X4350Y8218D01*
X4331Y8204D01*
X4317Y8185D01*
X4308Y8164D01*
X4305Y8141D01*
X4308Y8118D01*
X4317Y8096D01*
X4331Y8078D01*
X4350Y8063D01*
X4371Y8054D01*
X4394Y8051D01*
X4417Y8054D01*
X4439Y8063D01*
X4457Y8078D01*
X4472Y8096D01*
X4480Y8118D01*
X4483Y8141D01*
X4482Y8152D01*
X4494Y8155D01*
X4503Y8135D01*
X4519Y8113D01*
X4541Y8097D01*
X4566Y8086D01*
X4593Y8083D01*
X4620Y8086D01*
X4645Y8097D01*
X4667Y8113D01*
X4684Y8135D01*
X4694Y8160D01*
X4698Y8187D01*
X4694Y8214D01*
X4684Y8240D01*
X4667Y8261D01*
X4645Y8278D01*
X4620Y8288D01*
X4593Y8292D01*
D02*
G37*
G36*
Y8569D02*
X4566Y8566D01*
X4541Y8555D01*
X4519Y8539D01*
X4503Y8517D01*
X4492Y8492D01*
X4489Y8465D01*
X4492Y8437D01*
X4503Y8412D01*
X4519Y8391D01*
X4541Y8374D01*
X4566Y8363D01*
X4593Y8360D01*
X4620Y8363D01*
X4645Y8374D01*
X4667Y8391D01*
X4684Y8412D01*
X4694Y8437D01*
X4698Y8465D01*
X4694Y8492D01*
X4684Y8517D01*
X4667Y8539D01*
X4645Y8555D01*
X4620Y8566D01*
X4593Y8569D01*
D02*
G37*
G36*
X4877Y8707D02*
X4850Y8703D01*
X4824Y8693D01*
X4803Y8676D01*
X4786Y8654D01*
X4776Y8629D01*
X4772Y8602D01*
X4776Y8575D01*
X4786Y8550D01*
X4803Y8528D01*
X4824Y8512D01*
X4850Y8501D01*
X4877Y8497D01*
X4904Y8501D01*
X4929Y8512D01*
X4951Y8528D01*
X4967Y8550D01*
X4978Y8575D01*
X4981Y8602D01*
X4978Y8629D01*
X4967Y8654D01*
X4951Y8676D01*
X4929Y8693D01*
X4904Y8703D01*
X4877Y8707D01*
D02*
G37*
G36*
X7061Y8649D02*
X7038Y8646D01*
X7017Y8637D01*
X6998Y8623D01*
X6984Y8604D01*
X6975Y8583D01*
X6972Y8560D01*
X6975Y8537D01*
X6984Y8515D01*
X6998Y8497D01*
X7017Y8482D01*
X7038Y8474D01*
X7061Y8471D01*
X7084Y8474D01*
X7106Y8482D01*
X7124Y8497D01*
X7139Y8515D01*
X7147Y8537D01*
X7150Y8560D01*
X7147Y8583D01*
X7139Y8604D01*
X7124Y8623D01*
X7106Y8637D01*
X7084Y8646D01*
X7061Y8649D01*
D02*
G37*
%LPD*%
D40*
X8725Y5228D02*
D03*
X4593Y7910D02*
D03*
X4877Y7770D02*
D03*
Y8048D02*
D03*
D42*
X4216Y12141D02*
D03*
D44*
X8636Y9169D02*
D03*
D46*
X3708Y4991D02*
D03*
D47*
X5070Y11122D02*
D03*
D48*
X9144Y10795D02*
D03*
X9004Y10947D02*
D03*
X8504Y10793D02*
D03*
X8661Y10935D02*
D03*
X4254Y10274D02*
D03*
X3747Y11989D02*
D03*
X9262Y9668D02*
D03*
X9897Y9427D02*
D03*
X3962Y8052D02*
D03*
X8865Y10058D02*
D03*
X4801Y11493D02*
D03*
X4597D02*
D03*
X4369D02*
D03*
X4140D02*
D03*
X3962Y11354D02*
D03*
Y11112D02*
D03*
Y10846D02*
D03*
Y10617D02*
D03*
X4140Y10490D02*
D03*
X4381D02*
D03*
X6769Y9474D02*
D03*
X7283Y9550D02*
D03*
X8230Y4953D02*
D03*
X5753Y4293D02*
D03*
X5017D02*
D03*
X4394D02*
D03*
X3658D02*
D03*
X4115Y6058D02*
D03*
X4470Y4724D02*
D03*
X5080Y4953D02*
D03*
X5169Y5397D02*
D03*
X5931Y5474D02*
D03*
X5164Y6060D02*
D03*
X6985Y5814D02*
D03*
X8230Y5524D02*
D03*
X6960Y4724D02*
D03*
X6350D02*
D03*
X5715Y5474D02*
D03*
X5858Y10018D02*
D03*
X6950Y10246D02*
D03*
X7712Y10233D02*
D03*
X7547Y11072D02*
D03*
X7864Y12189D02*
D03*
X6391Y12176D02*
D03*
X5959Y11745D02*
D03*
X5007Y12100D02*
D03*
X9982Y10808D02*
D03*
X9426Y12189D02*
D03*
X9020D02*
D03*
X8474D02*
D03*
X9871Y11745D02*
D03*
X7547Y11326D02*
D03*
X7242Y11757D02*
D03*
X5451Y11110D02*
D03*
X6988Y11313D02*
D03*
Y10653D02*
D03*
X5799Y10936D02*
D03*
X5651Y9538D02*
D03*
X6464Y7214D02*
D03*
X7391Y8484D02*
D03*
X6566Y8738D02*
D03*
X5855Y8458D02*
D03*
X6134Y8522D02*
D03*
X5347Y7976D02*
D03*
X5524Y7315D02*
D03*
X6820Y6553D02*
D03*
X8039Y7544D02*
D03*
X8344Y7582D02*
D03*
X7633Y7112D02*
D03*
X7087Y6553D02*
D03*
X5004Y10033D02*
D03*
X3886Y8712D02*
D03*
X4051D02*
D03*
X3785Y6617D02*
D03*
X4166D02*
D03*
X3785Y7303D02*
D03*
X4166D02*
D03*
X3785Y6960D02*
D03*
X4166D02*
D03*
X3962Y6782D02*
D03*
X7912Y6553D02*
D03*
X8572Y8484D02*
D03*
X7887Y9258D02*
D03*
X5677Y6058D02*
D03*
X8496Y11455D02*
D03*
X8500Y11097D02*
D03*
X8839Y11125D02*
D03*
Y11455D02*
D03*
X9144Y11112D02*
D03*
X9004Y11278D02*
D03*
X8661Y11290D02*
D03*
X9157Y11450D02*
D03*
X8852Y10795D02*
D03*
X5588Y10490D02*
D03*
X5842D02*
D03*
X6109D02*
D03*
X6363D02*
D03*
X6655D02*
D03*
X6921D02*
D03*
X7188D02*
D03*
X7366Y10884D02*
D03*
Y10643D02*
D03*
X5588Y11493D02*
D03*
X5321D02*
D03*
X5080D02*
D03*
X5855D02*
D03*
X6109D02*
D03*
X6375D02*
D03*
X6642D02*
D03*
X6909D02*
D03*
X7175D02*
D03*
X7353Y11303D02*
D03*
X5283Y10490D02*
D03*
X5055D02*
D03*
X4813D02*
D03*
X4610D02*
D03*
X3975Y7125D02*
D03*
X4140Y6261D02*
D03*
X3683Y5867D02*
D03*
D49*
X7175Y9131D02*
D03*
D50*
X4432Y11316D02*
D03*
Y10668D02*
D03*
M02*
