%FSLAX42Y42*%
%MOMM*%
G71*
G01*
G75*
G04 Layer_Physical_Order=4*
G04 Layer_Color=16711680*
%ADD10R,1.22X1.22*%
%ADD11R,1.22X1.22*%
%ADD12R,3.20X4.00*%
%ADD13R,1.27X1.27*%
%ADD14R,1.40X1.40*%
%ADD15O,0.25X1.75*%
%ADD16O,1.75X0.25*%
%ADD17O,1.20X0.35*%
%ADD18R,1.20X0.35*%
%ADD19O,0.35X1.20*%
%ADD20R,0.35X1.20*%
%ADD21R,0.60X1.20*%
%ADD22O,1.30X0.65*%
%ADD23R,1.30X0.65*%
%ADD24O,0.35X1.85*%
%ADD25R,1.27X1.27*%
%ADD26R,1.52X1.52*%
%ADD27C,0.25*%
%ADD28C,0.60*%
%ADD29C,2.00*%
%ADD30C,1.20*%
%ADD31C,0.50*%
%ADD32C,0.40*%
%ADD33C,1.30*%
%ADD34C,0.25*%
%ADD35C,0.35*%
%ADD36C,0.30*%
%ADD37C,0.80*%
%ADD38C,5.00*%
%ADD39C,5.00*%
%ADD40C,1.57*%
%ADD41P,1.70X8X292.5*%
%ADD42R,1.50X1.50*%
%ADD43C,1.50*%
%ADD44C,2.00*%
%ADD45R,2.00X2.00*%
%ADD46R,2.00X2.00*%
%ADD47C,1.52*%
%ADD48C,1.27*%
%ADD49C,1.10*%
%ADD50C,1.70*%
%ADD51R,1.20X0.60*%
%ADD52R,1.75X0.25*%
%ADD53R,0.25X1.75*%
%ADD54O,2.03X0.61*%
%ADD55R,0.69X0.99*%
%ADD56R,1.02X2.03*%
%ADD57R,5.59X8.64*%
%ADD58R,2.03X3.05*%
%ADD59R,3.05X2.03*%
%ADD60R,0.76X1.30*%
%ADD61C,1.00*%
G36*
X9801Y12852D02*
X9783Y12848D01*
X9743Y12831D01*
X9706Y12809D01*
X9673Y12781D01*
X9645Y12748D01*
X9622Y12711D01*
X9606Y12671D01*
X9595Y12629D01*
X9592Y12586D01*
X9595Y12543D01*
X9606Y12500D01*
X9622Y12460D01*
X9645Y12424D01*
X9673Y12391D01*
X9706Y12363D01*
X9743Y12340D01*
X9783Y12323D01*
X9825Y12313D01*
X9868Y12310D01*
X9911Y12313D01*
X9953Y12323D01*
X9993Y12340D01*
X10030Y12363D01*
X10063Y12391D01*
X10091Y12424D01*
X10114Y12460D01*
X10130Y12500D01*
X10135Y12519D01*
X10147Y12517D01*
Y3942D01*
X10135Y3940D01*
X10130Y3959D01*
X10114Y3999D01*
X10091Y4036D01*
X10063Y4069D01*
X10030Y4097D01*
X9993Y4119D01*
X9953Y4136D01*
X9911Y4146D01*
X9868Y4149D01*
X9825Y4146D01*
X9783Y4136D01*
X9743Y4119D01*
X9706Y4097D01*
X9673Y4069D01*
X9645Y4036D01*
X9622Y3999D01*
X9606Y3959D01*
X9595Y3917D01*
X9592Y3874D01*
X9595Y3830D01*
X9606Y3788D01*
X9622Y3748D01*
X9645Y3711D01*
X9673Y3678D01*
X9706Y3650D01*
X9743Y3628D01*
X9783Y3611D01*
X9801Y3607D01*
X9800Y3594D01*
X3789D01*
X3788Y3607D01*
X3806Y3611D01*
X3846Y3628D01*
X3883Y3650D01*
X3916Y3678D01*
X3944Y3711D01*
X3967Y3748D01*
X3983Y3788D01*
X3994Y3830D01*
X3997Y3874D01*
X3994Y3917D01*
X3983Y3959D01*
X3967Y3999D01*
X3944Y4036D01*
X3916Y4069D01*
X3883Y4097D01*
X3846Y4119D01*
X3806Y4136D01*
X3764Y4146D01*
X3721Y4149D01*
X3678Y4146D01*
X3636Y4136D01*
X3596Y4119D01*
X3559Y4097D01*
X3526Y4069D01*
X3498Y4036D01*
X3475Y3999D01*
X3459Y3959D01*
X3454Y3940D01*
X3442Y3942D01*
Y12517D01*
X3454Y12519D01*
X3459Y12500D01*
X3475Y12460D01*
X3498Y12424D01*
X3526Y12391D01*
X3559Y12363D01*
X3596Y12340D01*
X3636Y12323D01*
X3678Y12313D01*
X3721Y12310D01*
X3764Y12313D01*
X3806Y12323D01*
X3846Y12340D01*
X3883Y12363D01*
X3916Y12391D01*
X3944Y12424D01*
X3967Y12460D01*
X3983Y12500D01*
X3994Y12543D01*
X3997Y12586D01*
X3994Y12629D01*
X3983Y12671D01*
X3967Y12711D01*
X3944Y12748D01*
X3916Y12781D01*
X3883Y12809D01*
X3846Y12831D01*
X3806Y12848D01*
X3788Y12852D01*
X3789Y12865D01*
X9800D01*
X9801Y12852D01*
D02*
G37*
%LPC*%
G36*
X7087Y6147D02*
X7063Y6144D01*
X7042Y6135D01*
X7023Y6121D01*
X7009Y6103D01*
X7000Y6081D01*
X6997Y6058D01*
X7000Y6035D01*
X7009Y6013D01*
X7023Y5995D01*
X7042Y5981D01*
X7063Y5972D01*
X7087Y5969D01*
X7110Y5972D01*
X7131Y5981D01*
X7150Y5995D01*
X7164Y6013D01*
X7173Y6035D01*
X7176Y6058D01*
X7173Y6081D01*
X7164Y6103D01*
X7150Y6121D01*
X7131Y6135D01*
X7110Y6144D01*
X7087Y6147D01*
D02*
G37*
G36*
X6490Y6287D02*
X6467Y6284D01*
X6466Y6284D01*
X6404D01*
Y6221D01*
X6403Y6221D01*
X6400Y6198D01*
X6403Y6174D01*
X6404Y6174D01*
Y6112D01*
X6466D01*
X6467Y6111D01*
X6490Y6108D01*
X6513Y6111D01*
X6513Y6112D01*
X6576D01*
Y6174D01*
X6576Y6174D01*
X6579Y6198D01*
X6576Y6221D01*
X6576Y6221D01*
Y6284D01*
X6513D01*
X6513Y6284D01*
X6490Y6287D01*
D02*
G37*
G36*
X4115Y5919D02*
X4092Y5916D01*
X4070Y5907D01*
X4052Y5892D01*
X4037Y5874D01*
X4029Y5852D01*
X4026Y5829D01*
X4029Y5806D01*
X4037Y5785D01*
X4052Y5766D01*
X4070Y5752D01*
X4092Y5743D01*
X4115Y5740D01*
X4138Y5743D01*
X4159Y5752D01*
X4178Y5766D01*
X4192Y5785D01*
X4201Y5806D01*
X4204Y5829D01*
X4201Y5852D01*
X4192Y5874D01*
X4178Y5892D01*
X4159Y5907D01*
X4138Y5916D01*
X4115Y5919D01*
D02*
G37*
G36*
X5372Y6147D02*
X5349Y6144D01*
X5327Y6135D01*
X5309Y6121D01*
X5295Y6103D01*
X5286Y6081D01*
X5283Y6058D01*
X5286Y6035D01*
X5295Y6013D01*
X5309Y5995D01*
X5327Y5981D01*
X5349Y5972D01*
X5372Y5969D01*
X5395Y5972D01*
X5417Y5981D01*
X5435Y5995D01*
X5449Y6013D01*
X5458Y6035D01*
X5461Y6058D01*
X5458Y6081D01*
X5449Y6103D01*
X5435Y6121D01*
X5417Y6135D01*
X5395Y6144D01*
X5372Y6147D01*
D02*
G37*
G36*
X3683Y6300D02*
X3660Y6297D01*
X3638Y6288D01*
X3620Y6273D01*
X3606Y6255D01*
X3597Y6233D01*
X3594Y6210D01*
X3597Y6187D01*
X3606Y6166D01*
X3620Y6147D01*
X3638Y6133D01*
X3660Y6124D01*
X3683Y6121D01*
X3706Y6124D01*
X3728Y6133D01*
X3746Y6147D01*
X3760Y6166D01*
X3769Y6187D01*
X3772Y6210D01*
X3769Y6233D01*
X3760Y6255D01*
X3746Y6273D01*
X3728Y6288D01*
X3706Y6297D01*
X3683Y6300D01*
D02*
G37*
G36*
X8344Y7823D02*
X8329Y7820D01*
X8317Y7812D01*
X8309Y7800D01*
X8306Y7785D01*
Y7582D01*
X8306Y7582D01*
X8306D01*
X8309Y7567D01*
X8317Y7555D01*
X8329Y7547D01*
X8344Y7544D01*
X8359Y7547D01*
X8371Y7555D01*
X8371Y7555D01*
X8371Y7555D01*
X8411Y7594D01*
X8572D01*
X8587Y7597D01*
X8600Y7606D01*
X8608Y7618D01*
X8611Y7633D01*
X8608Y7647D01*
X8600Y7660D01*
X8587Y7668D01*
X8572Y7671D01*
X8395D01*
X8392Y7670D01*
X8382Y7678D01*
Y7785D01*
X8379Y7800D01*
X8371Y7812D01*
X8359Y7820D01*
X8344Y7823D01*
D02*
G37*
G36*
X9609Y8197D02*
X9467D01*
X9445Y8193D01*
X9427Y8181D01*
X9414Y8162D01*
X9410Y8141D01*
X9414Y8119D01*
X9427Y8101D01*
X9445Y8088D01*
X9467Y8084D01*
X9609D01*
X9630Y8088D01*
X9649Y8101D01*
X9661Y8119D01*
X9665Y8141D01*
X9661Y8162D01*
X9649Y8181D01*
X9630Y8193D01*
X9609Y8197D01*
D02*
G37*
G36*
X3912Y6350D02*
X3888Y6347D01*
X3867Y6338D01*
X3848Y6324D01*
X3834Y6306D01*
X3825Y6284D01*
X3822Y6261D01*
X3825Y6238D01*
X3834Y6216D01*
X3848Y6198D01*
X3867Y6184D01*
X3888Y6175D01*
X3912Y6172D01*
X3935Y6175D01*
X3956Y6184D01*
X3975Y6198D01*
X3989Y6216D01*
X3998Y6238D01*
X4001Y6261D01*
X3998Y6284D01*
X3989Y6306D01*
X3975Y6324D01*
X3956Y6338D01*
X3935Y6347D01*
X3912Y6350D01*
D02*
G37*
G36*
X3734Y8344D02*
X3711Y8341D01*
X3710Y8341D01*
X3648D01*
Y8279D01*
X3648Y8278D01*
X3645Y8255D01*
X3648Y8232D01*
X3648Y8231D01*
Y8169D01*
X3658D01*
Y8138D01*
X3648D01*
Y7966D01*
X3658D01*
Y7935D01*
X3648D01*
Y7872D01*
X3648Y7872D01*
X3645Y7849D01*
X3648Y7825D01*
X3648Y7825D01*
Y7763D01*
X3658D01*
Y7633D01*
X3661Y7613D01*
X3665Y7603D01*
X3660Y7592D01*
X3657Y7569D01*
X3660Y7546D01*
X3669Y7525D01*
X3671Y7523D01*
Y7443D01*
X3822D01*
Y7523D01*
X3824Y7525D01*
X3833Y7546D01*
X3836Y7569D01*
X3833Y7592D01*
X3824Y7614D01*
X3822Y7616D01*
Y7696D01*
X3809D01*
Y7763D01*
X3820D01*
Y7825D01*
X3820Y7825D01*
X3823Y7849D01*
X3820Y7872D01*
X3820Y7872D01*
Y7935D01*
X3809D01*
Y7966D01*
X3820D01*
Y8138D01*
X3809D01*
Y8169D01*
X3820D01*
Y8231D01*
X3820Y8232D01*
X3823Y8255D01*
X3820Y8278D01*
X3820Y8279D01*
Y8341D01*
X3758D01*
X3757Y8341D01*
X3734Y8344D01*
D02*
G37*
G36*
X5017Y4610D02*
X4993Y4607D01*
X4972Y4599D01*
X4953Y4584D01*
X4939Y4566D01*
X4930Y4544D01*
X4927Y4521D01*
X4930Y4498D01*
X4939Y4477D01*
X4953Y4458D01*
X4972Y4444D01*
X4993Y4435D01*
X5017Y4432D01*
X5040Y4435D01*
X5061Y4444D01*
X5080Y4458D01*
X5094Y4477D01*
X5103Y4498D01*
X5106Y4521D01*
X5103Y4544D01*
X5094Y4566D01*
X5080Y4584D01*
X5061Y4599D01*
X5040Y4607D01*
X5017Y4610D01*
D02*
G37*
G36*
X6147Y5042D02*
X6124Y5039D01*
X6102Y5030D01*
X6084Y5016D01*
X6069Y4998D01*
X6061Y4976D01*
X6058Y4953D01*
X6061Y4930D01*
X6069Y4908D01*
X6084Y4890D01*
X6102Y4876D01*
X6109Y4873D01*
Y4594D01*
X6096Y4584D01*
X6082Y4566D01*
X6073Y4544D01*
X6070Y4521D01*
X6073Y4498D01*
X6082Y4477D01*
X6096Y4458D01*
X6115Y4444D01*
X6136Y4435D01*
X6160Y4432D01*
X6183Y4435D01*
X6204Y4444D01*
X6223Y4458D01*
X6237Y4477D01*
X6246Y4498D01*
X6249Y4521D01*
X6246Y4544D01*
X6237Y4566D01*
X6223Y4584D01*
X6210Y4594D01*
Y4891D01*
X6224Y4908D01*
X6233Y4930D01*
X6236Y4953D01*
X6233Y4976D01*
X6224Y4998D01*
X6210Y5016D01*
X6191Y5030D01*
X6170Y5039D01*
X6147Y5042D01*
D02*
G37*
G36*
X8867Y4810D02*
X8824Y4806D01*
X8782Y4796D01*
X8742Y4779D01*
X8705Y4757D01*
X8672Y4729D01*
X8644Y4696D01*
X8621Y4659D01*
X8605Y4619D01*
X8594Y4577D01*
X8591Y4534D01*
X8594Y4491D01*
X8605Y4449D01*
X8621Y4409D01*
X8644Y4372D01*
X8672Y4339D01*
X8705Y4311D01*
X8742Y4288D01*
X8782Y4272D01*
X8824Y4262D01*
X8867Y4258D01*
X8910Y4262D01*
X8952Y4272D01*
X8992Y4288D01*
X9029Y4311D01*
X9062Y4339D01*
X9090Y4372D01*
X9112Y4409D01*
X9129Y4449D01*
X9139Y4491D01*
X9142Y4534D01*
X9139Y4577D01*
X9129Y4619D01*
X9112Y4659D01*
X9090Y4696D01*
X9062Y4729D01*
X9029Y4757D01*
X8992Y4779D01*
X8952Y4796D01*
X8910Y4806D01*
X8867Y4810D01*
D02*
G37*
G36*
X3658Y4610D02*
X3634Y4607D01*
X3613Y4599D01*
X3594Y4584D01*
X3580Y4566D01*
X3571Y4544D01*
X3568Y4521D01*
X3571Y4498D01*
X3580Y4477D01*
X3594Y4458D01*
X3613Y4444D01*
X3634Y4435D01*
X3658Y4432D01*
X3681Y4435D01*
X3702Y4444D01*
X3721Y4458D01*
X3735Y4477D01*
X3744Y4498D01*
X3747Y4521D01*
X3744Y4544D01*
X3735Y4566D01*
X3721Y4584D01*
X3702Y4599D01*
X3681Y4607D01*
X3658Y4610D01*
D02*
G37*
G36*
X8230Y4814D02*
X8206Y4811D01*
X8185Y4802D01*
X8166Y4788D01*
X8152Y4769D01*
X8143Y4748D01*
X8140Y4724D01*
X8143Y4701D01*
X8152Y4680D01*
X8166Y4661D01*
X8185Y4647D01*
X8206Y4638D01*
X8230Y4635D01*
X8253Y4638D01*
X8274Y4647D01*
X8293Y4661D01*
X8307Y4680D01*
X8316Y4701D01*
X8319Y4724D01*
X8316Y4748D01*
X8307Y4769D01*
X8293Y4788D01*
X8274Y4802D01*
X8253Y4811D01*
X8230Y4814D01*
D02*
G37*
G36*
X8725Y5610D02*
X8698Y5607D01*
X8673Y5596D01*
X8651Y5579D01*
X8634Y5558D01*
X8624Y5533D01*
X8620Y5505D01*
X8624Y5478D01*
X8634Y5453D01*
X8651Y5431D01*
X8673Y5415D01*
X8698Y5404D01*
X8725Y5401D01*
X8752Y5404D01*
X8777Y5415D01*
X8799Y5431D01*
X8816Y5453D01*
X8826Y5478D01*
X8830Y5505D01*
X8826Y5533D01*
X8816Y5558D01*
X8799Y5579D01*
X8777Y5596D01*
X8752Y5607D01*
X8725Y5610D01*
D02*
G37*
G36*
Y5887D02*
X8698Y5884D01*
X8673Y5873D01*
X8651Y5857D01*
X8634Y5835D01*
X8624Y5810D01*
X8620Y5783D01*
X8624Y5756D01*
X8634Y5730D01*
X8651Y5709D01*
X8673Y5692D01*
X8698Y5682D01*
X8725Y5678D01*
X8752Y5682D01*
X8777Y5692D01*
X8799Y5709D01*
X8816Y5730D01*
X8826Y5756D01*
X8830Y5783D01*
X8826Y5810D01*
X8816Y5835D01*
X8799Y5857D01*
X8777Y5873D01*
X8752Y5884D01*
X8725Y5887D01*
D02*
G37*
G36*
X3975Y5271D02*
X3952Y5268D01*
X3930Y5259D01*
X3912Y5245D01*
X3898Y5226D01*
X3889Y5205D01*
X3886Y5182D01*
X3889Y5158D01*
X3898Y5137D01*
X3912Y5118D01*
X3930Y5104D01*
X3952Y5095D01*
X3975Y5092D01*
X3998Y5095D01*
X4020Y5104D01*
X4038Y5118D01*
X4052Y5137D01*
X4061Y5158D01*
X4064Y5182D01*
X4061Y5205D01*
X4052Y5226D01*
X4038Y5245D01*
X4020Y5259D01*
X3998Y5268D01*
X3975Y5271D01*
D02*
G37*
G36*
X3708Y5625D02*
X3676Y5621D01*
X3645Y5608D01*
X3619Y5588D01*
X3599Y5562D01*
X3587Y5532D01*
X3582Y5499D01*
X3587Y5466D01*
X3599Y5436D01*
X3619Y5410D01*
X3645Y5390D01*
X3673Y5378D01*
Y5377D01*
X3673D01*
Y5367D01*
Y5367D01*
D01*
D01*
X3673D01*
D01*
Y5366D01*
X3645Y5354D01*
X3619Y5334D01*
X3599Y5308D01*
X3587Y5278D01*
X3582Y5245D01*
X3587Y5212D01*
X3599Y5182D01*
X3619Y5156D01*
X3645Y5136D01*
X3676Y5123D01*
X3708Y5119D01*
X3741Y5123D01*
X3771Y5136D01*
X3798Y5156D01*
X3818Y5182D01*
X3830Y5212D01*
X3834Y5245D01*
X3830Y5278D01*
X3818Y5308D01*
X3798Y5334D01*
X3771Y5354D01*
X3744Y5366D01*
Y5367D01*
X3744D01*
Y5377D01*
Y5377D01*
D01*
D01*
X3744D01*
D01*
Y5378D01*
X3771Y5390D01*
X3798Y5410D01*
X3818Y5436D01*
X3830Y5466D01*
X3834Y5499D01*
X3830Y5532D01*
X3818Y5562D01*
X3798Y5588D01*
X3771Y5608D01*
X3741Y5621D01*
X3708Y5625D01*
D02*
G37*
G36*
X5451Y11428D02*
X5428Y11425D01*
X5427Y11424D01*
X5365D01*
Y11362D01*
X5365Y11361D01*
X5362Y11338D01*
X5365Y11315D01*
X5365Y11315D01*
Y11252D01*
X5427D01*
X5428Y11252D01*
X5451Y11249D01*
X5474Y11252D01*
X5475Y11252D01*
X5537D01*
Y11315D01*
X5537Y11315D01*
X5540Y11338D01*
X5537Y11361D01*
X5537Y11362D01*
Y11424D01*
X5475D01*
X5474Y11425D01*
X5451Y11428D01*
D02*
G37*
G36*
X7724Y11847D02*
X7701Y11844D01*
X7680Y11835D01*
X7661Y11821D01*
X7647Y11802D01*
X7638Y11781D01*
X7635Y11757D01*
X7638Y11734D01*
X7647Y11713D01*
X7661Y11694D01*
X7680Y11680D01*
X7701Y11671D01*
X7724Y11668D01*
X7748Y11671D01*
X7769Y11680D01*
X7788Y11694D01*
X7802Y11713D01*
X7811Y11734D01*
X7814Y11757D01*
X7811Y11781D01*
X7802Y11802D01*
X7788Y11821D01*
X7769Y11835D01*
X7748Y11844D01*
X7724Y11847D01*
D02*
G37*
G36*
X7712Y10551D02*
X7689Y10548D01*
X7667Y10539D01*
X7649Y10525D01*
X7634Y10507D01*
X7625Y10485D01*
X7622Y10462D01*
X7625Y10439D01*
X7634Y10417D01*
X7649Y10399D01*
X7667Y10385D01*
X7689Y10376D01*
X7712Y10373D01*
X7735Y10376D01*
X7756Y10385D01*
X7775Y10399D01*
X7789Y10417D01*
X7798Y10439D01*
X7801Y10462D01*
X7798Y10485D01*
X7789Y10507D01*
X7775Y10525D01*
X7756Y10539D01*
X7735Y10548D01*
X7712Y10551D01*
D02*
G37*
G36*
X4943Y11097D02*
X4917Y11094D01*
X4892Y11084D01*
X4871Y11068D01*
X4855Y11046D01*
X4845Y11022D01*
X4841Y10995D01*
X4845Y10969D01*
X4855Y10944D01*
X4871Y10923D01*
X4892Y10907D01*
X4917Y10897D01*
X4943Y10893D01*
X4961Y10896D01*
X4970Y10887D01*
X4968Y10868D01*
X4972Y10842D01*
X4982Y10817D01*
X4998Y10796D01*
X5019Y10780D01*
X5044Y10770D01*
X5070Y10766D01*
X5097Y10770D01*
X5121Y10780D01*
X5142Y10796D01*
X5158Y10817D01*
X5169Y10842D01*
X5172Y10868D01*
X5169Y10895D01*
X5158Y10919D01*
X5142Y10941D01*
X5121Y10957D01*
X5097Y10967D01*
X5070Y10970D01*
X5052Y10968D01*
X5043Y10977D01*
X5045Y10995D01*
X5042Y11022D01*
X5031Y11046D01*
X5015Y11068D01*
X4994Y11084D01*
X4970Y11094D01*
X4943Y11097D01*
D02*
G37*
G36*
X5007Y11961D02*
X4983Y11958D01*
X4962Y11949D01*
X4943Y11935D01*
X4929Y11916D01*
X4920Y11895D01*
X4917Y11872D01*
X4920Y11849D01*
X4929Y11827D01*
X4943Y11809D01*
X4962Y11794D01*
X4983Y11785D01*
X5007Y11782D01*
X5030Y11785D01*
X5051Y11794D01*
X5070Y11809D01*
X5084Y11827D01*
X5093Y11849D01*
X5096Y11872D01*
X5093Y11895D01*
X5084Y11916D01*
X5070Y11935D01*
X5051Y11949D01*
X5030Y11958D01*
X5007Y11961D01*
D02*
G37*
G36*
X4470Y12242D02*
X4444Y12239D01*
X4420Y12229D01*
X4399Y12213D01*
X4383Y12192D01*
X4373Y12167D01*
X4370Y12141D01*
X4373Y12115D01*
X4383Y12091D01*
X4399Y12070D01*
X4420Y12054D01*
X4444Y12044D01*
X4470Y12040D01*
X4497Y12044D01*
X4521Y12054D01*
X4542Y12070D01*
X4558Y12091D01*
X4568Y12115D01*
X4571Y12141D01*
X4568Y12167D01*
X4558Y12192D01*
X4542Y12213D01*
X4521Y12229D01*
X4497Y12239D01*
X4470Y12242D01*
D02*
G37*
G36*
X4724D02*
X4698Y12239D01*
X4674Y12229D01*
X4653Y12213D01*
X4637Y12192D01*
X4627Y12167D01*
X4624Y12141D01*
X4627Y12115D01*
X4637Y12091D01*
X4653Y12070D01*
X4674Y12054D01*
X4698Y12044D01*
X4724Y12040D01*
X4751Y12044D01*
X4775Y12054D01*
X4796Y12070D01*
X4812Y12091D01*
X4822Y12115D01*
X4825Y12141D01*
X4822Y12167D01*
X4812Y12192D01*
X4796Y12213D01*
X4775Y12229D01*
X4751Y12239D01*
X4724Y12242D01*
D02*
G37*
G36*
X9426Y12050D02*
X9403Y12047D01*
X9382Y12038D01*
X9363Y12024D01*
X9349Y12005D01*
X9340Y11984D01*
X9337Y11961D01*
X9340Y11937D01*
X9349Y11916D01*
X9363Y11897D01*
X9382Y11883D01*
X9403Y11874D01*
X9426Y11871D01*
X9449Y11874D01*
X9471Y11883D01*
X9489Y11897D01*
X9504Y11916D01*
X9512Y11937D01*
X9515Y11961D01*
X9512Y11984D01*
X9504Y12005D01*
X9489Y12024D01*
X9471Y12038D01*
X9449Y12047D01*
X9426Y12050D01*
D02*
G37*
G36*
X9871Y12151D02*
X9848Y12148D01*
X9826Y12140D01*
X9808Y12125D01*
X9793Y12107D01*
X9784Y12085D01*
X9782Y12065D01*
X9713Y11996D01*
X9700Y11978D01*
X9696Y11956D01*
Y10990D01*
X9684Y10986D01*
X9640Y11030D01*
X9644Y11038D01*
X9647Y11059D01*
X9644Y11080D01*
X9636Y11099D01*
X9623Y11116D01*
X9615Y11122D01*
Y11135D01*
X9623Y11142D01*
X9636Y11158D01*
X9644Y11178D01*
X9647Y11199D01*
X9644Y11219D01*
X9636Y11239D01*
X9623Y11256D01*
X9615Y11262D01*
Y11275D01*
X9623Y11281D01*
X9636Y11298D01*
X9644Y11317D01*
X9647Y11338D01*
X9644Y11359D01*
X9636Y11379D01*
X9623Y11395D01*
X9615Y11402D01*
Y11414D01*
X9623Y11421D01*
X9636Y11438D01*
X9644Y11457D01*
X9647Y11478D01*
X9644Y11499D01*
X9636Y11518D01*
X9623Y11535D01*
X9606Y11548D01*
X9587Y11556D01*
X9566Y11559D01*
X9545Y11556D01*
X9526Y11548D01*
X9509Y11535D01*
X9496Y11518D01*
X9488Y11499D01*
X9485Y11478D01*
X9488Y11457D01*
X9491Y11449D01*
X9373Y11331D01*
X9362Y11336D01*
Y11771D01*
X9359Y11786D01*
X9350Y11798D01*
X9288Y11861D01*
X9276Y11869D01*
X9261Y11872D01*
X8976D01*
X8975Y11874D01*
X8963Y11891D01*
X8946Y11903D01*
X8926Y11912D01*
X8906Y11914D01*
X8885Y11912D01*
X8865Y11903D01*
X8848Y11891D01*
X8836Y11874D01*
X8828Y11854D01*
X8825Y11834D01*
X8828Y11813D01*
X8836Y11793D01*
X8848Y11777D01*
X8865Y11764D01*
X8885Y11756D01*
X8906Y11753D01*
X8926Y11756D01*
X8946Y11764D01*
X8963Y11777D01*
X8975Y11793D01*
X8976Y11795D01*
X9245D01*
X9285Y11755D01*
Y10636D01*
X9189Y10540D01*
X9047D01*
X9032Y10537D01*
X9020Y10529D01*
X8931Y10440D01*
X8923Y10428D01*
X8920Y10413D01*
Y10109D01*
X8920Y10109D01*
X8920D01*
X8923Y10094D01*
X8931Y10082D01*
X8934Y10079D01*
Y9927D01*
X8867Y9860D01*
X8859Y9848D01*
X8856Y9833D01*
Y9682D01*
X8818Y9645D01*
X8197D01*
X8183Y9642D01*
X8170Y9634D01*
X8011Y9474D01*
X7681D01*
Y9636D01*
D01*
Y9636D01*
X7681Y9636D01*
Y9642D01*
X7681D01*
Y9814D01*
X7509D01*
Y9642D01*
X7509Y9642D01*
X7509Y9636D01*
X7509D01*
Y9474D01*
X7102D01*
X7058Y9519D01*
Y9636D01*
X6886D01*
Y9464D01*
X7004D01*
X7049Y9419D01*
X7044Y9408D01*
X6886D01*
Y9236D01*
X6934D01*
Y9217D01*
X6886D01*
Y9144D01*
X6858D01*
Y9194D01*
X6681D01*
Y9017D01*
X6686D01*
X6691Y9006D01*
X6615Y8930D01*
X6604Y8935D01*
Y9069D01*
X6486D01*
X6486Y9069D01*
Y9069D01*
X6477Y9069D01*
X6477D01*
X6477D01*
X6468Y9069D01*
X6468Y9069D01*
Y9069D01*
X6359D01*
X6359Y9069D01*
Y9069D01*
X6350Y9069D01*
X6350D01*
X6350D01*
X6341Y9069D01*
X6341Y9069D01*
Y9069D01*
X6223D01*
Y8889D01*
X6341D01*
X6341Y8889D01*
Y8889D01*
X6350Y8889D01*
X6350D01*
X6350D01*
X6359Y8889D01*
X6359Y8889D01*
Y8889D01*
X6468D01*
X6468Y8889D01*
Y8889D01*
X6472Y8889D01*
X6477Y8877D01*
X6425Y8825D01*
X6423Y8824D01*
X6423Y8824D01*
Y8824D01*
X6423Y8824D01*
X6251D01*
Y8776D01*
X6220D01*
Y8836D01*
X6158D01*
X6157Y8837D01*
X6134Y8840D01*
X6111Y8837D01*
X6110Y8836D01*
X6048D01*
Y8774D01*
X6048Y8773D01*
X6045Y8754D01*
Y8754D01*
X6042Y8754D01*
D01*
X6033Y8755D01*
Y8755D01*
X6033Y8755D01*
X6033Y8755D01*
Y8763D01*
X6030Y8778D01*
X6021Y8790D01*
X5983Y8828D01*
X5971Y8836D01*
X5956Y8839D01*
X5953D01*
Y8989D01*
X5906D01*
Y9020D01*
X5953D01*
Y9068D01*
X5969D01*
Y9017D01*
X6146D01*
Y9194D01*
X5969D01*
Y9144D01*
X5953D01*
Y9192D01*
X5906D01*
Y9223D01*
X5941D01*
Y9395D01*
X5769D01*
Y9347D01*
X5737D01*
Y9395D01*
X5566D01*
Y9250D01*
X5554Y9245D01*
X5450Y9349D01*
X5438Y9357D01*
X5423Y9360D01*
X5242D01*
Y9509D01*
X5194D01*
Y9665D01*
X5192Y9679D01*
X5183Y9692D01*
X5087Y9788D01*
X5090Y9794D01*
X5093Y9817D01*
X5090Y9840D01*
X5081Y9862D01*
X5067Y9880D01*
X5048Y9894D01*
X5027Y9903D01*
X5004Y9906D01*
X4981Y9903D01*
X4959Y9894D01*
X4941Y9880D01*
X4926Y9862D01*
X4918Y9840D01*
X4915Y9817D01*
X4918Y9794D01*
X4926Y9772D01*
X4941Y9754D01*
X4959Y9740D01*
X4981Y9731D01*
X5004Y9728D01*
X5027Y9731D01*
X5033Y9734D01*
X5118Y9649D01*
Y9509D01*
X5074D01*
X4815Y9768D01*
X4803Y9776D01*
X4788Y9779D01*
X4775D01*
Y9994D01*
X4774D01*
Y10084D01*
Y10249D01*
X4770Y10282D01*
X4757Y10312D01*
X4737Y10338D01*
X4711Y10358D01*
X4681Y10371D01*
X4648Y10375D01*
X4616Y10371D01*
X4590Y10360D01*
X4569D01*
Y10360D01*
X4397D01*
Y10188D01*
X4522D01*
Y10084D01*
Y10047D01*
X4510Y10042D01*
X4400Y10153D01*
X4385Y10162D01*
X4369Y10166D01*
X4254D01*
X4238Y10162D01*
X4224Y10153D01*
X4109Y10038D01*
X4100Y10024D01*
X4097Y10008D01*
Y9994D01*
X4040D01*
X3912Y10123D01*
X3893Y10137D01*
X3884Y10141D01*
X3872Y10146D01*
X3848Y10149D01*
X3821D01*
Y10183D01*
X3571D01*
Y9933D01*
X3648D01*
X3650Y9921D01*
X3633Y9914D01*
X3607Y9894D01*
X3587Y9867D01*
X3574Y9837D01*
X3570Y9804D01*
X3574Y9772D01*
X3587Y9741D01*
X3605Y9717D01*
Y9639D01*
X3605Y9639D01*
X3605D01*
X3608Y9616D01*
X3613Y9603D01*
X3617Y9594D01*
X3632Y9575D01*
X3632Y9575D01*
X3632Y9575D01*
Y9575D01*
X3632Y9575D01*
X3798Y9409D01*
Y9249D01*
X3793Y9248D01*
X3779Y9238D01*
X3665Y9124D01*
X3655Y9110D01*
X3652Y9093D01*
Y8966D01*
X3655Y8950D01*
X3665Y8935D01*
X3779Y8821D01*
X3779D01*
X3779Y8821D01*
X3779Y8821D01*
Y8821D01*
X3793Y8812D01*
X3810Y8808D01*
X4153D01*
X4170Y8812D01*
X4184Y8821D01*
X4292Y8929D01*
X4303Y8924D01*
Y8865D01*
Y8611D01*
Y8610D01*
X4296Y8601D01*
X4293Y8593D01*
X4280Y8590D01*
X4156Y8715D01*
X4140Y8727D01*
X4122Y8734D01*
X4102Y8737D01*
X4083Y8734D01*
X4064Y8727D01*
X4049Y8715D01*
X4037Y8699D01*
X4029Y8681D01*
X4026Y8661D01*
X4029Y8642D01*
X4037Y8624D01*
X4049Y8608D01*
X4153Y8503D01*
Y8236D01*
X4134Y8216D01*
X4038D01*
Y8268D01*
X4035Y8287D01*
X4028Y8306D01*
X4016Y8321D01*
X4000Y8333D01*
X3982Y8341D01*
X3962Y8343D01*
X3943Y8341D01*
X3925Y8333D01*
X3909Y8321D01*
X3897Y8306D01*
X3889Y8287D01*
X3887Y8268D01*
Y8141D01*
Y7899D01*
Y7023D01*
X3889Y7004D01*
X3897Y6985D01*
X3909Y6970D01*
X3925Y6958D01*
X3943Y6950D01*
X3962Y6947D01*
X3982Y6950D01*
X4000Y6958D01*
X4016Y6970D01*
X4028Y6985D01*
X4035Y7004D01*
X4038Y7023D01*
Y7824D01*
X4166D01*
X4185Y7826D01*
X4203Y7834D01*
X4219Y7846D01*
X4231Y7862D01*
X4239Y7880D01*
X4241Y7899D01*
X4239Y7919D01*
X4231Y7937D01*
X4219Y7953D01*
X4203Y7965D01*
X4185Y7972D01*
X4166Y7975D01*
X4038D01*
Y8065D01*
X4166D01*
X4185Y8068D01*
X4203Y8075D01*
X4219Y8087D01*
X4272Y8140D01*
X4284Y8135D01*
Y7919D01*
X4287Y7896D01*
X4296Y7874D01*
X4299Y7870D01*
X4303Y7864D01*
Y7848D01*
X4151Y7696D01*
X4128D01*
Y7669D01*
X4125Y7665D01*
X4116Y7643D01*
X4113Y7620D01*
X4116Y7597D01*
X4125Y7575D01*
X4128Y7571D01*
Y7443D01*
X4279D01*
Y7567D01*
X4292Y7580D01*
X4303Y7575D01*
Y6477D01*
X4307Y6454D01*
X4316Y6432D01*
X4330Y6413D01*
X4349Y6398D01*
X4371Y6389D01*
X4394Y6386D01*
X4418Y6389D01*
X4440Y6398D01*
X4458Y6413D01*
X4473Y6432D01*
X4482Y6454D01*
X4485Y6477D01*
Y6655D01*
X4497Y6659D01*
X4512Y6635D01*
X4540Y6602D01*
X4573Y6574D01*
X4610Y6551D01*
X4650Y6534D01*
X4692Y6524D01*
X4735Y6521D01*
X4778Y6524D01*
X4820Y6534D01*
X4860Y6551D01*
X4897Y6574D01*
X4930Y6602D01*
X4958Y6635D01*
X4981Y6671D01*
X4997Y6711D01*
X5007Y6754D01*
X5011Y6797D01*
X5010Y6799D01*
X5022Y6804D01*
X5122Y6704D01*
Y6666D01*
X5111Y6660D01*
X5099Y6669D01*
X5078Y6678D01*
X5055Y6681D01*
X5031Y6678D01*
X5010Y6669D01*
X4991Y6654D01*
X4977Y6636D01*
X4968Y6614D01*
X4965Y6591D01*
X4968Y6568D01*
X4977Y6547D01*
X4991Y6528D01*
X5010Y6514D01*
X5031Y6505D01*
X5055Y6502D01*
X5078Y6505D01*
X5099Y6514D01*
X5118Y6528D01*
X5132Y6547D01*
X5138Y6561D01*
X5150Y6564D01*
X5184Y6530D01*
X5184D01*
X5184Y6530D01*
X5184Y6530D01*
Y6530D01*
X5197Y6522D01*
X5211Y6519D01*
X5579D01*
X5594Y6522D01*
X5606Y6530D01*
X5642Y6566D01*
X5654Y6561D01*
X5651Y6540D01*
X5654Y6517D01*
X5663Y6496D01*
X5677Y6477D01*
X5696Y6463D01*
X5717Y6454D01*
X5740Y6451D01*
X5764Y6454D01*
X5785Y6463D01*
X5804Y6477D01*
X5818Y6496D01*
X5820Y6502D01*
X5870D01*
Y6480D01*
X6042D01*
X6042Y6480D01*
Y6480D01*
X6042Y6480D01*
X6044Y6478D01*
X6081Y6440D01*
X6081D01*
X6081Y6440D01*
X6081D01*
X6081Y6440D01*
Y6440D01*
X6081Y6440D01*
Y6440D01*
X6094Y6432D01*
X6108Y6429D01*
X6242D01*
X6248Y6423D01*
Y6284D01*
X6201D01*
Y6252D01*
X6188Y6250D01*
X6186Y6255D01*
X6172Y6273D01*
X6153Y6288D01*
X6132Y6297D01*
X6109Y6300D01*
X6086Y6297D01*
X6064Y6288D01*
X6046Y6273D01*
X6031Y6255D01*
X6022Y6233D01*
X6019Y6210D01*
X6022Y6187D01*
X6031Y6166D01*
X6046Y6147D01*
X6064Y6133D01*
X6086Y6124D01*
X6096Y6123D01*
Y6087D01*
X6089Y6084D01*
X6071Y6070D01*
X6057Y6052D01*
X6048Y6030D01*
X6045Y6007D01*
X6048Y5984D01*
X6057Y5962D01*
X6071Y5944D01*
X6089Y5930D01*
X6111Y5921D01*
X6134Y5918D01*
X6157Y5921D01*
X6179Y5930D01*
X6189Y5938D01*
X6201Y5932D01*
Y5883D01*
X6244D01*
X6247Y5871D01*
X6242Y5869D01*
X6223Y5854D01*
X6209Y5836D01*
X6200Y5814D01*
X6197Y5791D01*
X6200Y5768D01*
X6209Y5747D01*
X6223Y5728D01*
X6242Y5714D01*
X6263Y5705D01*
X6287Y5702D01*
X6310Y5705D01*
X6331Y5714D01*
X6350Y5728D01*
X6363Y5745D01*
X6375D01*
X6388Y5728D01*
X6407Y5714D01*
X6428Y5705D01*
X6452Y5702D01*
X6475Y5705D01*
X6496Y5714D01*
X6515Y5728D01*
X6529Y5747D01*
X6538Y5768D01*
X6541Y5791D01*
X6538Y5814D01*
X6529Y5836D01*
X6528Y5837D01*
Y5883D01*
X6576D01*
Y5971D01*
X6588Y5975D01*
X6592Y5969D01*
X6610Y5955D01*
X6632Y5946D01*
X6655Y5943D01*
X6678Y5946D01*
X6699Y5955D01*
X6718Y5969D01*
X6732Y5988D01*
X6741Y6009D01*
X6744Y6033D01*
X6741Y6056D01*
X6732Y6077D01*
X6718Y6096D01*
X6699Y6110D01*
X6678Y6119D01*
X6655Y6122D01*
X6632Y6119D01*
X6610Y6110D01*
X6592Y6096D01*
X6577Y6077D01*
X6569Y6056D01*
X6568Y6055D01*
X6404D01*
Y5883D01*
X6410D01*
X6412Y5871D01*
X6407Y5869D01*
X6388Y5854D01*
X6375Y5837D01*
X6363D01*
X6350Y5854D01*
X6331Y5869D01*
X6326Y5871D01*
X6329Y5883D01*
X6372D01*
Y6055D01*
X6209D01*
X6197Y6070D01*
X6179Y6084D01*
X6172Y6087D01*
Y6148D01*
X6186Y6166D01*
X6188Y6171D01*
X6201Y6168D01*
Y6112D01*
X6372D01*
Y6284D01*
X6325D01*
Y6439D01*
X6322Y6454D01*
X6314Y6466D01*
X6285Y6494D01*
X6273Y6503D01*
X6271Y6503D01*
Y6572D01*
X6314Y6615D01*
X6322Y6627D01*
X6325Y6642D01*
Y6683D01*
X6474D01*
Y6718D01*
X6505D01*
Y6670D01*
X6553D01*
Y6639D01*
X6505D01*
Y6577D01*
X6505Y6576D01*
X6502Y6553D01*
X6505Y6530D01*
X6505Y6529D01*
Y6490D01*
X6492D01*
X6415Y6568D01*
X6403Y6576D01*
X6388Y6579D01*
X6373Y6576D01*
X6361Y6568D01*
X6353Y6555D01*
X6350Y6540D01*
X6353Y6526D01*
X6361Y6513D01*
X6449Y6425D01*
X6462Y6417D01*
X6476Y6414D01*
X6692D01*
X6707Y6417D01*
X6719Y6425D01*
X6719Y6425D01*
X6719Y6425D01*
X6809Y6515D01*
X6820D01*
X6835Y6518D01*
X6847Y6526D01*
X6855Y6539D01*
X6858Y6553D01*
Y6756D01*
X6855Y6771D01*
X6847Y6783D01*
X6835Y6792D01*
X6820Y6795D01*
X6805Y6792D01*
X6793Y6783D01*
X6785Y6771D01*
X6782Y6756D01*
Y6589D01*
X6779Y6589D01*
X6766Y6580D01*
X6689Y6503D01*
X6677Y6508D01*
Y6529D01*
X6678Y6530D01*
X6681Y6553D01*
X6678Y6576D01*
X6677Y6577D01*
Y6639D01*
X6630D01*
Y6670D01*
X6677D01*
Y6842D01*
X6556D01*
X6553Y6855D01*
X6560Y6860D01*
X6582Y6882D01*
X6591Y6894D01*
X6592Y6899D01*
X6715D01*
X6717Y6897D01*
X6717Y6897D01*
D01*
X6720Y6883D01*
X6728Y6870D01*
X6742Y6856D01*
X6754Y6848D01*
X6769Y6845D01*
X6855D01*
X6900Y6800D01*
Y6511D01*
X6900Y6511D01*
X6900D01*
X6903Y6497D01*
X6911Y6484D01*
X6971Y6425D01*
X6983Y6416D01*
X6998Y6413D01*
X7198D01*
X7252Y6360D01*
Y6144D01*
X7204D01*
Y5972D01*
X7376D01*
Y6144D01*
X7328D01*
Y6375D01*
X7325Y6390D01*
X7317Y6402D01*
X7264Y6456D01*
X7269Y6467D01*
X7291D01*
X7292Y6467D01*
X7315Y6464D01*
X7338Y6467D01*
X7339Y6467D01*
X7376D01*
Y6488D01*
X7378Y6490D01*
X7393Y6509D01*
X7401Y6530D01*
X7404Y6553D01*
X7401Y6576D01*
X7393Y6598D01*
X7378Y6616D01*
X7376Y6618D01*
Y6639D01*
X7339D01*
X7338Y6639D01*
X7315Y6642D01*
X7292Y6639D01*
X7291Y6639D01*
X7204D01*
Y6490D01*
X7014D01*
X6976Y6527D01*
Y6593D01*
X6988Y6598D01*
X7060Y6526D01*
X7072Y6518D01*
X7087Y6515D01*
X7101Y6518D01*
X7114Y6526D01*
X7122Y6539D01*
X7125Y6553D01*
X7122Y6568D01*
X7114Y6580D01*
X7026Y6667D01*
Y6696D01*
X7173D01*
Y6744D01*
X7204D01*
Y6696D01*
X7376D01*
Y6803D01*
X7387Y6808D01*
X7442Y6753D01*
Y6245D01*
X7407D01*
Y6074D01*
X7579D01*
Y6244D01*
X7579Y6244D01*
Y6244D01*
X7591Y6249D01*
X7610Y6229D01*
Y6074D01*
X7782D01*
Y6206D01*
X7794Y6211D01*
X7813Y6191D01*
Y6074D01*
X7942D01*
X7951Y6064D01*
X7950Y6058D01*
X7953Y6035D01*
X7956Y6027D01*
X7949Y6017D01*
X7813D01*
Y5884D01*
X7802Y5879D01*
X7782Y5899D01*
Y6017D01*
X7610D01*
Y5884D01*
X7599Y5879D01*
X7579Y5899D01*
Y6017D01*
X7407D01*
Y5845D01*
X7525D01*
X7593Y5777D01*
X7605Y5769D01*
X7609Y5768D01*
X7613Y5756D01*
X7606Y5747D01*
X7601Y5733D01*
X7588Y5732D01*
X7582Y5740D01*
X7563Y5754D01*
X7542Y5763D01*
X7518Y5766D01*
X7495Y5763D01*
X7474Y5754D01*
X7455Y5740D01*
X7452Y5735D01*
X7439Y5734D01*
X7376Y5797D01*
Y5915D01*
X7204D01*
Y5743D01*
X7322D01*
X7349Y5716D01*
X7342Y5706D01*
X7326Y5712D01*
X7303Y5715D01*
X7279Y5712D01*
X7258Y5703D01*
X7239Y5689D01*
X7225Y5671D01*
X7216Y5649D01*
X7213Y5626D01*
X7216Y5603D01*
X7225Y5581D01*
X7239Y5563D01*
X7258Y5549D01*
X7264Y5546D01*
Y5524D01*
X7267Y5510D01*
X7275Y5497D01*
X7633Y5140D01*
X7635Y5120D01*
X7644Y5099D01*
X7658Y5080D01*
X7677Y5066D01*
X7698Y5057D01*
X7722Y5054D01*
X7745Y5057D01*
X7766Y5066D01*
X7785Y5080D01*
X7799Y5099D01*
X7808Y5120D01*
X7811Y5144D01*
X7808Y5167D01*
X7799Y5188D01*
X7785Y5207D01*
X7766Y5221D01*
X7745Y5230D01*
X7722Y5233D01*
X7698Y5230D01*
X7677Y5221D01*
X7668Y5214D01*
X7358Y5523D01*
X7347Y5549D01*
X7366Y5563D01*
X7380Y5581D01*
X7389Y5603D01*
X7392Y5626D01*
X7389Y5649D01*
X7382Y5665D01*
X7393Y5672D01*
X7415Y5650D01*
X7428Y5642D01*
X7438Y5639D01*
X7441Y5632D01*
X7455Y5614D01*
X7474Y5600D01*
X7495Y5591D01*
X7518Y5588D01*
X7542Y5591D01*
X7563Y5600D01*
X7582Y5614D01*
X7596Y5632D01*
X7601Y5646D01*
X7614Y5648D01*
X7620Y5639D01*
X7639Y5625D01*
X7645Y5622D01*
Y5572D01*
X7645Y5572D01*
X7645D01*
X7648Y5558D01*
X7656Y5545D01*
X7742Y5460D01*
X7754Y5452D01*
X7769Y5449D01*
X7852D01*
X7867Y5452D01*
X7879Y5460D01*
X8028Y5609D01*
X8036Y5621D01*
X8039Y5636D01*
X8039Y5636D01*
X8039Y5636D01*
Y5636D01*
Y5829D01*
X8036Y5844D01*
X8028Y5856D01*
X7985Y5899D01*
Y5973D01*
X7996Y5980D01*
X8016Y5972D01*
X8039Y5969D01*
X8062Y5972D01*
X8084Y5981D01*
X8102Y5995D01*
X8116Y6013D01*
X8125Y6035D01*
X8128Y6058D01*
X8125Y6081D01*
X8116Y6103D01*
X8102Y6121D01*
X8084Y6135D01*
X8062Y6144D01*
X8039Y6147D01*
X8016Y6144D01*
X7996Y6136D01*
X7985Y6143D01*
Y6245D01*
X7868D01*
X7658Y6455D01*
Y6467D01*
X7769D01*
Y6631D01*
X7785Y6642D01*
X7799Y6661D01*
X7808Y6682D01*
X7809Y6693D01*
X7821Y6696D01*
X7824Y6693D01*
X7842Y6679D01*
X7864Y6670D01*
X7887Y6667D01*
X7910Y6670D01*
X7931Y6679D01*
X7950Y6693D01*
X7964Y6712D01*
X7973Y6733D01*
X7976Y6756D01*
X7973Y6780D01*
X7964Y6801D01*
X7956Y6811D01*
X7961Y6822D01*
D01*
X7962Y6823D01*
X8076D01*
X8082Y6812D01*
X8080Y6809D01*
X8077Y6794D01*
Y6677D01*
X8077Y6677D01*
X8077D01*
X8080Y6662D01*
X8088Y6650D01*
X8174Y6564D01*
X8174D01*
X8174Y6564D01*
X8174D01*
X8174Y6564D01*
Y6564D01*
X8174Y6564D01*
Y6564D01*
X8186Y6556D01*
X8201Y6553D01*
X8646D01*
X8687Y6512D01*
Y6441D01*
X8673D01*
X8621Y6389D01*
Y6285D01*
X8673Y6234D01*
X8777D01*
X8827Y6284D01*
X8839Y6279D01*
Y6228D01*
X8766Y6155D01*
X8752Y6161D01*
X8725Y6165D01*
X8698Y6161D01*
X8673Y6151D01*
X8651Y6134D01*
X8634Y6112D01*
X8624Y6087D01*
X8620Y6060D01*
X8624Y6033D01*
X8634Y6008D01*
X8651Y5986D01*
X8673Y5969D01*
X8698Y5959D01*
X8725Y5955D01*
X8752Y5959D01*
X8777Y5969D01*
X8799Y5986D01*
X8816Y6008D01*
X8826Y6033D01*
X8830Y6060D01*
X8826Y6087D01*
X8820Y6101D01*
X8895Y6176D01*
X8907Y6172D01*
X8907Y6171D01*
X8918Y6145D01*
X8935Y6124D01*
X8956Y6107D01*
X8981Y6097D01*
X9009Y6093D01*
X9036Y6097D01*
X9061Y6107D01*
X9083Y6124D01*
X9099Y6145D01*
X9110Y6171D01*
X9113Y6198D01*
X9110Y6225D01*
X9104Y6239D01*
X9209Y6344D01*
X9217Y6357D01*
X9220Y6371D01*
Y7820D01*
X9376Y7975D01*
X9425D01*
X9427Y7974D01*
X9445Y7961D01*
X9467Y7957D01*
X9609D01*
X9630Y7961D01*
X9649Y7974D01*
X9650Y7975D01*
X9652D01*
X9667Y7978D01*
X9669Y7980D01*
X9680Y7974D01*
Y7925D01*
X9650D01*
X9649Y7927D01*
X9630Y7939D01*
X9609Y7943D01*
X9467D01*
X9445Y7939D01*
X9427Y7927D01*
X9425Y7925D01*
X9411D01*
X9396Y7922D01*
X9384Y7914D01*
X9257Y7787D01*
X9248Y7774D01*
X9245Y7760D01*
Y6211D01*
X9050Y6016D01*
X9036Y6021D01*
X9009Y6025D01*
X8981Y6021D01*
X8956Y6011D01*
X8935Y5994D01*
X8918Y5973D01*
X8907Y5947D01*
X8904Y5920D01*
X8907Y5893D01*
X8918Y5868D01*
X8935Y5846D01*
X8956Y5830D01*
X8981Y5819D01*
X9009Y5816D01*
X9036Y5819D01*
X9061Y5830D01*
X9083Y5846D01*
X9099Y5868D01*
X9110Y5893D01*
X9113Y5920D01*
X9110Y5947D01*
X9104Y5961D01*
X9311Y6168D01*
X9319Y6181D01*
X9322Y6194D01*
X9334Y6193D01*
Y6023D01*
X9050Y5738D01*
X9036Y5744D01*
X9009Y5748D01*
X8981Y5744D01*
X8956Y5734D01*
X8935Y5717D01*
X8918Y5695D01*
X8907Y5670D01*
X8904Y5643D01*
X8907Y5616D01*
X8918Y5591D01*
X8935Y5569D01*
X8956Y5552D01*
X8981Y5542D01*
X9009Y5538D01*
X9036Y5542D01*
X9061Y5552D01*
X9083Y5569D01*
X9099Y5591D01*
X9110Y5616D01*
X9113Y5643D01*
X9110Y5670D01*
X9104Y5684D01*
X9400Y5980D01*
X9408Y5992D01*
X9411Y6007D01*
X9411Y6007D01*
X9411Y6007D01*
Y6007D01*
Y7467D01*
X9423Y7471D01*
X9427Y7466D01*
X9445Y7453D01*
X9467Y7449D01*
X9487D01*
Y5898D01*
X9050Y5461D01*
X9036Y5467D01*
X9009Y5470D01*
X8981Y5467D01*
X8956Y5456D01*
X8935Y5440D01*
X8918Y5418D01*
X8907Y5393D01*
X8904Y5366D01*
X8907Y5339D01*
X8918Y5313D01*
X8935Y5292D01*
X8956Y5275D01*
X8981Y5265D01*
X9009Y5261D01*
X9036Y5265D01*
X9061Y5275D01*
X9083Y5292D01*
X9099Y5313D01*
X9110Y5339D01*
X9113Y5366D01*
X9110Y5393D01*
X9104Y5407D01*
X9552Y5855D01*
X9560Y5868D01*
X9563Y5882D01*
X9563Y5882D01*
X9563Y5882D01*
Y5882D01*
Y7422D01*
X9575Y7427D01*
X9663Y7339D01*
X9675Y7331D01*
X9690Y7328D01*
X9855D01*
X9870Y7331D01*
X9882Y7339D01*
X9882Y7339D01*
X9882Y7339D01*
X9958Y7415D01*
X9967Y7428D01*
X9970Y7442D01*
X9970Y7442D01*
X9970Y7442D01*
Y7442D01*
Y8386D01*
X9967Y8401D01*
X9958Y8413D01*
X9852Y8520D01*
Y8620D01*
X9680D01*
Y8598D01*
X9649D01*
Y8671D01*
X9601D01*
Y8702D01*
X9649D01*
Y8874D01*
X9477D01*
Y8702D01*
X9525D01*
Y8671D01*
X9477D01*
Y8501D01*
Y8501D01*
X9465Y8496D01*
X9420Y8541D01*
Y8671D01*
X9373D01*
Y8702D01*
X9420D01*
Y8874D01*
X9249D01*
Y8702D01*
X9296D01*
Y8671D01*
X9249D01*
Y8499D01*
X9354D01*
X9423Y8430D01*
X9414Y8416D01*
X9410Y8395D01*
X9414Y8373D01*
X9427Y8355D01*
X9445Y8342D01*
X9467Y8338D01*
X9609D01*
X9630Y8342D01*
X9649Y8355D01*
X9656Y8366D01*
X9680D01*
Y8220D01*
X9680Y8220D01*
X9680Y8214D01*
X9680D01*
Y8096D01*
X9642Y8058D01*
X9630Y8066D01*
X9609Y8070D01*
X9467D01*
X9445Y8066D01*
X9427Y8054D01*
X9425Y8052D01*
X9360D01*
X9345Y8049D01*
X9333Y8041D01*
X9155Y7863D01*
X9147Y7851D01*
X9144Y7836D01*
Y7110D01*
X9131Y7109D01*
X9129Y7119D01*
X9112Y7159D01*
X9090Y7196D01*
X9062Y7229D01*
X9029Y7257D01*
X8992Y7279D01*
X8952Y7296D01*
X8910Y7306D01*
X8867Y7309D01*
X8824Y7306D01*
X8782Y7296D01*
X8742Y7279D01*
X8705Y7257D01*
X8672Y7229D01*
X8644Y7196D01*
X8621Y7159D01*
X8605Y7119D01*
X8594Y7077D01*
X8591Y7034D01*
X8594Y6991D01*
X8605Y6949D01*
X8621Y6909D01*
X8644Y6872D01*
X8672Y6839D01*
X8705Y6811D01*
X8742Y6788D01*
X8782Y6772D01*
X8824Y6761D01*
X8867Y6758D01*
X8910Y6761D01*
X8952Y6772D01*
X8992Y6788D01*
X9029Y6811D01*
X9062Y6839D01*
X9090Y6872D01*
X9112Y6909D01*
X9129Y6949D01*
X9131Y6959D01*
X9144Y6957D01*
Y6387D01*
X9050Y6293D01*
X9036Y6299D01*
X9009Y6302D01*
X8981Y6299D01*
X8956Y6288D01*
X8935Y6272D01*
X8928Y6262D01*
X8916Y6267D01*
Y6515D01*
X8913Y6530D01*
X8904Y6542D01*
X8701Y6745D01*
X8689Y6754D01*
X8674Y6757D01*
X8531D01*
Y6792D01*
X8376D01*
X8368Y6801D01*
X8369Y6807D01*
X8369Y6807D01*
X8369Y6807D01*
Y6807D01*
Y6848D01*
X8531D01*
Y6961D01*
X8532Y6962D01*
X8535Y6985D01*
X8532Y7008D01*
X8531Y7009D01*
Y7020D01*
X8527D01*
X8523Y7030D01*
X8509Y7048D01*
X8490Y7062D01*
X8469Y7071D01*
X8452Y7073D01*
X8448Y7085D01*
X8879Y7517D01*
X8887Y7529D01*
X8890Y7544D01*
Y8026D01*
X8887Y8041D01*
X8879Y8053D01*
X8765Y8168D01*
X8752Y8176D01*
X8738Y8179D01*
X8685D01*
X8684Y8181D01*
X8665Y8193D01*
X8644Y8197D01*
X8501D01*
X8480Y8193D01*
X8461Y8181D01*
X8449Y8162D01*
X8445Y8141D01*
X8449Y8119D01*
X8461Y8101D01*
X8480Y8088D01*
X8501Y8084D01*
X8644D01*
X8665Y8088D01*
X8684Y8101D01*
X8685Y8102D01*
X8722D01*
X8814Y8011D01*
Y7560D01*
X8800Y7546D01*
X8789Y7551D01*
Y7734D01*
X8786Y7749D01*
X8777Y7761D01*
X8752Y7787D01*
X8740Y7795D01*
X8725Y7798D01*
X8685D01*
X8684Y7800D01*
X8665Y7812D01*
X8644Y7816D01*
X8501D01*
X8480Y7812D01*
X8461Y7800D01*
X8449Y7781D01*
X8445Y7760D01*
X8449Y7738D01*
X8461Y7720D01*
X8480Y7707D01*
X8501Y7703D01*
X8644D01*
X8665Y7707D01*
X8684Y7720D01*
X8685Y7721D01*
X8709D01*
X8712Y7718D01*
Y7537D01*
X8703Y7528D01*
X8695Y7529D01*
X8684Y7546D01*
X8665Y7558D01*
X8644Y7562D01*
X8501D01*
X8480Y7558D01*
X8461Y7546D01*
X8449Y7527D01*
X8445Y7509D01*
X8376Y7439D01*
X8312D01*
X8230Y7522D01*
Y7645D01*
X8227Y7660D01*
X8219Y7672D01*
X8127Y7764D01*
X8128Y7772D01*
X8125Y7796D01*
X8125Y7796D01*
Y7858D01*
D01*
Y7858D01*
X8128Y7861D01*
X8230D01*
X8244Y7864D01*
X8257Y7872D01*
X8257Y7872D01*
X8257Y7872D01*
X8312Y7928D01*
X8376D01*
X8444Y7860D01*
X8456Y7851D01*
X8459Y7851D01*
X8461Y7847D01*
X8480Y7834D01*
X8501Y7830D01*
X8644D01*
X8665Y7834D01*
X8684Y7847D01*
X8696Y7865D01*
X8700Y7887D01*
X8696Y7908D01*
X8684Y7927D01*
X8665Y7939D01*
X8644Y7943D01*
X8501D01*
X8480Y7939D01*
X8476Y7936D01*
X8448Y7964D01*
X8449Y7965D01*
X8459Y7972D01*
X8462Y7973D01*
X8480Y7961D01*
X8501Y7957D01*
X8644D01*
X8665Y7961D01*
X8684Y7974D01*
X8696Y7992D01*
X8700Y8014D01*
X8696Y8035D01*
X8684Y8054D01*
X8665Y8066D01*
X8644Y8070D01*
X8501D01*
X8480Y8066D01*
X8461Y8054D01*
X8460Y8052D01*
X8430D01*
Y8097D01*
X8430Y8097D01*
D01*
D01*
X8430Y8100D01*
Y8101D01*
Y8103D01*
Y8103D01*
Y8106D01*
X8430Y8108D01*
X8430Y8109D01*
X8430Y8109D01*
X8430D01*
Y8168D01*
X8430Y8168D01*
X8433Y8192D01*
X8430Y8215D01*
X8430Y8215D01*
Y8263D01*
X8435Y8266D01*
X8446Y8260D01*
X8449Y8246D01*
X8461Y8228D01*
X8480Y8215D01*
X8501Y8211D01*
X8644D01*
X8665Y8215D01*
X8684Y8228D01*
X8696Y8246D01*
X8700Y8268D01*
X8696Y8289D01*
X8684Y8308D01*
X8665Y8320D01*
X8644Y8324D01*
X8501D01*
X8495Y8323D01*
X8430Y8388D01*
Y8506D01*
X8288D01*
X8283Y8518D01*
X8419Y8654D01*
X8428Y8666D01*
X8431Y8681D01*
X8431Y8681D01*
X8431Y8681D01*
Y8681D01*
Y8880D01*
X8444Y8894D01*
X9609D01*
X9624Y8897D01*
X9636Y8905D01*
X9777Y9046D01*
X9781Y9044D01*
Y9044D01*
X9781Y9044D01*
X10031D01*
Y9294D01*
X9781D01*
Y9217D01*
X9769Y9215D01*
X9761Y9232D01*
X9741Y9259D01*
X9715Y9279D01*
X9685Y9291D01*
X9652Y9295D01*
X9619Y9291D01*
X9589Y9279D01*
X9563Y9259D01*
X9543Y9232D01*
X9531Y9205D01*
X9530D01*
Y9205D01*
D01*
D01*
X9530D01*
X9520D01*
D01*
D01*
Y9205D01*
X9519D01*
X9507Y9232D01*
X9487Y9259D01*
X9461Y9279D01*
X9431Y9291D01*
X9398Y9295D01*
X9365Y9291D01*
X9335Y9279D01*
X9309Y9259D01*
X9304Y9258D01*
X9228Y9334D01*
X9217Y9341D01*
X9221Y9353D01*
X9348D01*
Y9377D01*
X9446D01*
X9452Y9378D01*
X9531D01*
Y9417D01*
X9543Y9421D01*
X9571Y9394D01*
X9589Y9381D01*
X9611Y9377D01*
X9712D01*
X9717Y9378D01*
X9797D01*
Y9431D01*
X9809Y9435D01*
X9857Y9387D01*
X9875Y9375D01*
X9897Y9371D01*
X9918Y9375D01*
X9936Y9387D01*
X9948Y9405D01*
X9953Y9427D01*
X9948Y9448D01*
X9936Y9466D01*
X9847Y9555D01*
X9852Y9567D01*
X9865D01*
X9874Y9569D01*
X9897Y9566D01*
X9920Y9569D01*
X9920Y9569D01*
X9983D01*
Y9632D01*
X9983Y9632D01*
X9986Y9655D01*
X9983Y9678D01*
X9983Y9679D01*
Y9741D01*
X9920D01*
X9920Y9742D01*
X9897Y9745D01*
X9873Y9742D01*
X9873Y9741D01*
X9811D01*
Y9679D01*
X9636D01*
X9633Y9694D01*
X9661Y9722D01*
X9779D01*
Y9840D01*
X9987Y10047D01*
X9987Y10047D01*
X9987Y10047D01*
X9999Y10065D01*
X10003Y10087D01*
Y10432D01*
X10010Y10437D01*
X10024Y10455D01*
X10033Y10477D01*
X10036Y10500D01*
X10033Y10523D01*
X10024Y10545D01*
X10010Y10563D01*
X9992Y10577D01*
X9970Y10586D01*
X9947Y10589D01*
X9938Y10588D01*
X9808Y10718D01*
Y11933D01*
X9851Y11976D01*
X9871Y11973D01*
X9894Y11976D01*
X9915Y11985D01*
X9934Y11999D01*
X9948Y12018D01*
X9957Y12039D01*
X9960Y12062D01*
X9957Y12085D01*
X9948Y12107D01*
X9934Y12125D01*
X9915Y12140D01*
X9894Y12148D01*
X9871Y12151D01*
D02*
G37*
G36*
X6820Y9385D02*
X6769D01*
X6754Y9383D01*
X6742Y9374D01*
X6734Y9362D01*
X6731Y9347D01*
X6734Y9333D01*
X6742Y9320D01*
X6754Y9312D01*
X6769Y9309D01*
X6820D01*
X6835Y9312D01*
X6847Y9320D01*
X6855Y9333D01*
X6858Y9347D01*
X6855Y9362D01*
X6847Y9374D01*
X6835Y9383D01*
X6820Y9385D01*
D02*
G37*
G36*
X5855Y9576D02*
X5651D01*
X5637Y9573D01*
X5624Y9565D01*
X5616Y9552D01*
X5613Y9538D01*
X5616Y9523D01*
X5624Y9511D01*
X5637Y9502D01*
X5651Y9499D01*
X5855D01*
X5869Y9502D01*
X5882Y9511D01*
X5890Y9523D01*
X5893Y9538D01*
X5890Y9552D01*
X5882Y9565D01*
X5869Y9573D01*
X5855Y9576D01*
D02*
G37*
G36*
X9609Y8324D02*
X9467D01*
X9445Y8320D01*
X9427Y8308D01*
X9414Y8289D01*
X9410Y8268D01*
X9414Y8246D01*
X9427Y8228D01*
X9445Y8215D01*
X9467Y8211D01*
X9609D01*
X9630Y8215D01*
X9649Y8228D01*
X9661Y8246D01*
X9665Y8268D01*
X9661Y8289D01*
X9649Y8308D01*
X9630Y8320D01*
X9609Y8324D01*
D02*
G37*
G36*
X6146Y9448D02*
X5969D01*
Y9271D01*
X6146D01*
Y9448D01*
D02*
G37*
G36*
X7391Y9589D02*
X7175D01*
X7161Y9586D01*
X7148Y9577D01*
X7140Y9565D01*
X7137Y9550D01*
X7140Y9536D01*
X7148Y9523D01*
X7161Y9515D01*
X7175Y9512D01*
X7391D01*
X7406Y9515D01*
X7418Y9523D01*
X7427Y9536D01*
X7430Y9550D01*
X7427Y9565D01*
X7418Y9577D01*
X7406Y9586D01*
X7391Y9589D01*
D02*
G37*
G36*
X6950Y10107D02*
X6927Y10104D01*
X6905Y10095D01*
X6887Y10081D01*
X6872Y10062D01*
X6863Y10041D01*
X6860Y10018D01*
X6863Y9994D01*
X6872Y9973D01*
X6887Y9954D01*
X6905Y9940D01*
X6927Y9931D01*
X6950Y9928D01*
X6973Y9931D01*
X6994Y9940D01*
X7013Y9954D01*
X7027Y9973D01*
X7036Y9994D01*
X7039Y10018D01*
X7036Y10041D01*
X7027Y10062D01*
X7013Y10081D01*
X6994Y10095D01*
X6973Y10104D01*
X6950Y10107D01*
D02*
G37*
G36*
X7839Y10119D02*
X7816Y10116D01*
X7794Y10108D01*
X7776Y10093D01*
X7761Y10075D01*
X7752Y10053D01*
X7749Y10030D01*
X7752Y10007D01*
X7761Y9986D01*
X7776Y9967D01*
X7794Y9953D01*
X7816Y9944D01*
X7839Y9941D01*
X7862Y9944D01*
X7883Y9953D01*
X7902Y9967D01*
X7916Y9986D01*
X7925Y10007D01*
X7928Y10030D01*
X7925Y10053D01*
X7916Y10075D01*
X7902Y10093D01*
X7883Y10108D01*
X7862Y10116D01*
X7839Y10119D01*
D02*
G37*
G36*
X6486Y9577D02*
Y9577D01*
X6477Y9577D01*
X6477D01*
X6477D01*
X6468Y9577D01*
X6468Y9577D01*
Y9577D01*
X6359D01*
X6359Y9577D01*
Y9577D01*
X6350Y9577D01*
X6350D01*
X6350D01*
X6341Y9577D01*
X6341Y9577D01*
Y9577D01*
X6223D01*
Y9397D01*
X6341D01*
X6341Y9397D01*
Y9397D01*
X6350Y9397D01*
X6350D01*
X6350D01*
X6359Y9397D01*
X6359Y9397D01*
Y9397D01*
X6468D01*
X6468Y9397D01*
Y9397D01*
X6477Y9397D01*
X6477D01*
X6477D01*
X6486Y9397D01*
X6486Y9397D01*
Y9397D01*
X6604D01*
Y9577D01*
X6486D01*
X6486Y9577D01*
D02*
G37*
G36*
X7595Y10046D02*
X7571Y10043D01*
X7571Y10043D01*
X7509D01*
Y9981D01*
X7508Y9980D01*
X7505Y9957D01*
X7508Y9934D01*
X7509Y9933D01*
Y9871D01*
X7571D01*
X7571Y9871D01*
X7595Y9868D01*
X7618Y9871D01*
X7618Y9871D01*
X7681D01*
Y9933D01*
X7681Y9934D01*
X7684Y9957D01*
X7681Y9980D01*
X7681Y9981D01*
Y10043D01*
X7618D01*
X7618Y10043D01*
X7595Y10046D01*
D02*
G37*
%LPD*%
D10*
X5956Y6566D02*
D03*
X6185D02*
D03*
X9693Y9808D02*
D03*
X9465D02*
D03*
X3962Y8255D02*
D03*
X3734D02*
D03*
X4483Y10274D02*
D03*
X4254D02*
D03*
X6820Y6756D02*
D03*
X6591D02*
D03*
X6820Y6553D02*
D03*
X6591D02*
D03*
X6566Y8534D02*
D03*
X6337D02*
D03*
X6566Y8738D02*
D03*
X6337D02*
D03*
X7912Y6553D02*
D03*
X7683D02*
D03*
X9563Y8585D02*
D03*
X9335D02*
D03*
X9563Y8788D02*
D03*
X9335D02*
D03*
X3962Y7849D02*
D03*
X3734D02*
D03*
X4166Y8141D02*
D03*
X4394D02*
D03*
X3734Y8052D02*
D03*
X3962D02*
D03*
X4394Y7899D02*
D03*
X4166D02*
D03*
X6185Y6769D02*
D03*
X5956D02*
D03*
X6960Y8700D02*
D03*
X7188D02*
D03*
X5309Y6909D02*
D03*
X5537D02*
D03*
Y8179D02*
D03*
X5766D02*
D03*
X5309Y6706D02*
D03*
X5537D02*
D03*
X5639Y8903D02*
D03*
X5867D02*
D03*
X5639Y9106D02*
D03*
X5867D02*
D03*
X5309Y7112D02*
D03*
X5537D02*
D03*
D11*
X9897Y9655D02*
D03*
Y9427D02*
D03*
X9262Y9439D02*
D03*
Y9668D02*
D03*
X7391Y9131D02*
D03*
Y8903D02*
D03*
X6972Y9550D02*
D03*
Y9322D02*
D03*
X7175Y8903D02*
D03*
Y9131D02*
D03*
X6972Y8903D02*
D03*
Y9131D02*
D03*
X7595Y9728D02*
D03*
Y9957D02*
D03*
Y9322D02*
D03*
Y9550D02*
D03*
X5753Y7976D02*
D03*
Y7747D02*
D03*
X5550Y7976D02*
D03*
Y7747D02*
D03*
X5347Y7976D02*
D03*
Y7747D02*
D03*
X7633Y7544D02*
D03*
Y7772D02*
D03*
X7836Y7544D02*
D03*
Y7772D02*
D03*
X8039Y7544D02*
D03*
Y7772D02*
D03*
X6388Y6540D02*
D03*
Y6769D02*
D03*
X6134Y8522D02*
D03*
Y8750D02*
D03*
X5855Y9538D02*
D03*
Y9309D02*
D03*
X5651D02*
D03*
Y9538D02*
D03*
X7175Y9550D02*
D03*
Y9322D02*
D03*
X5524Y7315D02*
D03*
Y7544D02*
D03*
X5728Y7315D02*
D03*
Y7544D02*
D03*
X7833Y7115D02*
D03*
Y7343D02*
D03*
X7633Y7112D02*
D03*
Y7341D02*
D03*
X7087Y6553D02*
D03*
Y6782D02*
D03*
X7391Y8712D02*
D03*
Y8484D02*
D03*
X5855Y8458D02*
D03*
Y8687D02*
D03*
X8344Y7582D02*
D03*
Y7353D02*
D03*
X5451Y11338D02*
D03*
Y11110D02*
D03*
X7290Y6553D02*
D03*
Y6782D02*
D03*
X7696Y5931D02*
D03*
Y6160D02*
D03*
X7493Y5931D02*
D03*
Y6160D02*
D03*
X7899Y5931D02*
D03*
Y6160D02*
D03*
X7290Y5829D02*
D03*
Y6058D02*
D03*
X7595Y8712D02*
D03*
Y8484D02*
D03*
X6769Y8496D02*
D03*
Y8725D02*
D03*
X6490Y6198D02*
D03*
Y5969D02*
D03*
X6287Y6198D02*
D03*
Y5969D02*
D03*
X9766Y8306D02*
D03*
Y8534D02*
D03*
Y8128D02*
D03*
Y7899D02*
D03*
X8344Y7785D02*
D03*
Y8014D02*
D03*
X9766Y7493D02*
D03*
Y7722D02*
D03*
X8344Y8420D02*
D03*
Y8192D02*
D03*
X8039Y6909D02*
D03*
Y7137D02*
D03*
X8446Y6706D02*
D03*
Y6934D02*
D03*
X9360Y10287D02*
D03*
Y10058D02*
D03*
X9563Y10287D02*
D03*
Y10058D02*
D03*
X5321Y7544D02*
D03*
Y7315D02*
D03*
X7391Y9550D02*
D03*
Y9322D02*
D03*
X5156Y9423D02*
D03*
Y9195D02*
D03*
X9157Y10287D02*
D03*
Y10058D02*
D03*
D13*
X6058Y9106D02*
D03*
Y9360D02*
D03*
X6769Y9347D02*
D03*
Y9106D02*
D03*
D27*
X6287Y6198D02*
Y6439D01*
X6258Y6467D02*
X6287Y6439D01*
X6108Y6467D02*
X6258D01*
X6071Y6505D02*
X6108Y6467D01*
X6071Y6505D02*
Y6833D01*
X5740Y6540D02*
X5956D01*
X5740Y6706D02*
X5778Y6744D01*
X5956D01*
X5636Y6753D02*
X5778Y6896D01*
X6027D01*
X5537Y6726D02*
X5636Y6824D01*
Y6924D01*
Y6614D02*
Y6753D01*
X5537Y6706D02*
Y6726D01*
X6027Y6896D02*
X6147Y7016D01*
X5579Y6557D02*
X5636Y6614D01*
X5211Y6557D02*
X5579D01*
X6096Y7061D02*
Y7119D01*
X6045Y7010D02*
X6096Y7061D01*
X5855Y7010D02*
X6045D01*
X6059Y7177D02*
Y7258D01*
X5994Y7112D02*
X6059Y7177D01*
X6096Y7119D02*
X6205Y7228D01*
Y7295D01*
X6147Y7094D02*
X6255Y7202D01*
X6147Y7016D02*
Y7094D01*
X6206Y7083D02*
X6305Y7182D01*
X6206Y6968D02*
Y7083D01*
X6255Y7202D02*
Y7434D01*
X6305Y7182D02*
Y7413D01*
X6071Y6833D02*
X6206Y6968D01*
X5926Y7197D02*
Y7336D01*
X5842Y7114D02*
X5926Y7197D01*
X5700Y7114D02*
X5842D01*
X5876Y7218D02*
Y7362D01*
X5822Y7164D02*
X5876Y7218D01*
X5660Y7164D02*
X5822D01*
X5826Y7239D02*
Y7388D01*
X5801Y7214D02*
X5826Y7239D01*
X5448Y7214D02*
X5801D01*
X8852Y7544D02*
Y8026D01*
X8331Y7023D02*
X8852Y7544D01*
X8331Y6807D02*
Y7023D01*
X8217Y6896D02*
Y6983D01*
X8750Y7516D02*
Y7734D01*
X8217Y6983D02*
X8750Y7516D01*
X8204Y7214D02*
X8344Y7353D01*
X8039Y6909D02*
X8052Y6896D01*
X8217D01*
X8661Y6591D02*
X8725Y6528D01*
X8201Y6591D02*
X8661D01*
X8115Y6677D02*
X8201Y6591D01*
X9512Y8395D02*
X9538D01*
X9328Y8579D02*
X9512Y8395D01*
X4623Y10274D02*
X4648Y10249D01*
X9473Y10400D02*
Y11106D01*
X9423Y10579D02*
Y11196D01*
X9373Y10600D02*
Y11277D01*
X9323Y10621D02*
Y11771D01*
X9566Y11050D02*
X9662Y10954D01*
Y10211D02*
Y10954D01*
X8115Y6794D02*
X8217Y6896D01*
X8115Y6677D02*
Y6794D01*
X8217Y6718D02*
X8674D01*
X8217Y6731D02*
X8255D01*
X8331Y6807D01*
X5156Y9423D02*
Y9665D01*
X5004Y9817D02*
X5156Y9665D01*
X8725Y6060D02*
X8877Y6212D01*
Y6515D01*
X8674Y6718D02*
X8877Y6515D01*
X8725Y6337D02*
Y6528D01*
X9009Y5366D02*
X9525Y5882D01*
X9009Y5643D02*
X9373Y6007D01*
X9009Y5920D02*
X9284Y6195D01*
X9009Y6198D02*
X9182Y6371D01*
X9376Y9960D02*
X9458D01*
X9144Y9728D02*
X9376Y9960D01*
X9144Y9563D02*
Y9728D01*
X9094Y9750D02*
X9360Y10016D01*
X9255Y9982D02*
Y10135D01*
X9044Y9771D02*
X9255Y9982D01*
X9080Y9877D02*
Y9981D01*
X8994Y9791D02*
X9080Y9877D01*
X9030Y9898D02*
Y10138D01*
X8944Y9812D02*
X9030Y9898D01*
X8972Y9911D02*
Y10095D01*
X8894Y9833D02*
X8972Y9911D01*
X8994Y9625D02*
Y9791D01*
X8944Y9646D02*
Y9812D01*
X8894Y9667D02*
Y9833D01*
X9044Y9605D02*
Y9771D01*
X9094Y9584D02*
Y9750D01*
X8834Y9607D02*
X8894Y9667D01*
X8855Y9557D02*
X8944Y9646D01*
X8876Y9507D02*
X8994Y9625D01*
X8896Y9457D02*
X9044Y9605D01*
X8917Y9407D02*
X9094Y9584D01*
X8938Y9357D02*
X9144Y9563D01*
X8197Y9607D02*
X8834D01*
X8221Y9557D02*
X8855D01*
X8242Y9507D02*
X8876D01*
X8263Y9457D02*
X8896D01*
X8284Y9407D02*
X8917D01*
X8304Y9357D02*
X8938D01*
X9640Y10189D02*
X9662Y10211D01*
X9272Y10189D02*
X9640D01*
X4593Y8187D02*
Y8232D01*
Y8465D02*
Y8504D01*
X4807Y8718D01*
X4972D01*
X4877Y8325D02*
X5123Y8079D01*
X4877Y8602D02*
X5173Y8306D01*
X5023Y6857D02*
Y7347D01*
X4877Y7493D02*
X5023Y7347D01*
X4940Y7633D02*
X5073Y7500D01*
Y6878D02*
Y7500D01*
X5223Y7198D02*
Y7392D01*
Y7198D02*
X5309Y7112D01*
X5173Y7073D02*
X5309Y6937D01*
X5173Y7073D02*
Y8306D01*
X5123Y6920D02*
Y8079D01*
X5223Y7392D02*
X5245Y7414D01*
X5232Y6607D02*
X5385D01*
X4593Y7633D02*
X4940D01*
X5385Y6607D02*
X5407Y6629D01*
Y6995D01*
X5524Y7112D01*
X5537D01*
X5826Y7528D02*
X5856Y7558D01*
X5826Y7467D02*
Y7528D01*
X5856Y7558D02*
X6059D01*
X5876Y7489D02*
X5895Y7508D01*
X5876Y7438D02*
Y7489D01*
X5895Y7508D02*
X6059D01*
X5826Y7388D02*
X5876Y7438D01*
X5486Y7429D02*
X5788D01*
X5826Y7467D01*
X5309Y6909D02*
Y6937D01*
X5537Y6909D02*
X5636Y7007D01*
X5245Y7414D02*
X5471D01*
X5486Y7429D01*
X5347Y7315D02*
X5448Y7214D01*
X5321Y7315D02*
X5347D01*
X4972Y8718D02*
X5245Y8446D01*
Y7620D02*
Y8446D01*
Y7620D02*
X5321Y7544D01*
X5636Y6924D02*
X5686Y6974D01*
Y7099D01*
X5700Y7114D01*
X5876Y7362D02*
X5931Y7417D01*
X5636Y7007D02*
Y7140D01*
X5660Y7164D01*
X6905Y7012D02*
Y7192D01*
X7055Y7012D02*
Y7118D01*
X5524Y7315D02*
X5728D01*
X5524Y7544D02*
X5728D01*
X5948Y7358D02*
X6059D01*
X5931Y7417D02*
Y7442D01*
X5946Y7458D01*
X6059D01*
X5728Y7544D02*
X5842Y7658D01*
X6059D01*
X5753Y8331D02*
X5994D01*
X5651Y8433D02*
X5753Y8331D01*
X5994D02*
X6312Y8014D01*
X5461Y8369D02*
X5537Y8293D01*
X5389Y8339D02*
X5439Y8290D01*
X5461Y8369D02*
Y8433D01*
X5753Y7925D02*
X5920Y7758D01*
X5899Y7708D02*
X5931D01*
Y7708D02*
X6059D01*
X5753Y7747D02*
X5860D01*
X5550D02*
X5753D01*
X5347D02*
X5550D01*
X5860D02*
X5899Y7708D01*
X5347Y7976D02*
X5550D01*
X5753D01*
Y7925D02*
Y7976D01*
X5920Y7758D02*
X6059D01*
X5956Y7808D02*
X6059D01*
X5880Y7884D02*
Y8115D01*
Y7884D02*
X5956Y7808D01*
X5817Y8179D02*
X5880Y8115D01*
X5931Y7925D02*
Y8230D01*
Y7925D02*
X5948Y7908D01*
X6059D01*
X5537Y8179D02*
Y8293D01*
X5439Y8102D02*
Y8290D01*
X5389Y8339D02*
Y8526D01*
X5461Y8598D01*
Y8687D01*
X5556Y8433D02*
Y8490D01*
X5613Y8547D01*
X5766D01*
X5855Y8458D01*
X5651Y8687D02*
X5855D01*
X5994Y8407D02*
Y8763D01*
X5956Y8801D02*
X5994Y8763D01*
X4765Y8801D02*
X5956D01*
X5439Y8102D02*
X5461Y8080D01*
X5617D01*
X5651Y8115D01*
Y8239D01*
X5692Y8280D01*
X5880D01*
X5931Y8230D01*
X5766Y8179D02*
X5817D01*
X5994Y8407D02*
X6337Y8064D01*
X7552Y7964D02*
X7676D01*
X7301Y7858D02*
X7417D01*
X7676Y7964D02*
X8392Y8681D01*
Y8896D01*
X8428Y8932D01*
X7655Y8014D02*
X8342Y8702D01*
Y8917D01*
X8407Y8982D02*
X9464D01*
X8342Y8917D02*
X8407Y8982D01*
X8374Y9032D02*
X9007D01*
X7634Y8064D02*
X8292Y8722D01*
Y8950D01*
X8374Y9032D01*
X7301Y8008D02*
Y8050D01*
X7381Y8130D01*
X7630D01*
X8242Y8743D01*
X7942Y8867D02*
Y8964D01*
X7940Y8865D02*
X7942Y8867D01*
X7938Y8865D02*
X7940D01*
X7992Y8847D02*
Y9328D01*
X7807Y8661D02*
X7992Y8847D01*
X7645Y8661D02*
X7807D01*
X8042Y8826D02*
Y9307D01*
X7814Y8598D02*
X8042Y8826D01*
X8092Y8805D02*
Y9286D01*
X7567Y8280D02*
X8092Y8805D01*
X8142Y8785D02*
Y9266D01*
X7588Y8230D02*
X8142Y8785D01*
X8192Y8764D02*
Y9245D01*
X7609Y8180D02*
X8192Y8764D01*
X7861Y8788D02*
X7938Y8865D01*
X7785Y8788D02*
X7861D01*
X7595Y8712D02*
X7645Y8661D01*
X7455Y8344D02*
X7595Y8484D01*
X7145Y8344D02*
X7455D01*
X7005Y8357D02*
X7005Y8357D01*
Y8254D02*
Y8357D01*
X7055Y8254D02*
X7145Y8344D01*
X7188Y8700D02*
X7379D01*
X7188D02*
X7277Y8788D01*
X6505Y8138D02*
X6528Y8115D01*
X6505Y8138D02*
Y8254D01*
X7036Y8801D02*
X7074Y8763D01*
X6845Y8801D02*
X7036D01*
X6769Y8725D02*
X6845Y8801D01*
X7074Y8636D02*
Y8763D01*
X7036Y8598D02*
X7074Y8636D01*
X6960Y8598D02*
X7036D01*
X6905Y8543D02*
X6960Y8598D01*
X6905Y8254D02*
Y8543D01*
X6769Y8522D02*
X6960Y8712D01*
X6769Y8496D02*
Y8522D01*
X6755Y8254D02*
Y8482D01*
X6337Y8446D02*
Y8534D01*
Y8446D02*
X6401Y8382D01*
X6553Y8380D02*
X6555D01*
X6501Y8432D02*
X6553Y8380D01*
X6490Y8432D02*
X6501D01*
X6452Y8471D02*
X6490Y8432D01*
X6452Y8798D02*
X6518Y8865D01*
X6747Y8903D02*
X6972D01*
X6604Y8865D02*
X6741Y9001D01*
X6518Y8865D02*
X6604D01*
X7277Y8788D02*
Y8979D01*
X7255Y9001D02*
X7277Y8979D01*
X6741Y9001D02*
X7255D01*
X7328Y9017D02*
X7696D01*
X7214Y9131D02*
X7328Y9017D01*
X7175Y9131D02*
X7214D01*
X7239Y9436D02*
X8026D01*
X8197Y9607D01*
X7890Y9017D02*
X7942Y8964D01*
X7842Y9017D02*
X7890D01*
X7992Y9328D02*
X8221Y9557D01*
X8042Y9307D02*
X8242Y9507D01*
X8092Y9286D02*
X8263Y9457D01*
X8142Y9266D02*
X8284Y9407D01*
X8192Y9245D02*
X8304Y9357D01*
X8242Y8743D02*
Y9224D01*
X8325Y9307D01*
X9458Y9960D02*
X9557Y10058D01*
X9563D01*
X9360Y10016D02*
Y10058D01*
X9080Y9981D02*
X9157Y10058D01*
X9008Y10159D02*
X9030Y10138D01*
X8958Y10109D02*
Y10413D01*
Y10109D02*
X8972Y10095D01*
X8428Y8932D02*
X9609D01*
X9846Y9169D01*
X9906D01*
X9464Y8982D02*
X9652Y9169D01*
X8325Y9307D02*
X9201D01*
X9338Y9169D01*
X9398D01*
X9007Y9032D02*
X9144Y9169D01*
X8958Y10413D02*
X9047Y10502D01*
X9205D01*
X9323Y10621D01*
X9261Y11834D02*
X9323Y11771D01*
X8906Y11834D02*
X9261D01*
X9008Y10159D02*
Y10384D01*
X9068Y10444D01*
Y10452D01*
X9058Y10195D02*
X9096Y10157D01*
X9058Y10195D02*
Y10363D01*
X9096Y10401D01*
X9157Y10287D02*
X9174D01*
X9272Y10189D01*
X9566Y11050D02*
Y11059D01*
X9233Y10157D02*
X9255Y10135D01*
X9096Y10157D02*
X9233D01*
X9096Y10401D02*
X9246D01*
X9068Y10452D02*
X9226D01*
X9246Y10401D02*
X9423Y10579D01*
X9226Y10452D02*
X9373Y10600D01*
Y11277D02*
X9566Y11469D01*
Y11478D01*
X9423Y11196D02*
X9566Y11338D01*
X9360Y10287D02*
X9473Y10400D01*
Y11106D02*
X9566Y11199D01*
Y10290D02*
Y10919D01*
X6655Y8254D02*
Y8407D01*
X6452Y8471D02*
Y8798D01*
X6555Y8254D02*
Y8380D01*
X6147Y8738D02*
X6337D01*
Y8534D02*
Y8738D01*
X6566Y8534D02*
Y8738D01*
X6605Y8254D02*
Y8508D01*
X6505Y8254D02*
Y8357D01*
X6401Y8382D02*
X6480D01*
X6505Y8357D01*
X7899Y5931D02*
X8001Y5829D01*
Y5636D02*
Y5829D01*
X7852Y5487D02*
X8001Y5636D01*
X7683Y5572D02*
X7769Y5487D01*
X7683Y5572D02*
Y5702D01*
X7769Y5487D02*
X7852D01*
X7696Y5931D02*
X7887Y5740D01*
X7493Y5931D02*
X7620Y5804D01*
X7734D01*
X7786Y5753D01*
X7290Y5829D02*
X7442Y5677D01*
X7518D01*
X7303Y5524D02*
Y5626D01*
X7683Y5144D02*
X7722D01*
X7303Y5524D02*
X7683Y5144D01*
X6947Y9550D02*
X6972D01*
X7175D02*
X7391D01*
X6972D02*
X7087Y9436D01*
X7239D01*
X7277Y9398D01*
Y9246D02*
Y9398D01*
Y9246D02*
X7391Y9131D01*
X6972Y9322D02*
X7175D01*
X6972Y9131D02*
Y9322D01*
X6769Y9106D02*
X6947D01*
X6972Y8903D02*
X7175D01*
X7391D02*
X7411Y8922D01*
X7576D01*
X5867Y8903D02*
Y9106D01*
Y9296D01*
X5651Y9309D02*
X5855D01*
X5867Y9296D01*
Y9106D02*
X6058D01*
X5651Y9538D02*
X5855D01*
X6769Y9347D02*
X6820D01*
X7391Y9322D02*
X7595D01*
Y9130D02*
Y9322D01*
X7791Y9112D02*
X7842D01*
X7696Y9017D02*
X7791Y9112D01*
X7696Y9017D02*
X7791Y8922D01*
X7842D01*
X6147Y4953D02*
X6160Y4940D01*
X6755Y6897D02*
Y7012D01*
Y6897D02*
X6769Y6883D01*
X6382Y6877D02*
X6405Y6900D01*
Y7012D01*
X6270D02*
X6305D01*
X5926Y7336D02*
X5948Y7358D01*
X6256Y6998D02*
X6270Y7012D01*
X6769Y6883D02*
X6871D01*
X6185Y6744D02*
Y6821D01*
X6490Y5829D02*
Y5969D01*
X6452Y5791D02*
X6490Y5829D01*
X6287Y5791D02*
Y5969D01*
X7290Y6058D02*
Y6375D01*
X7620Y6439D02*
X7899Y6160D01*
X7301Y7908D02*
X7425D01*
X7417Y7858D02*
X7446D01*
X7425Y7908D02*
X7476Y7959D01*
X7452Y7864D02*
X7552Y7964D01*
X7511Y8064D02*
X7634D01*
X7476Y7959D02*
Y7959D01*
X7532Y8014D01*
X7655D01*
X7301Y7758D02*
X7633D01*
X7531Y7442D02*
X7633Y7341D01*
X7301Y7658D02*
X7468D01*
X7531Y7595D01*
Y7442D02*
Y7595D01*
X7301Y7558D02*
X7416D01*
X7429Y7544D01*
X7633Y7341D02*
X7831D01*
X7633Y7544D02*
X7836D01*
X8039D01*
X7633Y7772D02*
X7836D01*
X8039D01*
X6134Y6007D02*
Y6210D01*
X6059Y7308D02*
X6192D01*
X6205Y7295D01*
X6255Y7434D02*
X6352Y7530D01*
X6305Y7413D02*
X6372Y7480D01*
X6352Y7530D02*
X6643D01*
X6355Y7012D02*
Y7320D01*
X6375Y7341D01*
X6426D01*
X6505Y7012D02*
Y7173D01*
X6464Y7214D02*
X6505Y7173D01*
X7239Y8280D02*
X7567D01*
X7260Y8230D02*
X7588D01*
X7288Y8180D02*
X7609D01*
X6372Y7480D02*
X6617D01*
X6905Y7192D01*
X6643Y7530D02*
X7055Y7118D01*
X6312Y8014D02*
X6782D01*
X7620Y6439D02*
Y6782D01*
X6528Y8115D02*
X6731D01*
X6755Y8139D01*
Y8254D01*
X6337Y8064D02*
X6756D01*
X6805Y8113D01*
Y8254D01*
X6782Y8014D02*
X6855Y8087D01*
Y8254D01*
X7175Y7518D02*
Y7595D01*
Y7518D02*
X7186Y7508D01*
X7301D01*
X6923Y7620D02*
X7136Y7408D01*
X7301D01*
X6873Y7600D02*
X7165Y7308D01*
X7301D01*
X6973Y7645D02*
X7160Y7458D01*
X7301D01*
X7429Y7043D02*
Y7544D01*
X7480Y6198D02*
Y6769D01*
X7544Y6350D02*
X7722Y6172D01*
X7301Y7808D02*
X7478D01*
X7569Y7899D01*
X7301Y7958D02*
X7404D01*
Y7958D01*
X7511Y8064D01*
X6973Y7865D02*
X7288Y8180D01*
X6973Y7645D02*
Y7865D01*
X6923Y7894D02*
X7260Y8230D01*
X6923Y7620D02*
Y7894D01*
X6873Y7914D02*
X7239Y8280D01*
X6873Y7600D02*
Y7914D01*
X7544Y6350D02*
Y6787D01*
X6820Y7582D02*
X7620Y6782D01*
X6059Y7958D02*
X6673D01*
X6820Y7811D01*
Y7582D02*
Y7811D01*
X6770Y7561D02*
X7544Y6787D01*
X6770Y7561D02*
Y7790D01*
X6059Y7908D02*
X6652D01*
X6770Y7790D01*
X6720Y7529D02*
X7480Y6769D01*
X6720Y7529D02*
Y7769D01*
X6631Y7858D02*
X6720Y7769D01*
X6059Y7858D02*
X6631D01*
X6059Y7658D02*
X6617D01*
X9373Y7582D02*
X9423Y7633D01*
X9538D01*
X9411Y7887D02*
X9538D01*
X9360Y8014D02*
X9538D01*
X9525Y5882D02*
Y7480D01*
X9284Y7760D02*
X9411Y7887D01*
X9182Y6371D02*
Y7836D01*
X9360Y8014D01*
X9284Y6195D02*
Y7760D01*
X9373Y6007D02*
Y7582D01*
X9538Y7633D02*
X9627D01*
X9766Y7493D01*
X9538Y7887D02*
X9754D01*
X9766Y7899D01*
Y7722D02*
Y7899D01*
X9538Y8014D02*
X9652D01*
X9766Y8128D01*
Y8306D01*
X9589Y8560D02*
X9741D01*
X9563Y8585D02*
Y8801D01*
X9335Y8585D02*
Y8801D01*
X9538Y8395D02*
X9547Y8404D01*
X9843D01*
X9865Y8382D01*
Y8372D02*
Y8382D01*
Y8372D02*
X9881Y8357D01*
Y7607D02*
Y8357D01*
X9766Y7493D02*
X9881Y7607D01*
X9766Y8534D02*
X9783D01*
X9931Y8386D01*
Y7442D02*
Y8386D01*
X9855Y7366D02*
X9931Y7442D01*
X9690Y7366D02*
X9855D01*
X9550Y7506D02*
X9690Y7366D01*
X9525Y7480D02*
X9550Y7506D01*
X8496Y8268D02*
X8572D01*
X8344Y8420D02*
X8496Y8268D01*
X8344Y8014D02*
X8572D01*
X8471Y7887D02*
X8572D01*
X8344Y8014D02*
X8471Y7887D01*
X8230Y7899D02*
X8344Y8014D01*
X7569Y7899D02*
X8230D01*
X8395Y7633D02*
X8572D01*
X8344Y7582D02*
X8395Y7633D01*
X8496Y7506D02*
X8572D01*
X8344Y7353D02*
X8496Y7506D01*
X8572Y7760D02*
X8725D01*
X8750Y7734D01*
X8572Y8141D02*
X8738D01*
X8852Y8026D01*
X7429Y7043D02*
X7742Y6731D01*
X7301Y7608D02*
X7442D01*
X7479Y7570D01*
Y7064D02*
Y7570D01*
X6655Y8407D02*
X6671Y8423D01*
Y8827D01*
X6747Y8903D01*
X7087Y6782D02*
X7290D01*
X6820Y6553D02*
Y6756D01*
X6591Y6553D02*
Y6756D01*
X6185Y6821D02*
X6256Y6892D01*
Y6998D01*
X6312Y6877D02*
X6382D01*
X6287Y6852D02*
X6312Y6877D01*
X6185Y6540D02*
X6287Y6642D01*
Y6852D01*
X7005Y6901D02*
Y7012D01*
Y6901D02*
X7087Y6820D01*
Y6782D02*
Y6820D01*
X6955Y6875D02*
Y7012D01*
Y6875D02*
X6985Y6845D01*
Y6840D02*
Y6845D01*
X6988Y6652D02*
Y6837D01*
X6985Y6840D02*
X6988Y6837D01*
X6871Y6883D02*
X6938Y6816D01*
X6988Y6652D02*
X7087Y6553D01*
X6938Y6511D02*
Y6816D01*
X6793Y6553D02*
X6820D01*
X6692Y6452D02*
X6793Y6553D01*
X6476Y6452D02*
X6692D01*
X6388Y6540D02*
X6476Y6452D01*
X6401Y6756D02*
X6591D01*
X6388Y6769D02*
X6401Y6756D01*
X6388Y6769D02*
X6506Y6887D01*
X6533D01*
X6555Y6909D01*
Y7012D01*
X7742Y6731D02*
X7747D01*
X7479Y7064D02*
X7736Y6807D01*
X7005Y8357D02*
X7246Y8598D01*
X7814D01*
X5067Y9195D02*
X5156D01*
X3734Y7633D02*
X3747Y7620D01*
X7189Y7608D02*
X7301D01*
X7175Y7595D02*
X7189Y7608D01*
X8039Y7772D02*
X8064D01*
X8192Y7645D01*
Y7506D02*
Y7645D01*
Y7506D02*
X8344Y7353D01*
X7633Y7112D02*
X7831D01*
X7301Y7708D02*
X7520D01*
X7633Y7595D01*
Y7544D02*
Y7595D01*
X8344Y7582D02*
Y7785D01*
X7112Y7658D02*
X7301D01*
X7099Y7671D02*
X7112Y7658D01*
X7595Y9550D02*
Y9728D01*
X5058Y9347D02*
X5083Y9322D01*
X5423D01*
X5639Y9106D01*
X4648Y9741D02*
X4788D01*
X5058Y9471D01*
Y9347D02*
Y9471D01*
X5309Y6706D02*
Y6734D01*
X5123Y6920D02*
X5309Y6734D01*
X5210Y6629D02*
X5232Y6607D01*
X5210Y6629D02*
Y6741D01*
X5073Y6878D02*
X5210Y6741D01*
X5160Y6608D02*
X5211Y6557D01*
X5160Y6608D02*
Y6720D01*
X5023Y6857D02*
X5160Y6720D01*
X9858Y12062D02*
X9871D01*
X7736Y6807D02*
X7899D01*
X7214Y6452D02*
X7290Y6375D01*
X6938Y6511D02*
X6998Y6452D01*
X7214D01*
X4477Y8348D02*
Y8513D01*
Y8348D02*
X4593Y8232D01*
X4477Y8513D02*
X4765Y8801D01*
X4439Y8566D02*
X5067Y9195D01*
X3988Y9817D02*
Y9919D01*
X6655Y7012D02*
Y7138D01*
X6693Y7175D01*
X7798Y5588D02*
X7811D01*
X7786Y5601D02*
X7798Y5588D01*
X7786Y5601D02*
Y5753D01*
D28*
X8204Y7175D02*
Y7214D01*
X9752Y10695D02*
Y11956D01*
X9484Y9623D02*
X9947Y10087D01*
Y10500D01*
X9795Y9528D02*
X9897Y9427D01*
X9712Y9528D02*
X9795D01*
X9262Y9668D02*
X9401Y9808D01*
X9465D01*
X9446Y9623D02*
X9484D01*
X9636D02*
X9712D01*
X9566Y9554D02*
X9636Y9623D01*
X9566Y9478D02*
Y9554D01*
X9268Y9433D02*
X9446D01*
X9865Y9623D02*
X9897Y9655D01*
X9712Y9623D02*
X9865D01*
X9611Y9433D02*
X9712D01*
X9566Y9478D02*
X9611Y9433D01*
X9752Y11956D02*
X9858Y12062D01*
X9752Y10695D02*
X9947Y10500D01*
D29*
X4648Y10084D02*
Y10249D01*
Y9919D02*
Y10084D01*
Y9817D02*
Y9919D01*
D30*
X4483Y10274D02*
X4623D01*
D31*
X6160Y4521D02*
Y4940D01*
D33*
X3696Y9639D02*
Y9804D01*
Y9639D02*
X3975Y9360D01*
X4394Y8611D02*
Y8865D01*
Y9106D01*
Y9423D01*
Y8575D02*
Y8611D01*
X4374Y8555D02*
X4394Y8575D01*
X4374Y7919D02*
X4394Y7899D01*
Y6477D02*
Y7811D01*
X4204Y7620D02*
X4394Y7811D01*
Y7899D01*
X4374Y7919D02*
Y8555D01*
X3696Y10058D02*
X3848D01*
X3988Y9919D01*
D38*
X3721Y12586D02*
D03*
X9868D02*
D03*
Y3874D02*
D03*
X3721D02*
D03*
D39*
X8867Y7034D02*
D03*
X8867Y4534D02*
D03*
X4735Y9296D02*
D03*
X4735Y6797D02*
D03*
D40*
X9009Y6198D02*
D03*
X8725Y5228D02*
D03*
X9009Y5366D02*
D03*
Y5643D02*
D03*
X8725Y5505D02*
D03*
Y5783D02*
D03*
Y6060D02*
D03*
X9009Y5920D02*
D03*
X4593Y7910D02*
D03*
X4877Y7770D02*
D03*
Y8048D02*
D03*
Y8325D02*
D03*
X4593Y8187D02*
D03*
Y8465D02*
D03*
X4877Y8602D02*
D03*
X4593Y7633D02*
D03*
D41*
X8725Y6337D02*
D03*
X4877Y7493D02*
D03*
D42*
X4216Y12141D02*
D03*
D43*
X4470D02*
D03*
X4724D02*
D03*
D44*
X8382Y9169D02*
D03*
X8636D02*
D03*
X8890D02*
D03*
X9144D02*
D03*
X9398D02*
D03*
X9652D02*
D03*
X3708Y5499D02*
D03*
Y5245D02*
D03*
X3696Y9804D02*
D03*
D45*
X9906Y9169D02*
D03*
D46*
X3708Y4991D02*
D03*
X3696Y10058D02*
D03*
D47*
X5070Y11122D02*
D03*
X4943Y10995D02*
D03*
X5070Y10868D02*
D03*
D48*
X9144Y10795D02*
D03*
X9004Y10947D02*
D03*
X8504Y10793D02*
D03*
X8661Y10935D02*
D03*
X5740Y6540D02*
D03*
X8446Y6985D02*
D03*
X8204Y7175D02*
D03*
X7988Y7188D02*
D03*
X5817Y7010D02*
D03*
X4254Y10274D02*
D03*
X3747Y11989D02*
D03*
X8217Y6896D02*
D03*
Y6718D02*
D03*
X9262Y9668D02*
D03*
X9897Y9655D02*
D03*
Y9427D02*
D03*
X9947Y10500D02*
D03*
X3962Y8052D02*
D03*
X3734Y8255D02*
D03*
X4648Y9919D02*
D03*
Y10084D02*
D03*
X8865Y10058D02*
D03*
X4801Y11493D02*
D03*
X4597D02*
D03*
X4369D02*
D03*
X4140D02*
D03*
X3962Y11354D02*
D03*
Y11112D02*
D03*
Y10846D02*
D03*
Y10617D02*
D03*
X4140Y10490D02*
D03*
X4381D02*
D03*
X7772Y8776D02*
D03*
X8039Y6058D02*
D03*
X6769Y9474D02*
D03*
X7283Y9550D02*
D03*
X5017Y4521D02*
D03*
X3658D02*
D03*
X4115Y5829D02*
D03*
X5372Y6058D02*
D03*
X6655Y6033D02*
D03*
X7087Y6058D02*
D03*
X8230Y4724D02*
D03*
Y4953D02*
D03*
X5753Y4293D02*
D03*
X5017D02*
D03*
X4394D02*
D03*
X3658D02*
D03*
X4115Y6058D02*
D03*
X4470Y4724D02*
D03*
X5080Y4953D02*
D03*
X5169Y5397D02*
D03*
X5931Y5474D02*
D03*
X5164Y6060D02*
D03*
X6985Y5814D02*
D03*
X8230Y5524D02*
D03*
X6960Y4724D02*
D03*
X6350D02*
D03*
X6160Y4521D02*
D03*
X6147Y4953D02*
D03*
X5715Y5474D02*
D03*
X7683Y5702D02*
D03*
X6134Y6007D02*
D03*
X6287Y5791D02*
D03*
X6452D02*
D03*
X7887Y5740D02*
D03*
X7811Y5588D02*
D03*
X7518Y5677D02*
D03*
X7303Y5626D02*
D03*
X7722Y5144D02*
D03*
X5007Y11872D02*
D03*
X5858Y10018D02*
D03*
X6950D02*
D03*
Y10246D02*
D03*
X7712Y10233D02*
D03*
X7547Y11072D02*
D03*
X7864Y12189D02*
D03*
X6391Y12176D02*
D03*
X5959Y11745D02*
D03*
X5007Y12100D02*
D03*
X5451Y11338D02*
D03*
X9982Y10808D02*
D03*
X7839Y10030D02*
D03*
X9426Y12189D02*
D03*
Y11961D02*
D03*
X9871Y12062D02*
D03*
X9020Y12189D02*
D03*
X8474D02*
D03*
X9871Y11745D02*
D03*
X7724Y11757D02*
D03*
X7547Y11326D02*
D03*
X7712Y10462D02*
D03*
X7242Y11757D02*
D03*
X5451Y11110D02*
D03*
X6988Y11313D02*
D03*
Y10653D02*
D03*
X5799Y10936D02*
D03*
X5651Y9538D02*
D03*
X5639Y8903D02*
D03*
X6464Y7214D02*
D03*
X5740Y6706D02*
D03*
X5994Y7112D02*
D03*
X6490Y6198D02*
D03*
X6109Y6210D02*
D03*
X6414Y7379D02*
D03*
X7099Y7671D02*
D03*
X6617Y7658D02*
D03*
X6591Y6553D02*
D03*
X8039Y7772D02*
D03*
X5347Y7747D02*
D03*
X6134Y8750D02*
D03*
X5855Y8687D02*
D03*
X8344Y8192D02*
D03*
X7391Y8484D02*
D03*
X6566Y8738D02*
D03*
X5855Y8458D02*
D03*
X6134Y8522D02*
D03*
X5347Y7976D02*
D03*
X5524Y7315D02*
D03*
X6820Y6553D02*
D03*
X8039Y7544D02*
D03*
X8344Y7582D02*
D03*
X7633Y7112D02*
D03*
X7087Y6553D02*
D03*
X7315D02*
D03*
X7722Y6706D02*
D03*
X7887Y6756D02*
D03*
X7391Y8712D02*
D03*
X7061Y8560D02*
D03*
X5004Y9817D02*
D03*
Y10033D02*
D03*
X3886Y8712D02*
D03*
X4051D02*
D03*
X3734Y7849D02*
D03*
X3747Y7569D02*
D03*
X3785Y6617D02*
D03*
X4166D02*
D03*
X3785Y7303D02*
D03*
X4166D02*
D03*
X3785Y6960D02*
D03*
X4166D02*
D03*
X3962Y6782D02*
D03*
X7912Y6553D02*
D03*
X8572Y8484D02*
D03*
X7595Y9957D02*
D03*
X5055Y6591D02*
D03*
X7887Y9258D02*
D03*
X5677Y6058D02*
D03*
X4394Y9423D02*
D03*
Y7899D02*
D03*
Y8611D02*
D03*
Y8865D02*
D03*
Y9106D02*
D03*
Y6477D02*
D03*
Y8141D02*
D03*
Y7506D02*
D03*
Y7252D02*
D03*
Y6998D02*
D03*
X4648Y10249D02*
D03*
X8496Y11455D02*
D03*
X8500Y11097D02*
D03*
X8839Y11125D02*
D03*
Y11455D02*
D03*
X9144Y11112D02*
D03*
X9004Y11278D02*
D03*
X8661Y11290D02*
D03*
X9157Y11450D02*
D03*
X8852Y10795D02*
D03*
X6756Y7188D02*
D03*
X5588Y10490D02*
D03*
X5842D02*
D03*
X6109D02*
D03*
X6363D02*
D03*
X6655D02*
D03*
X6921D02*
D03*
X7188D02*
D03*
X7366Y10884D02*
D03*
Y10643D02*
D03*
X5588Y11493D02*
D03*
X5321D02*
D03*
X5080D02*
D03*
X5855D02*
D03*
X6109D02*
D03*
X6375D02*
D03*
X6642D02*
D03*
X6909D02*
D03*
X7175D02*
D03*
X7353Y11303D02*
D03*
X5283Y10490D02*
D03*
X5055D02*
D03*
X4813D02*
D03*
X4610D02*
D03*
X3975Y5182D02*
D03*
Y7125D02*
D03*
X3912Y6261D02*
D03*
X4140D02*
D03*
X3683Y5867D02*
D03*
Y6210D02*
D03*
D49*
X9566Y10919D02*
D03*
Y11059D02*
D03*
Y11199D02*
D03*
Y11338D02*
D03*
Y11478D02*
D03*
X8906Y11834D02*
D03*
X7175Y9131D02*
D03*
D50*
X4432Y11316D02*
D03*
Y10668D02*
D03*
D51*
X9712Y9623D02*
D03*
Y9528D02*
D03*
Y9433D02*
D03*
X9446D02*
D03*
Y9623D02*
D03*
X7576Y9112D02*
D03*
Y8922D02*
D03*
X7842D02*
D03*
Y9017D02*
D03*
Y9112D02*
D03*
D52*
X7301Y7258D02*
D03*
Y7308D02*
D03*
Y7358D02*
D03*
Y7408D02*
D03*
Y7458D02*
D03*
Y7508D02*
D03*
Y7558D02*
D03*
Y7608D02*
D03*
Y7658D02*
D03*
Y7708D02*
D03*
Y7758D02*
D03*
Y7808D02*
D03*
Y7858D02*
D03*
Y7908D02*
D03*
Y7958D02*
D03*
Y8008D02*
D03*
X6059D02*
D03*
Y7958D02*
D03*
Y7908D02*
D03*
Y7858D02*
D03*
Y7808D02*
D03*
Y7758D02*
D03*
Y7708D02*
D03*
Y7658D02*
D03*
Y7608D02*
D03*
Y7558D02*
D03*
Y7508D02*
D03*
Y7458D02*
D03*
Y7408D02*
D03*
Y7358D02*
D03*
Y7308D02*
D03*
Y7258D02*
D03*
D53*
X7055Y8254D02*
D03*
X7005D02*
D03*
X6955D02*
D03*
X6905D02*
D03*
X6855D02*
D03*
X6805D02*
D03*
X6755D02*
D03*
X6705D02*
D03*
X6655D02*
D03*
X6605D02*
D03*
X6555D02*
D03*
X6505D02*
D03*
X6455D02*
D03*
X6405D02*
D03*
X6355D02*
D03*
X6305D02*
D03*
Y7012D02*
D03*
X6355D02*
D03*
X6405D02*
D03*
X6455D02*
D03*
X6505D02*
D03*
X6555D02*
D03*
X6605D02*
D03*
X6655D02*
D03*
X6705D02*
D03*
X6755D02*
D03*
X6805D02*
D03*
X6855D02*
D03*
X6905D02*
D03*
X6955D02*
D03*
X7005D02*
D03*
X7055D02*
D03*
D54*
X9538Y8268D02*
D03*
Y8141D02*
D03*
Y7760D02*
D03*
X8572Y7506D02*
D03*
Y8268D02*
D03*
X9538Y7506D02*
D03*
Y8014D02*
D03*
Y7887D02*
D03*
X8572Y7633D02*
D03*
Y8395D02*
D03*
X9538Y7633D02*
D03*
Y8395D02*
D03*
X8572Y7887D02*
D03*
Y8014D02*
D03*
Y7760D02*
D03*
Y8141D02*
D03*
D55*
X5651Y8687D02*
D03*
Y8433D02*
D03*
X5556D02*
D03*
X5461D02*
D03*
Y8687D02*
D03*
D56*
X4204Y7569D02*
D03*
X3747D02*
D03*
D57*
X3975Y6960D02*
D03*
D58*
X3988Y9817D02*
D03*
X4648D02*
D03*
D59*
X3975Y9360D02*
D03*
Y8700D02*
D03*
D60*
X6287Y8979D02*
D03*
X6414D02*
D03*
X6540D02*
D03*
X6287Y9487D02*
D03*
X6414D02*
D03*
X6540D02*
D03*
D61*
X3734Y7633D02*
Y8268D01*
X3962Y8141D02*
X4166D01*
X3962D02*
Y8268D01*
Y7899D02*
Y8141D01*
Y7023D02*
Y7899D01*
X4166D01*
Y8141D02*
X4229Y8204D01*
X4102Y8661D02*
X4229Y8534D01*
Y8204D02*
Y8534D01*
M02*
