%FSLAX42Y42*%
%MOMM*%
G71*
G01*
G75*
G04 Layer_Color=32896*
%ADD10R,1.22X1.22*%
%ADD11R,1.22X1.22*%
%ADD12R,3.20X4.00*%
%ADD13R,1.27X1.27*%
%ADD14R,1.40X1.40*%
%ADD15O,0.25X1.75*%
%ADD16O,1.75X0.25*%
%ADD17O,1.20X0.35*%
%ADD18R,1.20X0.35*%
%ADD19O,0.35X1.20*%
%ADD20R,0.35X1.20*%
%ADD21R,0.60X1.20*%
%ADD22O,1.30X0.65*%
%ADD23R,1.30X0.65*%
%ADD24O,0.35X1.85*%
%ADD25R,1.27X1.27*%
%ADD26R,1.52X1.52*%
%ADD27C,0.25*%
%ADD28C,0.60*%
%ADD29C,2.00*%
%ADD30C,1.20*%
%ADD31C,0.50*%
%ADD32C,0.40*%
%ADD33C,1.30*%
%ADD34C,0.25*%
%ADD35C,0.35*%
%ADD36C,0.30*%
%ADD37C,0.80*%
%ADD38C,5.00*%
%ADD39C,5.00*%
%ADD40C,1.57*%
%ADD41P,1.70X8X292.5*%
%ADD42R,1.50X1.50*%
%ADD43C,1.50*%
%ADD44C,2.00*%
%ADD45R,2.00X2.00*%
%ADD46R,2.00X2.00*%
%ADD47C,1.52*%
%ADD48C,1.27*%
%ADD49C,1.10*%
%ADD50C,1.70*%
%ADD51R,1.20X0.60*%
%ADD52R,1.75X0.25*%
%ADD53R,0.25X1.75*%
%ADD54O,2.03X0.61*%
%ADD55R,0.69X0.99*%
%ADD56R,1.02X2.03*%
%ADD57R,5.59X8.64*%
%ADD58R,2.03X3.05*%
%ADD59R,3.05X2.03*%
%ADD60R,0.76X1.30*%
%ADD61C,1.00*%
%ADD62C,0.20*%
%ADD63C,0.20*%
%ADD64C,0.30*%
%ADD65C,0.38*%
%ADD66C,0.13*%
%ADD67C,0.10*%
%ADD68C,0.15*%
%ADD69R,1.42X1.42*%
%ADD70R,1.42X1.42*%
%ADD71R,3.40X4.20*%
%ADD72R,1.47X1.47*%
%ADD73R,1.60X1.60*%
%ADD74O,0.45X1.95*%
%ADD75O,1.95X0.45*%
%ADD76O,1.40X0.55*%
%ADD77R,1.40X0.55*%
%ADD78O,0.55X1.40*%
%ADD79R,0.55X1.40*%
%ADD80R,0.80X1.40*%
%ADD81O,1.50X0.85*%
%ADD82R,1.50X0.85*%
%ADD83O,0.55X2.05*%
%ADD84R,1.47X1.47*%
%ADD85R,1.73X1.73*%
%ADD86C,5.20*%
%ADD87C,5.20*%
%ADD88C,1.78*%
%ADD89P,1.92X8X292.5*%
%ADD90R,1.70X1.70*%
%ADD91C,1.70*%
%ADD92C,2.20*%
%ADD93R,2.20X2.20*%
%ADD94R,2.20X2.20*%
%ADD95C,1.73*%
%ADD96C,1.47*%
%ADD97C,1.30*%
%ADD98C,1.90*%
%ADD99R,1.40X0.80*%
%ADD100R,1.95X0.45*%
%ADD101R,0.45X1.95*%
%ADD102O,2.24X0.81*%
%ADD103R,0.89X1.19*%
%ADD104R,1.22X2.24*%
%ADD105R,5.79X8.84*%
%ADD106R,2.24X3.25*%
%ADD107R,3.25X2.24*%
%ADD108R,0.97X1.50*%
D27*
X7135Y7012D02*
G03*
X7135Y7012I-12J0D01*
G01*
D31*
X7043Y7282D02*
G03*
X7043Y7282I-20J0D01*
G01*
D34*
X9119Y7442D02*
G03*
X8992Y7442I-63J0D01*
G01*
X4064Y10147D02*
G03*
X3988Y10058I6J-83D01*
G01*
X3986Y9589D02*
G03*
X4064Y9512I83J6D01*
G01*
X4648Y10084D02*
G03*
X4585Y10147I-70J-6D01*
G01*
X4585Y9512D02*
G03*
X4648Y9576I0J63D01*
G01*
X4526Y9825D02*
G03*
X4526Y9825I-208J0D01*
G01*
X4331Y9614D02*
G03*
X4507Y9740I78J78D01*
G01*
X4307Y10035D02*
G03*
X4110Y9891I-82J-94D01*
G01*
X4305Y9284D02*
G03*
X4216Y9360I-83J-6D01*
G01*
X3747Y9362D02*
G03*
X3670Y9284I6J-83D01*
G01*
X4242Y8700D02*
G03*
X4305Y8763I-6J70D01*
G01*
X3670Y8763D02*
G03*
X3734Y8700I63J0D01*
G01*
X4191Y9030D02*
G03*
X4191Y9030I-208J0D01*
G01*
X3772Y9017D02*
G03*
X3898Y8841I78J-78D01*
G01*
X4193Y9041D02*
G03*
X4049Y9238I-94J82D01*
G01*
X7112Y7188D02*
Y8077D01*
X6236Y7188D02*
X7112D01*
X6236D02*
Y8077D01*
X7112D01*
X8725Y7442D02*
Y8458D01*
X9385D01*
Y7442D02*
Y8458D01*
X9119Y7442D02*
X9385D01*
X8725D02*
X8992D01*
X3645Y6502D02*
Y7722D01*
X4305D01*
Y6502D02*
Y7722D01*
X3645Y6502D02*
X4305D01*
X3986Y9589D02*
Y10057D01*
X4064Y10147D02*
X4585D01*
X4064Y9512D02*
X4585D01*
X4648Y9576D02*
Y10084D01*
X3747Y9362D02*
X4215D01*
X4305Y8763D02*
Y9284D01*
X3670Y8763D02*
Y9284D01*
X3734Y8700D02*
X4242D01*
D62*
X5324Y10995D02*
G03*
X5324Y10995I-254J0D01*
G01*
X5893Y6490D02*
X6007D01*
X5893Y6642D02*
X6007D01*
X6134Y6490D02*
X6248D01*
X6134Y6642D02*
X6248D01*
X9820Y9732D02*
X9973D01*
X9820Y9604D02*
Y9732D01*
X9973Y9604D02*
Y9732D01*
X9820Y9350D02*
X9973D01*
Y9478D01*
X9820Y9350D02*
Y9478D01*
X9770Y9732D02*
Y9884D01*
X9643D02*
X9770D01*
X9643Y9732D02*
X9770D01*
X9389D02*
Y9884D01*
Y9732D02*
X9516D01*
X9389Y9884D02*
X9516D01*
X9185Y9363D02*
X9338D01*
Y9490D01*
X9185Y9363D02*
Y9490D01*
Y9744D02*
X9338D01*
X9185Y9617D02*
Y9744D01*
X9338Y9617D02*
Y9744D01*
X4039Y8179D02*
Y8331D01*
X3912D02*
X4039D01*
X3912Y8179D02*
X4039D01*
X3658D02*
Y8331D01*
Y8179D02*
X3785D01*
X3658Y8331D02*
X3785D01*
X4559Y10198D02*
Y10350D01*
X4432D02*
X4559D01*
X4432Y10198D02*
X4559D01*
X4178D02*
Y10350D01*
Y10198D02*
X4305D01*
X4178Y10350D02*
X4305D01*
X7315Y9081D02*
Y9195D01*
X7468Y9081D02*
Y9195D01*
X7315Y8839D02*
Y8954D01*
X7468Y8839D02*
Y8954D01*
X6896Y9500D02*
Y9614D01*
X7049Y9500D02*
Y9614D01*
X6896Y9258D02*
Y9373D01*
X7049Y9258D02*
Y9373D01*
X7252Y8839D02*
Y8954D01*
X7099Y8839D02*
Y8954D01*
X7252Y9081D02*
Y9195D01*
X7099Y9081D02*
Y9195D01*
X7049Y8839D02*
Y8954D01*
X6896Y8839D02*
Y8954D01*
X7049Y9081D02*
Y9195D01*
X6896Y9081D02*
Y9195D01*
X7671Y9665D02*
Y9779D01*
X7518Y9665D02*
Y9779D01*
X7671Y9906D02*
Y10020D01*
X7518Y9906D02*
Y10020D01*
X7671Y9258D02*
Y9373D01*
X7518Y9258D02*
Y9373D01*
X7671Y9500D02*
Y9614D01*
X7518Y9500D02*
Y9614D01*
X5829Y7925D02*
Y8052D01*
X5677Y7925D02*
Y8052D01*
X5829D01*
X5677Y7671D02*
Y7798D01*
X5829Y7671D02*
Y7798D01*
X5677Y7671D02*
X5829D01*
X5626Y7925D02*
Y8052D01*
X5474Y7925D02*
Y8052D01*
X5626D01*
X5474Y7671D02*
Y7798D01*
X5626Y7671D02*
Y7798D01*
X5474Y7671D02*
X5626D01*
X5423Y7925D02*
Y8052D01*
X5271Y7925D02*
Y8052D01*
X5423D01*
X5271Y7671D02*
Y7798D01*
X5423Y7671D02*
Y7798D01*
X5271Y7671D02*
X5423D01*
X7557Y7468D02*
Y7595D01*
X7709Y7468D02*
Y7595D01*
X7557Y7468D02*
X7709D01*
Y7722D02*
Y7849D01*
X7557Y7722D02*
Y7849D01*
X7709D01*
X7760Y7468D02*
Y7595D01*
X7912Y7468D02*
Y7595D01*
X7760Y7468D02*
X7912D01*
Y7722D02*
Y7849D01*
X7760Y7722D02*
Y7849D01*
X7912D01*
X7963Y7468D02*
Y7595D01*
X8115Y7468D02*
Y7595D01*
X7963Y7468D02*
X8115D01*
Y7722D02*
Y7849D01*
X7963Y7722D02*
Y7849D01*
X8115D01*
X6312Y6464D02*
Y6591D01*
X6464Y6464D02*
Y6591D01*
X6312Y6464D02*
X6464D01*
Y6718D02*
Y6845D01*
X6312Y6718D02*
Y6845D01*
X6464D01*
X6769Y6680D02*
X6896D01*
X6769Y6833D02*
X6896D01*
Y6680D02*
Y6833D01*
X6515D02*
X6642D01*
X6515Y6680D02*
X6642D01*
X6515D02*
Y6833D01*
X6769Y6477D02*
X6896D01*
X6769Y6629D02*
X6896D01*
Y6477D02*
Y6629D01*
X6515D02*
X6642D01*
X6515Y6477D02*
X6642D01*
X6515D02*
Y6629D01*
Y8458D02*
X6642D01*
X6515Y8611D02*
X6642D01*
Y8458D02*
Y8611D01*
X6261D02*
X6388D01*
X6261Y8458D02*
X6388D01*
X6261D02*
Y8611D01*
X6515Y8661D02*
X6642D01*
X6515Y8814D02*
X6642D01*
Y8661D02*
Y8814D01*
X6261D02*
X6388D01*
X6261Y8661D02*
X6388D01*
X6261D02*
Y8814D01*
X6058Y8446D02*
Y8572D01*
X6210Y8446D02*
Y8572D01*
X6058Y8446D02*
X6210D01*
Y8700D02*
Y8826D01*
X6058Y8700D02*
Y8826D01*
X6210D01*
X5931Y9487D02*
Y9614D01*
X5778Y9487D02*
Y9614D01*
X5931D01*
X5778Y9233D02*
Y9360D01*
X5931Y9233D02*
Y9360D01*
X5778Y9233D02*
X5931D01*
X5575D02*
Y9360D01*
X5728Y9233D02*
Y9360D01*
X5575Y9233D02*
X5728D01*
Y9487D02*
Y9614D01*
X5575Y9487D02*
Y9614D01*
X5728D01*
X7252Y9500D02*
Y9627D01*
X7099Y9500D02*
Y9627D01*
X7252D01*
X7099Y9246D02*
Y9373D01*
X7252Y9246D02*
Y9373D01*
X7099Y9246D02*
X7252D01*
X5448Y7239D02*
Y7366D01*
X5601Y7239D02*
Y7366D01*
X5448Y7239D02*
X5601D01*
Y7493D02*
Y7620D01*
X5448Y7493D02*
Y7620D01*
X5601D01*
X5651Y7239D02*
Y7366D01*
X5804Y7239D02*
Y7366D01*
X5651Y7239D02*
X5804D01*
Y7493D02*
Y7620D01*
X5651Y7493D02*
Y7620D01*
X5804D01*
X7757Y7038D02*
Y7165D01*
X7910Y7038D02*
Y7165D01*
X7757Y7038D02*
X7910D01*
Y7292D02*
Y7419D01*
X7757Y7292D02*
Y7419D01*
X7910D01*
X7557Y7036D02*
Y7163D01*
X7709Y7036D02*
Y7163D01*
X7557Y7036D02*
X7709D01*
Y7290D02*
Y7417D01*
X7557Y7290D02*
Y7417D01*
X7709D01*
X7861Y6477D02*
X7988D01*
X7861Y6629D02*
X7988D01*
Y6477D02*
Y6629D01*
X7607D02*
X7734D01*
X7607Y6477D02*
X7734D01*
X7607D02*
Y6629D01*
X7010Y6477D02*
Y6604D01*
X7163Y6477D02*
Y6604D01*
X7010Y6477D02*
X7163D01*
Y6731D02*
Y6858D01*
X7010Y6731D02*
Y6858D01*
X7163D01*
X7468Y8661D02*
Y8788D01*
X7315Y8661D02*
Y8788D01*
X7468D01*
X7315Y8407D02*
Y8534D01*
X7468Y8407D02*
Y8534D01*
X7315Y8407D02*
X7468D01*
X5778Y8382D02*
Y8509D01*
X5931Y8382D02*
Y8509D01*
X5778Y8382D02*
X5931D01*
Y8636D02*
Y8763D01*
X5778Y8636D02*
Y8763D01*
X5931D01*
X8420Y7531D02*
Y7658D01*
X8268Y7531D02*
Y7658D01*
X8420D01*
X8268Y7277D02*
Y7404D01*
X8420Y7277D02*
Y7404D01*
X8268Y7277D02*
X8420D01*
X9512Y8509D02*
X9639D01*
X9512Y8661D02*
X9639D01*
Y8509D02*
Y8661D01*
X9258D02*
X9385D01*
X9258Y8509D02*
X9385D01*
X9258D02*
Y8661D01*
X9512Y8712D02*
X9639D01*
X9512Y8865D02*
X9639D01*
Y8712D02*
Y8865D01*
X9258D02*
X9385D01*
X9258Y8712D02*
X9385D01*
X9258D02*
Y8865D01*
X5527Y11288D02*
Y11414D01*
X5375Y11288D02*
Y11414D01*
X5527D01*
X5375Y11033D02*
Y11161D01*
X5527Y11033D02*
Y11161D01*
X5375Y11033D02*
X5527D01*
X3912Y7772D02*
X4039D01*
X3912Y7925D02*
X4039D01*
Y7772D02*
Y7925D01*
X3658D02*
X3785D01*
X3658Y7772D02*
X3785D01*
X3658D02*
Y7925D01*
X4089Y8217D02*
X4216D01*
X4089Y8064D02*
X4216D01*
X4089D02*
Y8217D01*
X4343Y8064D02*
X4470D01*
X4343Y8217D02*
X4470D01*
Y8064D02*
Y8217D01*
X3658Y8128D02*
X3785D01*
X3658Y7976D02*
X3785D01*
X3658D02*
Y8128D01*
X3912Y7976D02*
X4039D01*
X3912Y8128D02*
X4039D01*
Y7976D02*
Y8128D01*
X4343Y7823D02*
X4470D01*
X4343Y7976D02*
X4470D01*
Y7823D02*
Y7976D01*
X4089D02*
X4216D01*
X4089Y7823D02*
X4216D01*
X4089D02*
Y7976D01*
X7366Y6490D02*
Y6604D01*
X7214Y6490D02*
Y6604D01*
X7366Y6731D02*
Y6845D01*
X7214Y6731D02*
Y6845D01*
X7772Y5867D02*
Y5982D01*
X7620Y5867D02*
Y5982D01*
X7772Y6109D02*
Y6223D01*
X7620Y6109D02*
Y6223D01*
X7569Y5867D02*
Y5982D01*
X7417Y5867D02*
Y5982D01*
X7569Y6109D02*
Y6223D01*
X7417Y6109D02*
Y6223D01*
X7976Y5867D02*
Y5982D01*
X7823Y5867D02*
Y5982D01*
X7976Y6109D02*
Y6223D01*
X7823Y6109D02*
Y6223D01*
X7366Y5766D02*
Y5880D01*
X7214Y5766D02*
Y5880D01*
X7366Y6007D02*
Y6121D01*
X7214Y6007D02*
Y6121D01*
X7518Y8661D02*
Y8776D01*
X7671Y8661D02*
Y8776D01*
X7518Y8420D02*
Y8534D01*
X7671Y8420D02*
Y8534D01*
X6845Y8433D02*
Y8547D01*
X6693Y8433D02*
Y8547D01*
X6845Y8674D02*
Y8788D01*
X6693Y8674D02*
Y8788D01*
X6134Y6845D02*
X6248D01*
X6134Y6693D02*
X6248D01*
X5893Y6845D02*
X6007D01*
X5893Y6693D02*
X6007D01*
X6896Y8623D02*
X7010D01*
X6896Y8776D02*
X7010D01*
X7137Y8623D02*
X7252D01*
X7137Y8776D02*
X7252D01*
X6414Y6147D02*
Y6261D01*
X6566Y6147D02*
Y6261D01*
X6414Y5906D02*
Y6020D01*
X6566Y5906D02*
Y6020D01*
X6210Y6147D02*
Y6261D01*
X6363Y6147D02*
Y6261D01*
X6210Y5906D02*
Y6020D01*
X6363Y5906D02*
Y6020D01*
X9843Y8242D02*
Y8357D01*
X9690Y8242D02*
Y8357D01*
X9843Y8484D02*
Y8598D01*
X9690Y8484D02*
Y8598D01*
Y8077D02*
Y8192D01*
X9843Y8077D02*
Y8192D01*
X9690Y7836D02*
Y7950D01*
X9843Y7836D02*
Y7950D01*
X8420Y7722D02*
Y7836D01*
X8268Y7722D02*
Y7836D01*
X8420Y7963D02*
Y8077D01*
X8268Y7963D02*
Y8077D01*
X9843Y7429D02*
Y7544D01*
X9690Y7429D02*
Y7544D01*
X9843Y7671D02*
Y7785D01*
X9690Y7671D02*
Y7785D01*
X8268Y8369D02*
Y8484D01*
X8420Y8369D02*
Y8484D01*
X8268Y8128D02*
Y8242D01*
X8420Y8128D02*
Y8242D01*
X8115Y6845D02*
Y6960D01*
X7963Y6845D02*
Y6960D01*
X8115Y7087D02*
Y7201D01*
X7963Y7087D02*
Y7201D01*
X5245Y6833D02*
X5359D01*
X5245Y6985D02*
X5359D01*
X5486Y6833D02*
X5601D01*
X5486Y6985D02*
X5601D01*
X5474Y8103D02*
X5588D01*
X5474Y8255D02*
X5588D01*
X5715Y8103D02*
X5829D01*
X5715Y8255D02*
X5829D01*
X8522Y6642D02*
Y6756D01*
X8369Y6642D02*
Y6756D01*
X8522Y6883D02*
Y6998D01*
X8369Y6883D02*
Y6998D01*
X9284Y10236D02*
Y10350D01*
X9436Y10236D02*
Y10350D01*
X9284Y9995D02*
Y10109D01*
X9436Y9995D02*
Y10109D01*
X9487Y10236D02*
Y10350D01*
X9639Y10236D02*
Y10350D01*
X9487Y9995D02*
Y10109D01*
X9639Y9995D02*
Y10109D01*
X5245Y6629D02*
X5359D01*
X5245Y6782D02*
X5359D01*
X5486Y6629D02*
X5601D01*
X5486Y6782D02*
X5601D01*
X5245Y7493D02*
Y7607D01*
X5397Y7493D02*
Y7607D01*
X5245Y7252D02*
Y7366D01*
X5397Y7252D02*
Y7366D01*
X7468Y9500D02*
Y9627D01*
X7315Y9500D02*
Y9627D01*
X7468D01*
X7315Y9246D02*
Y9373D01*
X7468Y9246D02*
Y9373D01*
X7315Y9246D02*
X7468D01*
X5575Y8826D02*
X5690D01*
X5575Y8979D02*
X5690D01*
X5817Y8826D02*
X5931D01*
X5817Y8979D02*
X5931D01*
X5575Y9030D02*
X5690D01*
X5575Y9182D02*
X5690D01*
X5817Y9030D02*
X5931D01*
X5817Y9182D02*
X5931D01*
X5080Y9373D02*
Y9487D01*
X5232Y9373D02*
Y9487D01*
X5080Y9131D02*
Y9246D01*
X5232Y9131D02*
Y9246D01*
X5245Y7036D02*
X5359D01*
X5245Y7188D02*
X5359D01*
X5486Y7036D02*
X5601D01*
X5486Y7188D02*
X5601D01*
X9081Y10236D02*
Y10350D01*
X9233Y10236D02*
Y10350D01*
X9081Y9995D02*
Y10109D01*
X9233Y9995D02*
Y10109D01*
D64*
X5702Y8446D02*
X5728Y8471D01*
X5385D02*
X5410Y8446D01*
X5702Y8674D02*
X5728Y8649D01*
X5410Y8446D02*
X5702D01*
X5385Y8471D02*
Y8649D01*
X5728Y8471D02*
Y8649D01*
X5385D02*
X5410Y8674D01*
X5702D01*
D65*
X5273Y10843D02*
X5324Y10792D01*
X5273Y10741D02*
X5324Y10792D01*
X5222D02*
X5273Y10741D01*
D66*
X5982Y8903D02*
X6845D01*
X5982Y9563D02*
X6845D01*
X5982Y8903D02*
Y9563D01*
X6845Y8903D02*
Y9563D01*
D67*
X6096Y6629D02*
X6046D01*
Y6604D01*
X6054Y6596D01*
X6071D01*
X6079Y6604D01*
Y6629D01*
Y6613D02*
X6096Y6596D01*
Y6579D02*
Y6563D01*
Y6571D01*
X6046D01*
X6054Y6579D01*
X6046Y6504D02*
X6054Y6521D01*
X6071Y6538D01*
X6088D01*
X6096Y6529D01*
Y6513D01*
X6088Y6504D01*
X6079D01*
X6071Y6513D01*
Y6538D01*
X9555Y9617D02*
Y9601D01*
Y9609D01*
X9604D01*
Y9617D01*
Y9601D01*
X9563Y9542D02*
X9555Y9551D01*
Y9567D01*
X9563Y9576D01*
X9596D01*
X9604Y9567D01*
Y9551D01*
X9596Y9542D01*
X9604Y9526D02*
Y9509D01*
Y9517D01*
X9555D01*
X9563Y9526D01*
Y9484D02*
X9555Y9476D01*
Y9459D01*
X9563Y9451D01*
X9571D01*
X9580Y9459D01*
X9588Y9451D01*
X9596D01*
X9604Y9459D01*
Y9476D01*
X9596Y9484D01*
X9588D01*
X9580Y9476D01*
X9571Y9484D01*
X9563D01*
X9580Y9476D02*
Y9459D01*
X9563Y9863D02*
X9555Y9872D01*
Y9888D01*
X9563Y9897D01*
X9596D01*
X9604Y9888D01*
Y9872D01*
X9596Y9863D01*
X9604Y9847D02*
Y9830D01*
Y9838D01*
X9555D01*
X9563Y9847D01*
Y9805D02*
X9555Y9797D01*
Y9780D01*
X9563Y9772D01*
X9571D01*
X9580Y9780D01*
Y9788D01*
Y9780D01*
X9588Y9772D01*
X9596D01*
X9604Y9780D01*
Y9797D01*
X9596Y9805D01*
X9563Y9755D02*
X9555Y9747D01*
Y9730D01*
X9563Y9722D01*
X9596D01*
X9604Y9730D01*
Y9747D01*
X9596Y9755D01*
X9563D01*
X9304Y9570D02*
X9313Y9578D01*
X9329D01*
X9338Y9570D01*
Y9537D01*
X9329Y9528D01*
X9313D01*
X9304Y9537D01*
X9288Y9528D02*
X9271D01*
X9279D01*
Y9578D01*
X9288Y9570D01*
X9213Y9528D02*
X9246D01*
X9213Y9562D01*
Y9570D01*
X9221Y9578D01*
X9238D01*
X9246Y9570D01*
X9196Y9537D02*
X9188Y9528D01*
X9171D01*
X9163Y9537D01*
Y9570D01*
X9171Y9578D01*
X9188D01*
X9196Y9570D01*
Y9562D01*
X9188Y9553D01*
X9163D01*
X4385Y10219D02*
X4393Y10210D01*
Y10194D01*
X4385Y10185D01*
X4352D01*
X4343Y10194D01*
Y10210D01*
X4352Y10219D01*
X4343Y10235D02*
Y10252D01*
Y10244D01*
X4393D01*
X4385Y10235D01*
X4343Y10310D02*
Y10277D01*
X4377Y10310D01*
X4385D01*
X4393Y10302D01*
Y10285D01*
X4385Y10277D01*
Y10327D02*
X4393Y10335D01*
Y10352D01*
X4385Y10360D01*
X4377D01*
X4368Y10352D01*
X4360Y10360D01*
X4352D01*
X4343Y10352D01*
Y10335D01*
X4352Y10327D01*
X4360D01*
X4368Y10335D01*
X4377Y10327D01*
X4385D01*
X4368Y10335D02*
Y10352D01*
X3832Y8311D02*
X3824Y8319D01*
Y8336D01*
X3832Y8344D01*
X3865D01*
X3874Y8336D01*
Y8319D01*
X3865Y8311D01*
X3874Y8294D02*
Y8277D01*
Y8286D01*
X3824D01*
X3832Y8294D01*
X3874Y8219D02*
Y8252D01*
X3840Y8219D01*
X3832D01*
X3824Y8227D01*
Y8244D01*
X3832Y8252D01*
X3824Y8202D02*
Y8169D01*
X3832D01*
X3865Y8202D01*
X3874D01*
X9939Y9557D02*
X9948Y9566D01*
X9964D01*
X9973Y9557D01*
Y9524D01*
X9964Y9516D01*
X9948D01*
X9939Y9524D01*
X9923Y9516D02*
X9906D01*
X9914D01*
Y9566D01*
X9923Y9557D01*
X9848Y9516D02*
X9881D01*
X9848Y9549D01*
Y9557D01*
X9856Y9566D01*
X9873D01*
X9881Y9557D01*
X9798Y9566D02*
X9815Y9557D01*
X9831Y9541D01*
Y9524D01*
X9823Y9516D01*
X9806D01*
X9798Y9524D01*
Y9532D01*
X9806Y9541D01*
X9831D01*
X7455Y8992D02*
Y9042D01*
X7430D01*
X7422Y9033D01*
Y9017D01*
X7430Y9008D01*
X7455D01*
X7438D02*
X7422Y8992D01*
X7372D02*
X7405D01*
X7372Y9025D01*
Y9033D01*
X7380Y9042D01*
X7397D01*
X7405Y9033D01*
X7355Y8992D02*
X7338D01*
X7347D01*
Y9042D01*
X7355Y9033D01*
X7010Y9411D02*
Y9461D01*
X6985D01*
X6977Y9452D01*
Y9436D01*
X6985Y9427D01*
X7010D01*
X6994D02*
X6977Y9411D01*
X6960D02*
X6944D01*
X6952D01*
Y9461D01*
X6960Y9452D01*
X7214Y8992D02*
Y9042D01*
X7189D01*
X7180Y9033D01*
Y9017D01*
X7189Y9008D01*
X7214D01*
X7197D02*
X7180Y8992D01*
X7164Y9033D02*
X7155Y9042D01*
X7139D01*
X7130Y9033D01*
Y9025D01*
X7139Y9017D01*
X7130Y9008D01*
Y9000D01*
X7139Y8992D01*
X7155D01*
X7164Y9000D01*
Y9008D01*
X7155Y9017D01*
X7164Y9025D01*
Y9033D01*
X7155Y9017D02*
X7139D01*
X7010Y8992D02*
Y9042D01*
X6985D01*
X6977Y9033D01*
Y9017D01*
X6985Y9008D01*
X7010D01*
X6994D02*
X6977Y8992D01*
X6927Y9042D02*
X6960D01*
Y9017D01*
X6944Y9025D01*
X6935D01*
X6927Y9017D01*
Y9000D01*
X6935Y8992D01*
X6952D01*
X6960Y9000D01*
X5448Y7175D02*
X5398D01*
Y7151D01*
X5407Y7142D01*
X5423D01*
X5432Y7151D01*
Y7175D01*
Y7159D02*
X5448Y7142D01*
Y7092D02*
Y7126D01*
X5415Y7092D01*
X5407D01*
X5398Y7101D01*
Y7117D01*
X5407Y7126D01*
X5398Y7076D02*
Y7042D01*
X5407D01*
X5440Y7076D01*
X5448D01*
X7633Y9867D02*
Y9817D01*
X7599D01*
X7558D02*
Y9867D01*
X7583Y9842D01*
X7549D01*
X7658Y9411D02*
Y9461D01*
X7633D01*
X7625Y9452D01*
Y9436D01*
X7633Y9427D01*
X7658D01*
X7641D02*
X7625Y9411D01*
X7608Y9452D02*
X7600Y9461D01*
X7583D01*
X7575Y9452D01*
Y9444D01*
X7583Y9436D01*
X7591D01*
X7583D01*
X7575Y9427D01*
Y9419D01*
X7583Y9411D01*
X7600D01*
X7608Y9419D01*
X7558D02*
X7550Y9411D01*
X7533D01*
X7525Y9419D01*
Y9452D01*
X7533Y9461D01*
X7550D01*
X7558Y9452D01*
Y9444D01*
X7550Y9436D01*
X7525D01*
X5745Y7878D02*
X5754Y7886D01*
X5770D01*
X5778Y7878D01*
Y7844D01*
X5770Y7836D01*
X5754D01*
X5745Y7844D01*
X5729Y7836D02*
X5712D01*
X5720D01*
Y7886D01*
X5729Y7878D01*
X5555D02*
X5563Y7886D01*
X5580D01*
X5588Y7878D01*
Y7844D01*
X5580Y7836D01*
X5563D01*
X5555Y7844D01*
X5505Y7836D02*
X5538D01*
X5505Y7869D01*
Y7878D01*
X5513Y7886D01*
X5530D01*
X5538Y7878D01*
X5351D02*
X5360Y7886D01*
X5376D01*
X5385Y7878D01*
Y7844D01*
X5376Y7836D01*
X5360D01*
X5351Y7844D01*
X5335Y7878D02*
X5326Y7886D01*
X5310D01*
X5301Y7878D01*
Y7869D01*
X5310Y7861D01*
X5318D01*
X5310D01*
X5301Y7853D01*
Y7844D01*
X5310Y7836D01*
X5326D01*
X5335Y7844D01*
X7637Y7674D02*
X7646Y7683D01*
X7662D01*
X7671Y7674D01*
Y7641D01*
X7662Y7633D01*
X7646D01*
X7637Y7641D01*
X7596Y7633D02*
Y7683D01*
X7621Y7658D01*
X7587D01*
X7841Y7674D02*
X7849Y7683D01*
X7866D01*
X7874Y7674D01*
Y7641D01*
X7866Y7633D01*
X7849D01*
X7841Y7641D01*
X7791Y7683D02*
X7824D01*
Y7658D01*
X7807Y7666D01*
X7799D01*
X7791Y7658D01*
Y7641D01*
X7799Y7633D01*
X7816D01*
X7824Y7641D01*
X8044Y7674D02*
X8052Y7683D01*
X8069D01*
X8077Y7674D01*
Y7641D01*
X8069Y7633D01*
X8052D01*
X8044Y7641D01*
X7994Y7683D02*
X8011Y7674D01*
X8027Y7658D01*
Y7641D01*
X8019Y7633D01*
X8002D01*
X7994Y7641D01*
Y7649D01*
X8002Y7658D01*
X8027D01*
X6393Y6671D02*
X6401Y6679D01*
X6418D01*
X6426Y6671D01*
Y6638D01*
X6418Y6629D01*
X6401D01*
X6393Y6638D01*
X6376Y6679D02*
X6343D01*
Y6671D01*
X6376Y6638D01*
Y6629D01*
X6689Y6761D02*
X6681Y6770D01*
Y6786D01*
X6689Y6794D01*
X6723D01*
X6731Y6786D01*
Y6770D01*
X6723Y6761D01*
X6689Y6745D02*
X6681Y6736D01*
Y6720D01*
X6689Y6711D01*
X6698D01*
X6706Y6720D01*
X6714Y6711D01*
X6723D01*
X6731Y6720D01*
Y6736D01*
X6723Y6745D01*
X6714D01*
X6706Y6736D01*
X6698Y6745D01*
X6689D01*
X6706Y6736D02*
Y6720D01*
X6689Y6558D02*
X6681Y6566D01*
Y6583D01*
X6689Y6591D01*
X6723D01*
X6731Y6583D01*
Y6566D01*
X6723Y6558D01*
Y6541D02*
X6731Y6533D01*
Y6516D01*
X6723Y6508D01*
X6689D01*
X6681Y6516D01*
Y6533D01*
X6689Y6541D01*
X6698D01*
X6706Y6533D01*
Y6508D01*
X6435Y8565D02*
X6427Y8573D01*
Y8590D01*
X6435Y8598D01*
X6469D01*
X6477Y8590D01*
Y8573D01*
X6469Y8565D01*
X6477Y8548D02*
Y8531D01*
Y8540D01*
X6427D01*
X6435Y8548D01*
Y8506D02*
X6427Y8498D01*
Y8481D01*
X6435Y8473D01*
X6469D01*
X6477Y8481D01*
Y8498D01*
X6469Y8506D01*
X6435D01*
Y8755D02*
X6427Y8763D01*
Y8780D01*
X6435Y8788D01*
X6469D01*
X6477Y8780D01*
Y8763D01*
X6469Y8755D01*
X6477Y8738D02*
Y8722D01*
Y8730D01*
X6427D01*
X6435Y8738D01*
X6477Y8697D02*
Y8680D01*
Y8688D01*
X6427D01*
X6435Y8697D01*
X6066Y8632D02*
X6057Y8624D01*
X6041D01*
X6033Y8632D01*
Y8666D01*
X6041Y8674D01*
X6057D01*
X6066Y8666D01*
X6082Y8674D02*
X6099D01*
X6091D01*
Y8624D01*
X6082Y8632D01*
X6157Y8674D02*
X6124D01*
X6157Y8641D01*
Y8632D01*
X6149Y8624D01*
X6132D01*
X6124Y8632D01*
X5885Y9440D02*
X5893Y9448D01*
X5910D01*
X5918Y9440D01*
Y9406D01*
X5910Y9398D01*
X5893D01*
X5885Y9406D01*
X5835Y9398D02*
X5868D01*
X5835Y9431D01*
Y9440D01*
X5843Y9448D01*
X5860D01*
X5868Y9440D01*
X5818Y9398D02*
X5802D01*
X5810D01*
Y9448D01*
X5818Y9440D01*
X5682D02*
X5690Y9448D01*
X5707D01*
X5715Y9440D01*
Y9406D01*
X5707Y9398D01*
X5690D01*
X5682Y9406D01*
X5632Y9398D02*
X5665D01*
X5632Y9431D01*
Y9440D01*
X5640Y9448D01*
X5657D01*
X5665Y9440D01*
X5582Y9398D02*
X5615D01*
X5582Y9431D01*
Y9440D01*
X5590Y9448D01*
X5607D01*
X5615Y9440D01*
X7206Y9452D02*
X7214Y9461D01*
X7231D01*
X7239Y9452D01*
Y9419D01*
X7231Y9411D01*
X7214D01*
X7206Y9419D01*
X7156Y9411D02*
X7189D01*
X7156Y9444D01*
Y9452D01*
X7164Y9461D01*
X7181D01*
X7189Y9452D01*
X7106Y9461D02*
X7139D01*
Y9436D01*
X7122Y9444D01*
X7114D01*
X7106Y9436D01*
Y9419D01*
X7114Y9411D01*
X7131D01*
X7139Y9419D01*
X5555Y7446D02*
X5563Y7454D01*
X5580D01*
X5588Y7446D01*
Y7412D01*
X5580Y7404D01*
X5563D01*
X5555Y7412D01*
X5505Y7454D02*
X5538D01*
Y7429D01*
X5521Y7437D01*
X5513D01*
X5505Y7429D01*
Y7412D01*
X5513Y7404D01*
X5530D01*
X5538Y7412D01*
X5455Y7454D02*
X5471Y7446D01*
X5488Y7429D01*
Y7412D01*
X5480Y7404D01*
X5463D01*
X5455Y7412D01*
Y7421D01*
X5463Y7429D01*
X5488D01*
X5758Y7446D02*
X5766Y7454D01*
X5783D01*
X5791Y7446D01*
Y7412D01*
X5783Y7404D01*
X5766D01*
X5758Y7412D01*
X5708Y7454D02*
X5741D01*
Y7429D01*
X5725Y7437D01*
X5716D01*
X5708Y7429D01*
Y7412D01*
X5716Y7404D01*
X5733D01*
X5741Y7412D01*
X5691Y7454D02*
X5658D01*
Y7446D01*
X5691Y7412D01*
Y7404D01*
X7866Y7243D02*
X7874Y7251D01*
X7891D01*
X7899Y7243D01*
Y7209D01*
X7891Y7201D01*
X7874D01*
X7866Y7209D01*
X7816Y7251D02*
X7849D01*
Y7226D01*
X7833Y7234D01*
X7824D01*
X7816Y7226D01*
Y7209D01*
X7824Y7201D01*
X7841D01*
X7849Y7209D01*
X7799Y7243D02*
X7791Y7251D01*
X7774D01*
X7766Y7243D01*
Y7234D01*
X7774Y7226D01*
X7766Y7218D01*
Y7209D01*
X7774Y7201D01*
X7791D01*
X7799Y7209D01*
Y7218D01*
X7791Y7226D01*
X7799Y7234D01*
Y7243D01*
X7791Y7226D02*
X7774D01*
X7663Y7243D02*
X7671Y7251D01*
X7688D01*
X7696Y7243D01*
Y7209D01*
X7688Y7201D01*
X7671D01*
X7663Y7209D01*
X7613Y7251D02*
X7646D01*
Y7226D01*
X7630Y7234D01*
X7621D01*
X7613Y7226D01*
Y7209D01*
X7621Y7201D01*
X7638D01*
X7646Y7209D01*
X7596D02*
X7588Y7201D01*
X7571D01*
X7563Y7209D01*
Y7243D01*
X7571Y7251D01*
X7588D01*
X7596Y7243D01*
Y7234D01*
X7588Y7226D01*
X7563D01*
X7782Y6583D02*
X7773Y6592D01*
Y6608D01*
X7782Y6617D01*
X7815D01*
X7823Y6608D01*
Y6592D01*
X7815Y6583D01*
X7823Y6533D02*
Y6567D01*
X7790Y6533D01*
X7782D01*
X7773Y6542D01*
Y6558D01*
X7782Y6567D01*
Y6517D02*
X7773Y6508D01*
Y6492D01*
X7782Y6483D01*
X7815D01*
X7823Y6492D01*
Y6508D01*
X7815Y6517D01*
X7782D01*
X7117Y6684D02*
X7125Y6692D01*
X7142D01*
X7150Y6684D01*
Y6650D01*
X7142Y6642D01*
X7125D01*
X7117Y6650D01*
X7100Y6642D02*
X7083D01*
X7092D01*
Y6692D01*
X7100Y6684D01*
X7058Y6650D02*
X7050Y6642D01*
X7033D01*
X7025Y6650D01*
Y6684D01*
X7033Y6692D01*
X7050D01*
X7058Y6684D01*
Y6675D01*
X7050Y6667D01*
X7025D01*
X7422Y8614D02*
X7430Y8622D01*
X7447D01*
X7455Y8614D01*
Y8581D01*
X7447Y8572D01*
X7430D01*
X7422Y8581D01*
X7405Y8614D02*
X7397Y8622D01*
X7380D01*
X7372Y8614D01*
Y8606D01*
X7380Y8597D01*
X7388D01*
X7380D01*
X7372Y8589D01*
Y8581D01*
X7380Y8572D01*
X7397D01*
X7405Y8581D01*
X7322Y8622D02*
X7338Y8614D01*
X7355Y8597D01*
Y8581D01*
X7347Y8572D01*
X7330D01*
X7322Y8581D01*
Y8589D01*
X7330Y8597D01*
X7355D01*
X5872Y8589D02*
X5881Y8597D01*
X5897D01*
X5906Y8589D01*
Y8555D01*
X5897Y8547D01*
X5881D01*
X5872Y8555D01*
X5822Y8597D02*
X5856D01*
Y8572D01*
X5839Y8580D01*
X5831D01*
X5822Y8572D01*
Y8555D01*
X5831Y8547D01*
X5847D01*
X5856Y8555D01*
X5806Y8547D02*
X5789D01*
X5797D01*
Y8597D01*
X5806Y8589D01*
X8374Y7484D02*
X8382Y7492D01*
X8399D01*
X8407Y7484D01*
Y7451D01*
X8399Y7442D01*
X8382D01*
X8374Y7451D01*
X8324Y7492D02*
X8357D01*
Y7467D01*
X8341Y7476D01*
X8332D01*
X8324Y7467D01*
Y7451D01*
X8332Y7442D01*
X8349D01*
X8357Y7451D01*
X8274Y7492D02*
X8307D01*
Y7467D01*
X8291Y7476D01*
X8282D01*
X8274Y7467D01*
Y7451D01*
X8282Y7442D01*
X8299D01*
X8307Y7451D01*
X9433Y8615D02*
X9424Y8624D01*
Y8640D01*
X9433Y8649D01*
X9466D01*
X9474Y8640D01*
Y8624D01*
X9466Y8615D01*
X9424Y8565D02*
X9433Y8582D01*
X9449Y8599D01*
X9466D01*
X9474Y8590D01*
Y8574D01*
X9466Y8565D01*
X9458D01*
X9449Y8574D01*
Y8599D01*
X9433Y8549D02*
X9424Y8540D01*
Y8524D01*
X9433Y8515D01*
X9466D01*
X9474Y8524D01*
Y8540D01*
X9466Y8549D01*
X9433D01*
Y8819D02*
X9424Y8827D01*
Y8844D01*
X9433Y8852D01*
X9466D01*
X9474Y8844D01*
Y8827D01*
X9466Y8819D01*
X9424Y8769D02*
X9433Y8785D01*
X9449Y8802D01*
X9466D01*
X9474Y8794D01*
Y8777D01*
X9466Y8769D01*
X9458D01*
X9449Y8777D01*
Y8802D01*
X9474Y8752D02*
Y8735D01*
Y8744D01*
X9424D01*
X9433Y8752D01*
X5478Y11243D02*
X5487Y11251D01*
X5503D01*
X5512Y11243D01*
Y11210D01*
X5503Y11201D01*
X5487D01*
X5478Y11210D01*
X5462Y11243D02*
X5453Y11251D01*
X5437D01*
X5428Y11243D01*
Y11235D01*
X5437Y11226D01*
X5428Y11218D01*
Y11210D01*
X5437Y11201D01*
X5453D01*
X5462Y11210D01*
Y11218D01*
X5453Y11226D01*
X5462Y11235D01*
Y11243D01*
X5453Y11226D02*
X5437D01*
X5379Y11251D02*
X5412D01*
Y11226D01*
X5395Y11235D01*
X5387D01*
X5379Y11226D01*
Y11210D01*
X5387Y11201D01*
X5404D01*
X5412Y11210D01*
X3832Y7904D02*
X3824Y7913D01*
Y7929D01*
X3832Y7938D01*
X3865D01*
X3874Y7929D01*
Y7913D01*
X3865Y7904D01*
X3874Y7888D02*
Y7871D01*
Y7879D01*
X3824D01*
X3832Y7888D01*
Y7846D02*
X3824Y7838D01*
Y7821D01*
X3832Y7813D01*
X3865D01*
X3874Y7821D01*
Y7838D01*
X3865Y7846D01*
X3832D01*
X3824Y7763D02*
Y7796D01*
X3849D01*
X3840Y7779D01*
Y7771D01*
X3849Y7763D01*
X3865D01*
X3874Y7771D01*
Y7788D01*
X3865Y7796D01*
X4264Y8196D02*
X4255Y8205D01*
Y8221D01*
X4264Y8230D01*
X4297D01*
X4305Y8221D01*
Y8205D01*
X4297Y8196D01*
X4305Y8180D02*
Y8163D01*
Y8171D01*
X4255D01*
X4264Y8180D01*
Y8138D02*
X4255Y8130D01*
Y8113D01*
X4264Y8105D01*
X4297D01*
X4305Y8113D01*
Y8130D01*
X4297Y8138D01*
X4264D01*
X4255Y8055D02*
X4264Y8071D01*
X4280Y8088D01*
X4297D01*
X4305Y8080D01*
Y8063D01*
X4297Y8055D01*
X4289D01*
X4280Y8063D01*
Y8088D01*
X3832Y8107D02*
X3824Y8116D01*
Y8132D01*
X3832Y8141D01*
X3865D01*
X3874Y8132D01*
Y8116D01*
X3865Y8107D01*
X3874Y8091D02*
Y8074D01*
Y8082D01*
X3824D01*
X3832Y8091D01*
Y8049D02*
X3824Y8041D01*
Y8024D01*
X3832Y8016D01*
X3865D01*
X3874Y8024D01*
Y8041D01*
X3865Y8049D01*
X3832D01*
X3824Y7999D02*
Y7966D01*
X3832D01*
X3865Y7999D01*
X3874D01*
X4264Y7955D02*
X4255Y7963D01*
Y7980D01*
X4264Y7988D01*
X4297D01*
X4305Y7980D01*
Y7963D01*
X4297Y7955D01*
X4305Y7938D02*
Y7922D01*
Y7930D01*
X4255D01*
X4264Y7938D01*
Y7897D02*
X4255Y7888D01*
Y7872D01*
X4264Y7863D01*
X4297D01*
X4305Y7872D01*
Y7888D01*
X4297Y7897D01*
X4264D01*
Y7847D02*
X4255Y7838D01*
Y7822D01*
X4264Y7813D01*
X4272D01*
X4280Y7822D01*
X4289Y7813D01*
X4297D01*
X4305Y7822D01*
Y7838D01*
X4297Y7847D01*
X4289D01*
X4280Y7838D01*
X4272Y7847D01*
X4264D01*
X4280Y7838D02*
Y7822D01*
X6756Y7543D02*
X6740D01*
X6748D01*
Y7493D01*
X6756D01*
X6740D01*
X6681Y7535D02*
X6690Y7543D01*
X6706D01*
X6715Y7535D01*
Y7501D01*
X6706Y7493D01*
X6690D01*
X6681Y7501D01*
X6640Y7493D02*
Y7543D01*
X6665Y7518D01*
X6631D01*
X9004Y7938D02*
X9021D01*
X9013D01*
Y7988D01*
X9004D01*
X9021D01*
X9079Y7947D02*
X9071Y7938D01*
X9054D01*
X9046Y7947D01*
Y7980D01*
X9054Y7988D01*
X9071D01*
X9079Y7980D01*
X9096D02*
X9104Y7988D01*
X9121D01*
X9129Y7980D01*
Y7947D01*
X9121Y7938D01*
X9104D01*
X9096Y7947D01*
Y7955D01*
X9104Y7963D01*
X9129D01*
X5651Y8584D02*
X5635D01*
X5643D01*
Y8534D01*
X5651D01*
X5635D01*
X5577Y8576D02*
X5585Y8584D01*
X5602D01*
X5610Y8576D01*
Y8543D01*
X5602Y8534D01*
X5585D01*
X5577Y8543D01*
X5560Y8534D02*
X5543D01*
X5552D01*
Y8584D01*
X5560Y8576D01*
X5518D02*
X5510Y8584D01*
X5493D01*
X5485Y8576D01*
Y8543D01*
X5493Y8534D01*
X5510D01*
X5518Y8543D01*
Y8576D01*
X4064Y7124D02*
X4047D01*
X4056D01*
Y7074D01*
X4064D01*
X4047D01*
X3989Y7116D02*
X3997Y7124D01*
X4014D01*
X4022Y7116D01*
Y7082D01*
X4014Y7074D01*
X3997D01*
X3989Y7082D01*
X3972Y7074D02*
X3956D01*
X3964D01*
Y7124D01*
X3972Y7116D01*
X3897Y7124D02*
X3914Y7116D01*
X3931Y7099D01*
Y7082D01*
X3922Y7074D01*
X3906D01*
X3897Y7082D01*
Y7091D01*
X3906Y7099D01*
X3931D01*
X7315Y6692D02*
Y6642D01*
X7282D01*
X7265D02*
X7249D01*
X7257D01*
Y6692D01*
X7265Y6684D01*
X4356Y9854D02*
Y9804D01*
X4323D01*
X4306Y9854D02*
X4273D01*
Y9846D01*
X4306Y9813D01*
Y9804D01*
X4013Y9054D02*
Y9004D01*
X3980D01*
X3963Y9046D02*
X3955Y9054D01*
X3938D01*
X3930Y9046D01*
Y9038D01*
X3938Y9029D01*
X3930Y9021D01*
Y9013D01*
X3938Y9004D01*
X3955D01*
X3963Y9013D01*
Y9021D01*
X3955Y9029D01*
X3963Y9038D01*
Y9046D01*
X3955Y9029D02*
X3938D01*
X6490Y9245D02*
X6507D01*
X6515Y9236D01*
Y9203D01*
X6507Y9195D01*
X6490D01*
X6482Y9203D01*
Y9236D01*
X6490Y9245D01*
X6432Y9236D02*
X6440Y9245D01*
X6457D01*
X6465Y9236D01*
Y9228D01*
X6457Y9220D01*
X6440D01*
X6432Y9211D01*
Y9203D01*
X6440Y9195D01*
X6457D01*
X6465Y9203D01*
X6382Y9236D02*
X6390Y9245D01*
X6407D01*
X6415Y9236D01*
Y9203D01*
X6407Y9195D01*
X6390D01*
X6382Y9203D01*
X6365Y9195D02*
X6348D01*
X6357D01*
Y9245D01*
X6365Y9236D01*
X7734Y6020D02*
Y6070D01*
X7709D01*
X7701Y6061D01*
Y6045D01*
X7709Y6036D01*
X7734D01*
X7718D02*
X7701Y6020D01*
X7684Y6070D02*
X7651D01*
Y6061D01*
X7684Y6028D01*
Y6020D01*
X7557D02*
Y6070D01*
X7532D01*
X7523Y6061D01*
Y6045D01*
X7532Y6036D01*
X7557D01*
X7540D02*
X7523Y6020D01*
X7507D02*
X7490D01*
X7498D01*
Y6070D01*
X7507Y6061D01*
X7465D02*
X7457Y6070D01*
X7440D01*
X7432Y6061D01*
Y6028D01*
X7440Y6020D01*
X7457D01*
X7465Y6028D01*
Y6061D01*
X7950Y6020D02*
Y6070D01*
X7925D01*
X7917Y6061D01*
Y6045D01*
X7925Y6036D01*
X7950D01*
X7934D02*
X7917Y6020D01*
X7900D02*
X7884D01*
X7892D01*
Y6070D01*
X7900Y6061D01*
X7859Y6020D02*
X7842D01*
X7850D01*
Y6070D01*
X7859Y6061D01*
X7353Y5918D02*
Y5968D01*
X7328D01*
X7320Y5960D01*
Y5943D01*
X7328Y5935D01*
X7353D01*
X7337D02*
X7320Y5918D01*
X7303D02*
X7287D01*
X7295D01*
Y5968D01*
X7303Y5960D01*
X7228Y5918D02*
X7262D01*
X7228Y5952D01*
Y5960D01*
X7237Y5968D01*
X7253D01*
X7262Y5960D01*
X7633Y8572D02*
Y8622D01*
X7608D01*
X7599Y8614D01*
Y8597D01*
X7608Y8589D01*
X7633D01*
X7616D02*
X7599Y8572D01*
X7549Y8622D02*
X7566Y8614D01*
X7583Y8597D01*
Y8581D01*
X7574Y8572D01*
X7558D01*
X7549Y8581D01*
Y8589D01*
X7558Y8597D01*
X7583D01*
X6807Y8585D02*
Y8635D01*
X6782D01*
X6774Y8627D01*
Y8610D01*
X6782Y8602D01*
X6807D01*
X6791D02*
X6774Y8585D01*
X6757Y8627D02*
X6749Y8635D01*
X6732D01*
X6724Y8627D01*
Y8619D01*
X6732Y8610D01*
X6741D01*
X6732D01*
X6724Y8602D01*
Y8594D01*
X6732Y8585D01*
X6749D01*
X6757Y8594D01*
X6096Y6833D02*
X6046D01*
Y6808D01*
X6054Y6799D01*
X6071D01*
X6079Y6808D01*
Y6833D01*
Y6816D02*
X6096Y6799D01*
Y6783D02*
Y6766D01*
Y6774D01*
X6046D01*
X6054Y6783D01*
X6046Y6741D02*
Y6708D01*
X6054D01*
X6088Y6741D01*
X6096D01*
X7099Y8750D02*
X7049D01*
Y8725D01*
X7058Y8717D01*
X7074D01*
X7083Y8725D01*
Y8750D01*
Y8734D02*
X7099Y8717D01*
Y8700D02*
Y8684D01*
Y8692D01*
X7049D01*
X7058Y8700D01*
X7049Y8625D02*
Y8659D01*
X7074D01*
X7066Y8642D01*
Y8634D01*
X7074Y8625D01*
X7091D01*
X7099Y8634D01*
Y8650D01*
X7091Y8659D01*
X6566Y6045D02*
Y6095D01*
X6541D01*
X6533Y6087D01*
Y6070D01*
X6541Y6062D01*
X6566D01*
X6549D02*
X6533Y6045D01*
X6483D02*
X6516D01*
X6483Y6079D01*
Y6087D01*
X6491Y6095D01*
X6508D01*
X6516Y6087D01*
X6466D02*
X6458Y6095D01*
X6441D01*
X6433Y6087D01*
Y6054D01*
X6441Y6045D01*
X6458D01*
X6466Y6054D01*
Y6087D01*
X6350Y6058D02*
Y6108D01*
X6325D01*
X6317Y6100D01*
Y6083D01*
X6325Y6075D01*
X6350D01*
X6333D02*
X6317Y6058D01*
X6267D02*
X6300D01*
X6267Y6091D01*
Y6100D01*
X6275Y6108D01*
X6292D01*
X6300Y6100D01*
X6250D02*
X6242Y6108D01*
X6225D01*
X6217Y6100D01*
Y6091D01*
X6225Y6083D01*
X6233D01*
X6225D01*
X6217Y6075D01*
Y6066D01*
X6225Y6058D01*
X6242D01*
X6250Y6066D01*
X9830Y8395D02*
Y8445D01*
X9805D01*
X9796Y8436D01*
Y8420D01*
X9805Y8411D01*
X9830D01*
X9813D02*
X9796Y8395D01*
X9746D02*
X9780D01*
X9746Y8428D01*
Y8436D01*
X9755Y8445D01*
X9771D01*
X9780Y8436D01*
X9730Y8403D02*
X9722Y8395D01*
X9705D01*
X9697Y8403D01*
Y8436D01*
X9705Y8445D01*
X9722D01*
X9730Y8436D01*
Y8428D01*
X9722Y8420D01*
X9697D01*
X9830Y7988D02*
Y8038D01*
X9805D01*
X9796Y8030D01*
Y8013D01*
X9805Y8005D01*
X9830D01*
X9813D02*
X9796Y7988D01*
X9780Y8030D02*
X9771Y8038D01*
X9755D01*
X9746Y8030D01*
Y8022D01*
X9755Y8013D01*
X9763D01*
X9755D01*
X9746Y8005D01*
Y7997D01*
X9755Y7988D01*
X9771D01*
X9780Y7997D01*
X9730Y8030D02*
X9722Y8038D01*
X9705D01*
X9697Y8030D01*
Y7997D01*
X9705Y7988D01*
X9722D01*
X9730Y7997D01*
Y8030D01*
X8407Y7874D02*
Y7924D01*
X8382D01*
X8374Y7916D01*
Y7899D01*
X8382Y7891D01*
X8407D01*
X8391D02*
X8374Y7874D01*
X8357Y7916D02*
X8349Y7924D01*
X8332D01*
X8324Y7916D01*
Y7907D01*
X8332Y7899D01*
X8341D01*
X8332D01*
X8324Y7891D01*
Y7882D01*
X8332Y7874D01*
X8349D01*
X8357Y7882D01*
X8274Y7874D02*
X8307D01*
X8274Y7907D01*
Y7916D01*
X8282Y7924D01*
X8299D01*
X8307Y7916D01*
X9830Y7582D02*
Y7632D01*
X9805D01*
X9796Y7624D01*
Y7607D01*
X9805Y7599D01*
X9830D01*
X9813D02*
X9796Y7582D01*
X9780Y7624D02*
X9771Y7632D01*
X9755D01*
X9746Y7624D01*
Y7615D01*
X9755Y7607D01*
X9763D01*
X9755D01*
X9746Y7599D01*
Y7590D01*
X9755Y7582D01*
X9771D01*
X9780Y7590D01*
X9730Y7624D02*
X9722Y7632D01*
X9705D01*
X9697Y7624D01*
Y7615D01*
X9705Y7607D01*
X9713D01*
X9705D01*
X9697Y7599D01*
Y7590D01*
X9705Y7582D01*
X9722D01*
X9730Y7590D01*
X8407Y8280D02*
Y8330D01*
X8382D01*
X8374Y8322D01*
Y8305D01*
X8382Y8297D01*
X8407D01*
X8391D02*
X8374Y8280D01*
X8332D02*
Y8330D01*
X8357Y8305D01*
X8324D01*
X8307Y8322D02*
X8299Y8330D01*
X8282D01*
X8274Y8322D01*
Y8289D01*
X8282Y8280D01*
X8299D01*
X8307Y8289D01*
Y8322D01*
X7976Y7049D02*
Y6999D01*
X8001D01*
X8009Y7007D01*
Y7024D01*
X8001Y7032D01*
X7976D01*
X7992D02*
X8009Y7049D01*
X8026Y7007D02*
X8034Y6999D01*
X8051D01*
X8059Y7007D01*
Y7015D01*
X8051Y7024D01*
X8042D01*
X8051D01*
X8059Y7032D01*
Y7040D01*
X8051Y7049D01*
X8034D01*
X8026Y7040D01*
X8101Y7049D02*
Y6999D01*
X8076Y7024D01*
X8109D01*
X5448Y6972D02*
X5398D01*
Y6947D01*
X5407Y6939D01*
X5423D01*
X5432Y6947D01*
Y6972D01*
Y6956D02*
X5448Y6939D01*
Y6889D02*
Y6922D01*
X5415Y6889D01*
X5407D01*
X5398Y6897D01*
Y6914D01*
X5407Y6922D01*
X5398Y6839D02*
Y6872D01*
X5423D01*
X5415Y6856D01*
Y6847D01*
X5423Y6839D01*
X5440D01*
X5448Y6847D01*
Y6864D01*
X5440Y6872D01*
X5677Y8242D02*
X5627D01*
Y8217D01*
X5635Y8209D01*
X5652D01*
X5660Y8217D01*
Y8242D01*
Y8226D02*
X5677Y8209D01*
Y8159D02*
Y8192D01*
X5644Y8159D01*
X5635D01*
X5627Y8167D01*
Y8184D01*
X5635Y8192D01*
Y8142D02*
X5627Y8134D01*
Y8117D01*
X5635Y8109D01*
X5644D01*
X5652Y8117D01*
X5660Y8109D01*
X5669D01*
X5677Y8117D01*
Y8134D01*
X5669Y8142D01*
X5660D01*
X5652Y8134D01*
X5644Y8142D01*
X5635D01*
X5652Y8134D02*
Y8117D01*
X8382Y6845D02*
Y6795D01*
X8407D01*
X8415Y6804D01*
Y6820D01*
X8407Y6829D01*
X8382D01*
X8399D02*
X8415Y6845D01*
X8432Y6804D02*
X8440Y6795D01*
X8457D01*
X8465Y6804D01*
Y6812D01*
X8457Y6820D01*
X8449D01*
X8457D01*
X8465Y6829D01*
Y6837D01*
X8457Y6845D01*
X8440D01*
X8432Y6837D01*
X8515Y6795D02*
X8482D01*
Y6820D01*
X8499Y6812D01*
X8507D01*
X8515Y6820D01*
Y6837D01*
X8507Y6845D01*
X8490D01*
X8482Y6837D01*
X5220Y9284D02*
Y9334D01*
X5195D01*
X5186Y9325D01*
Y9309D01*
X5195Y9300D01*
X5220D01*
X5203D02*
X5186Y9284D01*
X5136Y9334D02*
X5170D01*
Y9309D01*
X5153Y9317D01*
X5145D01*
X5136Y9309D01*
Y9292D01*
X5145Y9284D01*
X5161D01*
X5170Y9292D01*
X5120Y9325D02*
X5111Y9334D01*
X5095D01*
X5086Y9325D01*
Y9317D01*
X5095Y9309D01*
X5086Y9300D01*
Y9292D01*
X5095Y9284D01*
X5111D01*
X5120Y9292D01*
Y9300D01*
X5111Y9309D01*
X5120Y9317D01*
Y9325D01*
X5111Y9309D02*
X5095D01*
X9423Y10147D02*
Y10197D01*
X9398D01*
X9390Y10189D01*
Y10172D01*
X9398Y10164D01*
X9423D01*
X9407D02*
X9390Y10147D01*
X9340Y10197D02*
X9373D01*
Y10172D01*
X9357Y10181D01*
X9348D01*
X9340Y10172D01*
Y10156D01*
X9348Y10147D01*
X9365D01*
X9373Y10156D01*
X9323Y10197D02*
X9290D01*
Y10189D01*
X9323Y10156D01*
Y10147D01*
X9233D02*
Y10197D01*
X9208D01*
X9200Y10189D01*
Y10172D01*
X9208Y10164D01*
X9233D01*
X9216D02*
X9200Y10147D01*
X9150Y10197D02*
X9183D01*
Y10172D01*
X9166Y10181D01*
X9158D01*
X9150Y10172D01*
Y10156D01*
X9158Y10147D01*
X9175D01*
X9183Y10156D01*
X9133D02*
X9125Y10147D01*
X9108D01*
X9100Y10156D01*
Y10189D01*
X9108Y10197D01*
X9125D01*
X9133Y10189D01*
Y10181D01*
X9125Y10172D01*
X9100D01*
X9627Y10147D02*
Y10197D01*
X9602D01*
X9593Y10189D01*
Y10172D01*
X9602Y10164D01*
X9627D01*
X9610D02*
X9593Y10147D01*
X9543Y10197D02*
X9560Y10189D01*
X9577Y10172D01*
Y10156D01*
X9568Y10147D01*
X9552D01*
X9543Y10156D01*
Y10164D01*
X9552Y10172D01*
X9577D01*
X9527Y10147D02*
X9510D01*
X9518D01*
Y10197D01*
X9527Y10189D01*
X5448Y6769D02*
X5398D01*
Y6744D01*
X5407Y6736D01*
X5423D01*
X5432Y6744D01*
Y6769D01*
Y6752D02*
X5448Y6736D01*
Y6686D02*
Y6719D01*
X5415Y6686D01*
X5407D01*
X5398Y6694D01*
Y6711D01*
X5407Y6719D01*
X5448Y6644D02*
X5398D01*
X5423Y6669D01*
Y6636D01*
X5385Y7404D02*
Y7454D01*
X5360D01*
X5351Y7446D01*
Y7429D01*
X5360Y7421D01*
X5385D01*
X5368D02*
X5351Y7404D01*
X5301D02*
X5335D01*
X5301Y7437D01*
Y7446D01*
X5310Y7454D01*
X5326D01*
X5335Y7446D01*
X5252Y7454D02*
X5268Y7446D01*
X5285Y7429D01*
Y7412D01*
X5277Y7404D01*
X5260D01*
X5252Y7412D01*
Y7421D01*
X5260Y7429D01*
X5285D01*
X7422Y9452D02*
X7430Y9461D01*
X7447D01*
X7455Y9452D01*
Y9419D01*
X7447Y9411D01*
X7430D01*
X7422Y9419D01*
X7380Y9411D02*
Y9461D01*
X7405Y9436D01*
X7372D01*
X7355Y9461D02*
X7322D01*
Y9452D01*
X7355Y9419D01*
Y9411D01*
X7684Y9081D02*
Y9064D01*
Y9072D01*
X7734D01*
Y9081D01*
Y9064D01*
X7693Y9006D02*
X7684Y9014D01*
Y9031D01*
X7693Y9039D01*
X7726D01*
X7734Y9031D01*
Y9014D01*
X7726Y9006D01*
X7684Y8956D02*
X7693Y8972D01*
X7709Y8989D01*
X7726D01*
X7734Y8981D01*
Y8964D01*
X7726Y8956D01*
X7718D01*
X7709Y8964D01*
Y8989D01*
X5778Y8941D02*
X5729D01*
Y8916D01*
X5737Y8907D01*
X5754D01*
X5762Y8916D01*
Y8941D01*
Y8924D02*
X5778Y8907D01*
Y8857D02*
Y8891D01*
X5745Y8857D01*
X5737D01*
X5729Y8866D01*
Y8882D01*
X5737Y8891D01*
X5778Y9144D02*
X5729D01*
Y9119D01*
X5737Y9111D01*
X5754D01*
X5762Y9119D01*
Y9144D01*
Y9127D02*
X5778Y9111D01*
Y9069D02*
X5729D01*
X5754Y9094D01*
Y9061D01*
M02*
