%FSLAX42Y42*%
%MOMM*%
G71*
G01*
G75*
G04 Layer_Physical_Order=1*
G04 Layer_Color=255*
%ADD10R,1.22X1.22*%
%ADD11R,1.22X1.22*%
%ADD12R,3.20X4.00*%
%ADD13R,1.27X1.27*%
%ADD14R,1.40X1.40*%
%ADD15O,0.25X1.75*%
%ADD16O,1.75X0.25*%
%ADD17O,1.20X0.35*%
%ADD18R,1.20X0.35*%
%ADD19O,0.35X1.20*%
%ADD20R,0.35X1.20*%
%ADD21R,0.60X1.20*%
%ADD22O,1.30X0.65*%
%ADD23R,1.30X0.65*%
%ADD24O,0.35X1.85*%
%ADD25R,1.27X1.27*%
%ADD26R,1.52X1.52*%
%ADD27C,0.25*%
%ADD28C,0.60*%
%ADD29C,2.00*%
%ADD30C,1.20*%
%ADD31C,0.50*%
%ADD32C,0.40*%
%ADD33C,1.30*%
%ADD34C,0.25*%
%ADD35C,0.35*%
%ADD36C,0.30*%
%ADD37C,0.80*%
%ADD38C,5.00*%
%ADD39C,5.00*%
%ADD40C,1.57*%
%ADD41P,1.70X8X292.5*%
%ADD42R,1.50X1.50*%
%ADD43C,1.50*%
%ADD44C,2.00*%
%ADD45R,2.00X2.00*%
%ADD46R,2.00X2.00*%
%ADD47C,1.52*%
%ADD48C,1.27*%
%ADD49C,1.10*%
%ADD50C,1.70*%
G36*
X9801Y12852D02*
X9783Y12848D01*
X9743Y12831D01*
X9706Y12809D01*
X9673Y12781D01*
X9645Y12748D01*
X9622Y12711D01*
X9606Y12671D01*
X9595Y12629D01*
X9592Y12586D01*
X9595Y12543D01*
X9606Y12500D01*
X9622Y12460D01*
X9645Y12424D01*
X9673Y12391D01*
X9706Y12363D01*
X9743Y12340D01*
X9783Y12323D01*
X9825Y12313D01*
X9868Y12310D01*
X9911Y12313D01*
X9953Y12323D01*
X9993Y12340D01*
X10030Y12363D01*
X10063Y12391D01*
X10091Y12424D01*
X10114Y12460D01*
X10130Y12500D01*
X10135Y12519D01*
X10147Y12517D01*
Y3942D01*
X10135Y3940D01*
X10130Y3959D01*
X10114Y3999D01*
X10091Y4036D01*
X10063Y4069D01*
X10030Y4097D01*
X9993Y4119D01*
X9953Y4136D01*
X9911Y4146D01*
X9868Y4149D01*
X9825Y4146D01*
X9783Y4136D01*
X9743Y4119D01*
X9706Y4097D01*
X9673Y4069D01*
X9645Y4036D01*
X9622Y3999D01*
X9606Y3959D01*
X9595Y3917D01*
X9592Y3874D01*
X9595Y3830D01*
X9606Y3788D01*
X9622Y3748D01*
X9645Y3711D01*
X9673Y3678D01*
X9706Y3650D01*
X9743Y3628D01*
X9783Y3611D01*
X9801Y3607D01*
X9800Y3594D01*
X3789D01*
X3788Y3607D01*
X3806Y3611D01*
X3846Y3628D01*
X3883Y3650D01*
X3916Y3678D01*
X3944Y3711D01*
X3967Y3748D01*
X3983Y3788D01*
X3994Y3830D01*
X3997Y3874D01*
X3994Y3917D01*
X3983Y3959D01*
X3967Y3999D01*
X3944Y4036D01*
X3916Y4069D01*
X3883Y4097D01*
X3846Y4119D01*
X3812Y4133D01*
X3815Y4146D01*
X3973D01*
X3990Y4149D01*
X4004Y4158D01*
X4063Y4218D01*
X4073Y4232D01*
X4076Y4248D01*
X4073Y4265D01*
X4071Y4268D01*
Y4274D01*
X4068Y4289D01*
X4060Y4301D01*
X4047Y4310D01*
X4033Y4312D01*
X4018Y4310D01*
X4005Y4301D01*
X3997Y4289D01*
X3994Y4274D01*
Y4271D01*
X3958Y4236D01*
X3947Y4241D01*
Y4324D01*
X3956Y4333D01*
X4109D01*
X4167Y4275D01*
Y4189D01*
X4278D01*
Y4359D01*
X4192D01*
X4152Y4399D01*
X4150Y4400D01*
X4149Y4413D01*
X4155Y4418D01*
X4163Y4430D01*
X4166Y4445D01*
Y4445D01*
X4166Y4445D01*
X4185Y4455D01*
X4278D01*
Y4496D01*
X4308D01*
Y4435D01*
X4419D01*
X4511Y4343D01*
Y4253D01*
X4500Y4248D01*
X4425Y4323D01*
X4411Y4333D01*
X4394Y4336D01*
X4378Y4333D01*
X4371Y4328D01*
X4369Y4328D01*
X4357Y4320D01*
X4349Y4307D01*
X4346Y4293D01*
X4349Y4278D01*
X4357Y4266D01*
X4366Y4259D01*
X4467Y4158D01*
X4481Y4149D01*
X4498Y4146D01*
X4697D01*
X4714Y4149D01*
X4728Y4158D01*
X4728Y4158D01*
X4728Y4158D01*
X4831Y4262D01*
X4841Y4276D01*
X4844Y4293D01*
X4841Y4309D01*
X4831Y4323D01*
X4817Y4333D01*
X4801Y4336D01*
X4784Y4333D01*
X4770Y4323D01*
X4695Y4248D01*
X4683Y4253D01*
Y4379D01*
X4598D01*
X4553Y4424D01*
X4558Y4435D01*
X4683D01*
Y4478D01*
X4715D01*
Y4435D01*
X4887D01*
Y4607D01*
X4717D01*
Y4638D01*
X4760D01*
Y4673D01*
X4791D01*
Y4638D01*
X4963D01*
Y4673D01*
X4994D01*
Y4638D01*
X5166D01*
Y4810D01*
X4994D01*
Y4775D01*
X4963D01*
Y4810D01*
X4791D01*
Y4775D01*
X4760D01*
Y4810D01*
X4645D01*
X4613Y4843D01*
Y4938D01*
X4625Y4939D01*
X4627Y4933D01*
X4638Y4917D01*
X4654Y4906D01*
X4674Y4902D01*
X5080D01*
X5100Y4906D01*
X5116Y4917D01*
X5127Y4933D01*
X5131Y4953D01*
X5127Y4973D01*
X5116Y4989D01*
X5100Y5000D01*
X5080Y5004D01*
X4880D01*
X4877Y5007D01*
Y5137D01*
X4956D01*
X5047Y5047D01*
X5047D01*
X5047Y5047D01*
X5047Y5047D01*
Y5047D01*
X5059Y5038D01*
X5074Y5035D01*
X5147D01*
X5197Y4985D01*
Y4867D01*
X5369D01*
Y5039D01*
X5251D01*
X5194Y5097D01*
X5199Y5108D01*
X5242D01*
Y5226D01*
X5287Y5271D01*
X5299Y5266D01*
Y5108D01*
X5471D01*
Y5226D01*
X5477Y5232D01*
X5533D01*
Y5228D01*
X5533D01*
Y5058D01*
X5537D01*
Y5045D01*
X5518Y5026D01*
X5400D01*
Y4854D01*
X5448D01*
Y4810D01*
X5400D01*
Y4763D01*
X5369D01*
Y4810D01*
X5197D01*
Y4638D01*
X5369D01*
Y4686D01*
X5400D01*
Y4638D01*
X5572D01*
Y4810D01*
X5525D01*
Y4854D01*
X5572D01*
Y4972D01*
X5596Y4996D01*
X5609Y4995D01*
X5613Y4988D01*
X5629Y4972D01*
Y4854D01*
X5677D01*
Y4810D01*
X5629D01*
Y4638D01*
X5801D01*
Y4781D01*
X5813Y4786D01*
X5904Y4695D01*
X5904D01*
X5904Y4695D01*
X5904Y4695D01*
Y4695D01*
X5916Y4687D01*
X5931Y4684D01*
X5944Y4686D01*
X6553D01*
X6568Y4689D01*
X6580Y4697D01*
X6589Y4710D01*
X6591Y4724D01*
X6589Y4739D01*
X6580Y4751D01*
X6568Y4760D01*
X6553Y4763D01*
X5944D01*
X5868Y4839D01*
Y4865D01*
X6017D01*
Y4915D01*
X6061D01*
Y4867D01*
X6123D01*
X6124Y4867D01*
X6147Y4864D01*
X6170Y4867D01*
X6171Y4867D01*
X6233D01*
Y4929D01*
X6233Y4930D01*
X6236Y4953D01*
X6233Y4976D01*
X6233Y4977D01*
Y5039D01*
X6171D01*
X6170Y5039D01*
X6147Y5042D01*
X6124Y5039D01*
X6123Y5039D01*
X6061D01*
Y4991D01*
X6017D01*
Y5036D01*
X5934D01*
X5899Y5071D01*
X5904Y5083D01*
X6017D01*
Y5255D01*
X5886D01*
X5844Y5298D01*
X5831Y5306D01*
X5817Y5309D01*
X5461D01*
X5458Y5311D01*
X5458Y5312D01*
X5458Y5312D01*
X5458Y5312D01*
Y5372D01*
X5509D01*
X5523Y5375D01*
X5536Y5383D01*
X5536Y5383D01*
X5536Y5383D01*
X5568Y5415D01*
X5581Y5414D01*
X5586Y5405D01*
X5647Y5345D01*
X5647D01*
X5647Y5345D01*
X5647D01*
X5647Y5345D01*
Y5345D01*
X5647Y5345D01*
Y5345D01*
X5659Y5337D01*
X5674Y5334D01*
X5766D01*
X5780Y5337D01*
X5793Y5345D01*
X5856Y5409D01*
X5865Y5421D01*
X5868Y5436D01*
Y5636D01*
X5871Y5639D01*
X6030D01*
X6045Y5642D01*
X6057Y5651D01*
X6057Y5651D01*
X6057Y5651D01*
X6062Y5655D01*
X6074Y5650D01*
Y5489D01*
X6245D01*
Y5550D01*
X6264D01*
Y5502D01*
X6324D01*
Y5471D01*
X6277D01*
Y5423D01*
X6245D01*
Y5458D01*
X6074D01*
Y5286D01*
X6121D01*
Y5255D01*
X6074D01*
Y5083D01*
X6245D01*
Y5255D01*
X6198D01*
Y5286D01*
X6245D01*
Y5347D01*
X6277D01*
Y5299D01*
X6449D01*
Y5471D01*
X6401D01*
Y5502D01*
X6436D01*
Y5569D01*
X6481Y5614D01*
X6493Y5609D01*
Y5502D01*
X6528D01*
Y5471D01*
X6480D01*
Y5299D01*
X6638D01*
X6643Y5287D01*
X6598Y5242D01*
X6480D01*
Y5194D01*
X6449D01*
Y5242D01*
X6277D01*
Y5070D01*
X6449D01*
Y5118D01*
X6480D01*
Y5070D01*
X6652D01*
Y5188D01*
X6664Y5200D01*
X6676Y5195D01*
Y5058D01*
X6761D01*
X6761Y5058D01*
Y5058D01*
X6766Y5061D01*
X6767Y5061D01*
X6783Y5058D01*
X6791Y5059D01*
X6797Y5048D01*
X6788Y5039D01*
X6670D01*
Y4991D01*
X6639D01*
Y5039D01*
X6467D01*
Y4991D01*
X6436D01*
Y5039D01*
X6264D01*
Y4867D01*
X6436D01*
Y4915D01*
X6467D01*
Y4867D01*
X6639D01*
Y4915D01*
X6670D01*
Y4867D01*
X6828D01*
X6833Y4855D01*
X6788Y4810D01*
X6670D01*
Y4638D01*
X6842D01*
Y4756D01*
X6953Y4867D01*
X6991D01*
X7047Y4812D01*
X7047D01*
X7047Y4812D01*
X7047Y4812D01*
Y4812D01*
X7059Y4803D01*
X7074Y4800D01*
X7239D01*
X7254Y4803D01*
X7265Y4801D01*
X7268Y4800D01*
X7271Y4784D01*
X7280Y4770D01*
Y4768D01*
X7271Y4754D01*
X7267Y4737D01*
X7269Y4730D01*
X7261Y4720D01*
X7221D01*
X7190Y4751D01*
X7177Y4760D01*
X7163Y4763D01*
X6960D01*
X6945Y4760D01*
X6933Y4751D01*
X6924Y4739D01*
X6921Y4724D01*
X6924Y4710D01*
X6933Y4697D01*
X6945Y4689D01*
X6960Y4686D01*
X7147D01*
X7178Y4655D01*
X7190Y4647D01*
X7205Y4644D01*
X7419D01*
X7433Y4647D01*
X7446Y4655D01*
X7482Y4691D01*
X7490Y4704D01*
X7493Y4718D01*
Y4953D01*
X7490Y4968D01*
X7482Y4980D01*
X7470Y4992D01*
X7475Y5004D01*
X7795D01*
X7810Y5007D01*
X7822Y5015D01*
X7822Y5015D01*
X7822Y5015D01*
X7850Y5043D01*
X7859Y5056D01*
X7861Y5070D01*
X7861Y5070D01*
X7861Y5070D01*
Y5070D01*
Y5216D01*
X7940D01*
Y5108D01*
X8112D01*
Y5156D01*
X8144D01*
Y5108D01*
X8316D01*
Y5280D01*
X8144D01*
Y5233D01*
X8112D01*
Y5280D01*
X7995D01*
X7994Y5281D01*
X7981Y5290D01*
X7967Y5292D01*
X7930D01*
X7922Y5302D01*
X7924Y5309D01*
Y5373D01*
X7939Y5389D01*
X7947Y5401D01*
X7950Y5416D01*
X7950Y5416D01*
X7950Y5416D01*
Y5416D01*
Y5678D01*
X7964Y5696D01*
X7973Y5717D01*
X7976Y5740D01*
X7973Y5759D01*
X7982Y5769D01*
X8112D01*
Y5816D01*
X8144D01*
Y5769D01*
X8316D01*
Y5941D01*
X8281D01*
Y5972D01*
X8328D01*
Y6144D01*
X8156D01*
Y5972D01*
X8204D01*
Y5941D01*
X8144D01*
Y5893D01*
X8112D01*
Y5941D01*
X7940D01*
X7940Y5941D01*
Y5941D01*
X7939Y5940D01*
X7924Y5955D01*
Y5972D01*
X7924D01*
X7928D01*
X7933Y5972D01*
X7933Y5972D01*
Y5972D01*
X8015D01*
X8016Y5972D01*
X8039Y5969D01*
X8062Y5972D01*
X8063Y5972D01*
X8100D01*
Y5993D01*
X8102Y5995D01*
X8116Y6013D01*
X8125Y6035D01*
X8128Y6058D01*
X8125Y6081D01*
X8116Y6103D01*
X8102Y6121D01*
X8100Y6123D01*
Y6144D01*
X8063D01*
X8062Y6144D01*
X8039Y6147D01*
X8016Y6144D01*
X8015Y6144D01*
X7928D01*
Y6047D01*
X7916Y6043D01*
X7911Y6050D01*
X7897Y6059D01*
X7880Y6063D01*
X7864Y6059D01*
X7850Y6050D01*
X7847D01*
X7833Y6059D01*
X7817Y6063D01*
X7800Y6059D01*
X7786Y6050D01*
X7784D01*
X7770Y6059D01*
X7753Y6063D01*
X7737Y6059D01*
X7723Y6050D01*
X7713Y6036D01*
X7710Y6019D01*
Y5988D01*
X7700Y5980D01*
X7690Y5982D01*
X7679Y5980D01*
X7670Y5988D01*
Y6019D01*
X7666Y6036D01*
X7665Y6038D01*
Y6052D01*
X7662Y6066D01*
X7653Y6079D01*
X7631Y6101D01*
X7618Y6110D01*
X7604Y6112D01*
X7376D01*
Y6144D01*
X7204D01*
Y6112D01*
X7173D01*
Y6144D01*
X7110D01*
X7110Y6144D01*
X7087Y6147D01*
X7063Y6144D01*
X7063Y6144D01*
X7001D01*
Y6082D01*
X7000Y6081D01*
X6997Y6058D01*
X7000Y6035D01*
X7001Y6034D01*
Y5972D01*
X7063D01*
X7063Y5972D01*
X7087Y5969D01*
X7110Y5972D01*
X7110Y5972D01*
X7173D01*
Y6034D01*
X7173Y6035D01*
X7173Y6036D01*
X7204D01*
Y5972D01*
X7376D01*
Y6029D01*
X7388Y6034D01*
X7394Y6026D01*
X7393Y6019D01*
Y5869D01*
X7394Y5862D01*
X7386Y5852D01*
X7321D01*
X7317Y5856D01*
X7304Y5865D01*
X7290Y5868D01*
X7275Y5865D01*
X7263Y5856D01*
X7260Y5852D01*
X6922D01*
Y6033D01*
X6919Y6047D01*
X6910Y6060D01*
X6898Y6068D01*
X6883Y6071D01*
X6869Y6068D01*
X6856Y6060D01*
X6848Y6047D01*
X6845Y6033D01*
Y5829D01*
X6845Y5829D01*
X6845D01*
X6848Y5815D01*
X6856Y5802D01*
X6871Y5787D01*
X6884Y5779D01*
X6899Y5776D01*
X7289D01*
X7341Y5724D01*
X7336Y5712D01*
X7326D01*
X7326Y5712D01*
X7303Y5715D01*
X7279Y5712D01*
X7279Y5712D01*
X7217D01*
Y5650D01*
X7216Y5649D01*
X7213Y5626D01*
X7216Y5603D01*
X7217Y5602D01*
Y5550D01*
X7215Y5550D01*
X7214Y5550D01*
X7202Y5541D01*
X7172Y5511D01*
X7160Y5516D01*
Y5522D01*
X6988D01*
Y5474D01*
X6975D01*
X6947Y5502D01*
Y5564D01*
X6949Y5567D01*
X6952Y5584D01*
Y5588D01*
X6988D01*
Y5540D01*
X7160D01*
Y5712D01*
X6988D01*
Y5664D01*
X6952D01*
Y5669D01*
X6949Y5685D01*
X6939Y5699D01*
X6925Y5709D01*
X6909Y5712D01*
X6892Y5709D01*
X6878Y5699D01*
X6876D01*
X6862Y5709D01*
X6845Y5712D01*
X6829Y5709D01*
X6815Y5699D01*
X6812D01*
X6798Y5709D01*
X6782Y5712D01*
X6766Y5709D01*
X6757Y5717D01*
Y5753D01*
X6754Y5768D01*
X6745Y5780D01*
X6741Y5785D01*
Y5915D01*
X6693D01*
Y5947D01*
X6741D01*
Y6009D01*
X6741Y6009D01*
X6744Y6033D01*
X6741Y6056D01*
X6741Y6056D01*
Y6118D01*
X6679D01*
X6678Y6119D01*
X6655Y6122D01*
X6632Y6119D01*
X6631Y6118D01*
X6569D01*
Y6068D01*
X6558Y6061D01*
X6551Y6064D01*
X6550Y6064D01*
X6538Y6072D01*
X6523Y6075D01*
X6513D01*
X6511Y6077D01*
X6494Y6080D01*
X6409D01*
X6393Y6077D01*
X6378Y6068D01*
X6369Y6054D01*
X6366Y6037D01*
X6369Y6020D01*
X6364Y6010D01*
X6324D01*
X6310Y6007D01*
X6298Y5999D01*
X6287Y6005D01*
Y6045D01*
X6284Y6060D01*
X6275Y6072D01*
X6212Y6136D01*
X6200Y6144D01*
X6185Y6147D01*
X6185Y6148D01*
X6185Y6164D01*
X6186Y6166D01*
X6195Y6187D01*
X6198Y6210D01*
X6195Y6233D01*
X6186Y6255D01*
X6172Y6273D01*
X6153Y6288D01*
X6132Y6297D01*
X6109Y6300D01*
X6086Y6297D01*
X6064Y6288D01*
X6046Y6273D01*
X6031Y6255D01*
X6022Y6233D01*
X6019Y6210D01*
X6022Y6187D01*
X6031Y6166D01*
X6046Y6147D01*
Y6147D01*
X6044Y6136D01*
X5984Y6076D01*
X5927D01*
X5910Y6073D01*
X5896Y6063D01*
X5886Y6049D01*
X5883Y6033D01*
X5885Y6023D01*
X5874Y6017D01*
X5806Y6085D01*
X5793Y6093D01*
X5778Y6096D01*
X5677D01*
X5662Y6093D01*
X5650Y6085D01*
X5642Y6073D01*
X5639Y6058D01*
X5642Y6043D01*
X5650Y6031D01*
X5662Y6023D01*
X5677Y6020D01*
X5763D01*
X5834Y5948D01*
X5833Y5936D01*
X5828Y5933D01*
X5810Y5915D01*
X5705D01*
Y5868D01*
X5661D01*
Y5915D01*
X5489D01*
Y5868D01*
X5458D01*
Y5915D01*
X5318D01*
X5313Y5927D01*
X5357Y5971D01*
X5372Y5969D01*
X5395Y5972D01*
X5396Y5972D01*
X5458D01*
Y6034D01*
X5458Y6035D01*
X5461Y6058D01*
X5458Y6081D01*
X5458Y6082D01*
Y6144D01*
X5396D01*
X5395Y6144D01*
X5372Y6147D01*
X5349Y6144D01*
X5348Y6144D01*
X5286D01*
Y6082D01*
X5286Y6081D01*
X5283Y6058D01*
X5286Y6035D01*
X5286Y6034D01*
Y6008D01*
X5193Y5915D01*
X5094D01*
Y5917D01*
X5093Y5921D01*
Y5931D01*
X5090Y5946D01*
X5082Y5958D01*
X5039Y6001D01*
Y6144D01*
X4867D01*
Y6109D01*
X4836D01*
Y6144D01*
X4664D01*
Y6004D01*
X4656Y5993D01*
X4654Y5991D01*
X4635Y5995D01*
X4524D01*
X4523Y6007D01*
X4541Y6011D01*
X4557Y6022D01*
X4568Y6038D01*
X4572Y6058D01*
X4568Y6077D01*
X4557Y6094D01*
X4541Y6105D01*
X4521Y6109D01*
X4115D01*
X4095Y6105D01*
X4079Y6094D01*
X4068Y6077D01*
X4064Y6058D01*
X4068Y6038D01*
X4079Y6022D01*
X4095Y6011D01*
X4113Y6007D01*
X4112Y5995D01*
X4022D01*
X3998Y6019D01*
Y6144D01*
X3826D01*
Y5972D01*
X3900D01*
X3945Y5927D01*
X3940Y5915D01*
X3826D01*
Y5854D01*
X3672Y5700D01*
X3661Y5684D01*
X3657Y5664D01*
Y5613D01*
X3645Y5608D01*
X3619Y5588D01*
X3599Y5562D01*
X3587Y5532D01*
X3582Y5499D01*
X3587Y5466D01*
X3599Y5436D01*
X3619Y5410D01*
X3645Y5390D01*
X3673Y5378D01*
Y5366D01*
X3645Y5354D01*
X3619Y5334D01*
X3599Y5308D01*
X3587Y5278D01*
X3582Y5245D01*
X3586Y5220D01*
X3507Y5141D01*
X3496Y5125D01*
X3492Y5105D01*
Y4881D01*
X3492Y4881D01*
X3492D01*
X3496Y4862D01*
X3507Y4845D01*
X3559Y4793D01*
Y4651D01*
X3731D01*
Y4823D01*
X3676D01*
X3672Y4829D01*
X3660Y4837D01*
X3594Y4902D01*
Y5084D01*
X3646Y5136D01*
X3676Y5123D01*
X3708Y5119D01*
X3741Y5123D01*
X3771Y5136D01*
X3798Y5156D01*
X3803Y5164D01*
X3815Y5160D01*
Y4823D01*
X3788D01*
Y4651D01*
X3959D01*
Y4673D01*
X3978D01*
Y4638D01*
X4150D01*
Y4673D01*
X4181D01*
Y4638D01*
X4353D01*
Y4810D01*
X4181D01*
Y4775D01*
X4150D01*
Y4810D01*
X3978D01*
Y4775D01*
X3959D01*
Y4823D01*
X3902D01*
Y5096D01*
X3951D01*
X3952Y5095D01*
X3975Y5092D01*
X3998Y5095D01*
X3999Y5096D01*
X4048D01*
Y5132D01*
X4052Y5137D01*
X4061Y5158D01*
X4064Y5182D01*
X4061Y5205D01*
X4052Y5226D01*
X4049Y5231D01*
X4052Y5243D01*
X4060Y5247D01*
X4105Y5202D01*
Y5096D01*
X4277D01*
Y5179D01*
X4287Y5187D01*
X4295Y5185D01*
X4297Y5172D01*
X4310Y5153D01*
X4329Y5140D01*
X4351Y5136D01*
X4371D01*
X4419Y5087D01*
Y5039D01*
X4384D01*
Y5004D01*
X4353D01*
Y5039D01*
X4181D01*
Y5004D01*
X4150D01*
Y5039D01*
X3978D01*
Y4867D01*
X4150D01*
Y4902D01*
X4181D01*
Y4867D01*
X4353D01*
Y4902D01*
X4384D01*
Y4867D01*
X4531D01*
Y4826D01*
X4531Y4826D01*
X4534Y4813D01*
X4534Y4810D01*
X4543Y4797D01*
X4588Y4753D01*
Y4638D01*
X4630D01*
Y4615D01*
X4622Y4607D01*
X4511D01*
Y4482D01*
X4500Y4477D01*
X4480Y4497D01*
Y4607D01*
X4308D01*
Y4583D01*
X4278D01*
Y4625D01*
X3978D01*
Y4565D01*
X3947D01*
Y4607D01*
X3775D01*
Y4475D01*
X3763Y4470D01*
X3744Y4489D01*
Y4497D01*
X3744Y4498D01*
X3747Y4521D01*
X3744Y4544D01*
X3744Y4545D01*
Y4607D01*
X3681D01*
X3681Y4607D01*
X3658Y4610D01*
X3634Y4607D01*
X3634Y4607D01*
X3572D01*
Y4545D01*
X3571Y4544D01*
X3568Y4521D01*
X3571Y4498D01*
X3572Y4497D01*
Y4435D01*
X3634D01*
X3634Y4435D01*
X3658Y4432D01*
X3681Y4435D01*
X3681Y4435D01*
X3689D01*
X3729Y4396D01*
X3741Y4387D01*
X3756Y4385D01*
X3775D01*
Y4379D01*
X3775D01*
Y4253D01*
X3763Y4248D01*
X3688Y4323D01*
X3674Y4333D01*
X3658Y4336D01*
X3641Y4333D01*
X3627Y4323D01*
X3618Y4309D01*
X3614Y4293D01*
X3618Y4276D01*
X3627Y4262D01*
X3728Y4161D01*
X3723Y4149D01*
X3721Y4149D01*
X3678Y4146D01*
X3636Y4136D01*
X3596Y4119D01*
X3559Y4097D01*
X3526Y4069D01*
X3498Y4036D01*
X3475Y3999D01*
X3459Y3959D01*
X3454Y3940D01*
X3442Y3942D01*
Y12517D01*
X3454Y12519D01*
X3459Y12500D01*
X3475Y12460D01*
X3498Y12424D01*
X3526Y12391D01*
X3559Y12363D01*
X3596Y12340D01*
X3636Y12323D01*
X3661Y12317D01*
Y12303D01*
X3661D01*
Y12131D01*
X3832D01*
Y12303D01*
X3832D01*
Y12334D01*
X3846Y12340D01*
X3883Y12363D01*
X3916Y12391D01*
X3944Y12424D01*
X3967Y12460D01*
X3983Y12500D01*
X3994Y12543D01*
X3997Y12586D01*
X3994Y12629D01*
X3983Y12671D01*
X3967Y12711D01*
X3944Y12748D01*
X3916Y12781D01*
X3883Y12809D01*
X3846Y12831D01*
X3806Y12848D01*
X3788Y12852D01*
X3789Y12865D01*
X9800D01*
X9801Y12852D01*
D02*
G37*
%LPC*%
G36*
X4394Y7087D02*
X4371Y7084D01*
X4350Y7075D01*
X4331Y7061D01*
X4317Y7042D01*
X4308Y7021D01*
X4305Y6998D01*
X4308Y6975D01*
X4317Y6953D01*
X4331Y6935D01*
X4350Y6920D01*
X4371Y6911D01*
X4394Y6908D01*
X4417Y6911D01*
X4439Y6920D01*
X4457Y6935D01*
X4472Y6953D01*
X4480Y6975D01*
X4483Y6998D01*
X4480Y7021D01*
X4472Y7042D01*
X4457Y7061D01*
X4439Y7075D01*
X4417Y7084D01*
X4394Y7087D01*
D02*
G37*
G36*
X5817Y7100D02*
X5793Y7097D01*
X5772Y7088D01*
X5753Y7074D01*
X5739Y7055D01*
X5730Y7034D01*
X5727Y7010D01*
X5730Y6987D01*
X5739Y6966D01*
X5753Y6947D01*
X5772Y6933D01*
X5793Y6924D01*
X5817Y6921D01*
X5840Y6924D01*
X5861Y6933D01*
X5880Y6947D01*
X5894Y6966D01*
X5903Y6987D01*
X5906Y7010D01*
X5903Y7034D01*
X5894Y7055D01*
X5880Y7074D01*
X5861Y7088D01*
X5840Y7097D01*
X5817Y7100D01*
D02*
G37*
G36*
X6756Y7277D02*
X6733Y7274D01*
X6712Y7266D01*
X6693Y7251D01*
X6679Y7233D01*
X6670Y7211D01*
X6667Y7188D01*
X6670Y7165D01*
X6679Y7144D01*
X6693Y7125D01*
X6712Y7111D01*
X6733Y7102D01*
X6756Y7099D01*
X6780Y7102D01*
X6801Y7111D01*
X6820Y7125D01*
X6834Y7144D01*
X6843Y7165D01*
X6846Y7188D01*
X6843Y7211D01*
X6834Y7233D01*
X6820Y7251D01*
X6801Y7266D01*
X6780Y7274D01*
X6756Y7277D01*
D02*
G37*
G36*
X5994Y7201D02*
X5971Y7198D01*
X5950Y7189D01*
X5931Y7175D01*
X5917Y7157D01*
X5908Y7135D01*
X5905Y7112D01*
X5908Y7089D01*
X5917Y7067D01*
X5931Y7049D01*
X5950Y7035D01*
X5971Y7026D01*
X5994Y7023D01*
X6018Y7026D01*
X6039Y7035D01*
X6058Y7049D01*
X6072Y7067D01*
X6081Y7089D01*
X6084Y7112D01*
X6081Y7135D01*
X6072Y7157D01*
X6058Y7175D01*
X6039Y7189D01*
X6018Y7198D01*
X5994Y7201D01*
D02*
G37*
G36*
X8256Y7429D02*
X8062D01*
X8047Y7426D01*
X8035Y7418D01*
X7961Y7344D01*
X7953Y7332D01*
X7950Y7317D01*
Y7268D01*
X7944Y7266D01*
X7925Y7251D01*
X7911Y7233D01*
X7902Y7211D01*
X7899Y7188D01*
X7902Y7165D01*
X7911Y7144D01*
X7925Y7125D01*
X7944Y7111D01*
X7965Y7102D01*
X7988Y7099D01*
X8011Y7102D01*
X8033Y7111D01*
X8041Y7117D01*
X8052Y7111D01*
Y6960D01*
X8140D01*
X8146Y6949D01*
X8140Y6941D01*
X8131Y6919D01*
X8128Y6896D01*
X8131Y6873D01*
X8140Y6851D01*
X8154Y6833D01*
X8172Y6819D01*
X8185Y6814D01*
Y6801D01*
X8172Y6796D01*
X8154Y6781D01*
X8140Y6763D01*
X8131Y6741D01*
X8128Y6718D01*
X8131Y6695D01*
X8140Y6674D01*
X8154Y6655D01*
X8172Y6641D01*
X8194Y6632D01*
X8217Y6629D01*
X8240Y6632D01*
X8262Y6641D01*
X8280Y6655D01*
X8294Y6674D01*
X8303Y6695D01*
X8306Y6718D01*
X8303Y6741D01*
X8294Y6763D01*
X8280Y6781D01*
X8262Y6796D01*
X8249Y6801D01*
Y6814D01*
X8262Y6819D01*
X8280Y6833D01*
X8294Y6851D01*
X8303Y6873D01*
X8306Y6896D01*
X8303Y6919D01*
X8294Y6941D01*
X8288Y6949D01*
X8294Y6960D01*
X8360D01*
X8368Y6940D01*
X8382Y6922D01*
X8401Y6908D01*
X8422Y6899D01*
X8446Y6896D01*
X8469Y6899D01*
X8490Y6908D01*
X8509Y6922D01*
X8523Y6940D01*
X8532Y6962D01*
X8535Y6985D01*
X8532Y7008D01*
X8523Y7030D01*
X8509Y7048D01*
X8490Y7062D01*
X8469Y7071D01*
X8446Y7074D01*
X8445Y7075D01*
Y7137D01*
X8295D01*
X8288Y7148D01*
X8290Y7152D01*
X8293Y7175D01*
X8291Y7192D01*
X8300Y7201D01*
X8445D01*
Y7378D01*
X8322D01*
X8283Y7418D01*
X8270Y7426D01*
X8256Y7429D01*
D02*
G37*
G36*
X5346Y6908D02*
X5169D01*
Y6785D01*
X5063Y6679D01*
X5055Y6681D01*
X5031Y6678D01*
X5010Y6669D01*
X4991Y6654D01*
X4977Y6636D01*
X4968Y6614D01*
X4965Y6591D01*
X4968Y6568D01*
X4977Y6547D01*
X4991Y6528D01*
X5010Y6514D01*
X5031Y6505D01*
X5055Y6502D01*
X5078Y6505D01*
X5099Y6514D01*
X5118Y6528D01*
X5129Y6544D01*
X5169D01*
Y6493D01*
X5346D01*
Y6670D01*
X5179D01*
X5174Y6682D01*
X5223Y6731D01*
X5346D01*
Y6908D01*
D02*
G37*
G36*
X5562D02*
X5385D01*
Y6731D01*
X5508D01*
X5523Y6717D01*
X5523D01*
X5523Y6717D01*
X5523Y6717D01*
Y6717D01*
X5535Y6708D01*
X5550Y6705D01*
X5651D01*
X5654Y6682D01*
X5663Y6661D01*
X5677Y6642D01*
X5691Y6632D01*
X5687Y6620D01*
X5562D01*
Y6670D01*
X5385D01*
Y6493D01*
X5562D01*
Y6544D01*
X5649D01*
X5651Y6540D01*
X5654Y6517D01*
X5663Y6496D01*
X5677Y6477D01*
X5696Y6463D01*
X5717Y6454D01*
X5740Y6451D01*
X5764Y6454D01*
X5785Y6463D01*
X5804Y6477D01*
X5818Y6496D01*
X5827Y6517D01*
X5830Y6540D01*
X5827Y6564D01*
X5818Y6585D01*
X5804Y6604D01*
X5786Y6617D01*
Y6629D01*
X5804Y6642D01*
X5818Y6661D01*
X5827Y6682D01*
X5830Y6706D01*
X5827Y6729D01*
X5818Y6750D01*
X5804Y6769D01*
X5785Y6783D01*
X5764Y6792D01*
X5740Y6795D01*
X5717Y6792D01*
X5696Y6783D01*
X5695Y6782D01*
X5566D01*
X5562Y6785D01*
Y6908D01*
D02*
G37*
G36*
X7887Y6846D02*
X7864Y6843D01*
X7842Y6834D01*
X7824Y6820D01*
X7809Y6801D01*
X7800Y6780D01*
X7799Y6769D01*
X7787Y6766D01*
X7785Y6769D01*
X7766Y6783D01*
X7745Y6792D01*
X7722Y6795D01*
X7698Y6792D01*
X7677Y6783D01*
X7658Y6769D01*
X7644Y6750D01*
X7635Y6729D01*
X7632Y6706D01*
X7635Y6682D01*
X7644Y6661D01*
X7658Y6642D01*
X7677Y6628D01*
X7698Y6619D01*
X7722Y6616D01*
X7745Y6619D01*
X7766Y6628D01*
X7785Y6642D01*
X7799Y6661D01*
X7808Y6682D01*
X7809Y6693D01*
X7821Y6696D01*
X7824Y6693D01*
X7842Y6679D01*
X7864Y6670D01*
X7887Y6667D01*
X7910Y6670D01*
X7931Y6679D01*
X7950Y6693D01*
X7964Y6712D01*
X7973Y6733D01*
X7976Y6756D01*
X7973Y6780D01*
X7964Y6801D01*
X7950Y6820D01*
X7931Y6834D01*
X7910Y6843D01*
X7887Y6846D01*
D02*
G37*
G36*
X8867Y7309D02*
X8824Y7306D01*
X8782Y7296D01*
X8742Y7279D01*
X8705Y7257D01*
X8672Y7229D01*
X8644Y7196D01*
X8621Y7159D01*
X8605Y7119D01*
X8594Y7077D01*
X8591Y7034D01*
X8594Y6991D01*
X8605Y6949D01*
X8621Y6909D01*
X8644Y6872D01*
X8672Y6839D01*
X8705Y6811D01*
X8742Y6788D01*
X8782Y6772D01*
X8824Y6761D01*
X8867Y6758D01*
X8910Y6761D01*
X8952Y6772D01*
X8992Y6788D01*
X9029Y6811D01*
X9062Y6839D01*
X9090Y6872D01*
X9112Y6909D01*
X9129Y6949D01*
X9139Y6991D01*
X9142Y7034D01*
X9139Y7077D01*
X9129Y7119D01*
X9112Y7159D01*
X9090Y7196D01*
X9062Y7229D01*
X9029Y7257D01*
X8992Y7279D01*
X8952Y7296D01*
X8910Y7306D01*
X8867Y7309D01*
D02*
G37*
G36*
X4394Y7341D02*
X4371Y7338D01*
X4350Y7329D01*
X4331Y7315D01*
X4317Y7296D01*
X4308Y7275D01*
X4305Y7252D01*
X4308Y7229D01*
X4317Y7207D01*
X4331Y7189D01*
X4350Y7174D01*
X4371Y7165D01*
X4394Y7162D01*
X4417Y7165D01*
X4439Y7174D01*
X4457Y7189D01*
X4472Y7207D01*
X4480Y7229D01*
X4483Y7252D01*
X4480Y7275D01*
X4472Y7296D01*
X4457Y7315D01*
X4439Y7329D01*
X4417Y7338D01*
X4394Y7341D01*
D02*
G37*
G36*
X7099Y7760D02*
X7076Y7757D01*
X7055Y7748D01*
X7036Y7734D01*
X7022Y7715D01*
X7013Y7694D01*
X7010Y7671D01*
X7013Y7648D01*
X7022Y7626D01*
X7036Y7608D01*
X7055Y7593D01*
X7076Y7585D01*
X7099Y7582D01*
X7122Y7585D01*
X7144Y7593D01*
X7162Y7608D01*
X7177Y7626D01*
X7186Y7648D01*
X7189Y7671D01*
X7186Y7694D01*
X7177Y7715D01*
X7162Y7734D01*
X7144Y7748D01*
X7122Y7757D01*
X7099Y7760D01*
D02*
G37*
G36*
X6617Y7747D02*
X6594Y7744D01*
X6572Y7735D01*
X6554Y7721D01*
X6540Y7702D01*
X6531Y7681D01*
X6528Y7658D01*
X6531Y7635D01*
X6540Y7613D01*
X6554Y7595D01*
X6572Y7580D01*
X6594Y7571D01*
X6617Y7568D01*
X6640Y7571D01*
X6662Y7580D01*
X6680Y7595D01*
X6694Y7613D01*
X6703Y7635D01*
X6706Y7658D01*
X6703Y7681D01*
X6694Y7702D01*
X6680Y7721D01*
X6662Y7735D01*
X6640Y7744D01*
X6617Y7747D01*
D02*
G37*
G36*
X8039Y7862D02*
X8016Y7859D01*
X7994Y7850D01*
X7976Y7836D01*
X7962Y7817D01*
X7953Y7796D01*
X7950Y7772D01*
X7953Y7749D01*
X7962Y7728D01*
X7976Y7709D01*
X7994Y7695D01*
X8016Y7686D01*
X8039Y7683D01*
X8062Y7686D01*
X8084Y7695D01*
X8102Y7709D01*
X8116Y7728D01*
X8125Y7749D01*
X8128Y7772D01*
X8125Y7796D01*
X8116Y7817D01*
X8102Y7836D01*
X8084Y7850D01*
X8062Y7859D01*
X8039Y7862D01*
D02*
G37*
G36*
X5347Y7836D02*
X5324Y7833D01*
X5302Y7824D01*
X5284Y7810D01*
X5269Y7792D01*
X5260Y7770D01*
X5257Y7747D01*
X5260Y7724D01*
X5269Y7702D01*
X5284Y7684D01*
X5302Y7670D01*
X5324Y7661D01*
X5347Y7658D01*
X5370Y7661D01*
X5391Y7670D01*
X5410Y7684D01*
X5424Y7702D01*
X5433Y7724D01*
X5436Y7747D01*
X5433Y7770D01*
X5424Y7792D01*
X5410Y7810D01*
X5391Y7824D01*
X5370Y7833D01*
X5347Y7836D01*
D02*
G37*
G36*
X4593Y7737D02*
X4566Y7734D01*
X4541Y7723D01*
X4519Y7707D01*
X4503Y7685D01*
X4492Y7660D01*
X4489Y7633D01*
X4492Y7606D01*
X4503Y7580D01*
X4519Y7559D01*
X4541Y7542D01*
X4566Y7532D01*
X4593Y7528D01*
X4620Y7532D01*
X4645Y7542D01*
X4667Y7559D01*
X4684Y7580D01*
X4694Y7606D01*
X4698Y7633D01*
X4694Y7660D01*
X4684Y7685D01*
X4667Y7707D01*
X4645Y7723D01*
X4620Y7734D01*
X4593Y7737D01*
D02*
G37*
G36*
X4929Y7597D02*
X4825D01*
X4773Y7545D01*
Y7441D01*
X4825Y7389D01*
X4929D01*
X4981Y7441D01*
Y7545D01*
X4929Y7597D01*
D02*
G37*
G36*
X6414Y7468D02*
X6390Y7465D01*
X6369Y7456D01*
X6350Y7442D01*
X6336Y7423D01*
X6327Y7402D01*
X6324Y7379D01*
X6327Y7356D01*
X6336Y7334D01*
X6350Y7316D01*
X6369Y7301D01*
X6390Y7292D01*
X6414Y7289D01*
X6437Y7292D01*
X6458Y7301D01*
X6477Y7316D01*
X6491Y7334D01*
X6500Y7356D01*
X6503Y7379D01*
X6500Y7402D01*
X6491Y7423D01*
X6477Y7442D01*
X6458Y7456D01*
X6437Y7465D01*
X6414Y7468D01*
D02*
G37*
G36*
X3747Y7658D02*
X3723Y7655D01*
X3702Y7647D01*
X3683Y7632D01*
X3669Y7614D01*
X3660Y7592D01*
X3657Y7569D01*
X3660Y7546D01*
X3669Y7525D01*
X3683Y7506D01*
X3702Y7492D01*
X3723Y7483D01*
X3747Y7480D01*
X3770Y7483D01*
X3791Y7492D01*
X3810Y7506D01*
X3824Y7525D01*
X3833Y7546D01*
X3836Y7569D01*
X3833Y7592D01*
X3824Y7614D01*
X3810Y7632D01*
X3791Y7647D01*
X3770Y7655D01*
X3747Y7658D01*
D02*
G37*
G36*
X4394Y7595D02*
X4371Y7592D01*
X4350Y7583D01*
X4331Y7569D01*
X4317Y7550D01*
X4308Y7529D01*
X4305Y7506D01*
X4308Y7483D01*
X4317Y7461D01*
X4331Y7443D01*
X4350Y7428D01*
X4371Y7419D01*
X4394Y7416D01*
X4417Y7419D01*
X4439Y7428D01*
X4457Y7443D01*
X4472Y7461D01*
X4480Y7483D01*
X4483Y7506D01*
X4480Y7529D01*
X4472Y7550D01*
X4457Y7569D01*
X4439Y7583D01*
X4417Y7592D01*
X4394Y7595D01*
D02*
G37*
G36*
X8725Y5610D02*
X8698Y5607D01*
X8673Y5596D01*
X8651Y5579D01*
X8634Y5558D01*
X8624Y5533D01*
X8620Y5505D01*
X8624Y5478D01*
X8634Y5453D01*
X8651Y5431D01*
X8673Y5415D01*
X8698Y5404D01*
X8725Y5401D01*
X8752Y5404D01*
X8777Y5415D01*
X8799Y5431D01*
X8816Y5453D01*
X8826Y5478D01*
X8830Y5505D01*
X8826Y5533D01*
X8816Y5558D01*
X8799Y5579D01*
X8777Y5596D01*
X8752Y5607D01*
X8725Y5610D01*
D02*
G37*
G36*
X8230Y5664D02*
X8026D01*
X8012Y5661D01*
X7999Y5653D01*
X7991Y5641D01*
X7988Y5626D01*
X7991Y5611D01*
X7999Y5599D01*
X8012Y5591D01*
X8026Y5588D01*
X8191D01*
Y5461D01*
X8026D01*
X8012Y5458D01*
X7999Y5450D01*
X7991Y5438D01*
X7988Y5423D01*
X7991Y5408D01*
X7999Y5396D01*
X8012Y5388D01*
X8026Y5385D01*
X8230D01*
X8244Y5388D01*
X8257Y5396D01*
X8265Y5408D01*
X8268Y5423D01*
Y5626D01*
X8265Y5641D01*
X8257Y5653D01*
X8244Y5661D01*
X8230Y5664D01*
D02*
G37*
G36*
X8725Y5887D02*
X8698Y5884D01*
X8673Y5873D01*
X8651Y5857D01*
X8634Y5835D01*
X8624Y5810D01*
X8620Y5783D01*
X8624Y5756D01*
X8634Y5730D01*
X8651Y5709D01*
X8673Y5692D01*
X8698Y5682D01*
X8725Y5678D01*
X8752Y5682D01*
X8777Y5692D01*
X8799Y5709D01*
X8816Y5730D01*
X8826Y5756D01*
X8830Y5783D01*
X8826Y5810D01*
X8816Y5835D01*
X8799Y5857D01*
X8777Y5873D01*
X8752Y5884D01*
X8725Y5887D01*
D02*
G37*
G36*
X9009Y5748D02*
X8981Y5744D01*
X8956Y5734D01*
X8935Y5717D01*
X8918Y5695D01*
X8907Y5670D01*
X8904Y5643D01*
X8907Y5616D01*
X8918Y5591D01*
X8935Y5569D01*
X8956Y5552D01*
X8981Y5542D01*
X9009Y5538D01*
X9036Y5542D01*
X9061Y5552D01*
X9083Y5569D01*
X9099Y5591D01*
X9110Y5616D01*
X9113Y5643D01*
X9110Y5670D01*
X9099Y5695D01*
X9083Y5717D01*
X9061Y5734D01*
X9036Y5744D01*
X9009Y5748D01*
D02*
G37*
G36*
X5931Y5614D02*
X5916Y5611D01*
X5904Y5602D01*
X5896Y5590D01*
X5893Y5575D01*
Y5372D01*
X5896Y5357D01*
X5904Y5345D01*
X5916Y5337D01*
X5931Y5334D01*
X5946Y5337D01*
X5958Y5345D01*
X5966Y5357D01*
X5969Y5372D01*
Y5575D01*
X5966Y5590D01*
X5958Y5602D01*
X5946Y5611D01*
X5931Y5614D01*
D02*
G37*
G36*
X5636Y4625D02*
X5336D01*
Y4578D01*
X5306D01*
Y4607D01*
X5134D01*
Y4475D01*
X5122Y4470D01*
X5102Y4489D01*
Y4497D01*
X5103Y4498D01*
X5106Y4521D01*
X5103Y4544D01*
X5102Y4545D01*
Y4607D01*
X5040D01*
X5040Y4607D01*
X5017Y4610D01*
X4993Y4607D01*
X4993Y4607D01*
X4931D01*
Y4545D01*
X4930Y4544D01*
X4927Y4521D01*
X4930Y4498D01*
X4931Y4497D01*
Y4435D01*
X4993D01*
X4993Y4435D01*
X5017Y4432D01*
X5040Y4435D01*
X5040Y4435D01*
X5048D01*
X5088Y4396D01*
X5100Y4387D01*
X5115Y4385D01*
X5134D01*
Y4379D01*
X5134D01*
Y4253D01*
X5122Y4248D01*
X5047Y4323D01*
X5033Y4333D01*
X5017Y4336D01*
X5000Y4333D01*
X4986Y4323D01*
X4976Y4309D01*
X4973Y4293D01*
X4976Y4276D01*
X4986Y4262D01*
X5089Y4158D01*
X5103Y4149D01*
X5103Y4149D01*
X5103Y4149D01*
D01*
X5103Y4149D01*
X5103Y4149D01*
X5120Y4146D01*
X5332D01*
X5349Y4149D01*
X5363Y4158D01*
X5363Y4158D01*
X5363Y4158D01*
X5422Y4218D01*
X5431Y4232D01*
X5435Y4248D01*
X5431Y4265D01*
X5430Y4268D01*
Y4274D01*
X5427Y4289D01*
X5418Y4301D01*
X5406Y4310D01*
X5391Y4312D01*
X5377Y4310D01*
X5364Y4301D01*
X5356Y4289D01*
X5353Y4274D01*
Y4271D01*
X5317Y4236D01*
X5306Y4241D01*
Y4299D01*
X5340Y4333D01*
X5468D01*
X5526Y4275D01*
Y4189D01*
X5636D01*
Y4359D01*
X5550D01*
X5511Y4399D01*
X5500Y4406D01*
X5499Y4418D01*
X5513Y4433D01*
X5522Y4445D01*
X5524Y4455D01*
X5636D01*
Y4496D01*
X5667D01*
Y4435D01*
X5778D01*
X5870Y4343D01*
Y4253D01*
X5859Y4248D01*
X5784Y4323D01*
X5770Y4333D01*
X5753Y4336D01*
X5737Y4333D01*
X5722Y4323D01*
X5713Y4309D01*
X5710Y4293D01*
X5713Y4276D01*
X5722Y4262D01*
X5826Y4158D01*
X5840Y4149D01*
X5857Y4146D01*
X6056D01*
X6073Y4149D01*
X6087Y4158D01*
X6087Y4158D01*
X6087Y4158D01*
X6190Y4262D01*
X6200Y4276D01*
X6203Y4293D01*
X6200Y4309D01*
X6190Y4323D01*
X6176Y4333D01*
X6160Y4336D01*
X6143Y4333D01*
X6129Y4323D01*
X6054Y4248D01*
X6042Y4253D01*
Y4379D01*
X5957D01*
X5912Y4424D01*
X5917Y4435D01*
X6042D01*
Y4478D01*
X6074D01*
Y4435D01*
X6136D01*
X6136Y4435D01*
X6160Y4432D01*
X6183Y4435D01*
X6183Y4435D01*
X6245D01*
Y4497D01*
X6246Y4498D01*
X6249Y4521D01*
X6246Y4544D01*
X6245Y4545D01*
Y4607D01*
X6183D01*
X6183Y4607D01*
X6160Y4610D01*
X6136Y4607D01*
X6136Y4607D01*
X6074D01*
Y4565D01*
X6042D01*
Y4607D01*
X5870D01*
Y4482D01*
X5859Y4477D01*
X5839Y4497D01*
Y4607D01*
X5667D01*
Y4583D01*
X5636D01*
Y4625D01*
D02*
G37*
G36*
X8867Y4810D02*
X8824Y4806D01*
X8782Y4796D01*
X8742Y4779D01*
X8705Y4757D01*
X8672Y4729D01*
X8644Y4696D01*
X8621Y4659D01*
X8605Y4619D01*
X8594Y4577D01*
X8591Y4534D01*
X8594Y4491D01*
X8605Y4449D01*
X8621Y4409D01*
X8644Y4372D01*
X8672Y4339D01*
X8705Y4311D01*
X8742Y4288D01*
X8782Y4272D01*
X8824Y4262D01*
X8867Y4258D01*
X8910Y4262D01*
X8952Y4272D01*
X8992Y4288D01*
X9029Y4311D01*
X9062Y4339D01*
X9090Y4372D01*
X9112Y4409D01*
X9129Y4449D01*
X9139Y4491D01*
X9142Y4534D01*
X9139Y4577D01*
X9129Y4619D01*
X9112Y4659D01*
X9090Y4696D01*
X9062Y4729D01*
X9029Y4757D01*
X8992Y4779D01*
X8952Y4796D01*
X8910Y4806D01*
X8867Y4810D01*
D02*
G37*
G36*
X9009Y5470D02*
X8981Y5467D01*
X8956Y5456D01*
X8935Y5440D01*
X8918Y5418D01*
X8907Y5393D01*
X8904Y5366D01*
X8907Y5339D01*
X8918Y5313D01*
X8935Y5292D01*
X8956Y5275D01*
X8981Y5265D01*
X9009Y5261D01*
X9036Y5265D01*
X9061Y5275D01*
X9083Y5292D01*
X9099Y5313D01*
X9110Y5339D01*
X9113Y5366D01*
X9110Y5393D01*
X9099Y5418D01*
X9083Y5440D01*
X9061Y5456D01*
X9036Y5467D01*
X9009Y5470D01*
D02*
G37*
G36*
X8230Y4991D02*
X8026D01*
X8012Y4988D01*
X7999Y4980D01*
X7993Y4970D01*
X7836D01*
X7821Y4967D01*
X7809Y4959D01*
X7801Y4947D01*
X7798Y4932D01*
X7800Y4921D01*
X7793Y4910D01*
X7777Y4907D01*
X7763Y4898D01*
X7753Y4884D01*
X7750Y4867D01*
X7753Y4851D01*
X7763Y4836D01*
Y4833D01*
X7753Y4819D01*
X7750Y4802D01*
X7753Y4786D01*
X7754Y4785D01*
X7751Y4780D01*
X7751D01*
X7751Y4780D01*
Y4695D01*
X7921D01*
Y4764D01*
X7933D01*
X7940Y4756D01*
Y4638D01*
X8112D01*
Y4686D01*
X8144D01*
Y4638D01*
X8206D01*
X8206Y4638D01*
X8230Y4635D01*
X8253Y4638D01*
X8253Y4638D01*
X8316D01*
Y4701D01*
X8316Y4701D01*
X8319Y4724D01*
X8316Y4748D01*
X8316Y4748D01*
Y4810D01*
X8253D01*
X8253Y4811D01*
X8230Y4814D01*
X8206Y4811D01*
X8206Y4810D01*
X8144D01*
Y4763D01*
X8112D01*
Y4810D01*
X7995D01*
X7976Y4829D01*
X7963Y4837D01*
X7949Y4840D01*
X7924D01*
X7918Y4851D01*
X7922Y4867D01*
X7918Y4884D01*
X7924Y4894D01*
X8006D01*
X8020Y4897D01*
X8033Y4905D01*
X8039Y4915D01*
X8230D01*
X8244Y4918D01*
X8257Y4926D01*
X8265Y4938D01*
X8268Y4953D01*
X8265Y4968D01*
X8257Y4980D01*
X8244Y4988D01*
X8230Y4991D01*
D02*
G37*
G36*
X9009Y6025D02*
X8981Y6021D01*
X8956Y6011D01*
X8935Y5994D01*
X8918Y5973D01*
X8907Y5947D01*
X8904Y5920D01*
X8907Y5893D01*
X8918Y5868D01*
X8935Y5846D01*
X8956Y5830D01*
X8981Y5819D01*
X9009Y5816D01*
X9036Y5819D01*
X9061Y5830D01*
X9083Y5846D01*
X9099Y5868D01*
X9110Y5893D01*
X9113Y5920D01*
X9110Y5947D01*
X9099Y5973D01*
X9083Y5994D01*
X9061Y6011D01*
X9036Y6021D01*
X9009Y6025D01*
D02*
G37*
G36*
X6591Y6642D02*
X6568Y6639D01*
X6547Y6631D01*
X6528Y6616D01*
X6514Y6598D01*
X6505Y6576D01*
X6502Y6553D01*
X6505Y6530D01*
X6514Y6509D01*
X6528Y6490D01*
X6547Y6476D01*
X6568Y6467D01*
X6591Y6464D01*
X6614Y6467D01*
X6636Y6476D01*
X6654Y6490D01*
X6669Y6509D01*
X6678Y6530D01*
X6681Y6553D01*
X6678Y6576D01*
X6669Y6598D01*
X6654Y6616D01*
X6636Y6631D01*
X6614Y6639D01*
X6591Y6642D01*
D02*
G37*
G36*
X4394Y6566D02*
X4371Y6563D01*
X4350Y6554D01*
X4331Y6540D01*
X4317Y6522D01*
X4308Y6500D01*
X4305Y6477D01*
X4308Y6454D01*
X4317Y6432D01*
X4331Y6414D01*
X4350Y6400D01*
X4371Y6391D01*
X4394Y6388D01*
X4417Y6391D01*
X4439Y6400D01*
X4457Y6414D01*
X4472Y6432D01*
X4480Y6454D01*
X4483Y6477D01*
X4480Y6500D01*
X4472Y6522D01*
X4457Y6540D01*
X4439Y6554D01*
X4417Y6563D01*
X4394Y6566D01*
D02*
G37*
G36*
X4735Y7072D02*
X4692Y7069D01*
X4650Y7059D01*
X4610Y7042D01*
X4573Y7020D01*
X4540Y6992D01*
X4512Y6959D01*
X4489Y6922D01*
X4473Y6882D01*
X4463Y6840D01*
X4459Y6797D01*
X4463Y6754D01*
X4473Y6711D01*
X4489Y6671D01*
X4512Y6635D01*
X4540Y6602D01*
X4573Y6574D01*
X4610Y6551D01*
X4650Y6534D01*
X4692Y6524D01*
X4735Y6521D01*
X4778Y6524D01*
X4820Y6534D01*
X4860Y6551D01*
X4897Y6574D01*
X4930Y6602D01*
X4958Y6635D01*
X4981Y6671D01*
X4997Y6711D01*
X5007Y6754D01*
X5011Y6797D01*
X5007Y6840D01*
X4997Y6882D01*
X4981Y6922D01*
X4958Y6959D01*
X4930Y6992D01*
X4897Y7020D01*
X4860Y7042D01*
X4820Y7059D01*
X4778Y7069D01*
X4735Y7072D01*
D02*
G37*
G36*
X7315Y6642D02*
X7292Y6639D01*
X7271Y6631D01*
X7252Y6616D01*
X7238Y6598D01*
X7229Y6576D01*
X7226Y6553D01*
X7229Y6530D01*
X7238Y6509D01*
X7252Y6490D01*
X7271Y6476D01*
X7292Y6467D01*
X7315Y6464D01*
X7338Y6467D01*
X7360Y6476D01*
X7378Y6490D01*
X7393Y6509D01*
X7401Y6530D01*
X7404Y6553D01*
X7401Y6576D01*
X7393Y6598D01*
X7378Y6616D01*
X7360Y6631D01*
X7338Y6639D01*
X7315Y6642D01*
D02*
G37*
G36*
X3912Y6350D02*
X3888Y6347D01*
X3888Y6347D01*
X3826D01*
Y6301D01*
X3784D01*
Y6312D01*
X3582D01*
Y6109D01*
X3784D01*
Y6170D01*
X3899D01*
X3916Y6172D01*
X3916Y6172D01*
X3935Y6175D01*
X3935Y6175D01*
X3998D01*
Y6237D01*
X3998Y6238D01*
X4001Y6261D01*
X3998Y6284D01*
X3998Y6285D01*
Y6347D01*
X3935D01*
X3935Y6347D01*
X3912Y6350D01*
D02*
G37*
G36*
X9009Y6302D02*
X8981Y6299D01*
X8956Y6288D01*
X8935Y6272D01*
X8918Y6250D01*
X8907Y6225D01*
X8904Y6198D01*
X8907Y6171D01*
X8918Y6145D01*
X8935Y6124D01*
X8956Y6107D01*
X8981Y6097D01*
X9009Y6093D01*
X9036Y6097D01*
X9061Y6107D01*
X9083Y6124D01*
X9099Y6145D01*
X9110Y6171D01*
X9113Y6198D01*
X9110Y6225D01*
X9099Y6250D01*
X9083Y6272D01*
X9061Y6288D01*
X9036Y6299D01*
X9009Y6302D01*
D02*
G37*
G36*
X8725Y6165D02*
X8698Y6161D01*
X8673Y6151D01*
X8651Y6134D01*
X8634Y6112D01*
X8624Y6087D01*
X8620Y6060D01*
X8624Y6033D01*
X8634Y6008D01*
X8651Y5986D01*
X8673Y5969D01*
X8698Y5959D01*
X8725Y5955D01*
X8752Y5959D01*
X8777Y5969D01*
X8799Y5986D01*
X8816Y6008D01*
X8826Y6033D01*
X8830Y6060D01*
X8826Y6087D01*
X8816Y6112D01*
X8799Y6134D01*
X8777Y6151D01*
X8752Y6161D01*
X8725Y6165D01*
D02*
G37*
G36*
X8777Y6441D02*
X8673D01*
X8621Y6389D01*
Y6285D01*
X8673Y6234D01*
X8777D01*
X8829Y6285D01*
Y6389D01*
X8777Y6441D01*
D02*
G37*
G36*
X6490Y6287D02*
X6467Y6284D01*
X6445Y6275D01*
X6427Y6261D01*
X6412Y6242D01*
X6403Y6221D01*
X6400Y6198D01*
X6403Y6174D01*
X6412Y6153D01*
X6427Y6134D01*
X6445Y6120D01*
X6467Y6111D01*
X6490Y6108D01*
X6513Y6111D01*
X6534Y6120D01*
X6553Y6134D01*
X6567Y6153D01*
X6576Y6174D01*
X6579Y6198D01*
X6576Y6221D01*
X6567Y6242D01*
X6553Y6261D01*
X6534Y6275D01*
X6513Y6284D01*
X6490Y6287D01*
D02*
G37*
G36*
X5004Y9906D02*
X4998Y9906D01*
X4915D01*
Y9823D01*
X4915Y9817D01*
X4915Y9811D01*
Y9729D01*
X4998D01*
X5004Y9728D01*
X5010Y9729D01*
X5092D01*
Y9811D01*
X5093Y9817D01*
X5092Y9823D01*
Y9906D01*
X5010D01*
X5004Y9906D01*
D02*
G37*
G36*
X4648Y10375D02*
X4616Y10371D01*
X4585Y10358D01*
X4559Y10338D01*
X4539Y10312D01*
X4526Y10282D01*
X4522Y10249D01*
Y10156D01*
X4463D01*
Y9706D01*
X4833D01*
Y10156D01*
X4774D01*
Y10249D01*
X4770Y10282D01*
X4757Y10312D01*
X4737Y10338D01*
X4711Y10358D01*
X4681Y10371D01*
X4648Y10375D01*
D02*
G37*
G36*
X5858Y10056D02*
X5451D01*
X5436Y10053D01*
X5424Y10045D01*
X5416Y10032D01*
X5413Y10018D01*
X5416Y10003D01*
X5424Y9990D01*
X5436Y9982D01*
X5451Y9979D01*
X5858D01*
X5872Y9982D01*
X5885Y9990D01*
X5893Y10003D01*
X5896Y10018D01*
X5893Y10032D01*
X5885Y10045D01*
X5872Y10053D01*
X5858Y10056D01*
D02*
G37*
G36*
X7595Y10046D02*
X7571Y10043D01*
X7550Y10034D01*
X7531Y10020D01*
X7517Y10001D01*
X7508Y9980D01*
X7505Y9957D01*
X7508Y9934D01*
X7517Y9912D01*
X7531Y9894D01*
X7550Y9879D01*
X7571Y9871D01*
X7595Y9868D01*
X7618Y9871D01*
X7639Y9879D01*
X7658Y9894D01*
X7672Y9912D01*
X7681Y9934D01*
X7684Y9957D01*
X7681Y9980D01*
X7672Y10001D01*
X7658Y10020D01*
X7639Y10034D01*
X7618Y10043D01*
X7595Y10046D01*
D02*
G37*
G36*
X3821Y10183D02*
X3571D01*
Y9933D01*
X3648D01*
X3650Y9921D01*
X3633Y9914D01*
X3607Y9894D01*
X3587Y9867D01*
X3574Y9837D01*
X3570Y9804D01*
X3574Y9772D01*
X3587Y9741D01*
X3607Y9715D01*
X3633Y9695D01*
X3663Y9683D01*
X3696Y9678D01*
X3728Y9683D01*
X3759Y9695D01*
X3785Y9715D01*
X3805Y9741D01*
X3817Y9772D01*
X3822Y9804D01*
X3817Y9837D01*
X3805Y9867D01*
X3785Y9894D01*
X3759Y9914D01*
X3741Y9921D01*
X3743Y9933D01*
X3821D01*
Y10183D01*
D02*
G37*
G36*
X9652Y9295D02*
X9619Y9291D01*
X9589Y9279D01*
X9563Y9259D01*
X9543Y9232D01*
X9531Y9205D01*
X9530D01*
Y9205D01*
D01*
D01*
X9530D01*
X9520D01*
D01*
D01*
Y9205D01*
X9519D01*
X9507Y9232D01*
X9487Y9259D01*
X9461Y9279D01*
X9431Y9291D01*
X9398Y9295D01*
X9365Y9291D01*
X9335Y9279D01*
X9309Y9259D01*
X9289Y9232D01*
X9277Y9205D01*
X9276D01*
Y9205D01*
D01*
D01*
X9276D01*
X9266D01*
D01*
D01*
Y9205D01*
X9265D01*
X9253Y9232D01*
X9233Y9259D01*
X9207Y9279D01*
X9177Y9291D01*
X9144Y9295D01*
X9111Y9291D01*
X9081Y9279D01*
X9055Y9259D01*
X9035Y9232D01*
X9023Y9205D01*
X9022D01*
Y9205D01*
D01*
D01*
X9022D01*
X9012D01*
D01*
D01*
Y9205D01*
X9011D01*
X8999Y9232D01*
X8979Y9259D01*
X8953Y9279D01*
X8923Y9291D01*
X8890Y9295D01*
X8857Y9291D01*
X8827Y9279D01*
X8801Y9259D01*
X8781Y9232D01*
X8768Y9202D01*
X8764Y9169D01*
X8768Y9137D01*
X8781Y9106D01*
X8801Y9080D01*
X8827Y9060D01*
X8857Y9048D01*
X8890Y9043D01*
X8923Y9048D01*
X8953Y9060D01*
X8979Y9080D01*
X8999Y9106D01*
X9011Y9134D01*
X9012D01*
Y9134D01*
D01*
D01*
X9012D01*
X9022D01*
D01*
D01*
Y9134D01*
X9023D01*
X9035Y9106D01*
X9055Y9080D01*
X9081Y9060D01*
X9111Y9048D01*
X9144Y9043D01*
X9177Y9048D01*
X9207Y9060D01*
X9233Y9080D01*
X9253Y9106D01*
X9265Y9134D01*
X9266D01*
Y9134D01*
D01*
D01*
X9266D01*
X9276D01*
D01*
D01*
Y9134D01*
X9277D01*
X9289Y9106D01*
X9309Y9080D01*
X9335Y9060D01*
X9365Y9048D01*
X9398Y9043D01*
X9431Y9048D01*
X9461Y9060D01*
X9487Y9080D01*
X9507Y9106D01*
X9519Y9134D01*
X9520D01*
Y9134D01*
D01*
D01*
X9520D01*
X9530D01*
D01*
D01*
Y9134D01*
X9531D01*
X9543Y9106D01*
X9563Y9080D01*
X9589Y9060D01*
X9619Y9048D01*
X9652Y9043D01*
X9685Y9048D01*
X9715Y9060D01*
X9741Y9080D01*
X9761Y9106D01*
X9769Y9124D01*
X9781Y9122D01*
Y9044D01*
X10031D01*
Y9294D01*
X9781D01*
Y9217D01*
X9769Y9215D01*
X9761Y9232D01*
X9741Y9259D01*
X9715Y9279D01*
X9685Y9291D01*
X9652Y9295D01*
D02*
G37*
G36*
X8382D02*
X8349Y9291D01*
X8319Y9279D01*
X8293Y9259D01*
X8273Y9232D01*
X8260Y9202D01*
X8256Y9169D01*
X8260Y9137D01*
X8273Y9106D01*
X8293Y9080D01*
X8319Y9060D01*
X8349Y9048D01*
X8382Y9043D01*
X8415Y9048D01*
X8445Y9060D01*
X8471Y9080D01*
X8491Y9106D01*
X8504Y9137D01*
X8508Y9169D01*
X8504Y9202D01*
X8491Y9232D01*
X8471Y9259D01*
X8445Y9279D01*
X8415Y9291D01*
X8382Y9295D01*
D02*
G37*
G36*
X9897Y9745D02*
X9873Y9742D01*
X9852Y9733D01*
X9833Y9718D01*
X9819Y9700D01*
X9810Y9678D01*
X9807Y9655D01*
X9810Y9632D01*
X9819Y9611D01*
X9833Y9592D01*
X9852Y9578D01*
X9873Y9569D01*
X9897Y9566D01*
X9920Y9569D01*
X9941Y9578D01*
X9960Y9592D01*
X9974Y9611D01*
X9983Y9632D01*
X9986Y9655D01*
X9983Y9678D01*
X9974Y9700D01*
X9960Y9718D01*
X9941Y9733D01*
X9920Y9742D01*
X9897Y9745D01*
D02*
G37*
G36*
X4735Y9572D02*
X4692Y9569D01*
X4650Y9559D01*
X4610Y9542D01*
X4573Y9519D01*
X4540Y9491D01*
X4512Y9458D01*
X4495Y9430D01*
X4482Y9433D01*
X4480Y9447D01*
X4472Y9468D01*
X4457Y9487D01*
X4439Y9501D01*
X4417Y9510D01*
X4394Y9513D01*
X4371Y9510D01*
X4350Y9501D01*
X4331Y9487D01*
X4317Y9468D01*
X4308Y9447D01*
X4305Y9423D01*
X4308Y9400D01*
X4317Y9379D01*
X4331Y9360D01*
X4350Y9346D01*
X4371Y9337D01*
X4394Y9334D01*
X4417Y9337D01*
X4439Y9346D01*
X4455Y9359D01*
X4466Y9352D01*
X4463Y9340D01*
X4459Y9296D01*
X4463Y9253D01*
X4473Y9211D01*
X4489Y9171D01*
X4512Y9134D01*
X4540Y9102D01*
X4573Y9073D01*
X4610Y9051D01*
X4650Y9034D01*
X4692Y9024D01*
X4735Y9021D01*
X4778Y9024D01*
X4820Y9034D01*
X4860Y9051D01*
X4897Y9073D01*
X4930Y9102D01*
X4958Y9134D01*
X4981Y9171D01*
X4997Y9211D01*
X5007Y9253D01*
X5011Y9296D01*
X5007Y9340D01*
X4997Y9382D01*
X4981Y9422D01*
X4958Y9458D01*
X4930Y9491D01*
X4897Y9519D01*
X4860Y9542D01*
X4820Y9559D01*
X4778Y9569D01*
X4735Y9572D01*
D02*
G37*
G36*
X8169Y12227D02*
X7559D01*
X7545Y12225D01*
X7532Y12216D01*
X7524Y12204D01*
X7521Y12189D01*
X7524Y12175D01*
X7532Y12162D01*
X7545Y12154D01*
X7559Y12151D01*
X8169D01*
X8184Y12154D01*
X8196Y12162D01*
X8204Y12175D01*
X8207Y12189D01*
X8204Y12204D01*
X8196Y12216D01*
X8184Y12225D01*
X8169Y12227D01*
D02*
G37*
G36*
X6261Y12313D02*
X6058D01*
X6043Y12310D01*
X6031Y12302D01*
X5932Y12204D01*
X5924Y12191D01*
X5921Y12176D01*
X5924Y12162D01*
X5932Y12149D01*
X5944Y12141D01*
X5959Y12138D01*
X5974Y12141D01*
X5986Y12149D01*
X6065Y12228D01*
X6076Y12223D01*
Y12151D01*
X6042Y12116D01*
X5889D01*
X5874Y12113D01*
X5862Y12105D01*
X5816Y12059D01*
X5645D01*
Y12012D01*
X5632D01*
X5527Y12116D01*
Y12136D01*
X5537Y12145D01*
X5553Y12141D01*
X5569Y12145D01*
X5570Y12145D01*
X5576Y12141D01*
X5591Y12138D01*
X5645D01*
Y12091D01*
X5816D01*
Y12262D01*
X5645D01*
Y12215D01*
X5607D01*
X5596Y12225D01*
Y12270D01*
X5593Y12286D01*
X5583Y12300D01*
X5569Y12310D01*
X5553Y12313D01*
X5536Y12310D01*
X5522Y12300D01*
X5520D01*
X5506Y12310D01*
X5489Y12313D01*
X5473Y12310D01*
X5459Y12300D01*
X5456D01*
X5442Y12310D01*
X5426Y12313D01*
X5409Y12310D01*
X5395Y12300D01*
X5393D01*
X5379Y12310D01*
X5362Y12313D01*
X5346Y12310D01*
X5332Y12300D01*
X5322Y12286D01*
X5319Y12270D01*
Y12185D01*
X5322Y12168D01*
X5332Y12154D01*
X5337Y12151D01*
X5333Y12139D01*
X5007D01*
X4992Y12136D01*
X4980Y12127D01*
X4971Y12115D01*
X4968Y12100D01*
X4971Y12086D01*
X4980Y12073D01*
X4992Y12065D01*
X5007Y12062D01*
X5321D01*
X5519Y11864D01*
Y11833D01*
X5509Y11827D01*
X5492Y11831D01*
X5476Y11827D01*
X5475Y11827D01*
X5465Y11832D01*
X5463Y11847D01*
X5454Y11859D01*
X5415Y11899D01*
X5402Y11907D01*
X5388Y11910D01*
X5296D01*
Y11958D01*
X5124D01*
Y11910D01*
X5093D01*
Y11958D01*
X5030D01*
X5030Y11958D01*
X5007Y11961D01*
X4983Y11958D01*
X4983Y11958D01*
X4921D01*
Y11895D01*
X4920Y11895D01*
X4917Y11872D01*
X4920Y11849D01*
X4921Y11848D01*
Y11800D01*
X4909Y11795D01*
X4904Y11800D01*
X4891Y11808D01*
X4877Y11811D01*
X4877D01*
Y11811D01*
X4877Y11818D01*
X4877Y11820D01*
X4877Y11820D01*
X4877D01*
Y11983D01*
X4829D01*
Y12075D01*
X4826Y12090D01*
X4818Y12102D01*
X4822Y12115D01*
X4822Y12115D01*
X4822Y12115D01*
X4825Y12141D01*
X4822Y12167D01*
X4812Y12192D01*
X4796Y12213D01*
X4775Y12229D01*
X4751Y12239D01*
X4724Y12242D01*
X4698Y12239D01*
X4674Y12229D01*
X4653Y12213D01*
X4637Y12192D01*
X4627Y12167D01*
X4624Y12141D01*
X4627Y12115D01*
X4637Y12091D01*
X4653Y12070D01*
X4674Y12054D01*
X4698Y12044D01*
X4724Y12040D01*
X4743Y12043D01*
X4752Y12034D01*
Y11983D01*
X4705D01*
Y11820D01*
X4705Y11820D01*
X4705D01*
X4705Y11811D01*
X4705Y11811D01*
X4686D01*
X4680Y11810D01*
X4671Y11818D01*
Y11986D01*
X4623D01*
Y12027D01*
X4623Y12027D01*
X4621Y12039D01*
X4620Y12042D01*
X4612Y12054D01*
X4563Y12103D01*
X4568Y12115D01*
X4571Y12141D01*
X4568Y12167D01*
X4558Y12192D01*
X4542Y12213D01*
X4521Y12229D01*
X4497Y12239D01*
X4470Y12242D01*
X4444Y12239D01*
X4420Y12229D01*
X4399Y12213D01*
X4383Y12192D01*
X4373Y12167D01*
X4370Y12141D01*
X4373Y12115D01*
X4383Y12091D01*
X4399Y12070D01*
X4420Y12054D01*
X4444Y12044D01*
X4470Y12040D01*
X4497Y12044D01*
X4508Y12049D01*
X4546Y12011D01*
Y11986D01*
X4499D01*
Y11814D01*
X4658D01*
X4662Y11802D01*
X4659Y11800D01*
X4617Y11757D01*
X4499D01*
Y11585D01*
D01*
Y11585D01*
X4493Y11579D01*
X4026D01*
X4004Y11576D01*
X3983Y11568D01*
X3965Y11554D01*
X3902Y11491D01*
X3888Y11473D01*
X3886Y11467D01*
X3880Y11452D01*
X3877Y11430D01*
Y10554D01*
X3880Y10532D01*
X3888Y10511D01*
X3902Y10493D01*
X3909Y10488D01*
X3914Y10480D01*
X3965Y10430D01*
X3965D01*
X3965Y10430D01*
X3965Y10430D01*
Y10430D01*
X3983Y10416D01*
X4004Y10407D01*
X4026Y10404D01*
X5350D01*
X5372Y10407D01*
X5393Y10416D01*
X5401Y10423D01*
X5413Y10417D01*
Y10332D01*
X5365D01*
Y10160D01*
X5537D01*
Y10208D01*
X5568D01*
Y10160D01*
X5686D01*
X5729Y10117D01*
X5741Y10109D01*
X5756Y10106D01*
X5946D01*
X5961Y10109D01*
X5967Y10113D01*
X5977Y10106D01*
X5975Y10094D01*
X5978Y10077D01*
X5988Y10063D01*
X6002Y10054D01*
X6018Y10050D01*
X6103D01*
X6120Y10054D01*
X6134Y10063D01*
X6143Y10077D01*
X6147Y10094D01*
X6143Y10110D01*
X6134Y10124D01*
Y10127D01*
X6143Y10141D01*
X6147Y10157D01*
X6143Y10174D01*
X6134Y10188D01*
Y10190D01*
X6143Y10204D01*
X6147Y10221D01*
X6143Y10237D01*
X6134Y10251D01*
Y10254D01*
X6143Y10268D01*
X6147Y10284D01*
X6143Y10301D01*
X6134Y10315D01*
X6120Y10324D01*
X6103Y10328D01*
X6018D01*
X6002Y10324D01*
X5999Y10322D01*
X5943D01*
Y10332D01*
X5772D01*
Y10200D01*
X5760Y10195D01*
X5740Y10214D01*
Y10332D01*
X5568D01*
Y10284D01*
X5537D01*
Y10332D01*
X5489D01*
Y10415D01*
X5501Y10421D01*
X5507Y10416D01*
X5528Y10407D01*
X5550Y10404D01*
X7315D01*
X7337Y10407D01*
X7352Y10413D01*
X7358Y10416D01*
X7376Y10430D01*
X7427Y10480D01*
X7440Y10498D01*
X7440Y10498D01*
X7440Y10498D01*
X7449Y10519D01*
X7452Y10541D01*
Y10909D01*
X7449Y10931D01*
X7440Y10952D01*
X7427Y10970D01*
X7409Y10984D01*
X7388Y10992D01*
X7366Y10995D01*
X7360Y11006D01*
X7489Y11135D01*
X7670D01*
X7689Y11116D01*
Y11000D01*
X7678Y10995D01*
X7574Y11099D01*
X7561Y11107D01*
X7547Y11110D01*
X7532Y11107D01*
X7520Y11099D01*
X7511Y11086D01*
X7508Y11072D01*
X7511Y11057D01*
X7520Y11045D01*
X7648Y10916D01*
Y10868D01*
Y10665D01*
Y10656D01*
X7481Y10489D01*
X7473Y10477D01*
X7470Y10462D01*
X7473Y10447D01*
X7481Y10435D01*
X7494Y10427D01*
X7508Y10424D01*
X7523Y10427D01*
X7536Y10435D01*
X7614Y10513D01*
X7626Y10509D01*
Y10486D01*
X7625Y10485D01*
X7622Y10462D01*
X7625Y10439D01*
X7626Y10438D01*
Y10405D01*
X7540Y10319D01*
X7423D01*
Y10147D01*
X7594D01*
Y10265D01*
X7703Y10374D01*
X7712Y10373D01*
X7735Y10376D01*
X7735Y10376D01*
X7798D01*
Y10424D01*
X7829D01*
Y10376D01*
X8001D01*
Y10494D01*
X8020Y10513D01*
X8032Y10509D01*
Y10465D01*
X8204D01*
Y10637D01*
X8185D01*
Y10859D01*
X8226D01*
X8234Y10849D01*
X8234Y10847D01*
X8236Y10833D01*
X8243Y10822D01*
X8236Y10812D01*
X8234Y10797D01*
X8236Y10783D01*
X8243Y10772D01*
X8236Y10762D01*
X8234Y10747D01*
X8236Y10733D01*
X8245Y10720D01*
X8257Y10712D01*
X8272Y10709D01*
X8345D01*
X8350Y10697D01*
X8320Y10667D01*
X8311Y10654D01*
X8308Y10640D01*
Y10551D01*
X8311Y10536D01*
X8320Y10524D01*
X8332Y10516D01*
X8347Y10513D01*
X8361Y10516D01*
X8374Y10524D01*
X8382Y10536D01*
X8385Y10551D01*
Y10624D01*
X8404Y10643D01*
X8416Y10639D01*
Y10565D01*
X8419Y10550D01*
X8427Y10538D01*
X8440Y10530D01*
X8454Y10527D01*
X8469Y10530D01*
X8479Y10537D01*
X8490Y10530D01*
X8504Y10527D01*
X8519Y10530D01*
X8529Y10537D01*
X8540Y10530D01*
X8554Y10527D01*
X8569Y10530D01*
X8579Y10537D01*
X8590Y10530D01*
X8604Y10527D01*
X8619Y10530D01*
X8629Y10537D01*
X8640Y10530D01*
X8654Y10527D01*
X8669Y10530D01*
X8679Y10537D01*
X8690Y10530D01*
X8704Y10527D01*
X8706Y10527D01*
X8716Y10519D01*
Y10490D01*
Y10485D01*
X8637Y10406D01*
X8629Y10394D01*
X8626Y10379D01*
Y10370D01*
X8578D01*
Y10320D01*
X8548D01*
Y10368D01*
X8376D01*
Y10314D01*
X8359Y10313D01*
X8350Y10322D01*
Y10368D01*
X8178D01*
Y10237D01*
X8057Y10116D01*
X7981D01*
Y10032D01*
X7981Y10032D01*
X7978Y10018D01*
X7981Y10003D01*
X7981Y10003D01*
Y9948D01*
X7973Y9945D01*
D01*
X7970Y9944D01*
X7926Y9987D01*
X7929Y10010D01*
Y10030D01*
X7926Y10054D01*
X7925Y10058D01*
Y10116D01*
X7866D01*
X7862Y10118D01*
X7839Y10121D01*
X7815Y10118D01*
X7811Y10116D01*
X7753D01*
Y10058D01*
X7751Y10054D01*
X7748Y10030D01*
Y10010D01*
X7751Y9986D01*
X7753Y9982D01*
Y9944D01*
X7776D01*
X7793Y9931D01*
X7815Y9922D01*
X7839Y9919D01*
X7862Y9922D01*
X7948Y9835D01*
X7963Y9826D01*
X7980Y9822D01*
X9906D01*
X9924Y9826D01*
X9938Y9835D01*
X10037Y9934D01*
X10047Y9949D01*
X10050Y9967D01*
Y10442D01*
X10047Y10460D01*
X10037Y10475D01*
X10033Y10479D01*
X10036Y10500D01*
X10033Y10523D01*
X10033Y10524D01*
Y10586D01*
X9971D01*
X9970Y10586D01*
X9947Y10589D01*
X9924Y10586D01*
X9923Y10586D01*
X9861D01*
Y10524D01*
X9861Y10523D01*
X9858Y10500D01*
X9861Y10477D01*
X9861Y10476D01*
Y10414D01*
X9923D01*
X9924Y10414D01*
X9947Y10411D01*
X9949Y10411D01*
X9959Y10403D01*
Y10363D01*
X9864D01*
X9804Y10423D01*
Y10586D01*
X9757D01*
Y10617D01*
X9804D01*
Y10789D01*
X9757D01*
Y10836D01*
X9852D01*
Y10941D01*
X9950Y11039D01*
X10068D01*
Y11211D01*
X9896D01*
Y11093D01*
X9851Y11048D01*
X9840Y11053D01*
Y11211D01*
X9757D01*
Y11242D01*
X9840D01*
Y11414D01*
X9668D01*
Y11242D01*
X9680D01*
Y11211D01*
X9668D01*
Y11143D01*
X9663Y11140D01*
X9637Y11113D01*
X9624Y11114D01*
X9623Y11116D01*
X9615Y11122D01*
Y11135D01*
X9623Y11142D01*
X9636Y11158D01*
X9644Y11178D01*
X9647Y11199D01*
X9644Y11219D01*
X9636Y11239D01*
X9623Y11256D01*
X9615Y11262D01*
Y11275D01*
X9623Y11281D01*
X9636Y11298D01*
X9644Y11317D01*
X9647Y11338D01*
X9644Y11359D01*
X9636Y11379D01*
X9623Y11395D01*
X9615Y11402D01*
Y11414D01*
X9623Y11421D01*
X9636Y11438D01*
X9643Y11456D01*
X9804D01*
Y11627D01*
X9757D01*
Y11668D01*
X9754Y11683D01*
X9745Y11696D01*
X9728Y11713D01*
Y11831D01*
X9680D01*
Y11862D01*
X9728D01*
Y12034D01*
X9581D01*
X9577Y12046D01*
X9580Y12048D01*
X9623Y12091D01*
X9728D01*
Y12262D01*
X9556D01*
Y12132D01*
X9537Y12113D01*
X9134D01*
X9119Y12110D01*
X9107Y12102D01*
X9052Y12047D01*
X8934D01*
Y11999D01*
X8864D01*
Y12047D01*
X8693D01*
Y11914D01*
X8681Y11909D01*
X8661Y11929D01*
Y12047D01*
X8489D01*
Y11914D01*
X8478Y11909D01*
X8458Y11929D01*
Y12047D01*
X8286D01*
Y11885D01*
X8261D01*
X8255Y11891D01*
Y12047D01*
X8083D01*
Y11999D01*
X8052D01*
Y12047D01*
X7880D01*
Y11999D01*
X7848D01*
Y12047D01*
X7677D01*
Y11999D01*
X7645D01*
Y12047D01*
X7473D01*
Y11999D01*
X7429D01*
Y12047D01*
X7257D01*
Y11999D01*
X7226D01*
Y12072D01*
X7094D01*
X7089Y12084D01*
X7108Y12103D01*
X7226D01*
Y12151D01*
X7257D01*
Y12103D01*
X7429D01*
Y12275D01*
X7257D01*
Y12227D01*
X7226D01*
Y12275D01*
X7054D01*
Y12157D01*
X7009Y12112D01*
X6998Y12117D01*
Y12275D01*
X6826D01*
Y12157D01*
X6801Y12132D01*
X6789Y12137D01*
Y12300D01*
X6704D01*
X6704Y12300D01*
Y12300D01*
X6699Y12297D01*
X6698Y12297D01*
X6681Y12300D01*
X6665Y12297D01*
X6651Y12288D01*
X6647D01*
X6633Y12297D01*
X6617Y12300D01*
X6600Y12297D01*
X6586Y12288D01*
X6576Y12274D01*
X6573Y12258D01*
X6563Y12251D01*
X6551Y12253D01*
X6537Y12250D01*
X6524Y12242D01*
X6498Y12215D01*
X6375D01*
X6288Y12302D01*
X6275Y12310D01*
X6261Y12313D01*
D02*
G37*
G36*
X9426Y12227D02*
X9223D01*
X9208Y12225D01*
X9196Y12216D01*
X9188Y12204D01*
X9185Y12189D01*
X9188Y12175D01*
X9196Y12162D01*
X9208Y12154D01*
X9223Y12151D01*
X9426D01*
X9441Y12154D01*
X9453Y12162D01*
X9462Y12175D01*
X9464Y12189D01*
X9462Y12204D01*
X9453Y12216D01*
X9441Y12225D01*
X9426Y12227D01*
D02*
G37*
G36*
X9020D02*
X8779D01*
X8764Y12225D01*
X8751Y12216D01*
X8743Y12204D01*
X8740Y12189D01*
X8743Y12175D01*
X8751Y12162D01*
X8764Y12154D01*
X8779Y12151D01*
X9020D01*
X9034Y12154D01*
X9047Y12162D01*
X9055Y12175D01*
X9058Y12189D01*
X9055Y12204D01*
X9047Y12216D01*
X9034Y12225D01*
X9020Y12227D01*
D02*
G37*
G36*
X9957Y12262D02*
X9785D01*
Y12091D01*
X9785D01*
X9786Y12089D01*
X9784Y12085D01*
X9781Y12062D01*
X9784Y12039D01*
X9786Y12036D01*
X9785Y12034D01*
X9785D01*
Y11862D01*
X9957D01*
Y12034D01*
X9957D01*
X9955Y12036D01*
X9957Y12039D01*
X9960Y12062D01*
X9957Y12085D01*
X9955Y12089D01*
X9957Y12091D01*
X9957D01*
Y12262D01*
D02*
G37*
G36*
X6704Y10327D02*
X6543D01*
X6529Y10324D01*
X6516Y10316D01*
X6508Y10303D01*
X6505Y10289D01*
X6507Y10277D01*
X6500Y10267D01*
X6484Y10264D01*
X6470Y10254D01*
X6461Y10240D01*
X6457Y10224D01*
X6461Y10207D01*
X6470Y10193D01*
Y10189D01*
X6461Y10175D01*
X6457Y10159D01*
X6461Y10142D01*
X6461Y10142D01*
X6458Y10136D01*
X6458D01*
X6458Y10136D01*
Y10051D01*
X6628D01*
Y10069D01*
X6640Y10073D01*
X6661Y10053D01*
Y9932D01*
X6832D01*
Y9979D01*
X6864D01*
Y9932D01*
X6926D01*
X6927Y9931D01*
X6950Y9928D01*
X6973Y9931D01*
X6973Y9932D01*
X7036D01*
Y9994D01*
X7036Y9994D01*
X7039Y10018D01*
X7036Y10041D01*
X7036Y10041D01*
Y10103D01*
X6973D01*
X6973Y10104D01*
X6950Y10107D01*
X6927Y10104D01*
X6926Y10103D01*
X6864D01*
Y10056D01*
X6832D01*
Y10103D01*
X6718D01*
X6636Y10186D01*
X6623Y10194D01*
X6621Y10200D01*
X6626Y10207D01*
X6629Y10224D01*
X6626Y10240D01*
X6631Y10250D01*
X6688D01*
X6719Y10219D01*
X6719D01*
X6719Y10219D01*
X6719Y10219D01*
Y10219D01*
X6732Y10211D01*
X6746Y10208D01*
X6950D01*
X6964Y10211D01*
X6977Y10219D01*
X6985Y10231D01*
X6988Y10246D01*
X6985Y10261D01*
X6977Y10273D01*
X6964Y10281D01*
X6950Y10284D01*
X6762D01*
X6731Y10316D01*
X6719Y10324D01*
X6704Y10327D01*
D02*
G37*
G36*
X7915Y10272D02*
X7712D01*
X7697Y10269D01*
X7685Y10260D01*
X7676Y10248D01*
X7673Y10233D01*
X7676Y10219D01*
X7685Y10206D01*
X7697Y10198D01*
X7712Y10195D01*
X7915D01*
X7930Y10198D01*
X7942Y10206D01*
X7950Y10219D01*
X7953Y10233D01*
X7950Y10248D01*
X7942Y10260D01*
X7930Y10269D01*
X7915Y10272D01*
D02*
G37*
G36*
X9871Y11783D02*
X9856Y11780D01*
X9844Y11772D01*
X9835Y11759D01*
X9832Y11745D01*
Y11618D01*
X9832Y11618D01*
X9832D01*
X9835Y11603D01*
X9844Y11591D01*
X9920Y11514D01*
X9944Y11490D01*
Y11328D01*
X9947Y11314D01*
X9955Y11301D01*
X9968Y11293D01*
X9982Y11290D01*
X9997Y11293D01*
X10009Y11301D01*
X10018Y11314D01*
X10020Y11328D01*
Y11506D01*
X10018Y11521D01*
X10009Y11533D01*
X9974Y11569D01*
X9909Y11634D01*
Y11745D01*
X9906Y11759D01*
X9898Y11772D01*
X9885Y11780D01*
X9871Y11783D01*
D02*
G37*
G36*
X9947Y10945D02*
X9932Y10942D01*
X9920Y10934D01*
X9912Y10921D01*
X9909Y10907D01*
Y10703D01*
X9912Y10689D01*
X9920Y10676D01*
X9932Y10668D01*
X9947Y10665D01*
X9962Y10668D01*
X9974Y10676D01*
X9982Y10689D01*
X9985Y10703D01*
Y10907D01*
X9982Y10921D01*
X9974Y10934D01*
X9962Y10942D01*
X9947Y10945D01*
D02*
G37*
G36*
X4394Y9195D02*
X4371Y9192D01*
X4350Y9183D01*
X4331Y9169D01*
X4317Y9151D01*
X4308Y9129D01*
X4305Y9106D01*
X4308Y9083D01*
X4317Y9061D01*
X4331Y9043D01*
X4350Y9029D01*
X4371Y9020D01*
X4394Y9017D01*
X4417Y9020D01*
X4439Y9029D01*
X4457Y9043D01*
X4472Y9061D01*
X4480Y9083D01*
X4483Y9106D01*
X4480Y9129D01*
X4472Y9151D01*
X4457Y9169D01*
X4439Y9183D01*
X4417Y9192D01*
X4394Y9195D01*
D02*
G37*
G36*
X4593Y8569D02*
X4566Y8566D01*
X4541Y8555D01*
X4519Y8539D01*
X4503Y8517D01*
X4492Y8492D01*
X4489Y8465D01*
X4492Y8437D01*
X4503Y8412D01*
X4519Y8391D01*
X4541Y8374D01*
X4566Y8363D01*
X4593Y8360D01*
X4620Y8363D01*
X4645Y8374D01*
X4667Y8391D01*
X4684Y8412D01*
X4694Y8437D01*
X4698Y8465D01*
X4694Y8492D01*
X4684Y8517D01*
X4667Y8539D01*
X4645Y8555D01*
X4620Y8566D01*
X4593Y8569D01*
D02*
G37*
G36*
X4877Y8429D02*
X4850Y8426D01*
X4824Y8415D01*
X4803Y8399D01*
X4786Y8377D01*
X4776Y8352D01*
X4772Y8325D01*
X4776Y8298D01*
X4786Y8273D01*
X4803Y8251D01*
X4824Y8234D01*
X4850Y8224D01*
X4877Y8220D01*
X4904Y8224D01*
X4929Y8234D01*
X4951Y8251D01*
X4967Y8273D01*
X4978Y8298D01*
X4981Y8325D01*
X4978Y8352D01*
X4967Y8377D01*
X4951Y8399D01*
X4929Y8415D01*
X4904Y8426D01*
X4877Y8429D01*
D02*
G37*
G36*
X4877Y8707D02*
X4850Y8703D01*
X4824Y8693D01*
X4803Y8676D01*
X4786Y8654D01*
X4776Y8629D01*
X4772Y8602D01*
X4776Y8575D01*
X4786Y8550D01*
X4803Y8528D01*
X4824Y8512D01*
X4850Y8501D01*
X4877Y8497D01*
X4904Y8501D01*
X4929Y8512D01*
X4951Y8528D01*
X4967Y8550D01*
X4978Y8575D01*
X4981Y8602D01*
X4978Y8629D01*
X4967Y8654D01*
X4951Y8676D01*
X4929Y8693D01*
X4904Y8703D01*
X4877Y8707D01*
D02*
G37*
G36*
X7232Y8655D02*
X7042D01*
Y8647D01*
X7038Y8646D01*
X7017Y8637D01*
X6998Y8623D01*
X6984Y8604D01*
X6975Y8583D01*
X6972Y8560D01*
X6975Y8537D01*
X6984Y8515D01*
X6998Y8497D01*
X7017Y8482D01*
X7038Y8474D01*
X7042Y8473D01*
Y8465D01*
X7232D01*
Y8655D01*
D02*
G37*
G36*
X4593Y8292D02*
X4566Y8288D01*
X4541Y8278D01*
X4519Y8261D01*
X4503Y8240D01*
X4492Y8214D01*
X4489Y8187D01*
X4490Y8172D01*
X4478Y8169D01*
X4472Y8185D01*
X4457Y8204D01*
X4439Y8218D01*
X4417Y8227D01*
X4394Y8230D01*
X4371Y8227D01*
X4350Y8218D01*
X4331Y8204D01*
X4317Y8185D01*
X4308Y8164D01*
X4305Y8141D01*
X4308Y8118D01*
X4317Y8096D01*
X4331Y8078D01*
X4350Y8063D01*
X4371Y8054D01*
X4394Y8051D01*
X4417Y8054D01*
X4439Y8063D01*
X4457Y8078D01*
X4472Y8096D01*
X4480Y8118D01*
X4483Y8141D01*
X4482Y8152D01*
X4494Y8155D01*
X4503Y8135D01*
X4519Y8113D01*
X4541Y8097D01*
X4566Y8086D01*
X4593Y8083D01*
X4620Y8086D01*
X4645Y8097D01*
X4667Y8113D01*
X4684Y8135D01*
X4694Y8160D01*
X4698Y8187D01*
X4694Y8214D01*
X4684Y8240D01*
X4667Y8261D01*
X4645Y8278D01*
X4620Y8288D01*
X4593Y8292D01*
D02*
G37*
G36*
X4394Y7989D02*
X4371Y7986D01*
X4350Y7977D01*
X4331Y7963D01*
X4317Y7944D01*
X4308Y7923D01*
X4305Y7899D01*
X4308Y7876D01*
X4317Y7855D01*
X4331Y7836D01*
X4350Y7822D01*
X4371Y7813D01*
X4394Y7810D01*
X4417Y7813D01*
X4439Y7822D01*
X4457Y7836D01*
X4472Y7855D01*
X4480Y7876D01*
X4483Y7899D01*
X4480Y7923D01*
X4472Y7944D01*
X4457Y7963D01*
X4439Y7977D01*
X4417Y7986D01*
X4394Y7989D01*
D02*
G37*
G36*
X3734Y7938D02*
X3711Y7935D01*
X3689Y7926D01*
X3671Y7912D01*
X3656Y7893D01*
X3648Y7872D01*
X3645Y7849D01*
X3648Y7825D01*
X3656Y7804D01*
X3671Y7785D01*
X3689Y7771D01*
X3711Y7762D01*
X3734Y7759D01*
X3757Y7762D01*
X3778Y7771D01*
X3797Y7785D01*
X3811Y7804D01*
X3820Y7825D01*
X3823Y7849D01*
X3820Y7872D01*
X3811Y7893D01*
X3797Y7912D01*
X3778Y7926D01*
X3757Y7935D01*
X3734Y7938D01*
D02*
G37*
G36*
Y8344D02*
X3711Y8341D01*
X3689Y8332D01*
X3671Y8318D01*
X3656Y8300D01*
X3648Y8278D01*
X3645Y8255D01*
X3648Y8232D01*
X3656Y8210D01*
X3671Y8192D01*
X3689Y8178D01*
X3711Y8169D01*
X3734Y8166D01*
X3757Y8169D01*
X3778Y8178D01*
X3797Y8192D01*
X3811Y8210D01*
X3820Y8232D01*
X3823Y8255D01*
X3820Y8278D01*
X3811Y8300D01*
X3797Y8318D01*
X3778Y8332D01*
X3757Y8341D01*
X3734Y8344D01*
D02*
G37*
G36*
X8344Y8281D02*
X8321Y8278D01*
X8299Y8269D01*
X8281Y8255D01*
X8267Y8236D01*
X8258Y8215D01*
X8255Y8192D01*
X8258Y8168D01*
X8267Y8147D01*
X8281Y8128D01*
X8299Y8114D01*
X8321Y8105D01*
X8344Y8102D01*
X8367Y8105D01*
X8389Y8114D01*
X8407Y8128D01*
X8421Y8147D01*
X8430Y8168D01*
X8433Y8192D01*
X8430Y8215D01*
X8421Y8236D01*
X8407Y8255D01*
X8389Y8269D01*
X8367Y8278D01*
X8344Y8281D01*
D02*
G37*
G36*
X6134Y8840D02*
X6111Y8837D01*
X6089Y8828D01*
X6071Y8813D01*
X6057Y8795D01*
X6048Y8773D01*
X6045Y8750D01*
X6048Y8727D01*
X6057Y8706D01*
X6071Y8687D01*
X6089Y8673D01*
X6111Y8664D01*
X6134Y8661D01*
X6157Y8664D01*
X6179Y8673D01*
X6197Y8687D01*
X6211Y8706D01*
X6220Y8727D01*
X6223Y8750D01*
X6220Y8773D01*
X6211Y8795D01*
X6197Y8813D01*
X6179Y8828D01*
X6157Y8837D01*
X6134Y8840D01*
D02*
G37*
G36*
X7232Y9074D02*
X7042D01*
Y8884D01*
X7166D01*
X7308Y8742D01*
X7305Y8735D01*
X7302Y8712D01*
X7305Y8689D01*
X7314Y8668D01*
X7328Y8649D01*
X7347Y8635D01*
X7368Y8626D01*
X7391Y8623D01*
X7415Y8626D01*
X7436Y8635D01*
X7455Y8649D01*
X7469Y8668D01*
X7478Y8689D01*
X7481Y8712D01*
X7478Y8735D01*
X7469Y8757D01*
X7455Y8775D01*
X7436Y8790D01*
X7415Y8798D01*
X7391Y8801D01*
X7368Y8798D01*
X7362Y8796D01*
X7232Y8925D01*
Y9074D01*
D02*
G37*
G36*
X7772Y8865D02*
X7749Y8862D01*
X7728Y8853D01*
X7709Y8839D01*
X7695Y8820D01*
X7686Y8799D01*
X7683Y8776D01*
X7686Y8753D01*
X7695Y8731D01*
X7709Y8713D01*
X7728Y8698D01*
X7749Y8689D01*
X7772Y8686D01*
X7796Y8689D01*
X7817Y8698D01*
X7836Y8713D01*
X7850Y8731D01*
X7859Y8753D01*
X7862Y8776D01*
X7859Y8799D01*
X7850Y8820D01*
X7836Y8839D01*
X7817Y8853D01*
X7796Y8862D01*
X7772Y8865D01*
D02*
G37*
G36*
X5639Y8992D02*
X5616Y8989D01*
X5594Y8980D01*
X5576Y8966D01*
X5561Y8947D01*
X5553Y8926D01*
X5550Y8903D01*
X5553Y8880D01*
X5561Y8858D01*
X5576Y8840D01*
X5594Y8825D01*
X5616Y8816D01*
X5639Y8813D01*
X5662Y8816D01*
X5683Y8825D01*
X5702Y8840D01*
X5716Y8858D01*
X5725Y8880D01*
X5728Y8903D01*
X5725Y8926D01*
X5716Y8947D01*
X5702Y8966D01*
X5683Y8980D01*
X5662Y8989D01*
X5639Y8992D01*
D02*
G37*
G36*
X4394Y8954D02*
X4371Y8951D01*
X4350Y8942D01*
X4331Y8928D01*
X4317Y8909D01*
X4308Y8888D01*
X4305Y8865D01*
X4308Y8841D01*
X4317Y8820D01*
X4331Y8801D01*
X4350Y8787D01*
X4371Y8778D01*
X4394Y8775D01*
X4417Y8778D01*
X4439Y8787D01*
X4457Y8801D01*
X4472Y8820D01*
X4480Y8841D01*
X4483Y8865D01*
X4480Y8888D01*
X4472Y8909D01*
X4457Y8928D01*
X4439Y8942D01*
X4417Y8951D01*
X4394Y8954D01*
D02*
G37*
G36*
X7887Y9297D02*
X7872Y9294D01*
X7860Y9285D01*
X7851Y9273D01*
X7848Y9258D01*
X7851Y9244D01*
X7860Y9231D01*
X7912Y9179D01*
Y8560D01*
X7915Y8545D01*
X7923Y8533D01*
X7936Y8524D01*
X7950Y8522D01*
X7965Y8524D01*
X7977Y8533D01*
X7986Y8545D01*
X7988Y8560D01*
Y9195D01*
X7986Y9209D01*
X7977Y9222D01*
X7914Y9285D01*
X7901Y9294D01*
X7887Y9297D01*
D02*
G37*
G36*
X4394Y8700D02*
X4371Y8697D01*
X4350Y8688D01*
X4331Y8674D01*
X4317Y8655D01*
X4308Y8634D01*
X4305Y8611D01*
X4308Y8587D01*
X4317Y8566D01*
X4331Y8547D01*
X4350Y8533D01*
X4371Y8524D01*
X4394Y8521D01*
X4417Y8524D01*
X4439Y8533D01*
X4457Y8547D01*
X4472Y8566D01*
X4480Y8587D01*
X4483Y8611D01*
X4480Y8634D01*
X4472Y8655D01*
X4457Y8674D01*
X4439Y8688D01*
X4417Y8697D01*
X4394Y8700D01*
D02*
G37*
G36*
X4089Y9969D02*
X4057Y9964D01*
X4026Y9952D01*
X4000Y9932D01*
X3886Y9817D01*
X3866Y9791D01*
X3862Y9782D01*
X3853Y9761D01*
X3849Y9728D01*
Y8832D01*
X3823Y8821D01*
X3797Y8801D01*
X3777Y8775D01*
X3764Y8745D01*
X3760Y8712D01*
X3764Y8680D01*
X3777Y8649D01*
X3797Y8623D01*
X3823Y8603D01*
X3854Y8590D01*
X3886Y8586D01*
X4051D01*
X4084Y8590D01*
X4114Y8603D01*
X4140Y8623D01*
X4160Y8649D01*
X4173Y8680D01*
X4177Y8712D01*
X4173Y8745D01*
X4160Y8775D01*
X4140Y8801D01*
X4114Y8821D01*
X4101Y8827D01*
Y9676D01*
X4179Y9753D01*
X4199Y9779D01*
X4211Y9810D01*
X4215Y9843D01*
X4211Y9875D01*
X4199Y9906D01*
X4179Y9932D01*
X4152Y9952D01*
X4122Y9964D01*
X4089Y9969D01*
D02*
G37*
G36*
X5855Y8776D02*
X5832Y8773D01*
X5810Y8764D01*
X5792Y8750D01*
X5777Y8731D01*
X5768Y8710D01*
X5765Y8687D01*
X5768Y8664D01*
X5777Y8642D01*
X5792Y8624D01*
X5810Y8609D01*
X5832Y8601D01*
X5855Y8598D01*
X5878Y8601D01*
X5899Y8609D01*
X5918Y8624D01*
X5932Y8642D01*
X5941Y8664D01*
X5944Y8687D01*
X5941Y8710D01*
X5932Y8731D01*
X5918Y8750D01*
X5899Y8764D01*
X5878Y8773D01*
X5855Y8776D01*
D02*
G37*
%LPD*%
G36*
X9246Y10907D02*
X9234Y10895D01*
X9226Y10883D01*
X9223Y10868D01*
Y10706D01*
X8413D01*
X8407Y10712D01*
Y11544D01*
X9246D01*
Y10907D01*
D02*
G37*
D10*
X9766Y10922D02*
D03*
X9995D02*
D03*
X6363Y11316D02*
D03*
X6591D02*
D03*
X6363Y10655D02*
D03*
X6591D02*
D03*
X9899Y10075D02*
D03*
X9670D02*
D03*
X9896Y10277D02*
D03*
X9668D02*
D03*
X6363Y11087D02*
D03*
X6591D02*
D03*
X7686Y10665D02*
D03*
X7915D02*
D03*
X9982Y11328D02*
D03*
X9754D02*
D03*
X9982Y11125D02*
D03*
X9754D02*
D03*
X6363Y10884D02*
D03*
X6591D02*
D03*
X6912Y11986D02*
D03*
X7140D02*
D03*
X3962Y5182D02*
D03*
X4191D02*
D03*
X3962Y5588D02*
D03*
X4191D02*
D03*
X6350D02*
D03*
X6579D02*
D03*
X6160Y5169D02*
D03*
X5931D02*
D03*
X5486Y4724D02*
D03*
X5715D02*
D03*
X3645Y4737D02*
D03*
X3874D02*
D03*
X5385Y5194D02*
D03*
X5156D02*
D03*
X7074Y5626D02*
D03*
X7303D02*
D03*
X7775Y11072D02*
D03*
X7547D02*
D03*
X8118Y10551D02*
D03*
X8347D02*
D03*
X9718Y10703D02*
D03*
X9947D02*
D03*
X7775Y11326D02*
D03*
X7547D02*
D03*
X7686Y10868D02*
D03*
X7915D02*
D03*
X5959Y12176D02*
D03*
X5731D02*
D03*
X6391D02*
D03*
X6162D02*
D03*
X9718Y11542D02*
D03*
X9947D02*
D03*
X9642Y11745D02*
D03*
X9871D02*
D03*
X6912Y12189D02*
D03*
X7140D02*
D03*
X6912Y11757D02*
D03*
X7140D02*
D03*
X7585D02*
D03*
X7356D02*
D03*
X3962Y5385D02*
D03*
X4191D02*
D03*
X5931Y5372D02*
D03*
X6160D02*
D03*
X5931Y5575D02*
D03*
X6160D02*
D03*
X5486Y4940D02*
D03*
X5715D02*
D03*
X7493Y5144D02*
D03*
X7722D02*
D03*
X6883Y6033D02*
D03*
X6655D02*
D03*
X6883Y5829D02*
D03*
X6655D02*
D03*
X9642Y12176D02*
D03*
X9871D02*
D03*
Y11948D02*
D03*
X9642D02*
D03*
X8067Y10030D02*
D03*
X7839D02*
D03*
X9947Y10500D02*
D03*
X9718D02*
D03*
X8242Y6058D02*
D03*
X8014D02*
D03*
X4140Y6261D02*
D03*
X3912D02*
D03*
D11*
X3747Y12217D02*
D03*
Y11989D02*
D03*
X5451Y10678D02*
D03*
Y10907D02*
D03*
X8026Y5423D02*
D03*
Y5194D02*
D03*
X5654Y10018D02*
D03*
Y10246D02*
D03*
X5451Y10018D02*
D03*
Y10246D02*
D03*
X5858D02*
D03*
Y10018D02*
D03*
X6746Y10246D02*
D03*
Y10018D02*
D03*
X6950D02*
D03*
Y10246D02*
D03*
X7978Y11097D02*
D03*
Y11326D02*
D03*
X5959Y11084D02*
D03*
Y11313D02*
D03*
X8871Y10053D02*
D03*
Y10282D02*
D03*
X9071Y10056D02*
D03*
Y10284D02*
D03*
X7191Y10653D02*
D03*
Y10881D02*
D03*
X6785Y11084D02*
D03*
Y11313D02*
D03*
X9274Y10056D02*
D03*
Y10284D02*
D03*
X9477Y10056D02*
D03*
Y10284D02*
D03*
X7191Y11313D02*
D03*
Y11084D02*
D03*
X4585Y11671D02*
D03*
Y11900D02*
D03*
X4791Y11897D02*
D03*
Y11668D02*
D03*
X5731Y11973D02*
D03*
Y11745D02*
D03*
X7343Y12189D02*
D03*
Y11961D02*
D03*
X5959Y10881D02*
D03*
Y10653D02*
D03*
X5956Y4293D02*
D03*
Y4521D02*
D03*
X4597Y4293D02*
D03*
Y4521D02*
D03*
X6785Y10881D02*
D03*
Y10653D02*
D03*
X6363Y5385D02*
D03*
Y5156D02*
D03*
X4267Y4724D02*
D03*
Y4953D02*
D03*
X4470D02*
D03*
Y4724D02*
D03*
X3912Y5829D02*
D03*
Y6058D02*
D03*
X5283Y4953D02*
D03*
Y4724D02*
D03*
X4750Y5829D02*
D03*
Y6058D02*
D03*
X7074Y5436D02*
D03*
Y5207D02*
D03*
X6756Y4724D02*
D03*
Y4953D02*
D03*
X8664Y10284D02*
D03*
Y10056D02*
D03*
X8462Y10282D02*
D03*
Y10053D02*
D03*
X8264Y10282D02*
D03*
Y10053D02*
D03*
X6160Y11316D02*
D03*
Y11087D02*
D03*
X6988Y11084D02*
D03*
Y11313D02*
D03*
X7915Y10233D02*
D03*
Y10462D02*
D03*
X7712Y10233D02*
D03*
Y10462D02*
D03*
X7508D02*
D03*
Y10233D02*
D03*
X8062Y11760D02*
D03*
Y11531D02*
D03*
X7864Y11757D02*
D03*
Y11529D02*
D03*
X6378Y11745D02*
D03*
Y11973D02*
D03*
X6175Y11745D02*
D03*
Y11973D02*
D03*
X5959Y11745D02*
D03*
Y11973D02*
D03*
X5210Y12100D02*
D03*
Y11872D02*
D03*
X5007D02*
D03*
Y12100D02*
D03*
X5451Y11338D02*
D03*
Y11110D02*
D03*
X8169Y12189D02*
D03*
Y11961D02*
D03*
X6162Y10653D02*
D03*
Y10881D02*
D03*
X8575Y12189D02*
D03*
Y11961D02*
D03*
X8372Y12189D02*
D03*
Y11961D02*
D03*
X7966Y12189D02*
D03*
Y11961D02*
D03*
X7762Y12189D02*
D03*
Y11961D02*
D03*
X7559Y12189D02*
D03*
Y11961D02*
D03*
X6160Y4521D02*
D03*
Y4293D02*
D03*
X4801Y4521D02*
D03*
Y4293D02*
D03*
X5753D02*
D03*
Y4521D02*
D03*
X5017Y4293D02*
D03*
Y4521D02*
D03*
X4394Y4293D02*
D03*
Y4521D02*
D03*
X3658Y4293D02*
D03*
Y4521D02*
D03*
X6988Y10881D02*
D03*
Y10653D02*
D03*
X9220Y11961D02*
D03*
Y12189D02*
D03*
X9423Y11961D02*
D03*
Y12189D02*
D03*
X8779D02*
D03*
Y11961D02*
D03*
X9020Y12189D02*
D03*
Y11961D02*
D03*
X5220Y4521D02*
D03*
Y4293D02*
D03*
X3861Y4521D02*
D03*
Y4293D02*
D03*
X6566Y5385D02*
D03*
Y5156D02*
D03*
X4064Y4953D02*
D03*
Y4724D02*
D03*
X4521Y5829D02*
D03*
Y6058D02*
D03*
X4318Y5829D02*
D03*
Y6058D02*
D03*
X4115D02*
D03*
Y5829D02*
D03*
X5791Y6058D02*
D03*
Y5829D02*
D03*
X5575Y6058D02*
D03*
Y5829D02*
D03*
X5169Y5397D02*
D03*
Y5626D02*
D03*
Y6058D02*
D03*
Y5829D02*
D03*
X4877Y4724D02*
D03*
Y4953D02*
D03*
X4674Y4724D02*
D03*
Y4953D02*
D03*
X4953Y6058D02*
D03*
Y5829D02*
D03*
X5080Y4953D02*
D03*
Y4724D02*
D03*
X5372Y5397D02*
D03*
Y5626D02*
D03*
X6147Y4953D02*
D03*
Y4724D02*
D03*
X5931Y4722D02*
D03*
Y4950D02*
D03*
X7290Y5385D02*
D03*
Y5156D02*
D03*
Y5829D02*
D03*
Y6058D02*
D03*
X7087Y5829D02*
D03*
Y6058D02*
D03*
X6350Y4724D02*
D03*
Y4953D02*
D03*
X6553Y4724D02*
D03*
Y4953D02*
D03*
X7163Y4724D02*
D03*
Y4953D02*
D03*
X6960Y4724D02*
D03*
Y4953D02*
D03*
X8026D02*
D03*
Y4724D02*
D03*
X8230D02*
D03*
Y4953D02*
D03*
X8026Y5855D02*
D03*
Y5626D02*
D03*
X8230Y5855D02*
D03*
Y5626D02*
D03*
Y5423D02*
D03*
Y5194D02*
D03*
X5372Y5829D02*
D03*
Y6058D02*
D03*
D12*
X4648Y9931D02*
D03*
X4089D02*
D03*
D13*
X8141Y7290D02*
D03*
X8357D02*
D03*
X8141Y7049D02*
D03*
X8357D02*
D03*
X5258Y6820D02*
D03*
X5474D02*
D03*
X5258Y6582D02*
D03*
X5473D02*
D03*
D14*
X7950Y8560D02*
D03*
X7137D02*
D03*
X7950Y8979D02*
D03*
X7137D02*
D03*
D15*
X8454Y11680D02*
D03*
X8504D02*
D03*
X8554D02*
D03*
X8604D02*
D03*
X8654D02*
D03*
X8704D02*
D03*
X8754D02*
D03*
X8804D02*
D03*
X8854D02*
D03*
X8904D02*
D03*
X8954D02*
D03*
X9004D02*
D03*
X9054D02*
D03*
X9104D02*
D03*
X9154D02*
D03*
X9204D02*
D03*
Y10565D02*
D03*
X9154D02*
D03*
X9104D02*
D03*
X9054D02*
D03*
X9004D02*
D03*
X8954D02*
D03*
X8904D02*
D03*
X8854D02*
D03*
X8804D02*
D03*
X8754D02*
D03*
X8704D02*
D03*
X8654D02*
D03*
X8604D02*
D03*
X8554D02*
D03*
X8504D02*
D03*
X8454D02*
D03*
D16*
X9387Y11497D02*
D03*
Y11447D02*
D03*
Y11397D02*
D03*
Y11347D02*
D03*
Y11297D02*
D03*
Y11247D02*
D03*
Y11197D02*
D03*
Y11147D02*
D03*
Y11097D02*
D03*
Y11047D02*
D03*
Y10997D02*
D03*
Y10947D02*
D03*
Y10897D02*
D03*
Y10847D02*
D03*
Y10797D02*
D03*
Y10747D02*
D03*
X8272D02*
D03*
Y10797D02*
D03*
Y10847D02*
D03*
Y10897D02*
D03*
Y10947D02*
D03*
Y10997D02*
D03*
Y11047D02*
D03*
Y11097D02*
D03*
Y11147D02*
D03*
Y11197D02*
D03*
Y11247D02*
D03*
Y11297D02*
D03*
Y11347D02*
D03*
Y11397D02*
D03*
Y11447D02*
D03*
Y11497D02*
D03*
D17*
X6543Y10289D02*
D03*
Y10224D02*
D03*
Y10159D02*
D03*
X6061Y10284D02*
D03*
Y10157D02*
D03*
Y10094D02*
D03*
Y10221D02*
D03*
X6452Y6037D02*
D03*
Y5972D02*
D03*
Y5907D02*
D03*
X5969Y6033D02*
D03*
Y5906D02*
D03*
Y5842D02*
D03*
Y5969D02*
D03*
X7836Y4932D02*
D03*
Y4867D02*
D03*
Y4802D02*
D03*
X7353Y4928D02*
D03*
Y4801D02*
D03*
Y4737D02*
D03*
Y4864D02*
D03*
D18*
X6543Y10094D02*
D03*
X6452Y5842D02*
D03*
X7836Y4737D02*
D03*
D19*
X6551Y12215D02*
D03*
X6617D02*
D03*
X6681D02*
D03*
X6556Y11732D02*
D03*
X6683D02*
D03*
X6746D02*
D03*
X6619D02*
D03*
X5799Y10741D02*
D03*
X5733D02*
D03*
X5669D02*
D03*
X5794Y11224D02*
D03*
X5667D02*
D03*
X5603D02*
D03*
X5731D02*
D03*
X5557Y11745D02*
D03*
X5492D02*
D03*
X5427D02*
D03*
X5553Y12227D02*
D03*
X5426D02*
D03*
X5362D02*
D03*
X5489D02*
D03*
X5770Y5144D02*
D03*
X5705D02*
D03*
X5640D02*
D03*
X5766Y5626D02*
D03*
X5639D02*
D03*
X5575D02*
D03*
X5702D02*
D03*
X6845D02*
D03*
X6718D02*
D03*
X6782D02*
D03*
X6909D02*
D03*
X6783Y5144D02*
D03*
X6848D02*
D03*
X6913D02*
D03*
D20*
X6746Y12215D02*
D03*
X5603Y10741D02*
D03*
X5362Y11745D02*
D03*
X5575Y5144D02*
D03*
X6718D02*
D03*
D21*
X5581Y4540D02*
D03*
X5486D02*
D03*
X5391D02*
D03*
Y4274D02*
D03*
X5581D02*
D03*
X4222Y4540D02*
D03*
X4128D02*
D03*
X4033D02*
D03*
Y4274D02*
D03*
X4222D02*
D03*
D22*
X4953Y5448D02*
D03*
X4384Y5194D02*
D03*
Y5575D02*
D03*
X4953D02*
D03*
X4384Y5448D02*
D03*
X4953Y5321D02*
D03*
X4384D02*
D03*
D23*
X4953Y5194D02*
D03*
D24*
X7436Y5384D02*
D03*
X7499D02*
D03*
X7563D02*
D03*
X7626D02*
D03*
X7690D02*
D03*
X7753D02*
D03*
X7817D02*
D03*
X7880D02*
D03*
X7436Y5944D02*
D03*
X7499D02*
D03*
X7563D02*
D03*
X7626D02*
D03*
X7690D02*
D03*
X7753D02*
D03*
X7817D02*
D03*
X7880D02*
D03*
D25*
X5004Y9817D02*
D03*
Y10033D02*
D03*
D26*
X3683Y5867D02*
D03*
Y6210D02*
D03*
D27*
X5131Y10744D02*
X5182Y10795D01*
X4991Y10744D02*
X5131D01*
X4915Y10820D02*
X4991Y10744D01*
X5194Y11049D02*
Y11189D01*
X5045Y10899D02*
X5194Y11049D01*
X5045Y10810D02*
Y10899D01*
X5182Y10795D02*
X5527D01*
X5242Y11008D02*
X5604D01*
X5045Y10810D02*
X5242Y11008D01*
X5147Y11236D02*
X5194Y11189D01*
X5007Y11236D02*
X5147D01*
X4965Y11278D02*
X5007Y11236D01*
X4965Y11278D02*
Y11685D01*
X4892Y11668D02*
X4915Y11646D01*
X4791Y11668D02*
X4892D01*
X4915Y10820D02*
Y11646D01*
X8486Y10779D02*
X8504D01*
X8468Y10797D02*
X8486Y10779D01*
X8454Y10729D02*
X8504D01*
X8454D02*
Y10747D01*
Y10565D02*
Y10729D01*
X8504Y10779D02*
X8664D01*
X8502Y10795D02*
X8639Y10932D01*
X8504Y10729D02*
X8554D01*
X8504Y10779D02*
Y10793D01*
Y10729D02*
Y10779D01*
Y10565D02*
Y10729D01*
X8554D02*
X8639D01*
X8554Y10565D02*
Y10729D01*
X5740Y6706D02*
X5766Y6680D01*
X5702Y6744D02*
X5740Y6706D01*
X5699Y6582D02*
X5740Y6540D01*
X5473Y6582D02*
X5699D01*
X5474Y6820D02*
X5550Y6744D01*
X8446Y6934D02*
Y6985D01*
X7988Y7188D02*
Y7317D01*
X8062Y7391D01*
X8256D01*
X8357Y7290D01*
Y7049D02*
X8446Y6960D01*
Y6934D02*
Y6960D01*
X9718Y10703D02*
Y10874D01*
X9766Y10922D01*
X9779D01*
X9982Y11125D01*
X9947Y11542D02*
X9982Y11506D01*
Y11328D02*
Y11506D01*
X9504Y10997D02*
X9566Y11059D01*
X9387Y10997D02*
X9504D01*
X9507Y10847D02*
X9528Y10827D01*
X9387Y10847D02*
X9507D01*
X9528Y10827D02*
X9604D01*
X9486Y10797D02*
X9507Y10777D01*
X9387Y10797D02*
X9486D01*
X9507Y10777D02*
X9645D01*
X9604Y10827D02*
X9658Y10881D01*
Y11081D02*
X9690Y11112D01*
X9658Y10881D02*
Y11081D01*
X9947Y10703D02*
Y10907D01*
X9718Y10500D02*
Y10703D01*
Y11122D02*
Y11326D01*
X9812Y9927D02*
X9899Y10013D01*
X9431Y9927D02*
X9812D01*
X9302Y10056D02*
X9431Y9927D01*
X9761Y9977D02*
X9792Y10008D01*
X9594Y9977D02*
X9761D01*
X9515Y10056D02*
X9594Y9977D01*
X9792Y10173D02*
X9896Y10277D01*
X9792Y10008D02*
Y10173D01*
X9477Y10056D02*
X9515D01*
X9899Y10013D02*
Y10075D01*
X9175Y9957D02*
X9274Y10056D01*
X8967Y9957D02*
X9175D01*
X8871Y10053D02*
X8967Y9957D01*
X9274Y10056D02*
X9302D01*
X9718Y10455D02*
X9896Y10277D01*
X9718Y10455D02*
Y10500D01*
X9388Y10589D02*
X9677Y10300D01*
X9388Y10589D02*
Y10746D01*
X9668Y10078D02*
Y10277D01*
X8267Y10056D02*
X8664D01*
X8869D02*
X8871Y10053D01*
X8664Y10056D02*
X8869D01*
X9030Y10173D02*
X9436D01*
X8801D02*
X9030D01*
X9071Y10132D01*
Y10056D02*
Y10132D01*
X9436Y10173D02*
X9477Y10132D01*
Y10056D02*
Y10132D01*
X8766Y10208D02*
X8801Y10173D01*
X4191Y5182D02*
Y5188D01*
X6477Y10770D02*
X6591Y10655D01*
X6076Y10770D02*
X6477D01*
X5959Y10653D02*
X6076Y10770D01*
X6162Y10653D02*
X6360D01*
X5972Y10881D02*
X6162D01*
X6360D01*
X6594D02*
X6785D01*
X6591Y10655D02*
X6594Y10653D01*
X6785D01*
X5849Y11207D02*
X5965Y11091D01*
X6160Y11084D02*
X6175D01*
X5962Y11087D02*
X6160D01*
Y11316D02*
X6363D01*
X6178Y11087D02*
X6363D01*
X5896Y11313D02*
X5959D01*
X6477Y11201D02*
X6591Y11316D01*
X6083Y11201D02*
X6477D01*
X5972Y11313D02*
X6083Y11201D01*
X5959Y11313D02*
X5972D01*
X6594D02*
X6785D01*
X6594Y11084D02*
X6785D01*
X5527Y10795D02*
X5570Y10839D01*
X5669Y10686D02*
Y10807D01*
X4877Y11773D02*
X4965Y11685D01*
X4791Y11897D02*
Y12075D01*
X4724Y12141D02*
X4791Y12075D01*
X4585Y11671D02*
X4686Y11773D01*
X4877D01*
X7893Y5747D02*
X7912Y5728D01*
X7518Y5664D02*
X7577D01*
X3645Y4780D02*
Y4802D01*
Y4737D02*
Y4780D01*
X4191Y5385D02*
X4254Y5448D01*
X9538Y10947D02*
X9566Y10919D01*
X9387Y10947D02*
X9538D01*
X9387Y11197D02*
X9565D01*
X9525Y11297D02*
X9566Y11338D01*
X9387Y11297D02*
X9525D01*
X9485Y11397D02*
X9566Y11478D01*
X9387Y11397D02*
X9485D01*
X7417Y4991D02*
X7455Y4953D01*
Y4718D02*
Y4953D01*
X7419Y4682D02*
X7455Y4718D01*
X7205Y4682D02*
X7419D01*
X5735Y4540D02*
X5753Y4521D01*
X5956Y4293D02*
Y4318D01*
X4384Y4293D02*
X4394D01*
X5017Y4521D02*
X5115Y4423D01*
X5449D01*
X5486Y4460D01*
Y4540D01*
X5484Y4372D02*
X5581Y4274D01*
X5324Y4372D02*
X5484D01*
X5245Y4293D02*
X5324Y4372D01*
X5220Y4293D02*
X5245D01*
X5238Y4540D02*
X5391D01*
X4597Y4293D02*
Y4318D01*
X6026Y5842D02*
X6134Y5950D01*
X5969Y5842D02*
X6026D01*
X6134Y5950D02*
Y6007D01*
X4191Y5182D02*
X4204D01*
X3962Y5194D02*
Y5385D01*
X4953Y5448D02*
X4991D01*
X4826Y5004D02*
X4877Y4953D01*
X4890Y5321D02*
X4953D01*
X4712Y6058D02*
X4750D01*
X5169Y5651D02*
Y5837D01*
Y5651D02*
X5309Y5512D01*
X5163Y5074D02*
X5283Y4953D01*
X5074Y5074D02*
X5163D01*
X4953Y5194D02*
X5074Y5074D01*
X5283Y4724D02*
X5486D01*
Y4940D02*
X5575Y5029D01*
Y5144D01*
X5640Y5015D02*
X5715Y4940D01*
X5640Y5015D02*
Y5144D01*
X5804Y5042D02*
X5829Y5017D01*
X5728Y5042D02*
X5804D01*
X5705Y5064D02*
X5728Y5042D01*
X5933Y4953D02*
Y4983D01*
X5773Y5144D02*
X5933Y4983D01*
X5770Y5144D02*
X5773D01*
X5829Y4823D02*
Y5017D01*
X5156Y5194D02*
X5372Y5410D01*
X5385Y5194D02*
X5461Y5271D01*
X5690D01*
X5640Y5144D02*
Y5221D01*
X5690Y5271D01*
X5817D01*
X5918Y5169D01*
X5931D01*
X5486Y4724D02*
Y4940D01*
X5715Y4724D02*
Y4940D01*
X6147Y4724D02*
X6350D01*
X5933D02*
X6147D01*
X5705Y5064D02*
Y5144D01*
X5829Y4823D02*
X5931Y4722D01*
X5933Y4724D01*
Y4953D02*
X6147D01*
X5461Y5512D02*
X5575Y5626D01*
X5309Y5512D02*
X5461D01*
X5169Y5837D02*
X5372Y6040D01*
Y6058D01*
X5613Y5515D02*
X5639Y5540D01*
X5509Y5410D02*
X5613Y5515D01*
X5372Y5410D02*
X5509D01*
X5372Y5639D02*
X5461Y5728D01*
X5740D01*
X5613Y5432D02*
Y5515D01*
X5639Y5540D02*
Y5626D01*
X5613Y5432D02*
X5674Y5372D01*
X5766D01*
X5829Y5436D02*
Y5651D01*
X5766Y5372D02*
X5829Y5436D01*
X5728Y5448D02*
X5766Y5486D01*
Y5626D01*
X5702Y5690D02*
X5740Y5728D01*
X5702Y5626D02*
Y5690D01*
X5740Y5728D02*
X6007D01*
X5829Y5651D02*
X5856Y5678D01*
X6030D01*
X6007Y5728D02*
X6248Y5969D01*
X5931Y5372D02*
Y5575D01*
X6160Y5169D02*
Y5372D01*
Y5385D02*
X6363D01*
X6160Y5588D02*
X6350D01*
X7229Y5514D02*
X7586D01*
X7626Y5473D01*
X7606Y5564D02*
X7690Y5481D01*
X7453Y5564D02*
X7606D01*
X7626Y5384D02*
Y5473D01*
X7658Y5733D02*
X7753Y5828D01*
Y5944D01*
X7404Y5613D02*
X7453Y5564D01*
X7404Y5613D02*
Y5715D01*
X7912Y5416D02*
Y5728D01*
X7880Y5384D02*
X7912Y5416D01*
X7305Y5814D02*
X7668D01*
X6899D02*
X7290D01*
X7305D02*
X7404Y5715D01*
X7290Y5829D02*
X7305Y5814D01*
X5575Y5829D02*
X5778D01*
X5372D02*
X5575D01*
X6071Y6109D02*
X6185D01*
X5994Y6033D02*
X6071Y6109D01*
X5969Y6033D02*
X5994D01*
X6185Y6109D02*
X6248Y6045D01*
Y5969D02*
Y6045D01*
X6324Y5972D02*
X6452D01*
X6030Y5678D02*
X6324Y5972D01*
X5778Y5829D02*
X5855Y5906D01*
X5969D01*
X5778Y6058D02*
X5867Y5969D01*
X5969D01*
X6452Y6037D02*
X6523D01*
X6556Y6004D01*
Y5744D02*
Y6004D01*
X6401Y5588D02*
X6556Y5744D01*
X6350Y5588D02*
X6401D01*
X6312Y5867D02*
X6352Y5907D01*
X6452D01*
X6350Y5588D02*
X6363Y5575D01*
Y5385D02*
Y5575D01*
X6566D02*
X6579Y5588D01*
X6566Y5385D02*
Y5575D01*
Y5385D02*
X6668D01*
X6782Y5499D01*
Y5626D01*
X6845Y5436D02*
Y5626D01*
X6566Y5156D02*
X6845Y5436D01*
X6363Y5156D02*
X6566D01*
X7264Y4864D02*
X7353D01*
X7239Y4839D02*
X7264Y4864D01*
X7226Y4928D02*
X7353D01*
X7328Y4991D02*
X7417D01*
X7261Y5058D02*
X7328Y4991D01*
X7048Y5058D02*
X7261D01*
X8026Y4724D02*
X8230D01*
X7949Y4802D02*
X8026Y4724D01*
X7836Y4802D02*
X7949D01*
X8026Y4953D02*
X8230D01*
X7836Y4932D02*
X8006D01*
X7201Y4953D02*
X7226Y4928D01*
X7163Y4724D02*
X7205Y4682D01*
X6962Y5144D02*
X7048Y5058D01*
X6913Y5144D02*
X6962D01*
X7353Y5042D02*
X7795D01*
X7255Y5140D02*
X7353Y5042D01*
X7191Y5140D02*
X7255D01*
X6756Y4724D02*
X6960Y4928D01*
Y4953D01*
X6848Y5045D02*
Y5144D01*
X6756Y4953D02*
X6848Y5045D01*
X6553Y4953D02*
X6756D01*
X7191Y5140D02*
Y5477D01*
X7229Y5514D01*
X8026Y5194D02*
X8230D01*
X7967Y5254D02*
X8026Y5194D01*
X7789Y5254D02*
X7967D01*
X7823Y5070D02*
Y5220D01*
X7795Y5042D02*
X7823Y5070D01*
X7789Y5254D02*
X7823Y5220D01*
X7036Y5207D02*
X7074D01*
X7649Y5254D02*
X7789D01*
X8026Y5423D02*
X8230D01*
Y5626D01*
X8026D02*
X8230D01*
X8026Y5855D02*
X8230D01*
X7970D02*
X8026D01*
X7880Y5944D02*
X7970Y5855D01*
X8230D02*
X8242Y5867D01*
Y6058D01*
X7103Y6074D02*
X7604D01*
X7087Y6058D02*
X7103Y6074D01*
X7604D02*
X7626Y6052D01*
Y5944D02*
Y6052D01*
X7753Y5384D02*
Y5488D01*
X7577Y5664D02*
X7753Y5488D01*
X7817Y5384D02*
Y5569D01*
X7690Y5836D02*
Y5944D01*
X7668Y5814D02*
X7690Y5836D01*
X6883Y5829D02*
X6899Y5814D01*
X6642Y5829D02*
X6718Y5753D01*
X6909Y5626D02*
X7074D01*
X6909Y5486D02*
X6960Y5436D01*
X7074Y5207D02*
X7125D01*
X7191Y5140D01*
X6807Y5245D02*
X7061D01*
X6960Y5436D02*
X7074D01*
X6909Y5486D02*
Y5626D01*
X6783Y5221D02*
X6807Y5245D01*
X6783Y5144D02*
Y5221D01*
X6718Y5626D02*
Y5753D01*
X6655Y5829D02*
Y6033D01*
X6883Y5829D02*
Y6033D01*
X6718Y5144D02*
X6783D01*
X6350Y4953D02*
X6553D01*
X6960D02*
X7074Y4839D01*
X7239D01*
X6350Y4724D02*
X6553D01*
X6960D02*
X7163D01*
X7424Y5372D02*
X7436Y5384D01*
X7290Y5372D02*
X7424D01*
X7493Y5144D02*
X7499Y5150D01*
Y5384D01*
X7689Y5144D02*
X7722D01*
X7562Y5271D02*
X7689Y5144D01*
X7562Y5383D02*
X7563Y5384D01*
X7562Y5271D02*
Y5383D01*
X7626Y5277D02*
Y5384D01*
Y5277D02*
X7649Y5254D01*
X7508Y10233D02*
X7712Y10437D01*
Y10462D01*
X7508D02*
X7686Y10640D01*
Y10665D01*
X8716Y10372D02*
X8774Y10430D01*
X8716Y10336D02*
Y10372D01*
X8664Y10284D02*
X8716Y10336D01*
X8766Y10351D02*
X8795Y10380D01*
X8766Y10208D02*
Y10351D01*
X7712Y10233D02*
X7915D01*
X7801Y10726D02*
X7915Y10840D01*
X7801Y10551D02*
Y10726D01*
X7712Y10462D02*
X7801Y10551D01*
X7915Y10840D02*
Y10868D01*
X7686D02*
Y10932D01*
X7547Y11072D02*
X7686Y10932D01*
Y11173D02*
X7775Y11084D01*
X7674Y11224D02*
X7775Y11326D01*
X7750Y11529D02*
X7864D01*
X7547Y11326D02*
X7750Y11529D01*
X6391Y12176D02*
X6513D01*
X6551Y12215D01*
X9387Y10747D02*
X9388Y10746D01*
X9645Y10777D02*
X9718Y10703D01*
X9290Y10897D02*
X9387D01*
X9261Y10868D02*
X9290Y10897D01*
X9261Y10297D02*
Y10868D01*
X9274Y10284D02*
X9477D01*
X8871Y10282D02*
X9068D01*
X9204Y10431D02*
Y10565D01*
X9071Y10297D02*
X9204Y10431D01*
X8264Y10269D02*
X8462Y10282D01*
X8662D01*
X8664Y10284D01*
X9054Y10446D02*
Y10565D01*
X9004Y10466D02*
Y10565D01*
X8664Y10379D02*
X8754Y10469D01*
X8664Y10322D02*
Y10379D01*
X8804Y10488D02*
Y10565D01*
X8786Y10469D02*
X8804Y10488D01*
X8754Y10469D02*
Y10565D01*
Y10469D02*
X8786D01*
X8774Y10430D02*
X8915D01*
X8954Y10469D02*
Y10565D01*
X8915Y10430D02*
X8954Y10469D01*
X8915Y10430D02*
X8968D01*
X9004Y10466D01*
X8795Y10380D02*
X8989D01*
X8991Y10383D01*
X9080D01*
X9104Y10407D01*
Y10565D01*
X8991Y10383D02*
X9054Y10446D01*
X8904Y10565D02*
X8904Y10565D01*
X8654Y10565D02*
Y10713D01*
X8639Y10729D02*
X8654Y10713D01*
X8704Y10565D02*
Y10739D01*
X8664Y10779D02*
X8704Y10739D01*
X8436Y10729D02*
Y10741D01*
X8272Y10847D02*
X8418D01*
X8017Y10018D02*
X8025D01*
Y10030D02*
X8264Y10269D01*
X9207Y11447D02*
X9387D01*
X9204Y11680D02*
X9244Y11719D01*
X9375D01*
X9004Y11680D02*
Y11796D01*
X9054Y11680D02*
Y11776D01*
X9087Y11808D01*
X9414D01*
X9004Y11796D02*
X9066Y11858D01*
X9223Y11961D02*
X9426D01*
X9154Y11478D02*
Y11680D01*
X8804Y11541D02*
Y11680D01*
Y11541D02*
X8867Y11478D01*
X9134D01*
X9154Y11534D02*
X9172Y11516D01*
X8904Y11680D02*
Y11832D01*
X9121Y11858D02*
X9204Y11942D01*
X9066Y11858D02*
X9121D01*
X9223Y12189D02*
X9426D01*
X9642Y12164D02*
Y12176D01*
X9553Y12075D02*
X9642Y12164D01*
X9134Y12075D02*
X9553D01*
X9020Y11961D02*
X9134Y12075D01*
X8779Y11961D02*
X9020D01*
X8779Y12189D02*
X9020D01*
X8754Y11680D02*
Y11936D01*
X8779Y11961D01*
X8704Y11680D02*
Y11832D01*
X8575Y11961D02*
X8704Y11832D01*
X8554Y11680D02*
Y11778D01*
X8372Y11961D02*
X8554Y11778D01*
X9375Y11497D02*
X9449Y11571D01*
X9689D01*
X9375Y11719D02*
X9477Y11618D01*
X9642D02*
X9689Y11571D01*
X9718Y11542D01*
X9414Y11808D02*
X9604Y11618D01*
X9642D01*
X9477D02*
X9604D01*
X9718Y11542D02*
Y11668D01*
X9642Y11745D02*
X9718Y11668D01*
X9642Y11745D02*
Y11948D01*
X9871Y11618D02*
Y11745D01*
Y11618D02*
X9947Y11542D01*
X8504Y11680D02*
Y11758D01*
X8416Y11846D02*
X8504Y11758D01*
X8169Y11922D02*
X8245Y11846D01*
X8416D01*
X8169D02*
X8207Y11808D01*
X8397D01*
X8454Y11751D01*
Y11680D02*
Y11751D01*
X7559Y11961D02*
X7762D01*
X7966D01*
X8169D01*
Y11922D02*
Y11961D01*
Y11846D02*
Y11922D01*
X7559Y12189D02*
X7762D01*
X7966D01*
X8169D01*
X7864Y11757D02*
X8060D01*
X8272Y11447D02*
X8583D01*
X8272Y11397D02*
X8609D01*
X8683Y11472D01*
X8645Y11510D02*
X8683Y11472D01*
X8779Y11376D01*
X7864Y11529D02*
X8060D01*
X8038Y11347D02*
X8272D01*
X7978Y11326D02*
X8000Y11347D01*
X8272Y11247D02*
X8459D01*
X8609Y11397D01*
X8272Y11097D02*
X8500D01*
X8779Y11376D01*
X7775Y11326D02*
X7978D01*
X8138Y11297D02*
X8272D01*
X8165Y11147D02*
X8272D01*
X7775Y11097D02*
X7978D01*
X7940Y10881D02*
Y10935D01*
Y10947D02*
X7991Y10999D01*
X8117Y11197D02*
X8272D01*
X8055Y10999D02*
X8077Y11021D01*
X8145Y10947D02*
X8272D01*
X7991Y10999D02*
X8055D01*
X8029Y10902D02*
X8127Y11000D01*
X7978Y11138D02*
X8138Y11297D01*
X8127Y11000D02*
Y11110D01*
X8165Y11147D01*
X8077Y11021D02*
Y11157D01*
X8117Y11197D01*
X7978Y11097D02*
X8027Y11145D01*
X7978Y11097D02*
Y11138D01*
X8080Y10882D02*
X8145Y10947D01*
X8166Y10897D02*
X8272D01*
X8147Y10878D02*
X8166Y10897D01*
X8147Y10567D02*
Y10878D01*
X8272Y11497D02*
Y11550D01*
X8062Y11760D02*
X8272Y11550D01*
X8604Y10565D02*
Y10744D01*
X8080Y10783D02*
Y10882D01*
X8013Y10560D02*
Y10716D01*
X8080Y10783D01*
X7915Y10665D02*
Y10676D01*
Y10462D02*
X8013Y10560D01*
X7712Y10462D02*
X7915D01*
X7686Y10665D02*
Y10868D01*
X7915Y10688D02*
X8029Y10802D01*
Y10902D01*
X6543Y10289D02*
X6704D01*
X6746Y10246D01*
X6950D01*
X6746Y10018D02*
Y10021D01*
Y10018D02*
X6950D01*
X6609Y10159D02*
X6746Y10021D01*
X6543Y10159D02*
X6609D01*
X5908Y10284D02*
X6061D01*
X5858Y10246D02*
X5896Y10284D01*
X6052Y10212D02*
X6061Y10221D01*
X5995Y10212D02*
X6052D01*
X5963Y10180D02*
X5995Y10212D01*
X5963Y10161D02*
Y10180D01*
X5946Y10144D02*
X5963Y10161D01*
X5756Y10144D02*
X5946D01*
X5654Y10246D02*
X5756Y10144D01*
X5451Y10246D02*
X5654D01*
Y10018D02*
X5858D01*
X5451D02*
X5654D01*
X7140Y12189D02*
X7343D01*
Y11961D02*
X7559D01*
X7178D02*
X7343D01*
X7153Y11986D02*
X7178Y11961D01*
X7153Y11757D02*
X7356D01*
X7559D02*
X7585D01*
X7458Y11859D02*
X7559Y11757D01*
X7724D02*
X7864D01*
X6886D02*
X6912D01*
X6810Y11834D02*
X6886Y11757D01*
X6683Y11732D02*
Y11808D01*
X6708Y11834D01*
X6810D01*
X6688Y11884D02*
X6831D01*
X6855Y11859D01*
X6924Y11757D02*
X6962D01*
X7064Y11859D01*
X7458D01*
X6855D02*
X6988D01*
X7026Y11897D01*
Y12075D01*
X7140Y12189D01*
X6619Y11732D02*
Y11815D01*
X6688Y11884D01*
X6912Y11986D02*
Y12189D01*
X6681Y12115D02*
Y12215D01*
Y12115D02*
X6708Y12088D01*
X6810D01*
X6912Y12189D01*
X6746Y11732D02*
X6823Y11656D01*
X7051D01*
X7153Y11757D01*
X6617Y12085D02*
Y12215D01*
X6505Y11973D02*
X6617Y12085D01*
X6378Y11973D02*
X6505D01*
X5959Y11745D02*
X6175D01*
X6378D01*
X5731D02*
X5959Y11973D01*
X6175D01*
X6378D01*
X6156Y12176D02*
X6162D01*
X6058Y12078D02*
X6156Y12176D01*
X5889Y12078D02*
X6058D01*
X5784Y11973D02*
X5889Y12078D01*
X5731Y11973D02*
X5784D01*
X6359Y12176D02*
X6391D01*
X6261Y12275D02*
X6359Y12176D01*
X6058Y12275D02*
X6261D01*
X5959Y12176D02*
X6058Y12275D01*
X5591Y12176D02*
X5731D01*
X5553Y12215D02*
X5591Y12176D01*
X5616Y11973D02*
X5731D01*
X5489Y12100D02*
X5616Y11973D01*
X5489Y12100D02*
Y12215D01*
X6785Y10653D02*
X6813D01*
X6785Y10881D02*
X6988D01*
X6785Y11313D02*
X6810D01*
X6924Y11199D01*
X6785Y11084D02*
X6988D01*
X6924Y11199D02*
X7077D01*
X7191Y11313D01*
Y10653D02*
Y10678D01*
X6813Y10653D02*
X6927Y10767D01*
X7102D01*
X7191Y10678D01*
X5854Y10763D02*
X5972Y10881D01*
X5854Y10676D02*
Y10763D01*
X5821Y10644D02*
X5854Y10676D01*
X5711Y10644D02*
X5821D01*
X5669Y10686D02*
X5711Y10644D01*
X5690Y10594D02*
X5842D01*
X5901Y10653D01*
X5603Y10680D02*
X5690Y10594D01*
X5603Y10680D02*
Y10741D01*
X5667Y11224D02*
Y11295D01*
X5731Y11134D02*
Y11224D01*
X5604Y11008D02*
X5731Y11134D01*
X5451Y11338D02*
X5489D01*
X5603Y11224D01*
X5680Y10876D02*
Y10995D01*
X5794Y11110D01*
Y11224D01*
X5733Y10741D02*
Y10822D01*
X5680Y10876D02*
X5733Y10822D01*
X5799Y10741D02*
Y10936D01*
X5570Y10839D02*
X5637D01*
X5669Y10807D01*
X5451Y10907D02*
X5649D01*
X5680Y10876D01*
X7191Y10881D02*
Y10907D01*
X5388Y11872D02*
X5427Y11832D01*
Y11745D02*
Y11832D01*
X5007Y11872D02*
X5210D01*
X5388D01*
X5007Y12100D02*
X5210D01*
X5337D01*
X5557Y11880D01*
Y11745D02*
Y11880D01*
X5451Y10246D02*
Y10678D01*
X6312Y5791D02*
Y5867D01*
X8347Y10551D02*
Y10640D01*
X8436Y10729D01*
X9871Y12062D02*
Y12176D01*
X8195Y10997D02*
X8272D01*
X8145Y10947D02*
X8195Y10997D01*
X7585Y11757D02*
X7724D01*
X5055Y6617D02*
X5258Y6820D01*
X5550Y6744D02*
X5702D01*
X5055Y6591D02*
Y6617D01*
Y6591D02*
X5064Y6582D01*
X5258D01*
X6591Y6553D02*
Y6604D01*
X7950Y8560D02*
Y9195D01*
X7887Y9258D02*
X7950Y9195D01*
X5677Y6058D02*
X5778D01*
X7137Y8966D02*
Y8979D01*
Y8966D02*
X7391Y8712D01*
X9134Y11478D02*
X9172Y11516D01*
X9134Y11427D02*
X9198Y11491D01*
X9172Y11440D02*
Y11491D01*
Y11465D02*
X9198Y11491D01*
X9172Y11516D02*
X9198Y11491D01*
X8272Y10797D02*
X8468D01*
X8418Y10847D02*
X8468Y10797D01*
X8272Y10747D02*
X8454D01*
X8436Y10729D02*
X8454Y10747D01*
X8639Y10932D02*
X8969D01*
X9154Y10747D01*
Y10565D02*
Y10747D01*
X8601Y10881D02*
X8804D01*
X8904Y10781D01*
Y10565D02*
Y10781D01*
X8854Y10565D02*
Y10729D01*
X9104Y11443D02*
Y11680D01*
X8854Y11516D02*
Y11680D01*
Y11516D02*
X9116D01*
X8954Y11493D02*
Y11680D01*
Y11493D02*
X9154D01*
X8654Y11462D02*
Y11680D01*
Y11462D02*
X8690Y11427D01*
X9134D01*
X8604Y11487D02*
Y11680D01*
Y11487D02*
X8613Y11478D01*
X8583Y11447D02*
X8613Y11478D01*
X8779Y11376D02*
X9083D01*
X9198Y11491D01*
X5849Y11207D02*
Y11289D01*
X5817Y11321D02*
X5849Y11289D01*
X5765Y11321D02*
X5817D01*
X5731Y11288D02*
X5765Y11321D01*
X5731Y11224D02*
Y11288D01*
X5837Y11371D02*
X5896Y11313D01*
X5744Y11371D02*
X5837D01*
X5667Y11295D02*
X5744Y11371D01*
X7473Y11173D02*
X7686D01*
X7173Y10873D02*
X7473Y11173D01*
X7453Y11224D02*
X7674D01*
X7191Y11046D02*
X7276D01*
X7453Y11224D01*
X3683Y5245D02*
X3708D01*
X3848Y4762D02*
X3874Y4737D01*
X4953Y6033D02*
Y6058D01*
Y5194D02*
X4991D01*
X4902Y5448D02*
X4953D01*
Y6033D02*
X5055Y5931D01*
X4991Y5194D02*
Y5228D01*
X5055Y5918D02*
Y5931D01*
Y5918D02*
X5056Y5917D01*
X4991Y5228D02*
X5056Y5292D01*
Y5917D01*
X4033Y4248D02*
Y4274D01*
X3658Y4521D02*
X3756Y4423D01*
X4125Y4372D02*
X4222Y4274D01*
X3861Y4293D02*
X3940Y4372D01*
X4125D01*
X3756Y4423D02*
X4105D01*
X4128Y4445D01*
Y4540D01*
X5391Y4248D02*
Y4274D01*
X3683Y6210D02*
X3734Y6261D01*
D28*
X8141Y7175D02*
Y7290D01*
D29*
X3975Y9728D02*
X4089Y9843D01*
X3975Y8712D02*
Y9728D01*
X4648Y10084D02*
Y10249D01*
Y9982D02*
Y10084D01*
X4597Y9931D02*
X4648Y9982D01*
X3975Y8712D02*
X4051D01*
X3886D02*
X3975D01*
D30*
X3747Y12217D02*
Y12573D01*
X3975Y10541D02*
X4026Y10490D01*
X4813D01*
X5055D02*
X5350D01*
X4813D02*
X5055D01*
X4026Y11493D02*
X4801D01*
X3962Y11430D02*
X4026Y11493D01*
X3962Y10554D02*
Y11430D01*
X5550Y10490D02*
X7315D01*
X7366Y10541D01*
Y10909D01*
X5064Y11493D02*
X7303D01*
X7353Y11443D01*
Y11265D02*
Y11443D01*
D31*
X3912Y6033D02*
Y6058D01*
Y6033D02*
X4001Y5944D01*
X3874Y5829D02*
X3912D01*
X3708Y5664D02*
X3874Y5829D01*
X4001Y5944D02*
X4635D01*
X4750Y5829D01*
X4077Y5302D02*
X4191Y5188D01*
X4077Y5302D02*
Y5474D01*
X3962Y5588D02*
X4077Y5474D01*
X4318Y6058D02*
X4521D01*
X4115D02*
X4318D01*
X3886Y4724D02*
X4064D01*
X4267Y4953D02*
X4470D01*
X4204Y5182D02*
X4343Y5321D01*
X4064Y4724D02*
X4267D01*
X4254Y5448D02*
X4384D01*
X4191Y5385D02*
Y5588D01*
X4384Y5194D02*
X4470Y5108D01*
Y4953D02*
Y5108D01*
X4877Y4724D02*
X5080D01*
X4674D02*
X4877D01*
X4318Y5829D02*
X4521D01*
X4115D02*
X4318D01*
X4826Y5004D02*
Y5258D01*
X4890Y5321D01*
X4877Y4953D02*
X5080D01*
X4674D02*
X4877D01*
X4064D02*
X4267D01*
X4750Y6058D02*
X4953D01*
X4750Y5829D02*
X4953D01*
Y5575D02*
Y5829D01*
X3543Y4881D02*
X3645Y4780D01*
X3543Y4881D02*
Y5105D01*
X3683Y5245D01*
X3708Y5499D02*
Y5664D01*
X4521Y5829D02*
X4902Y5448D01*
D32*
X10005Y9967D02*
Y10442D01*
X9947Y10500D02*
X10005Y10442D01*
X9906Y9868D02*
X10005Y9967D01*
X7980Y9868D02*
X9906D01*
X7839Y10010D02*
X7980Y9868D01*
D33*
X7839Y10010D02*
Y10030D01*
D34*
X4470Y12141D02*
X4585Y12027D01*
Y11900D02*
Y12027D01*
D35*
X5956Y4521D02*
X6160D01*
X5753D02*
X5956Y4318D01*
X5581Y4540D02*
X5735D01*
X4597Y4521D02*
X4674Y4597D01*
Y4724D01*
X4597Y4521D02*
X4801D01*
X4394D02*
X4597Y4318D01*
X4222Y4540D02*
X4376D01*
X3861Y4521D02*
X4014D01*
X4305Y5702D02*
X4384Y5624D01*
Y5575D02*
Y5624D01*
X3859Y4752D02*
Y5675D01*
X3886Y5702D01*
X4305D01*
X3859Y4752D02*
X3899Y4712D01*
X3761Y4189D02*
X3973D01*
X3658Y4293D02*
X3761Y4189D01*
X3973D02*
X4033Y4248D01*
X4498Y4189D02*
X4697D01*
X4394Y4293D02*
X4498Y4189D01*
X4697D02*
X4801Y4293D01*
X5017D02*
X5120Y4189D01*
X5332D01*
X5391Y4248D01*
X5857Y4189D02*
X6056D01*
X5753Y4293D02*
X5857Y4189D01*
X6056D02*
X6160Y4293D01*
D36*
X4384Y5448D02*
X4521D01*
X4572Y5397D01*
Y4826D02*
Y5397D01*
Y4826D02*
X4674Y4724D01*
D37*
X3734Y6236D02*
X3899D01*
D38*
X3721Y12586D02*
D03*
X9868D02*
D03*
Y3874D02*
D03*
X3721D02*
D03*
D39*
X8867Y7034D02*
D03*
X8867Y4534D02*
D03*
X4735Y9296D02*
D03*
X4735Y6797D02*
D03*
D40*
X9009Y6198D02*
D03*
X8725Y5228D02*
D03*
X9009Y5366D02*
D03*
Y5643D02*
D03*
X8725Y5505D02*
D03*
Y5783D02*
D03*
Y6060D02*
D03*
X9009Y5920D02*
D03*
X4593Y7910D02*
D03*
X4877Y7770D02*
D03*
Y8048D02*
D03*
Y8325D02*
D03*
X4593Y8187D02*
D03*
Y8465D02*
D03*
X4877Y8602D02*
D03*
X4593Y7633D02*
D03*
D41*
X8725Y6337D02*
D03*
X4877Y7493D02*
D03*
D42*
X4216Y12141D02*
D03*
D43*
X4470D02*
D03*
X4724D02*
D03*
D44*
X8382Y9169D02*
D03*
X8636D02*
D03*
X8890D02*
D03*
X9144D02*
D03*
X9398D02*
D03*
X9652D02*
D03*
X3708Y5499D02*
D03*
Y5245D02*
D03*
X3696Y9804D02*
D03*
D45*
X9906Y9169D02*
D03*
D46*
X3708Y4991D02*
D03*
X3696Y10058D02*
D03*
D47*
X5070Y11122D02*
D03*
X4943Y10995D02*
D03*
X5070Y10868D02*
D03*
D48*
X9144Y10795D02*
D03*
X9004Y10947D02*
D03*
X8504Y10793D02*
D03*
X8661Y10935D02*
D03*
X5740Y6540D02*
D03*
X8446Y6985D02*
D03*
X8204Y7175D02*
D03*
X7988Y7188D02*
D03*
X5817Y7010D02*
D03*
X4254Y10274D02*
D03*
X3747Y11989D02*
D03*
X8217Y6896D02*
D03*
Y6718D02*
D03*
X9262Y9668D02*
D03*
X9897Y9655D02*
D03*
Y9427D02*
D03*
X9947Y10500D02*
D03*
X3962Y8052D02*
D03*
X3734Y8255D02*
D03*
X4648Y9919D02*
D03*
Y10084D02*
D03*
X8865Y10058D02*
D03*
X4801Y11493D02*
D03*
X4597D02*
D03*
X4369D02*
D03*
X4140D02*
D03*
X3962Y11354D02*
D03*
Y11112D02*
D03*
Y10846D02*
D03*
Y10617D02*
D03*
X4140Y10490D02*
D03*
X4381D02*
D03*
X7772Y8776D02*
D03*
X8039Y6058D02*
D03*
X6769Y9474D02*
D03*
X7283Y9550D02*
D03*
X5017Y4521D02*
D03*
X3658D02*
D03*
X4115Y5829D02*
D03*
X5372Y6058D02*
D03*
X6655Y6033D02*
D03*
X7087Y6058D02*
D03*
X8230Y4724D02*
D03*
Y4953D02*
D03*
X5753Y4293D02*
D03*
X5017D02*
D03*
X4394D02*
D03*
X3658D02*
D03*
X4115Y6058D02*
D03*
X4470Y4724D02*
D03*
X5080Y4953D02*
D03*
X5169Y5397D02*
D03*
X5931Y5474D02*
D03*
X5164Y6060D02*
D03*
X6985Y5814D02*
D03*
X8230Y5524D02*
D03*
X6960Y4724D02*
D03*
X6350D02*
D03*
X6160Y4521D02*
D03*
X6147Y4953D02*
D03*
X5715Y5474D02*
D03*
X7683Y5702D02*
D03*
X6134Y6007D02*
D03*
X6287Y5791D02*
D03*
X6452D02*
D03*
X7887Y5740D02*
D03*
X7811Y5588D02*
D03*
X7518Y5677D02*
D03*
X7303Y5626D02*
D03*
X7722Y5144D02*
D03*
X5007Y11872D02*
D03*
X5858Y10018D02*
D03*
X6950D02*
D03*
Y10246D02*
D03*
X7712Y10233D02*
D03*
X7547Y11072D02*
D03*
X7864Y12189D02*
D03*
X6391Y12176D02*
D03*
X5959Y11745D02*
D03*
X5007Y12100D02*
D03*
X5451Y11338D02*
D03*
X9982Y10808D02*
D03*
X7839Y10030D02*
D03*
X9426Y12189D02*
D03*
Y11961D02*
D03*
X9871Y12062D02*
D03*
X9020Y12189D02*
D03*
X8474D02*
D03*
X9871Y11745D02*
D03*
X7724Y11757D02*
D03*
X7547Y11326D02*
D03*
X7712Y10462D02*
D03*
X7242Y11757D02*
D03*
X5451Y11110D02*
D03*
X6988Y11313D02*
D03*
Y10653D02*
D03*
X5799Y10936D02*
D03*
X5651Y9538D02*
D03*
X5639Y8903D02*
D03*
X6464Y7214D02*
D03*
X5740Y6706D02*
D03*
X5994Y7112D02*
D03*
X6490Y6198D02*
D03*
X6109Y6210D02*
D03*
X6414Y7379D02*
D03*
X7099Y7671D02*
D03*
X6617Y7658D02*
D03*
X6591Y6553D02*
D03*
X8039Y7772D02*
D03*
X5347Y7747D02*
D03*
X6134Y8750D02*
D03*
X5855Y8687D02*
D03*
X8344Y8192D02*
D03*
X7391Y8484D02*
D03*
X6566Y8738D02*
D03*
X5855Y8458D02*
D03*
X6134Y8522D02*
D03*
X5347Y7976D02*
D03*
X5524Y7315D02*
D03*
X6820Y6553D02*
D03*
X8039Y7544D02*
D03*
X8344Y7582D02*
D03*
X7633Y7112D02*
D03*
X7087Y6553D02*
D03*
X7315D02*
D03*
X7722Y6706D02*
D03*
X7887Y6756D02*
D03*
X7391Y8712D02*
D03*
X7061Y8560D02*
D03*
X5004Y9817D02*
D03*
Y10033D02*
D03*
X3886Y8712D02*
D03*
X4051D02*
D03*
X3734Y7849D02*
D03*
X3747Y7569D02*
D03*
X3785Y6617D02*
D03*
X4166D02*
D03*
X3785Y7303D02*
D03*
X4166D02*
D03*
X3785Y6960D02*
D03*
X4166D02*
D03*
X3962Y6782D02*
D03*
X7912Y6553D02*
D03*
X8572Y8484D02*
D03*
X7595Y9957D02*
D03*
X5055Y6591D02*
D03*
X7887Y9258D02*
D03*
X5677Y6058D02*
D03*
X4394Y9423D02*
D03*
Y7899D02*
D03*
Y8611D02*
D03*
Y8865D02*
D03*
Y9106D02*
D03*
Y6477D02*
D03*
Y8141D02*
D03*
Y7506D02*
D03*
Y7252D02*
D03*
Y6998D02*
D03*
X4648Y10249D02*
D03*
X8496Y11455D02*
D03*
X8500Y11097D02*
D03*
X8839Y11125D02*
D03*
Y11455D02*
D03*
X9144Y11112D02*
D03*
X9004Y11278D02*
D03*
X8661Y11290D02*
D03*
X9157Y11450D02*
D03*
X8852Y10795D02*
D03*
X6756Y7188D02*
D03*
X5588Y10490D02*
D03*
X5842D02*
D03*
X6109D02*
D03*
X6363D02*
D03*
X6655D02*
D03*
X6921D02*
D03*
X7188D02*
D03*
X7366Y10884D02*
D03*
Y10643D02*
D03*
X5588Y11493D02*
D03*
X5321D02*
D03*
X5080D02*
D03*
X5855D02*
D03*
X6109D02*
D03*
X6375D02*
D03*
X6642D02*
D03*
X6909D02*
D03*
X7175D02*
D03*
X7353Y11303D02*
D03*
X5283Y10490D02*
D03*
X5055D02*
D03*
X4813D02*
D03*
X4610D02*
D03*
X3975Y5182D02*
D03*
Y7125D02*
D03*
X3912Y6261D02*
D03*
X4140D02*
D03*
X3683Y5867D02*
D03*
Y6210D02*
D03*
D49*
X9566Y10919D02*
D03*
Y11059D02*
D03*
Y11199D02*
D03*
Y11338D02*
D03*
Y11478D02*
D03*
X8906Y11834D02*
D03*
X7175Y9131D02*
D03*
D50*
X4432Y11316D02*
D03*
Y10668D02*
D03*
M02*
